<?xml version="1.0" encoding="UTF-8" standalone="no"?>
<!DOCTYPE svg PUBLIC "-//W3C//DTD SVG 1.1//EN"
 "http://www.w3.org/Graphics/SVG/1.1/DTD/svg11.dtd">
<!-- Generated by graphviz version 2.40.1 (20161225.0304)
 -->
<!-- Title: compactRelationshipsDiagram Pages: 1 -->
<svg width="1354pt" height="826pt"
 viewBox="0.00 0.00 1354.00 826.20" xmlns="http://www.w3.org/2000/svg" xmlns:xlink="http://www.w3.org/1999/xlink">
<g id="graph0" class="graph" transform="scale(1 1) rotate(0) translate(4 822.2)">
<title>compactRelationshipsDiagram</title>
<polygon fill="#ffffff" stroke="transparent" points="-4,4 -4,-822.2 1350,-822.2 1350,4 -4,4"/>
<text text-anchor="middle" x="72.4936" y="-7.3" font-family="Helvetica,sans-Serif" font-size="11.00" fill="#000000">Generated by SchemaSpy</text>
<!-- currency -->
<g id="node1" class="node">
<title>currency</title>
<g id="a_node1"><a xlink:href="../../tables/currency.html" xlink:title="currency" target="_top">
<polygon fill="#ffffff" stroke="transparent" points="8,-38.2 8,-165.2 136,-165.2 136,-38.2 8,-38.2"/>
<polygon fill="#f5f5f5" stroke="transparent" points="8,-141.7 8,-164.7 136,-164.7 136,-141.7 8,-141.7"/>
<polygon fill="none" stroke="#000000" points="8,-141.7 8,-164.7 136,-164.7 136,-141.7 8,-141.7"/>
<text text-anchor="start" x="13" y="-150.3" font-family="Helvetica,sans-Serif" font-weight="bold" font-size="11.00" fill="#000000">currency</text>
<text text-anchor="start" x="101.0437" y="-149.8" font-family="Helvetica,sans-Serif" font-size="11.00" fill="#000000">[table]</text>
<polygon fill="none" stroke="#000000" points="8,-119.7 8,-141.7 136,-141.7 136,-119.7 8,-119.7"/>
<image xlink:href="../../images/primaryKeys.png" width="11px" height="12px" preserveAspectRatio="xMinYMin meet" x="13" y="-136.7"/>
<text text-anchor="start" x="28" y="-126.8" font-family="Helvetica,sans-Serif" font-size="11.00" fill="#000000">id</text>
<polygon fill="#ffffff" stroke="transparent" points="8,-97.7 8,-119.7 136,-119.7 136,-97.7 8,-97.7"/>
<polygon fill="none" stroke="#000000" points="8,-97.7 8,-119.7 136,-119.7 136,-97.7 8,-97.7"/>
<text text-anchor="start" x="28" y="-104.8" font-family="Helvetica,sans-Serif" font-size="11.00" fill="#000000">iso</text>
<polygon fill="#ffffff" stroke="transparent" points="8,-75.7 8,-97.7 136,-97.7 136,-75.7 8,-75.7"/>
<polygon fill="none" stroke="#000000" points="8,-75.7 8,-97.7 136,-97.7 136,-75.7 8,-75.7"/>
<text text-anchor="start" x="28" y="-82.8" font-family="Helvetica,sans-Serif" font-size="11.00" fill="#000000">symbol</text>
<polygon fill="none" stroke="#000000" points="8,-56.7 8,-75.7 136,-75.7 136,-56.7 8,-56.7"/>
<text text-anchor="start" x="11" y="-62.8" font-family="Helvetica,sans-Serif" font-size="11.00" fill="#000000">...</text>
<polygon fill="#ffffff" stroke="transparent" points="8,-37.7 8,-56.7 61,-56.7 61,-37.7 8,-37.7"/>
<polygon fill="none" stroke="#000000" points="8,-37.7 8,-56.7 61,-56.7 61,-37.7 8,-37.7"/>
<text text-anchor="start" x="11" y="-43.8" font-family="Helvetica,sans-Serif" font-size="11.00" fill="#000000"> &#160;</text>
<polygon fill="#ffffff" stroke="transparent" points="61,-37.7 61,-56.7 94,-56.7 94,-37.7 61,-37.7"/>
<polygon fill="none" stroke="#000000" points="61,-37.7 61,-56.7 94,-56.7 94,-37.7 61,-37.7"/>
<text text-anchor="start" x="84.8862" y="-43.8" font-family="Helvetica,sans-Serif" font-size="11.00" fill="#000000"> &#160;</text>
<polygon fill="#ffffff" stroke="transparent" points="94,-37.7 94,-56.7 136,-56.7 136,-37.7 94,-37.7"/>
<polygon fill="none" stroke="#000000" points="94,-37.7 94,-56.7 136,-56.7 136,-37.7 94,-37.7"/>
<text text-anchor="start" x="117.4053" y="-43.8" font-family="Helvetica,sans-Serif" font-size="11.00" fill="#000000">1 &gt;</text>
</a>
</g>
</g>
<!-- fleet -->
<g id="node2" class="node">
<title>fleet</title>
<g id="a_node2"><a xlink:href="../../tables/fleet.html" xlink:title="fleet" target="_top">
<polygon fill="#ffffff" stroke="transparent" points="806.5,-621.2 806.5,-814.2 934.5,-814.2 934.5,-621.2 806.5,-621.2"/>
<polygon fill="#f5f5f5" stroke="transparent" points="806.5,-790.7 806.5,-813.7 934.5,-813.7 934.5,-790.7 806.5,-790.7"/>
<polygon fill="none" stroke="#000000" points="806.5,-790.7 806.5,-813.7 934.5,-813.7 934.5,-790.7 806.5,-790.7"/>
<text text-anchor="start" x="811.5" y="-799.3" font-family="Helvetica,sans-Serif" font-weight="bold" font-size="11.00" fill="#000000">fleet</text>
<text text-anchor="start" x="899.5437" y="-798.8" font-family="Helvetica,sans-Serif" font-size="11.00" fill="#000000">[table]</text>
<polygon fill="none" stroke="#000000" points="806.5,-768.7 806.5,-790.7 934.5,-790.7 934.5,-768.7 806.5,-768.7"/>
<image xlink:href="../../images/primaryKeys.png" width="11px" height="12px" preserveAspectRatio="xMinYMin meet" x="811.5" y="-785.7"/>
<text text-anchor="start" x="826.5" y="-775.8" font-family="Helvetica,sans-Serif" font-size="11.00" fill="#000000">id</text>
<polygon fill="#ffffff" stroke="transparent" points="806.5,-746.7 806.5,-768.7 934.5,-768.7 934.5,-746.7 806.5,-746.7"/>
<polygon fill="none" stroke="#000000" points="806.5,-746.7 806.5,-768.7 934.5,-768.7 934.5,-746.7 806.5,-746.7"/>
<text text-anchor="start" x="826.5" y="-753.8" font-family="Helvetica,sans-Serif" font-size="11.00" fill="#000000">name</text>
<polygon fill="#ffffff" stroke="transparent" points="806.5,-724.7 806.5,-746.7 934.5,-746.7 934.5,-724.7 806.5,-724.7"/>
<polygon fill="none" stroke="#000000" points="806.5,-724.7 806.5,-746.7 934.5,-746.7 934.5,-724.7 806.5,-724.7"/>
<text text-anchor="start" x="826.5" y="-731.8" font-family="Helvetica,sans-Serif" font-size="11.00" fill="#000000">iso2</text>
<polygon fill="#ffffff" stroke="transparent" points="806.5,-702.7 806.5,-724.7 934.5,-724.7 934.5,-702.7 806.5,-702.7"/>
<polygon fill="none" stroke="#000000" points="806.5,-702.7 806.5,-724.7 934.5,-724.7 934.5,-702.7 806.5,-702.7"/>
<text text-anchor="start" x="826.5" y="-709.8" font-family="Helvetica,sans-Serif" font-size="11.00" fill="#000000">iso3</text>
<polygon fill="#ffffff" stroke="transparent" points="806.5,-680.7 806.5,-702.7 934.5,-702.7 934.5,-680.7 806.5,-680.7"/>
<polygon fill="none" stroke="#000000" points="806.5,-680.7 806.5,-702.7 934.5,-702.7 934.5,-680.7 806.5,-680.7"/>
<text text-anchor="start" x="826.5" y="-687.8" font-family="Helvetica,sans-Serif" font-size="11.00" fill="#000000">call_sign</text>
<polygon fill="#ffffff" stroke="transparent" points="806.5,-658.7 806.5,-680.7 934.5,-680.7 934.5,-658.7 806.5,-658.7"/>
<polygon fill="none" stroke="#000000" points="806.5,-658.7 806.5,-680.7 934.5,-680.7 934.5,-658.7 806.5,-658.7"/>
<image xlink:href="../../images/foreignKeys.png" width="11px" height="12px" preserveAspectRatio="xMinYMin meet" x="811.5" y="-675.7"/>
<text text-anchor="start" x="826.5" y="-665.8" font-family="Helvetica,sans-Serif" font-size="11.00" fill="#000000">hub_airport_id</text>
<polygon fill="none" stroke="#000000" points="806.5,-639.7 806.5,-658.7 934.5,-658.7 934.5,-639.7 806.5,-639.7"/>
<text text-anchor="start" x="809.5" y="-645.8" font-family="Helvetica,sans-Serif" font-size="11.00" fill="#000000">...</text>
<polygon fill="#ffffff" stroke="transparent" points="806.5,-620.7 806.5,-639.7 864.5,-639.7 864.5,-620.7 806.5,-620.7"/>
<polygon fill="none" stroke="#000000" points="806.5,-620.7 806.5,-639.7 864.5,-639.7 864.5,-620.7 806.5,-620.7"/>
<text text-anchor="start" x="809.5" y="-626.8" font-family="Helvetica,sans-Serif" font-size="11.00" fill="#000000">&lt; 1</text>
<polygon fill="#ffffff" stroke="transparent" points="864.5,-620.7 864.5,-639.7 894.5,-639.7 894.5,-620.7 864.5,-620.7"/>
<polygon fill="none" stroke="#000000" points="864.5,-620.7 864.5,-639.7 894.5,-639.7 894.5,-620.7 864.5,-620.7"/>
<text text-anchor="start" x="885.3862" y="-626.8" font-family="Helvetica,sans-Serif" font-size="11.00" fill="#000000"> &#160;</text>
<polygon fill="#ffffff" stroke="transparent" points="894.5,-620.7 894.5,-639.7 934.5,-639.7 934.5,-620.7 894.5,-620.7"/>
<polygon fill="none" stroke="#000000" points="894.5,-620.7 894.5,-639.7 934.5,-639.7 934.5,-620.7 894.5,-620.7"/>
<text text-anchor="start" x="915.9053" y="-626.8" font-family="Helvetica,sans-Serif" font-size="11.00" fill="#000000">1 &gt;</text>
</a>
</g>
</g>
<!-- airport -->
<g id="node5" class="node">
<title>airport</title>
<g id="a_node5"><a xlink:href="../../tables/airport.html" xlink:title="airport" target="_top">
<polygon fill="#ffffff" stroke="transparent" points="589,-299.2 589,-470.2 752,-470.2 752,-299.2 589,-299.2"/>
<polygon fill="#f5f5f5" stroke="transparent" points="589.5,-446.7 589.5,-469.7 752.5,-469.7 752.5,-446.7 589.5,-446.7"/>
<polygon fill="none" stroke="#000000" points="589.5,-446.7 589.5,-469.7 752.5,-469.7 752.5,-446.7 589.5,-446.7"/>
<text text-anchor="start" x="594.5" y="-455.3" font-family="Helvetica,sans-Serif" font-weight="bold" font-size="11.00" fill="#000000">airport</text>
<text text-anchor="start" x="717.5437" y="-454.8" font-family="Helvetica,sans-Serif" font-size="11.00" fill="#000000">[table]</text>
<polygon fill="none" stroke="#000000" points="589.5,-424.7 589.5,-446.7 752.5,-446.7 752.5,-424.7 589.5,-424.7"/>
<image xlink:href="../../images/primaryKeys.png" width="11px" height="12px" preserveAspectRatio="xMinYMin meet" x="594.5" y="-441.7"/>
<text text-anchor="start" x="609.5" y="-431.8" font-family="Helvetica,sans-Serif" font-size="11.00" fill="#000000">id</text>
<polygon fill="#ffffff" stroke="transparent" points="589.5,-402.7 589.5,-424.7 752.5,-424.7 752.5,-402.7 589.5,-402.7"/>
<polygon fill="none" stroke="#000000" points="589.5,-402.7 589.5,-424.7 752.5,-424.7 752.5,-402.7 589.5,-402.7"/>
<text text-anchor="start" x="609.5" y="-409.8" font-family="Helvetica,sans-Serif" font-size="11.00" fill="#000000">name</text>
<polygon fill="#ffffff" stroke="transparent" points="589.5,-380.7 589.5,-402.7 752.5,-402.7 752.5,-380.7 589.5,-380.7"/>
<polygon fill="none" stroke="#000000" points="589.5,-380.7 589.5,-402.7 752.5,-402.7 752.5,-380.7 589.5,-380.7"/>
<text text-anchor="start" x="609.5" y="-387.8" font-family="Helvetica,sans-Serif" font-size="11.00" fill="#000000">icao</text>
<polygon fill="#ffffff" stroke="transparent" points="589.5,-358.7 589.5,-380.7 752.5,-380.7 752.5,-358.7 589.5,-358.7"/>
<polygon fill="none" stroke="#000000" points="589.5,-358.7 589.5,-380.7 752.5,-380.7 752.5,-358.7 589.5,-358.7"/>
<text text-anchor="start" x="609.5" y="-365.8" font-family="Helvetica,sans-Serif" font-size="11.00" fill="#000000">iata</text>
<polygon fill="#ffffff" stroke="transparent" points="589.5,-336.7 589.5,-358.7 752.5,-358.7 752.5,-336.7 589.5,-336.7"/>
<polygon fill="none" stroke="#000000" points="589.5,-336.7 589.5,-358.7 752.5,-358.7 752.5,-336.7 589.5,-336.7"/>
<image xlink:href="../../images/foreignKeys.png" width="11px" height="12px" preserveAspectRatio="xMinYMin meet" x="594.5" y="-353.7"/>
<text text-anchor="start" x="609.5" y="-343.8" font-family="Helvetica,sans-Serif" font-size="11.00" fill="#000000">city_id</text>
<polygon fill="none" stroke="#000000" points="589.5,-317.7 589.5,-336.7 752.5,-336.7 752.5,-317.7 589.5,-317.7"/>
<text text-anchor="start" x="592.5" y="-323.8" font-family="Helvetica,sans-Serif" font-size="11.00" fill="#000000">...</text>
<polygon fill="#ffffff" stroke="transparent" points="589.5,-298.7 589.5,-317.7 664.5,-317.7 664.5,-298.7 589.5,-298.7"/>
<polygon fill="none" stroke="#000000" points="589.5,-298.7 589.5,-317.7 664.5,-317.7 664.5,-298.7 589.5,-298.7"/>
<text text-anchor="start" x="592.5" y="-304.8" font-family="Helvetica,sans-Serif" font-size="11.00" fill="#000000">&lt; 1</text>
<polygon fill="#ffffff" stroke="transparent" points="664.5,-298.7 664.5,-317.7 703.5,-317.7 703.5,-298.7 664.5,-298.7"/>
<polygon fill="none" stroke="#000000" points="664.5,-298.7 664.5,-317.7 703.5,-317.7 703.5,-298.7 664.5,-298.7"/>
<text text-anchor="start" x="694.3862" y="-304.8" font-family="Helvetica,sans-Serif" font-size="11.00" fill="#000000"> &#160;</text>
<polygon fill="#ffffff" stroke="transparent" points="703.5,-298.7 703.5,-317.7 752.5,-317.7 752.5,-298.7 703.5,-298.7"/>
<polygon fill="none" stroke="#000000" points="703.5,-298.7 703.5,-317.7 752.5,-317.7 752.5,-298.7 703.5,-298.7"/>
<text text-anchor="start" x="733.9053" y="-304.8" font-family="Helvetica,sans-Serif" font-size="11.00" fill="#000000">3 &gt;</text>
</a>
</g>
</g>
<!-- fleet&#45;&gt;airport -->
<g id="edge8" class="edge">
<title>fleet:w&#45;&gt;airport:e</title>
<path fill="none" stroke="#000000" d="M791.7572,-667.8164C715.8452,-645.671 853.6048,-435.7 752.5,-435.7"/>
<polygon fill="#000000" stroke="#000000" points="798.5645,-668.6861 806.0437,-673.271 802.5323,-669.193 806.5,-669.7 806.5,-669.7 806.5,-669.7 802.5323,-669.193 806.9563,-666.129 798.5645,-668.6861 798.5645,-668.6861"/>
<ellipse fill="none" stroke="#000000" cx="795.3903" cy="-668.2805" rx="3.2" ry="3.2"/>
</g>
<!-- language -->
<g id="node3" class="node">
<title>language</title>
<g id="a_node3"><a xlink:href="../../tables/language.html" xlink:title="language" target="_top">
<polygon fill="#ffffff" stroke="transparent" points="8,-186.2 8,-313.2 136,-313.2 136,-186.2 8,-186.2"/>
<polygon fill="#f5f5f5" stroke="transparent" points="8,-289.7 8,-312.7 136,-312.7 136,-289.7 8,-289.7"/>
<polygon fill="none" stroke="#000000" points="8,-289.7 8,-312.7 136,-312.7 136,-289.7 8,-289.7"/>
<text text-anchor="start" x="13" y="-298.3" font-family="Helvetica,sans-Serif" font-weight="bold" font-size="11.00" fill="#000000">language</text>
<text text-anchor="start" x="101.0437" y="-297.8" font-family="Helvetica,sans-Serif" font-size="11.00" fill="#000000">[table]</text>
<polygon fill="none" stroke="#000000" points="8,-267.7 8,-289.7 136,-289.7 136,-267.7 8,-267.7"/>
<image xlink:href="../../images/primaryKeys.png" width="11px" height="12px" preserveAspectRatio="xMinYMin meet" x="13" y="-284.7"/>
<text text-anchor="start" x="28" y="-274.8" font-family="Helvetica,sans-Serif" font-size="11.00" fill="#000000">id</text>
<polygon fill="#ffffff" stroke="transparent" points="8,-245.7 8,-267.7 136,-267.7 136,-245.7 8,-245.7"/>
<polygon fill="none" stroke="#000000" points="8,-245.7 8,-267.7 136,-267.7 136,-245.7 8,-245.7"/>
<text text-anchor="start" x="28" y="-252.8" font-family="Helvetica,sans-Serif" font-size="11.00" fill="#000000">iso2</text>
<polygon fill="#ffffff" stroke="transparent" points="8,-223.7 8,-245.7 136,-245.7 136,-223.7 8,-223.7"/>
<polygon fill="none" stroke="#000000" points="8,-223.7 8,-245.7 136,-245.7 136,-223.7 8,-223.7"/>
<text text-anchor="start" x="28" y="-230.8" font-family="Helvetica,sans-Serif" font-size="11.00" fill="#000000">iso3</text>
<polygon fill="none" stroke="#000000" points="8,-204.7 8,-223.7 136,-223.7 136,-204.7 8,-204.7"/>
<text text-anchor="start" x="11" y="-210.8" font-family="Helvetica,sans-Serif" font-size="11.00" fill="#000000">...</text>
<polygon fill="#ffffff" stroke="transparent" points="8,-185.7 8,-204.7 61,-204.7 61,-185.7 8,-185.7"/>
<polygon fill="none" stroke="#000000" points="8,-185.7 8,-204.7 61,-204.7 61,-185.7 8,-185.7"/>
<text text-anchor="start" x="11" y="-191.8" font-family="Helvetica,sans-Serif" font-size="11.00" fill="#000000"> &#160;</text>
<polygon fill="#ffffff" stroke="transparent" points="61,-185.7 61,-204.7 94,-204.7 94,-185.7 61,-185.7"/>
<polygon fill="none" stroke="#000000" points="61,-185.7 61,-204.7 94,-204.7 94,-185.7 61,-185.7"/>
<text text-anchor="start" x="84.8862" y="-191.8" font-family="Helvetica,sans-Serif" font-size="11.00" fill="#000000"> &#160;</text>
<polygon fill="#ffffff" stroke="transparent" points="94,-185.7 94,-204.7 136,-204.7 136,-185.7 94,-185.7"/>
<polygon fill="none" stroke="#000000" points="94,-185.7 94,-204.7 136,-204.7 136,-185.7 94,-185.7"/>
<text text-anchor="start" x="117.4053" y="-191.8" font-family="Helvetica,sans-Serif" font-size="11.00" fill="#000000">3 &gt;</text>
</a>
</g>
</g>
<!-- fleet_route -->
<g id="node4" class="node">
<title>fleet_route</title>
<g id="a_node4"><a xlink:href="../../tables/fleet_route.html" xlink:title="fleet_route" target="_top">
<polygon fill="#ffffff" stroke="transparent" points="1169,-378.2 1169,-549.2 1338,-549.2 1338,-378.2 1169,-378.2"/>
<polygon fill="#f5f5f5" stroke="transparent" points="1169.5,-525.7 1169.5,-548.7 1338.5,-548.7 1338.5,-525.7 1169.5,-525.7"/>
<polygon fill="none" stroke="#000000" points="1169.5,-525.7 1169.5,-548.7 1338.5,-548.7 1338.5,-525.7 1169.5,-525.7"/>
<text text-anchor="start" x="1174.5" y="-534.3" font-family="Helvetica,sans-Serif" font-weight="bold" font-size="11.00" fill="#000000">fleet_route</text>
<text text-anchor="start" x="1303.5437" y="-533.8" font-family="Helvetica,sans-Serif" font-size="11.00" fill="#000000">[table]</text>
<polygon fill="none" stroke="#000000" points="1169.5,-503.7 1169.5,-525.7 1338.5,-525.7 1338.5,-503.7 1169.5,-503.7"/>
<image xlink:href="../../images/primaryKeys.png" width="11px" height="12px" preserveAspectRatio="xMinYMin meet" x="1174.5" y="-520.7"/>
<text text-anchor="start" x="1189.5" y="-510.8" font-family="Helvetica,sans-Serif" font-size="11.00" fill="#000000">id</text>
<polygon fill="none" stroke="#000000" points="1169.5,-481.7 1169.5,-503.7 1338.5,-503.7 1338.5,-481.7 1169.5,-481.7"/>
<image xlink:href="../../images/foreignKeys.png" width="11px" height="12px" preserveAspectRatio="xMinYMin meet" x="1174.5" y="-498.7"/>
<text text-anchor="start" x="1189.5" y="-488.8" font-family="Helvetica,sans-Serif" font-size="11.00" fill="#000000">fleet_airplane_id</text>
<polygon fill="#ffffff" stroke="transparent" points="1169.5,-459.7 1169.5,-481.7 1338.5,-481.7 1338.5,-459.7 1169.5,-459.7"/>
<polygon fill="none" stroke="#000000" points="1169.5,-459.7 1169.5,-481.7 1338.5,-481.7 1338.5,-459.7 1169.5,-459.7"/>
<text text-anchor="start" x="1189.5" y="-466.8" font-family="Helvetica,sans-Serif" font-size="11.00" fill="#000000">route_number</text>
<polygon fill="#ffffff" stroke="transparent" points="1169.5,-437.7 1169.5,-459.7 1338.5,-459.7 1338.5,-437.7 1169.5,-437.7"/>
<polygon fill="none" stroke="#000000" points="1169.5,-437.7 1169.5,-459.7 1338.5,-459.7 1338.5,-437.7 1169.5,-437.7"/>
<image xlink:href="../../images/foreignKeys.png" width="11px" height="12px" preserveAspectRatio="xMinYMin meet" x="1174.5" y="-454.7"/>
<text text-anchor="start" x="1189.5" y="-444.8" font-family="Helvetica,sans-Serif" font-size="11.00" fill="#000000">start_airport_id</text>
<polygon fill="#ffffff" stroke="transparent" points="1169.5,-415.7 1169.5,-437.7 1338.5,-437.7 1338.5,-415.7 1169.5,-415.7"/>
<polygon fill="none" stroke="#000000" points="1169.5,-415.7 1169.5,-437.7 1338.5,-437.7 1338.5,-415.7 1169.5,-415.7"/>
<image xlink:href="../../images/foreignKeys.png" width="11px" height="12px" preserveAspectRatio="xMinYMin meet" x="1174.5" y="-432.7"/>
<text text-anchor="start" x="1189.5" y="-422.8" font-family="Helvetica,sans-Serif" font-size="11.00" fill="#000000">destination_airport_id</text>
<polygon fill="none" stroke="#000000" points="1169.5,-396.7 1169.5,-415.7 1338.5,-415.7 1338.5,-396.7 1169.5,-396.7"/>
<text text-anchor="start" x="1172.5" y="-402.8" font-family="Helvetica,sans-Serif" font-size="11.00" fill="#000000">...</text>
<polygon fill="#ffffff" stroke="transparent" points="1169.5,-377.7 1169.5,-396.7 1252.5,-396.7 1252.5,-377.7 1169.5,-377.7"/>
<polygon fill="none" stroke="#000000" points="1169.5,-377.7 1169.5,-396.7 1252.5,-396.7 1252.5,-377.7 1169.5,-377.7"/>
<text text-anchor="start" x="1172.5" y="-383.8" font-family="Helvetica,sans-Serif" font-size="11.00" fill="#000000">&lt; 3</text>
<polygon fill="#ffffff" stroke="transparent" points="1252.5,-377.7 1252.5,-396.7 1295.5,-396.7 1295.5,-377.7 1252.5,-377.7"/>
<polygon fill="none" stroke="#000000" points="1252.5,-377.7 1252.5,-396.7 1295.5,-396.7 1295.5,-377.7 1252.5,-377.7"/>
<text text-anchor="start" x="1286.3862" y="-383.8" font-family="Helvetica,sans-Serif" font-size="11.00" fill="#000000"> &#160;</text>
<polygon fill="#ffffff" stroke="transparent" points="1295.5,-377.7 1295.5,-396.7 1338.5,-396.7 1338.5,-377.7 1295.5,-377.7"/>
<polygon fill="none" stroke="#000000" points="1295.5,-377.7 1295.5,-396.7 1338.5,-396.7 1338.5,-377.7 1295.5,-377.7"/>
<text text-anchor="start" x="1329.3862" y="-383.8" font-family="Helvetica,sans-Serif" font-size="11.00" fill="#000000"> &#160;</text>
</a>
</g>
</g>
<!-- fleet_route&#45;&gt;airport -->
<g id="edge11" class="edge">
<title>fleet_route:w&#45;&gt;airport:e</title>
<path fill="none" stroke="#000000" d="M1154.8605,-426.7191C981.5392,-427.1769 932.8981,-435.7 752.5,-435.7"/>
<polygon fill="#000000" stroke="#000000" points="1161.5,-426.7105 1169.5047,-430.3 1165.5,-426.7053 1169.5,-426.7 1169.5,-426.7 1169.5,-426.7 1165.5,-426.7053 1169.4953,-423.1 1161.5,-426.7105 1161.5,-426.7105"/>
<ellipse fill="none" stroke="#000000" cx="1158.3" cy="-426.7147" rx="3.2" ry="3.2"/>
</g>
<!-- fleet_route&#45;&gt;airport -->
<g id="edge13" class="edge">
<title>fleet_route:w&#45;&gt;airport:e</title>
<path fill="none" stroke="#000000" d="M1154.6346,-448.6879C999.4482,-448.43 955.2116,-444.0742 793,-437.7 774.992,-436.9924 770.5219,-435.7 752.5,-435.7"/>
<polygon fill="#000000" stroke="#000000" points="1161.5,-448.6934 1169.497,-452.3 1165.5,-448.6967 1169.5,-448.7 1169.5,-448.7 1169.5,-448.7 1165.5,-448.6967 1169.503,-445.1 1161.5,-448.6934 1161.5,-448.6934"/>
<ellipse fill="none" stroke="#000000" cx="1158.3" cy="-448.6908" rx="3.2" ry="3.2"/>
</g>
<!-- fleet_airplane -->
<g id="node9" class="node">
<title>fleet_airplane</title>
<g id="a_node9"><a xlink:href="../../tables/fleet_airplane.html" xlink:title="fleet_airplane" target="_top">
<polygon fill="#ffffff" stroke="transparent" points="989,-517.2 989,-644.2 1120,-644.2 1120,-517.2 989,-517.2"/>
<polygon fill="#f5f5f5" stroke="transparent" points="989.5,-620.7 989.5,-643.7 1120.5,-643.7 1120.5,-620.7 989.5,-620.7"/>
<polygon fill="none" stroke="#000000" points="989.5,-620.7 989.5,-643.7 1120.5,-643.7 1120.5,-620.7 989.5,-620.7"/>
<text text-anchor="start" x="994.5" y="-629.3" font-family="Helvetica,sans-Serif" font-weight="bold" font-size="11.00" fill="#000000">fleet_airplane</text>
<text text-anchor="start" x="1086.0219" y="-628.8" font-family="Helvetica,sans-Serif" font-size="11.00" fill="#000000">[table]</text>
<polygon fill="none" stroke="#000000" points="989.5,-598.7 989.5,-620.7 1120.5,-620.7 1120.5,-598.7 989.5,-598.7"/>
<image xlink:href="../../images/primaryKeys.png" width="11px" height="12px" preserveAspectRatio="xMinYMin meet" x="994.5" y="-615.7"/>
<text text-anchor="start" x="1011.5" y="-605.8" font-family="Helvetica,sans-Serif" font-size="11.00" fill="#000000">id</text>
<polygon fill="#ffffff" stroke="transparent" points="989.5,-576.7 989.5,-598.7 1120.5,-598.7 1120.5,-576.7 989.5,-576.7"/>
<polygon fill="none" stroke="#000000" points="989.5,-576.7 989.5,-598.7 1120.5,-598.7 1120.5,-576.7 989.5,-576.7"/>
<image xlink:href="../../images/foreignKeys.png" width="11px" height="12px" preserveAspectRatio="xMinYMin meet" x="994.5" y="-593.7"/>
<text text-anchor="start" x="1011.5" y="-583.8" font-family="Helvetica,sans-Serif" font-size="11.00" fill="#000000">fleet_id</text>
<polygon fill="#ffffff" stroke="transparent" points="989.5,-554.7 989.5,-576.7 1120.5,-576.7 1120.5,-554.7 989.5,-554.7"/>
<polygon fill="none" stroke="#000000" points="989.5,-554.7 989.5,-576.7 1120.5,-576.7 1120.5,-554.7 989.5,-554.7"/>
<image xlink:href="../../images/foreignKeys.png" width="11px" height="12px" preserveAspectRatio="xMinYMin meet" x="994.5" y="-571.7"/>
<text text-anchor="start" x="1011.5" y="-561.8" font-family="Helvetica,sans-Serif" font-size="11.00" fill="#000000">airplane_id</text>
<polygon fill="none" stroke="#000000" points="989.5,-535.7 989.5,-554.7 1120.5,-554.7 1120.5,-535.7 989.5,-535.7"/>
<text text-anchor="start" x="992.5" y="-541.8" font-family="Helvetica,sans-Serif" font-size="11.00" fill="#000000">...</text>
<polygon fill="#ffffff" stroke="transparent" points="989.5,-516.7 989.5,-535.7 1048.5,-535.7 1048.5,-516.7 989.5,-516.7"/>
<polygon fill="none" stroke="#000000" points="989.5,-516.7 989.5,-535.7 1048.5,-535.7 1048.5,-516.7 989.5,-516.7"/>
<text text-anchor="start" x="992.5" y="-522.8" font-family="Helvetica,sans-Serif" font-size="11.00" fill="#000000">&lt; 2</text>
<polygon fill="#ffffff" stroke="transparent" points="1048.5,-516.7 1048.5,-535.7 1079.5,-535.7 1079.5,-516.7 1048.5,-516.7"/>
<polygon fill="none" stroke="#000000" points="1048.5,-516.7 1048.5,-535.7 1079.5,-535.7 1079.5,-516.7 1048.5,-516.7"/>
<text text-anchor="start" x="1070.3862" y="-522.8" font-family="Helvetica,sans-Serif" font-size="11.00" fill="#000000"> &#160;</text>
<polygon fill="#ffffff" stroke="transparent" points="1079.5,-516.7 1079.5,-535.7 1120.5,-535.7 1120.5,-516.7 1079.5,-516.7"/>
<polygon fill="none" stroke="#000000" points="1079.5,-516.7 1079.5,-535.7 1120.5,-535.7 1120.5,-516.7 1079.5,-516.7"/>
<text text-anchor="start" x="1101.9053" y="-522.8" font-family="Helvetica,sans-Serif" font-size="11.00" fill="#000000">1 &gt;</text>
</a>
</g>
</g>
<!-- fleet_route&#45;&gt;fleet_airplane -->
<g id="edge12" class="edge">
<title>fleet_route:w&#45;&gt;fleet_airplane:e</title>
<path fill="none" stroke="#000000" d="M1155.3892,-496.3299C1125.2353,-516.0782 1170.9302,-609.7 1120.5,-609.7"/>
<polygon fill="#000000" stroke="#000000" points="1161.7522,-494.6931 1170.3969,-496.1865 1165.6261,-493.6965 1169.5,-492.7 1169.5,-492.7 1169.5,-492.7 1165.6261,-493.6965 1168.6031,-489.2135 1161.7522,-494.6931 1161.7522,-494.6931"/>
<ellipse fill="none" stroke="#000000" cx="1158.6531" cy="-495.4903" rx="3.2" ry="3.2"/>
</g>
<!-- city -->
<g id="node7" class="node">
<title>city</title>
<g id="a_node7"><a xlink:href="../../tables/city.html" xlink:title="city" target="_top">
<polygon fill="#ffffff" stroke="transparent" points="412,-351.2 412,-478.2 540,-478.2 540,-351.2 412,-351.2"/>
<polygon fill="#f5f5f5" stroke="transparent" points="412,-454.7 412,-477.7 540,-477.7 540,-454.7 412,-454.7"/>
<polygon fill="none" stroke="#000000" points="412,-454.7 412,-477.7 540,-477.7 540,-454.7 412,-454.7"/>
<text text-anchor="start" x="417" y="-463.3" font-family="Helvetica,sans-Serif" font-weight="bold" font-size="11.00" fill="#000000">city</text>
<text text-anchor="start" x="505.0437" y="-462.8" font-family="Helvetica,sans-Serif" font-size="11.00" fill="#000000">[table]</text>
<polygon fill="none" stroke="#000000" points="412,-432.7 412,-454.7 540,-454.7 540,-432.7 412,-432.7"/>
<image xlink:href="../../images/primaryKeys.png" width="11px" height="12px" preserveAspectRatio="xMinYMin meet" x="417" y="-449.7"/>
<text text-anchor="start" x="432" y="-439.8" font-family="Helvetica,sans-Serif" font-size="11.00" fill="#000000">id</text>
<polygon fill="#ffffff" stroke="transparent" points="412,-410.7 412,-432.7 540,-432.7 540,-410.7 412,-410.7"/>
<polygon fill="none" stroke="#000000" points="412,-410.7 412,-432.7 540,-432.7 540,-410.7 412,-410.7"/>
<text text-anchor="start" x="432" y="-417.8" font-family="Helvetica,sans-Serif" font-size="11.00" fill="#000000">name</text>
<polygon fill="#ffffff" stroke="transparent" points="412,-388.7 412,-410.7 540,-410.7 540,-388.7 412,-388.7"/>
<polygon fill="none" stroke="#000000" points="412,-388.7 412,-410.7 540,-410.7 540,-388.7 412,-388.7"/>
<image xlink:href="../../images/foreignKeys.png" width="11px" height="12px" preserveAspectRatio="xMinYMin meet" x="417" y="-405.7"/>
<text text-anchor="start" x="432" y="-395.8" font-family="Helvetica,sans-Serif" font-size="11.00" fill="#000000">country_id</text>
<polygon fill="none" stroke="#000000" points="412,-369.7 412,-388.7 540,-388.7 540,-369.7 412,-369.7"/>
<text text-anchor="start" x="415" y="-375.8" font-family="Helvetica,sans-Serif" font-size="11.00" fill="#000000">...</text>
<polygon fill="#ffffff" stroke="transparent" points="412,-350.7 412,-369.7 470,-369.7 470,-350.7 412,-350.7"/>
<polygon fill="none" stroke="#000000" points="412,-350.7 412,-369.7 470,-369.7 470,-350.7 412,-350.7"/>
<text text-anchor="start" x="415" y="-356.8" font-family="Helvetica,sans-Serif" font-size="11.00" fill="#000000">&lt; 1</text>
<polygon fill="#ffffff" stroke="transparent" points="470,-350.7 470,-369.7 500,-369.7 500,-350.7 470,-350.7"/>
<polygon fill="none" stroke="#000000" points="470,-350.7 470,-369.7 500,-369.7 500,-350.7 470,-350.7"/>
<text text-anchor="start" x="490.8862" y="-356.8" font-family="Helvetica,sans-Serif" font-size="11.00" fill="#000000"> &#160;</text>
<polygon fill="#ffffff" stroke="transparent" points="500,-350.7 500,-369.7 540,-369.7 540,-350.7 500,-350.7"/>
<polygon fill="none" stroke="#000000" points="500,-350.7 500,-369.7 540,-369.7 540,-350.7 500,-350.7"/>
<text text-anchor="start" x="521.4053" y="-356.8" font-family="Helvetica,sans-Serif" font-size="11.00" fill="#000000">2 &gt;</text>
</a>
</g>
</g>
<!-- airport&#45;&gt;city -->
<g id="edge2" class="edge">
<title>airport:w&#45;&gt;city:e</title>
<path fill="none" stroke="#000000" d="M575.5594,-351.825C551.6459,-370.2 582.0041,-443.7 540,-443.7"/>
<polygon fill="#000000" stroke="#000000" points="581.8288,-349.9699 590.5215,-351.152 585.6644,-348.835 589.5,-347.7 589.5,-347.7 589.5,-347.7 585.6644,-348.835 588.4785,-344.248 581.8288,-349.9699 581.8288,-349.9699"/>
<ellipse fill="none" stroke="#000000" cx="578.7603" cy="-350.8779" rx="3.2" ry="3.2"/>
</g>
<!-- country -->
<g id="node6" class="node">
<title>country</title>
<g id="a_node6"><a xlink:href="../../tables/country.html" xlink:title="country" target="_top">
<polygon fill="#ffffff" stroke="transparent" points="185,-153.2 185,-434.2 363,-434.2 363,-153.2 185,-153.2"/>
<polygon fill="#f5f5f5" stroke="transparent" points="185,-410.7 185,-433.7 363,-433.7 363,-410.7 185,-410.7"/>
<polygon fill="none" stroke="#000000" points="185,-410.7 185,-433.7 363,-433.7 363,-410.7 185,-410.7"/>
<text text-anchor="start" x="190" y="-419.3" font-family="Helvetica,sans-Serif" font-weight="bold" font-size="11.00" fill="#000000">country</text>
<text text-anchor="start" x="328.0437" y="-418.8" font-family="Helvetica,sans-Serif" font-size="11.00" fill="#000000">[table]</text>
<polygon fill="none" stroke="#000000" points="185,-388.7 185,-410.7 363,-410.7 363,-388.7 185,-388.7"/>
<image xlink:href="../../images/primaryKeys.png" width="11px" height="12px" preserveAspectRatio="xMinYMin meet" x="190" y="-405.7"/>
<text text-anchor="start" x="205" y="-395.8" font-family="Helvetica,sans-Serif" font-size="11.00" fill="#000000">id</text>
<polygon fill="#ffffff" stroke="transparent" points="185,-366.7 185,-388.7 363,-388.7 363,-366.7 185,-366.7"/>
<polygon fill="none" stroke="#000000" points="185,-366.7 185,-388.7 363,-388.7 363,-366.7 185,-366.7"/>
<text text-anchor="start" x="205" y="-373.8" font-family="Helvetica,sans-Serif" font-size="11.00" fill="#000000">iso2</text>
<polygon fill="#ffffff" stroke="transparent" points="185,-344.7 185,-366.7 363,-366.7 363,-344.7 185,-344.7"/>
<polygon fill="none" stroke="#000000" points="185,-344.7 185,-366.7 363,-366.7 363,-344.7 185,-344.7"/>
<text text-anchor="start" x="205" y="-351.8" font-family="Helvetica,sans-Serif" font-size="11.00" fill="#000000">iso3</text>
<polygon fill="#ffffff" stroke="transparent" points="185,-322.7 185,-344.7 363,-344.7 363,-322.7 185,-322.7"/>
<polygon fill="none" stroke="#000000" points="185,-322.7 185,-344.7 363,-344.7 363,-322.7 185,-322.7"/>
<text text-anchor="start" x="205" y="-329.8" font-family="Helvetica,sans-Serif" font-size="11.00" fill="#000000">country_code</text>
<polygon fill="#ffffff" stroke="transparent" points="185,-300.7 185,-322.7 363,-322.7 363,-300.7 185,-300.7"/>
<polygon fill="none" stroke="#000000" points="185,-300.7 185,-322.7 363,-322.7 363,-300.7 185,-300.7"/>
<text text-anchor="start" x="205" y="-307.8" font-family="Helvetica,sans-Serif" font-size="11.00" fill="#000000">domain_name</text>
<polygon fill="none" stroke="#000000" points="185,-278.7 185,-300.7 363,-300.7 363,-278.7 185,-278.7"/>
<image xlink:href="../../images/foreignKeys.png" width="11px" height="12px" preserveAspectRatio="xMinYMin meet" x="190" y="-295.7"/>
<text text-anchor="start" x="205" y="-285.8" font-family="Helvetica,sans-Serif" font-size="11.00" fill="#000000">main_language_id</text>
<polygon fill="none" stroke="#000000" points="185,-256.7 185,-278.7 363,-278.7 363,-256.7 185,-256.7"/>
<image xlink:href="../../images/foreignKeys.png" width="11px" height="12px" preserveAspectRatio="xMinYMin meet" x="190" y="-273.7"/>
<text text-anchor="start" x="205" y="-263.8" font-family="Helvetica,sans-Serif" font-size="11.00" fill="#000000">secondary_language_id</text>
<polygon fill="none" stroke="#000000" points="185,-234.7 185,-256.7 363,-256.7 363,-234.7 185,-234.7"/>
<image xlink:href="../../images/foreignKeys.png" width="11px" height="12px" preserveAspectRatio="xMinYMin meet" x="190" y="-251.7"/>
<text text-anchor="start" x="205" y="-241.8" font-family="Helvetica,sans-Serif" font-size="11.00" fill="#000000">tertiary_language_id</text>
<polygon fill="none" stroke="#000000" points="185,-212.7 185,-234.7 363,-234.7 363,-212.7 185,-212.7"/>
<image xlink:href="../../images/foreignKeys.png" width="11px" height="12px" preserveAspectRatio="xMinYMin meet" x="190" y="-229.7"/>
<text text-anchor="start" x="205" y="-219.8" font-family="Helvetica,sans-Serif" font-size="11.00" fill="#000000">currency_id</text>
<polygon fill="#ffffff" stroke="transparent" points="185,-190.7 185,-212.7 363,-212.7 363,-190.7 185,-190.7"/>
<polygon fill="none" stroke="#000000" points="185,-190.7 185,-212.7 363,-212.7 363,-190.7 185,-190.7"/>
<text text-anchor="start" x="205" y="-197.8" font-family="Helvetica,sans-Serif" font-size="11.00" fill="#000000">nationality</text>
<polygon fill="none" stroke="#000000" points="185,-171.7 185,-190.7 363,-190.7 363,-171.7 185,-171.7"/>
<text text-anchor="start" x="188" y="-177.8" font-family="Helvetica,sans-Serif" font-size="11.00" fill="#000000">...</text>
<polygon fill="#ffffff" stroke="transparent" points="185,-152.7 185,-171.7 268,-171.7 268,-152.7 185,-152.7"/>
<polygon fill="none" stroke="#000000" points="185,-152.7 185,-171.7 268,-171.7 268,-152.7 185,-152.7"/>
<text text-anchor="start" x="188" y="-158.8" font-family="Helvetica,sans-Serif" font-size="11.00" fill="#000000">&lt; 4</text>
<polygon fill="#ffffff" stroke="transparent" points="268,-152.7 268,-171.7 311,-171.7 311,-152.7 268,-152.7"/>
<polygon fill="none" stroke="#000000" points="268,-152.7 268,-171.7 311,-171.7 311,-152.7 268,-152.7"/>
<text text-anchor="start" x="301.8862" y="-158.8" font-family="Helvetica,sans-Serif" font-size="11.00" fill="#000000"> &#160;</text>
<polygon fill="#ffffff" stroke="transparent" points="311,-152.7 311,-171.7 363,-171.7 363,-152.7 311,-152.7"/>
<polygon fill="none" stroke="#000000" points="311,-152.7 311,-171.7 363,-171.7 363,-152.7 311,-152.7"/>
<text text-anchor="start" x="344.4053" y="-158.8" font-family="Helvetica,sans-Serif" font-size="11.00" fill="#000000">1 &gt;</text>
</a>
</g>
</g>
<!-- country&#45;&gt;currency -->
<g id="edge4" class="edge">
<title>country:w&#45;&gt;currency:e</title>
<path fill="none" stroke="#000000" d="M171.0864,-219.4623C148.2226,-201.2688 176.6971,-130.7 136,-130.7"/>
<polygon fill="#000000" stroke="#000000" points="177.3471,-221.3691 183.9511,-227.1438 181.1735,-222.5345 185,-223.7 185,-223.7 185,-223.7 181.1735,-222.5345 186.0489,-220.2562 177.3471,-221.3691 177.3471,-221.3691"/>
<ellipse fill="none" stroke="#000000" cx="174.2859" cy="-220.4367" rx="3.2" ry="3.2"/>
</g>
<!-- country&#45;&gt;language -->
<g id="edge5" class="edge">
<title>country:w&#45;&gt;language:e</title>
<path fill="none" stroke="#000000" d="M170.7027,-287.8836C159.2382,-284.7593 152.5655,-278.7 136,-278.7"/>
<polygon fill="#000000" stroke="#000000" points="177.0638,-288.6917 184.5463,-293.2713 181.0319,-289.1958 185,-289.7 185,-289.7 185,-289.7 181.0319,-289.1958 185.4537,-286.1287 177.0638,-288.6917 177.0638,-288.6917"/>
<ellipse fill="none" stroke="#000000" cx="173.8893" cy="-288.2884" rx="3.2" ry="3.2"/>
</g>
<!-- country&#45;&gt;language -->
<g id="edge6" class="edge">
<title>country:w&#45;&gt;language:e</title>
<path fill="none" stroke="#000000" d="M170.7027,-269.5164C159.2382,-272.6407 152.5655,-278.7 136,-278.7"/>
<polygon fill="#000000" stroke="#000000" points="177.0638,-268.7083 185.4537,-271.2713 181.0319,-268.2042 185,-267.7 185,-267.7 185,-267.7 181.0319,-268.2042 184.5463,-264.1287 177.0638,-268.7083 177.0638,-268.7083"/>
<ellipse fill="none" stroke="#000000" cx="173.8893" cy="-269.1116" rx="3.2" ry="3.2"/>
</g>
<!-- country&#45;&gt;language -->
<g id="edge7" class="edge">
<title>country:w&#45;&gt;language:e</title>
<path fill="none" stroke="#000000" d="M171.0457,-250.0142C158.8073,-258.9592 156.3075,-278.7 136,-278.7"/>
<polygon fill="#000000" stroke="#000000" points="177.3569,-248.063 186.0634,-249.1394 181.1785,-246.8815 185,-245.7 185,-245.7 185,-245.7 181.1785,-246.8815 183.9366,-242.2606 177.3569,-248.063 177.3569,-248.063"/>
<ellipse fill="none" stroke="#000000" cx="174.2997" cy="-249.0082" rx="3.2" ry="3.2"/>
</g>
<!-- city&#45;&gt;country -->
<g id="edge3" class="edge">
<title>city:w&#45;&gt;country:e</title>
<path fill="none" stroke="#000000" d="M397.4909,-399.7C386.1774,-399.7 378.9931,-399.7 363,-399.7"/>
<polygon fill="#000000" stroke="#000000" points="404,-399.7001 412,-403.3 408,-399.7 412,-399.7 412,-399.7 412,-399.7 408,-399.7 412,-396.1 404,-399.7001 404,-399.7001"/>
<ellipse fill="none" stroke="#000000" cx="400.8" cy="-399.7001" rx="3.2" ry="3.2"/>
</g>
<!-- airplane -->
<g id="node8" class="node">
<title>airplane</title>
<g id="a_node8"><a xlink:href="../../tables/airplane.html" xlink:title="airplane" target="_top">
<polygon fill="#ffffff" stroke="transparent" points="801,-473.2 801,-600.2 940,-600.2 940,-473.2 801,-473.2"/>
<polygon fill="#f5f5f5" stroke="transparent" points="801.5,-576.7 801.5,-599.7 940.5,-599.7 940.5,-576.7 801.5,-576.7"/>
<polygon fill="none" stroke="#000000" points="801.5,-576.7 801.5,-599.7 940.5,-599.7 940.5,-576.7 801.5,-576.7"/>
<text text-anchor="start" x="806.5" y="-585.3" font-family="Helvetica,sans-Serif" font-weight="bold" font-size="11.00" fill="#000000">airplane</text>
<text text-anchor="start" x="905.5437" y="-584.8" font-family="Helvetica,sans-Serif" font-size="11.00" fill="#000000">[table]</text>
<polygon fill="none" stroke="#000000" points="801.5,-554.7 801.5,-576.7 940.5,-576.7 940.5,-554.7 801.5,-554.7"/>
<image xlink:href="../../images/primaryKeys.png" width="11px" height="12px" preserveAspectRatio="xMinYMin meet" x="806.5" y="-571.7"/>
<text text-anchor="start" x="821.5" y="-561.8" font-family="Helvetica,sans-Serif" font-size="11.00" fill="#000000">id</text>
<polygon fill="#ffffff" stroke="transparent" points="801.5,-532.7 801.5,-554.7 940.5,-554.7 940.5,-532.7 801.5,-532.7"/>
<polygon fill="none" stroke="#000000" points="801.5,-532.7 801.5,-554.7 940.5,-554.7 940.5,-532.7 801.5,-532.7"/>
<text text-anchor="start" x="821.5" y="-539.8" font-family="Helvetica,sans-Serif" font-size="11.00" fill="#000000">name</text>
<polygon fill="none" stroke="#000000" points="801.5,-510.7 801.5,-532.7 940.5,-532.7 940.5,-510.7 801.5,-510.7"/>
<image xlink:href="../../images/foreignKeys.png" width="11px" height="12px" preserveAspectRatio="xMinYMin meet" x="806.5" y="-527.7"/>
<text text-anchor="start" x="821.5" y="-517.8" font-family="Helvetica,sans-Serif" font-size="11.00" fill="#000000">manufacturer_id</text>
<polygon fill="none" stroke="#000000" points="801.5,-491.7 801.5,-510.7 940.5,-510.7 940.5,-491.7 801.5,-491.7"/>
<text text-anchor="start" x="804.5" y="-497.8" font-family="Helvetica,sans-Serif" font-size="11.00" fill="#000000">...</text>
<polygon fill="#ffffff" stroke="transparent" points="801.5,-472.7 801.5,-491.7 864.5,-491.7 864.5,-472.7 801.5,-472.7"/>
<polygon fill="none" stroke="#000000" points="801.5,-472.7 801.5,-491.7 864.5,-491.7 864.5,-472.7 801.5,-472.7"/>
<text text-anchor="start" x="804.5" y="-478.8" font-family="Helvetica,sans-Serif" font-size="11.00" fill="#000000">&lt; 1</text>
<polygon fill="#ffffff" stroke="transparent" points="864.5,-472.7 864.5,-491.7 897.5,-491.7 897.5,-472.7 864.5,-472.7"/>
<polygon fill="none" stroke="#000000" points="864.5,-472.7 864.5,-491.7 897.5,-491.7 897.5,-472.7 864.5,-472.7"/>
<text text-anchor="start" x="888.3862" y="-478.8" font-family="Helvetica,sans-Serif" font-size="11.00" fill="#000000"> &#160;</text>
<polygon fill="#ffffff" stroke="transparent" points="897.5,-472.7 897.5,-491.7 940.5,-491.7 940.5,-472.7 897.5,-472.7"/>
<polygon fill="none" stroke="#000000" points="897.5,-472.7 897.5,-491.7 940.5,-491.7 940.5,-472.7 897.5,-472.7"/>
<text text-anchor="start" x="921.9053" y="-478.8" font-family="Helvetica,sans-Serif" font-size="11.00" fill="#000000">1 &gt;</text>
</a>
</g>
</g>
<!-- manufacturer -->
<g id="node10" class="node">
<title>manufacturer</title>
<g id="a_node10"><a xlink:href="../../tables/manufacturer.html" xlink:title="manufacturer" target="_top">
<polygon fill="#ffffff" stroke="transparent" points="605,-491.2 605,-618.2 736,-618.2 736,-491.2 605,-491.2"/>
<polygon fill="#f5f5f5" stroke="transparent" points="605.5,-594.7 605.5,-617.7 736.5,-617.7 736.5,-594.7 605.5,-594.7"/>
<polygon fill="none" stroke="#000000" points="605.5,-594.7 605.5,-617.7 736.5,-617.7 736.5,-594.7 605.5,-594.7"/>
<text text-anchor="start" x="610.5" y="-603.3" font-family="Helvetica,sans-Serif" font-weight="bold" font-size="11.00" fill="#000000">manufacturer</text>
<text text-anchor="start" x="702.0219" y="-602.8" font-family="Helvetica,sans-Serif" font-size="11.00" fill="#000000">[table]</text>
<polygon fill="none" stroke="#000000" points="605.5,-572.7 605.5,-594.7 736.5,-594.7 736.5,-572.7 605.5,-572.7"/>
<image xlink:href="../../images/primaryKeys.png" width="11px" height="12px" preserveAspectRatio="xMinYMin meet" x="610.5" y="-589.7"/>
<text text-anchor="start" x="627.5" y="-579.8" font-family="Helvetica,sans-Serif" font-size="11.00" fill="#000000">id</text>
<polygon fill="#ffffff" stroke="transparent" points="605.5,-550.7 605.5,-572.7 736.5,-572.7 736.5,-550.7 605.5,-550.7"/>
<polygon fill="none" stroke="#000000" points="605.5,-550.7 605.5,-572.7 736.5,-572.7 736.5,-550.7 605.5,-550.7"/>
<text text-anchor="start" x="627.5" y="-557.8" font-family="Helvetica,sans-Serif" font-size="11.00" fill="#000000">name</text>
<polygon fill="none" stroke="#000000" points="605.5,-528.7 605.5,-550.7 736.5,-550.7 736.5,-528.7 605.5,-528.7"/>
<image xlink:href="../../images/foreignKeys.png" width="11px" height="12px" preserveAspectRatio="xMinYMin meet" x="610.5" y="-545.7"/>
<text text-anchor="start" x="627.5" y="-535.8" font-family="Helvetica,sans-Serif" font-size="11.00" fill="#000000">city_based_in</text>
<polygon fill="none" stroke="#000000" points="605.5,-509.7 605.5,-528.7 736.5,-528.7 736.5,-509.7 605.5,-509.7"/>
<text text-anchor="start" x="608.5" y="-515.8" font-family="Helvetica,sans-Serif" font-size="11.00" fill="#000000">...</text>
<polygon fill="#ffffff" stroke="transparent" points="605.5,-490.7 605.5,-509.7 664.5,-509.7 664.5,-490.7 605.5,-490.7"/>
<polygon fill="none" stroke="#000000" points="605.5,-490.7 605.5,-509.7 664.5,-509.7 664.5,-490.7 605.5,-490.7"/>
<text text-anchor="start" x="608.5" y="-496.8" font-family="Helvetica,sans-Serif" font-size="11.00" fill="#000000">&lt; 1</text>
<polygon fill="#ffffff" stroke="transparent" points="664.5,-490.7 664.5,-509.7 695.5,-509.7 695.5,-490.7 664.5,-490.7"/>
<polygon fill="none" stroke="#000000" points="664.5,-490.7 664.5,-509.7 695.5,-509.7 695.5,-490.7 664.5,-490.7"/>
<text text-anchor="start" x="686.3862" y="-496.8" font-family="Helvetica,sans-Serif" font-size="11.00" fill="#000000"> &#160;</text>
<polygon fill="#ffffff" stroke="transparent" points="695.5,-490.7 695.5,-509.7 736.5,-509.7 736.5,-490.7 695.5,-490.7"/>
<polygon fill="none" stroke="#000000" points="695.5,-490.7 695.5,-509.7 736.5,-509.7 736.5,-490.7 695.5,-490.7"/>
<text text-anchor="start" x="717.9053" y="-496.8" font-family="Helvetica,sans-Serif" font-size="11.00" fill="#000000">1 &gt;</text>
</a>
</g>
</g>
<!-- airplane&#45;&gt;manufacturer -->
<g id="edge1" class="edge">
<title>airplane:w&#45;&gt;manufacturer:e</title>
<path fill="none" stroke="#000000" d="M787.2911,-525.211C764.7242,-538.3267 770.6532,-583.7 736.5,-583.7"/>
<polygon fill="#000000" stroke="#000000" points="793.7336,-523.6191 802.3636,-525.1949 797.6168,-522.6596 801.5,-521.7 801.5,-521.7 801.5,-521.7 797.6168,-522.6596 800.6364,-518.2051 793.7336,-523.6191 793.7336,-523.6191"/>
<ellipse fill="none" stroke="#000000" cx="790.627" cy="-524.3868" rx="3.2" ry="3.2"/>
</g>
<!-- fleet_airplane&#45;&gt;fleet -->
<g id="edge10" class="edge">
<title>fleet_airplane:w&#45;&gt;fleet:e</title>
<path fill="none" stroke="#000000" d="M975.2294,-589.8563C915.2255,-610.95 1017.7176,-779.7 934.5,-779.7"/>
<polygon fill="#000000" stroke="#000000" points="981.5898,-588.8953 990.0379,-591.2596 985.5449,-588.2976 989.5,-587.7 989.5,-587.7 989.5,-587.7 985.5449,-588.2976 988.9621,-584.1404 981.5898,-588.8953 981.5898,-588.8953"/>
<ellipse fill="none" stroke="#000000" cx="978.4257" cy="-589.3734" rx="3.2" ry="3.2"/>
</g>
<!-- fleet_airplane&#45;&gt;airplane -->
<g id="edge9" class="edge">
<title>fleet_airplane:w&#45;&gt;airplane:e</title>
<path fill="none" stroke="#000000" d="M974.9909,-565.7C963.6774,-565.7 956.4931,-565.7 940.5,-565.7"/>
<polygon fill="#000000" stroke="#000000" points="981.5,-565.7001 989.5,-569.3 985.5,-565.7 989.5,-565.7 989.5,-565.7 989.5,-565.7 985.5,-565.7 989.5,-562.1 981.5,-565.7001 981.5,-565.7001"/>
<ellipse fill="none" stroke="#000000" cx="978.3" cy="-565.7001" rx="3.2" ry="3.2"/>
</g>
<!-- manufacturer&#45;&gt;city -->
<g id="edge14" class="edge">
<title>manufacturer:w&#45;&gt;city:e</title>
<path fill="none" stroke="#000000" d="M591.1302,-536.2833C561.2652,-519.1819 585.8006,-443.7 540,-443.7"/>
<polygon fill="#000000" stroke="#000000" points="597.717,-537.8494 604.6672,-543.2024 601.6085,-538.7747 605.5,-539.7 605.5,-539.7 605.5,-539.7 601.6085,-538.7747 606.3328,-536.1976 597.717,-537.8494 597.717,-537.8494"/>
<ellipse fill="none" stroke="#000000" cx="594.6038" cy="-537.1092" rx="3.2" ry="3.2"/>
</g>
</g>
</svg>
