<?xml version="1.0" encoding="UTF-8" standalone="no"?>
<!DOCTYPE svg PUBLIC "-//W3C//DTD SVG 1.1//EN"
 "http://www.w3.org/Graphics/SVG/1.1/DTD/svg11.dtd">
<!-- Generated by graphviz version 2.40.1 (20161225.0304)
 -->
<!-- Title: twoDegreesRelationshipsDiagram Pages: 1 -->
<svg width="909pt" height="333pt"
 viewBox="0.00 0.00 909.00 332.70" xmlns="http://www.w3.org/2000/svg" xmlns:xlink="http://www.w3.org/1999/xlink">
<g id="graph0" class="graph" transform="scale(1 1) rotate(0) translate(4 328.7)">
<title>twoDegreesRelationshipsDiagram</title>
<polygon fill="#ffffff" stroke="transparent" points="-4,4 -4,-328.7 905,-328.7 905,4 -4,4"/>
<text text-anchor="middle" x="72.4936" y="-7.3" font-family="Helvetica,sans-Serif" font-size="11.00" fill="#000000">Generated by SchemaSpy</text>
<!-- airplane -->
<g id="node1" class="node">
<title>airplane</title>
<g id="a_node1"><a xlink:href="../../tables/airplane.html" xlink:title="airplane" target="_top">
<polygon fill="#ffffff" stroke="transparent" points="300,-38.2 300,-238.2 552,-238.2 552,-38.2 300,-38.2"/>
<polygon fill="#f5f5f5" stroke="transparent" points="302,-213.2 302,-236.2 550,-236.2 550,-213.2 302,-213.2"/>
<polygon fill="none" stroke="#000000" points="302,-213.2 302,-236.2 550,-236.2 550,-213.2 302,-213.2"/>
<text text-anchor="start" x="307" y="-221.8" font-family="Helvetica,sans-Serif" font-weight="bold" font-size="11.00" fill="#000000">airplane</text>
<text text-anchor="start" x="515.0437" y="-221.3" font-family="Helvetica,sans-Serif" font-size="11.00" fill="#000000">[table]</text>
<polygon fill="none" stroke="#000000" points="302,-191.2 302,-213.2 441,-213.2 441,-191.2 302,-191.2"/>
<image xlink:href="../../images/primaryKeys.png" width="11px" height="12px" preserveAspectRatio="xMinYMin meet" x="307" y="-208.2"/>
<text text-anchor="start" x="322" y="-198.3" font-family="Helvetica,sans-Serif" font-size="11.00" fill="#000000">id</text>
<polygon fill="none" stroke="#000000" points="441,-191.2 441,-213.2 550,-213.2 550,-191.2 441,-191.2"/>
<text text-anchor="start" x="444" y="-198.9" font-family="Helvetica,sans-Serif" font-size="11.00" fill="#000000">serial[10]</text>
<polygon fill="#ffffff" stroke="transparent" points="302,-169.2 302,-191.2 441,-191.2 441,-169.2 302,-169.2"/>
<polygon fill="none" stroke="#000000" points="302,-169.2 302,-191.2 441,-191.2 441,-169.2 302,-169.2"/>
<text text-anchor="start" x="322" y="-176.3" font-family="Helvetica,sans-Serif" font-size="11.00" fill="#000000">name</text>
<polygon fill="none" stroke="#000000" points="441,-169.2 441,-191.2 550,-191.2 550,-169.2 441,-169.2"/>
<text text-anchor="start" x="443.5344" y="-176.9" font-family="Helvetica,sans-Serif" font-size="11.00" fill="#000000">varchar[2147483647]</text>
<polygon fill="none" stroke="#000000" points="302,-147.2 302,-169.2 441,-169.2 441,-147.2 302,-147.2"/>
<image xlink:href="../../images/foreignKeys.png" width="11px" height="12px" preserveAspectRatio="xMinYMin meet" x="307" y="-164.2"/>
<text text-anchor="start" x="322" y="-154.3" font-family="Helvetica,sans-Serif" font-size="11.00" fill="#000000">manufacturer_id</text>
<polygon fill="none" stroke="#000000" points="441,-147.2 441,-169.2 550,-169.2 550,-147.2 441,-147.2"/>
<text text-anchor="start" x="444" y="-154.9" font-family="Helvetica,sans-Serif" font-size="11.00" fill="#000000">int4[10]</text>
<polygon fill="none" stroke="#000000" points="302,-125.2 302,-147.2 441,-147.2 441,-125.2 302,-125.2"/>
<text text-anchor="start" x="322" y="-132.3" font-family="Helvetica,sans-Serif" font-size="11.00" fill="#000000">capacity</text>
<polygon fill="none" stroke="#000000" points="441,-125.2 441,-147.2 550,-147.2 550,-125.2 441,-125.2"/>
<text text-anchor="start" x="444" y="-132.9" font-family="Helvetica,sans-Serif" font-size="11.00" fill="#000000">int4[10]</text>
<polygon fill="none" stroke="#000000" points="302,-103.2 302,-125.2 441,-125.2 441,-103.2 302,-103.2"/>
<text text-anchor="start" x="322" y="-110.3" font-family="Helvetica,sans-Serif" font-size="11.00" fill="#000000">max_range_in_km</text>
<polygon fill="none" stroke="#000000" points="441,-103.2 441,-125.2 550,-125.2 550,-103.2 441,-103.2"/>
<text text-anchor="start" x="444" y="-110.9" font-family="Helvetica,sans-Serif" font-size="11.00" fill="#000000">int4[10]</text>
<polygon fill="none" stroke="#000000" points="302,-81.2 302,-103.2 441,-103.2 441,-81.2 302,-81.2"/>
<text text-anchor="start" x="322" y="-88.3" font-family="Helvetica,sans-Serif" font-size="11.00" fill="#000000">created_at</text>
<polygon fill="none" stroke="#000000" points="441,-81.2 441,-103.2 550,-103.2 550,-81.2 441,-81.2"/>
<text text-anchor="start" x="444" y="-88.9" font-family="Helvetica,sans-Serif" font-size="11.00" fill="#000000">timestamp[29,6]</text>
<polygon fill="none" stroke="#000000" points="302,-59.2 302,-81.2 441,-81.2 441,-59.2 302,-59.2"/>
<text text-anchor="start" x="322" y="-66.3" font-family="Helvetica,sans-Serif" font-size="11.00" fill="#000000">last_updated_at</text>
<polygon fill="none" stroke="#000000" points="441,-59.2 441,-81.2 550,-81.2 550,-59.2 441,-59.2"/>
<text text-anchor="start" x="444" y="-66.9" font-family="Helvetica,sans-Serif" font-size="11.00" fill="#000000">timestamp[29,6]</text>
<polygon fill="#ffffff" stroke="transparent" points="302,-40.2 302,-59.2 376,-59.2 376,-40.2 302,-40.2"/>
<polygon fill="none" stroke="#000000" points="302,-40.2 302,-59.2 376,-59.2 376,-40.2 302,-40.2"/>
<text text-anchor="start" x="305" y="-46.3" font-family="Helvetica,sans-Serif" font-size="11.00" fill="#000000">&lt; 1</text>
<polygon fill="#ffffff" stroke="transparent" points="376,-40.2 376,-59.2 441,-59.2 441,-40.2 376,-40.2"/>
<polygon fill="none" stroke="#000000" points="376,-40.2 376,-59.2 441,-59.2 441,-40.2 376,-40.2"/>
<text text-anchor="start" x="431.8862" y="-46.3" font-family="Helvetica,sans-Serif" font-size="11.00" fill="#000000"> &#160;</text>
<polygon fill="#ffffff" stroke="transparent" points="441,-40.2 441,-59.2 550,-59.2 550,-40.2 441,-40.2"/>
<polygon fill="none" stroke="#000000" points="441,-40.2 441,-59.2 550,-59.2 550,-40.2 441,-40.2"/>
<text text-anchor="start" x="531.4053" y="-46.3" font-family="Helvetica,sans-Serif" font-size="11.00" fill="#000000">1 &gt;</text>
<polygon fill="none" stroke="#000000" stroke-width="2" points="301,-39.2 301,-237.2 551,-237.2 551,-39.2 301,-39.2"/>
</a>
</g>
</g>
<!-- manufacturer -->
<g id="node2" class="node">
<title>manufacturer</title>
<g id="a_node2"><a xlink:href="../../tables/manufacturer.html" xlink:title="manufacturer" target="_top">
<polygon fill="#ffffff" stroke="transparent" points="120,-65.7 120,-192.7 251,-192.7 251,-65.7 120,-65.7"/>
<polygon fill="#f5f5f5" stroke="transparent" points="120.5,-169.2 120.5,-192.2 251.5,-192.2 251.5,-169.2 120.5,-169.2"/>
<polygon fill="none" stroke="#000000" points="120.5,-169.2 120.5,-192.2 251.5,-192.2 251.5,-169.2 120.5,-169.2"/>
<text text-anchor="start" x="125.5" y="-177.8" font-family="Helvetica,sans-Serif" font-weight="bold" font-size="11.00" fill="#000000">manufacturer</text>
<text text-anchor="start" x="217.0219" y="-177.3" font-family="Helvetica,sans-Serif" font-size="11.00" fill="#000000">[table]</text>
<polygon fill="none" stroke="#000000" points="120.5,-147.2 120.5,-169.2 251.5,-169.2 251.5,-147.2 120.5,-147.2"/>
<image xlink:href="../../images/primaryKeys.png" width="11px" height="12px" preserveAspectRatio="xMinYMin meet" x="125.5" y="-164.2"/>
<text text-anchor="start" x="142.5" y="-154.3" font-family="Helvetica,sans-Serif" font-size="11.00" fill="#000000">id</text>
<polygon fill="#ffffff" stroke="transparent" points="120.5,-125.2 120.5,-147.2 251.5,-147.2 251.5,-125.2 120.5,-125.2"/>
<polygon fill="none" stroke="#000000" points="120.5,-125.2 120.5,-147.2 251.5,-147.2 251.5,-125.2 120.5,-125.2"/>
<text text-anchor="start" x="142.5" y="-132.3" font-family="Helvetica,sans-Serif" font-size="11.00" fill="#000000">name</text>
<polygon fill="none" stroke="#000000" points="120.5,-103.2 120.5,-125.2 251.5,-125.2 251.5,-103.2 120.5,-103.2"/>
<image xlink:href="../../images/foreignKeys.png" width="11px" height="12px" preserveAspectRatio="xMinYMin meet" x="125.5" y="-120.2"/>
<text text-anchor="start" x="142.5" y="-110.3" font-family="Helvetica,sans-Serif" font-size="11.00" fill="#000000">city_based_in</text>
<polygon fill="none" stroke="#000000" points="120.5,-84.2 120.5,-103.2 251.5,-103.2 251.5,-84.2 120.5,-84.2"/>
<text text-anchor="start" x="123.5" y="-90.3" font-family="Helvetica,sans-Serif" font-size="11.00" fill="#000000">...</text>
<polygon fill="#ffffff" stroke="transparent" points="120.5,-65.2 120.5,-84.2 179.5,-84.2 179.5,-65.2 120.5,-65.2"/>
<polygon fill="none" stroke="#000000" points="120.5,-65.2 120.5,-84.2 179.5,-84.2 179.5,-65.2 120.5,-65.2"/>
<text text-anchor="start" x="123.5" y="-71.3" font-family="Helvetica,sans-Serif" font-size="11.00" fill="#000000">&lt; 1</text>
<polygon fill="#ffffff" stroke="transparent" points="179.5,-65.2 179.5,-84.2 210.5,-84.2 210.5,-65.2 179.5,-65.2"/>
<polygon fill="none" stroke="#000000" points="179.5,-65.2 179.5,-84.2 210.5,-84.2 210.5,-65.2 179.5,-65.2"/>
<text text-anchor="start" x="201.3862" y="-71.3" font-family="Helvetica,sans-Serif" font-size="11.00" fill="#000000"> &#160;</text>
<polygon fill="#ffffff" stroke="transparent" points="210.5,-65.2 210.5,-84.2 251.5,-84.2 251.5,-65.2 210.5,-65.2"/>
<polygon fill="none" stroke="#000000" points="210.5,-65.2 210.5,-84.2 251.5,-84.2 251.5,-65.2 210.5,-65.2"/>
<text text-anchor="start" x="232.9053" y="-71.3" font-family="Helvetica,sans-Serif" font-size="11.00" fill="#000000">1 &gt;</text>
</a>
</g>
</g>
<!-- airplane&#45;&gt;manufacturer -->
<g id="edge1" class="edge">
<title>airplane:w&#45;&gt;manufacturer:e</title>
<path fill="none" stroke="#000000" d="M287.4203,-158.2C275.5435,-158.2 268.158,-158.2 251.5,-158.2"/>
<polygon fill="#000000" stroke="#000000" points="294,-158.2001 302,-161.8 298,-158.2 302,-158.2 302,-158.2 302,-158.2 298,-158.2 302,-154.6 294,-158.2001 294,-158.2001"/>
<ellipse fill="none" stroke="#000000" cx="290.8" cy="-158.2001" rx="3.2" ry="3.2"/>
</g>
<!-- city -->
<g id="node6" class="node">
<title>city</title>
<g id="a_node6"><a xlink:href="../../tables/city.html" xlink:title="city" target="_top">
<polygon fill="#ffffff" stroke="transparent" points="8,-86.7 8,-147.7 71,-147.7 71,-86.7 8,-86.7"/>
<polygon fill="#f5f5f5" stroke="transparent" points="8.5,-124.2 8.5,-147.2 71.5,-147.2 71.5,-124.2 8.5,-124.2"/>
<polygon fill="none" stroke="#000000" points="8.5,-124.2 8.5,-147.2 71.5,-147.2 71.5,-124.2 8.5,-124.2"/>
<text text-anchor="start" x="13.5" y="-132.8" font-family="Helvetica,sans-Serif" font-weight="bold" font-size="11.00" fill="#000000">city</text>
<text text-anchor="start" x="37.0219" y="-132.3" font-family="Helvetica,sans-Serif" font-size="11.00" fill="#000000">[table]</text>
<polygon fill="none" stroke="#000000" points="8.5,-105.2 8.5,-124.2 71.5,-124.2 71.5,-105.2 8.5,-105.2"/>
<text text-anchor="start" x="11.5" y="-111.3" font-family="Helvetica,sans-Serif" font-size="11.00" fill="#000000">...</text>
<polygon fill="#ffffff" stroke="transparent" points="8.5,-86.2 8.5,-105.2 33.5,-105.2 33.5,-86.2 8.5,-86.2"/>
<polygon fill="none" stroke="#000000" points="8.5,-86.2 8.5,-105.2 33.5,-105.2 33.5,-86.2 8.5,-86.2"/>
<text text-anchor="start" x="11.5" y="-92.3" font-family="Helvetica,sans-Serif" font-size="11.00" fill="#000000">&lt; 1</text>
<polygon fill="#ffffff" stroke="transparent" points="33.5,-86.2 33.5,-105.2 47.5,-105.2 47.5,-86.2 33.5,-86.2"/>
<polygon fill="none" stroke="#000000" points="33.5,-86.2 33.5,-105.2 47.5,-105.2 47.5,-86.2 33.5,-86.2"/>
<text text-anchor="start" x="38.3862" y="-92.3" font-family="Helvetica,sans-Serif" font-size="11.00" fill="#000000"> &#160;</text>
<polygon fill="#ffffff" stroke="transparent" points="47.5,-86.2 47.5,-105.2 71.5,-105.2 71.5,-86.2 47.5,-86.2"/>
<polygon fill="none" stroke="#000000" points="47.5,-86.2 47.5,-105.2 71.5,-105.2 71.5,-86.2 47.5,-86.2"/>
<text text-anchor="start" x="52.9053" y="-92.3" font-family="Helvetica,sans-Serif" font-size="11.00" fill="#000000">2 &gt;</text>
</a>
</g>
</g>
<!-- manufacturer&#45;&gt;city -->
<g id="edge5" class="edge">
<title>manufacturer:w&#45;&gt;city:e</title>
<path fill="none" stroke="#000000" d="M105.9909,-114.2C94.6774,-114.2 87.4931,-114.2 71.5,-114.2"/>
<polygon fill="#000000" stroke="#000000" points="112.5,-114.2001 120.5,-117.8 116.5,-114.2 120.5,-114.2 120.5,-114.2 120.5,-114.2 116.5,-114.2 120.5,-110.6 112.5,-114.2001 112.5,-114.2001"/>
<ellipse fill="none" stroke="#000000" cx="109.3" cy="-114.2001" rx="3.2" ry="3.2"/>
</g>
<!-- fleet_airplane -->
<g id="node3" class="node">
<title>fleet_airplane</title>
<g id="a_node3"><a xlink:href="../../tables/fleet_airplane.html" xlink:title="fleet_airplane" target="_top">
<polygon fill="#ffffff" stroke="transparent" points="601,-184.7 601,-311.7 732,-311.7 732,-184.7 601,-184.7"/>
<polygon fill="#f5f5f5" stroke="transparent" points="601.5,-288.2 601.5,-311.2 732.5,-311.2 732.5,-288.2 601.5,-288.2"/>
<polygon fill="none" stroke="#000000" points="601.5,-288.2 601.5,-311.2 732.5,-311.2 732.5,-288.2 601.5,-288.2"/>
<text text-anchor="start" x="606.5" y="-296.8" font-family="Helvetica,sans-Serif" font-weight="bold" font-size="11.00" fill="#000000">fleet_airplane</text>
<text text-anchor="start" x="698.0219" y="-296.3" font-family="Helvetica,sans-Serif" font-size="11.00" fill="#000000">[table]</text>
<polygon fill="none" stroke="#000000" points="601.5,-266.2 601.5,-288.2 732.5,-288.2 732.5,-266.2 601.5,-266.2"/>
<image xlink:href="../../images/primaryKeys.png" width="11px" height="12px" preserveAspectRatio="xMinYMin meet" x="606.5" y="-283.2"/>
<text text-anchor="start" x="623.5" y="-273.3" font-family="Helvetica,sans-Serif" font-size="11.00" fill="#000000">id</text>
<polygon fill="#ffffff" stroke="transparent" points="601.5,-244.2 601.5,-266.2 732.5,-266.2 732.5,-244.2 601.5,-244.2"/>
<polygon fill="none" stroke="#000000" points="601.5,-244.2 601.5,-266.2 732.5,-266.2 732.5,-244.2 601.5,-244.2"/>
<image xlink:href="../../images/foreignKeys.png" width="11px" height="12px" preserveAspectRatio="xMinYMin meet" x="606.5" y="-261.2"/>
<text text-anchor="start" x="623.5" y="-251.3" font-family="Helvetica,sans-Serif" font-size="11.00" fill="#000000">fleet_id</text>
<polygon fill="#ffffff" stroke="transparent" points="601.5,-222.2 601.5,-244.2 732.5,-244.2 732.5,-222.2 601.5,-222.2"/>
<polygon fill="none" stroke="#000000" points="601.5,-222.2 601.5,-244.2 732.5,-244.2 732.5,-222.2 601.5,-222.2"/>
<image xlink:href="../../images/foreignKeys.png" width="11px" height="12px" preserveAspectRatio="xMinYMin meet" x="606.5" y="-239.2"/>
<text text-anchor="start" x="623.5" y="-229.3" font-family="Helvetica,sans-Serif" font-size="11.00" fill="#000000">airplane_id</text>
<polygon fill="none" stroke="#000000" points="601.5,-203.2 601.5,-222.2 732.5,-222.2 732.5,-203.2 601.5,-203.2"/>
<text text-anchor="start" x="604.5" y="-209.3" font-family="Helvetica,sans-Serif" font-size="11.00" fill="#000000">...</text>
<polygon fill="#ffffff" stroke="transparent" points="601.5,-184.2 601.5,-203.2 660.5,-203.2 660.5,-184.2 601.5,-184.2"/>
<polygon fill="none" stroke="#000000" points="601.5,-184.2 601.5,-203.2 660.5,-203.2 660.5,-184.2 601.5,-184.2"/>
<text text-anchor="start" x="604.5" y="-190.3" font-family="Helvetica,sans-Serif" font-size="11.00" fill="#000000">&lt; 2</text>
<polygon fill="#ffffff" stroke="transparent" points="660.5,-184.2 660.5,-203.2 691.5,-203.2 691.5,-184.2 660.5,-184.2"/>
<polygon fill="none" stroke="#000000" points="660.5,-184.2 660.5,-203.2 691.5,-203.2 691.5,-184.2 660.5,-184.2"/>
<text text-anchor="start" x="682.3862" y="-190.3" font-family="Helvetica,sans-Serif" font-size="11.00" fill="#000000"> &#160;</text>
<polygon fill="#ffffff" stroke="transparent" points="691.5,-184.2 691.5,-203.2 732.5,-203.2 732.5,-184.2 691.5,-184.2"/>
<polygon fill="none" stroke="#000000" points="691.5,-184.2 691.5,-203.2 732.5,-203.2 732.5,-184.2 691.5,-184.2"/>
<text text-anchor="start" x="713.9053" y="-190.3" font-family="Helvetica,sans-Serif" font-size="11.00" fill="#000000">1 &gt;</text>
</a>
</g>
</g>
<!-- fleet_airplane&#45;&gt;airplane -->
<g id="edge2" class="edge">
<title>fleet_airplane:w&#45;&gt;airplane:e</title>
<path fill="none" stroke="#000000" d="M587.4805,-229.3988C574.2585,-221.1209 570.8716,-202.2 550,-202.2"/>
<polygon fill="#000000" stroke="#000000" points="593.7788,-231.1064 600.5579,-236.6745 597.6394,-232.1532 601.5,-233.2 601.5,-233.2 601.5,-233.2 597.6394,-232.1532 602.4421,-229.7255 593.7788,-231.1064 593.7788,-231.1064"/>
<ellipse fill="none" stroke="#000000" cx="590.6903" cy="-230.269" rx="3.2" ry="3.2"/>
</g>
<!-- fleet -->
<g id="node4" class="node">
<title>fleet</title>
<g id="a_node4"><a xlink:href="../../tables/fleet.html" xlink:title="fleet" target="_top">
<polygon fill="#ffffff" stroke="transparent" points="391,-259.7 391,-320.7 461,-320.7 461,-259.7 391,-259.7"/>
<polygon fill="#f5f5f5" stroke="transparent" points="391,-297.2 391,-320.2 461,-320.2 461,-297.2 391,-297.2"/>
<polygon fill="none" stroke="#000000" points="391,-297.2 391,-320.2 461,-320.2 461,-297.2 391,-297.2"/>
<text text-anchor="start" x="396" y="-305.8" font-family="Helvetica,sans-Serif" font-weight="bold" font-size="11.00" fill="#000000">fleet</text>
<text text-anchor="start" x="426.5219" y="-305.3" font-family="Helvetica,sans-Serif" font-size="11.00" fill="#000000">[table]</text>
<polygon fill="none" stroke="#000000" points="391,-278.2 391,-297.2 461,-297.2 461,-278.2 391,-278.2"/>
<text text-anchor="start" x="394" y="-284.3" font-family="Helvetica,sans-Serif" font-size="11.00" fill="#000000">...</text>
<polygon fill="#ffffff" stroke="transparent" points="391,-259.2 391,-278.2 420,-278.2 420,-259.2 391,-259.2"/>
<polygon fill="none" stroke="#000000" points="391,-259.2 391,-278.2 420,-278.2 420,-259.2 391,-259.2"/>
<text text-anchor="start" x="394" y="-265.3" font-family="Helvetica,sans-Serif" font-size="11.00" fill="#000000">&lt; 1</text>
<polygon fill="#ffffff" stroke="transparent" points="420,-259.2 420,-278.2 436,-278.2 436,-259.2 420,-259.2"/>
<polygon fill="none" stroke="#000000" points="420,-259.2 420,-278.2 436,-278.2 436,-259.2 420,-259.2"/>
<text text-anchor="start" x="426.8862" y="-265.3" font-family="Helvetica,sans-Serif" font-size="11.00" fill="#000000"> &#160;</text>
<polygon fill="#ffffff" stroke="transparent" points="436,-259.2 436,-278.2 461,-278.2 461,-259.2 436,-259.2"/>
<polygon fill="none" stroke="#000000" points="436,-259.2 436,-278.2 461,-278.2 461,-259.2 436,-259.2"/>
<text text-anchor="start" x="442.4053" y="-265.3" font-family="Helvetica,sans-Serif" font-size="11.00" fill="#000000">1 &gt;</text>
</a>
</g>
</g>
<!-- fleet_airplane&#45;&gt;fleet -->
<g id="edge3" class="edge">
<title>fleet_airplane:w&#45;&gt;fleet:e</title>
<path fill="none" stroke="#000000" d="M587.0548,-255.7827C535.1373,-260.1198 519.9151,-287.2 461,-287.2"/>
<polygon fill="#000000" stroke="#000000" points="593.5065,-255.5225 601.6451,-258.7971 597.5033,-255.3613 601.5,-255.2 601.5,-255.2 601.5,-255.2 597.5033,-255.3613 601.3549,-251.6029 593.5065,-255.5225 593.5065,-255.5225"/>
<ellipse fill="none" stroke="#000000" cx="590.3091" cy="-255.6515" rx="3.2" ry="3.2"/>
</g>
<!-- fleet_route -->
<g id="node5" class="node">
<title>fleet_route</title>
<g id="a_node5"><a xlink:href="../../tables/fleet_route.html" xlink:title="fleet_route" target="_top">
<polygon fill="#ffffff" stroke="transparent" points="781,-249.7 781,-310.7 893,-310.7 893,-249.7 781,-249.7"/>
<polygon fill="#f5f5f5" stroke="transparent" points="781,-287.2 781,-310.2 893,-310.2 893,-287.2 781,-287.2"/>
<polygon fill="none" stroke="#000000" points="781,-287.2 781,-310.2 893,-310.2 893,-287.2 781,-287.2"/>
<text text-anchor="start" x="786" y="-295.8" font-family="Helvetica,sans-Serif" font-weight="bold" font-size="11.00" fill="#000000">fleet_route</text>
<text text-anchor="start" x="858.5219" y="-295.3" font-family="Helvetica,sans-Serif" font-size="11.00" fill="#000000">[table]</text>
<polygon fill="none" stroke="#000000" points="781,-268.2 781,-287.2 893,-287.2 893,-268.2 781,-268.2"/>
<text text-anchor="start" x="784" y="-274.3" font-family="Helvetica,sans-Serif" font-size="11.00" fill="#000000">...</text>
<polygon fill="#ffffff" stroke="transparent" points="781,-249.2 781,-268.2 835,-268.2 835,-249.2 781,-249.2"/>
<polygon fill="none" stroke="#000000" points="781,-249.2 781,-268.2 835,-268.2 835,-249.2 781,-249.2"/>
<text text-anchor="start" x="784" y="-255.3" font-family="Helvetica,sans-Serif" font-size="11.00" fill="#000000">&lt; 3</text>
<polygon fill="#ffffff" stroke="transparent" points="835,-249.2 835,-268.2 864,-268.2 864,-249.2 835,-249.2"/>
<polygon fill="none" stroke="#000000" points="835,-249.2 835,-268.2 864,-268.2 864,-249.2 835,-249.2"/>
<text text-anchor="start" x="854.8862" y="-255.3" font-family="Helvetica,sans-Serif" font-size="11.00" fill="#000000"> &#160;</text>
<polygon fill="#ffffff" stroke="transparent" points="864,-249.2 864,-268.2 893,-268.2 893,-249.2 864,-249.2"/>
<polygon fill="none" stroke="#000000" points="864,-249.2 864,-268.2 893,-268.2 893,-249.2 864,-249.2"/>
<text text-anchor="start" x="883.8862" y="-255.3" font-family="Helvetica,sans-Serif" font-size="11.00" fill="#000000"> &#160;</text>
</a>
</g>
</g>
<!-- fleet_route&#45;&gt;fleet_airplane -->
<g id="edge4" class="edge">
<title>fleet_route:w&#45;&gt;fleet_airplane:e</title>
<path fill="none" stroke="#000000" d="M766.2829,-277.2C755.2886,-277.2 748.1615,-277.2 732.5,-277.2"/>
<polygon fill="#000000" stroke="#000000" points="773,-277.2001 781,-280.8 777,-277.2 781,-277.2 781,-277.2 781,-277.2 777,-277.2 781,-273.6 773,-277.2001 773,-277.2001"/>
<ellipse fill="none" stroke="#000000" cx="769.8" cy="-277.2001" rx="3.2" ry="3.2"/>
</g>
</g>
</svg>
