<?xml version="1.0" encoding="UTF-8" standalone="no"?>
<!DOCTYPE svg PUBLIC "-//W3C//DTD SVG 1.1//EN"
 "http://www.w3.org/Graphics/SVG/1.1/DTD/svg11.dtd">
<!-- Generated by graphviz version 2.40.1 (20161225.0304)
 -->
<!-- Title: twoDegreesRelationshipsDiagram Pages: 1 -->
<svg width="1191pt" height="542pt"
 viewBox="0.00 0.00 1191.00 541.70" xmlns="http://www.w3.org/2000/svg" xmlns:xlink="http://www.w3.org/1999/xlink">
<g id="graph0" class="graph" transform="scale(1 1) rotate(0) translate(4 537.7)">
<title>twoDegreesRelationshipsDiagram</title>
<polygon fill="#ffffff" stroke="transparent" points="-4,4 -4,-537.7 1187,-537.7 1187,4 -4,4"/>
<text text-anchor="middle" x="72.4936" y="-7.3" font-family="Helvetica,sans-Serif" font-size="11.00" fill="#000000">Generated by SchemaSpy</text>
<!-- airport -->
<g id="node1" class="node">
<title>airport</title>
<g id="a_node1"><a xlink:href="../../tables/airport.html" xlink:title="airport" target="_top">
<polygon fill="#ffffff" stroke="transparent" points="324,-38.2 324,-348.2 600,-348.2 600,-38.2 324,-38.2"/>
<polygon fill="#f5f5f5" stroke="transparent" points="326,-323.2 326,-346.2 598,-346.2 598,-323.2 326,-323.2"/>
<polygon fill="none" stroke="#000000" points="326,-323.2 326,-346.2 598,-346.2 598,-323.2 326,-323.2"/>
<text text-anchor="start" x="331" y="-331.8" font-family="Helvetica,sans-Serif" font-weight="bold" font-size="11.00" fill="#000000">airport</text>
<text text-anchor="start" x="563.0437" y="-331.3" font-family="Helvetica,sans-Serif" font-size="11.00" fill="#000000">[table]</text>
<polygon fill="none" stroke="#000000" points="326,-301.2 326,-323.2 489,-323.2 489,-301.2 326,-301.2"/>
<image xlink:href="../../images/primaryKeys.png" width="11px" height="12px" preserveAspectRatio="xMinYMin meet" x="331" y="-318.2"/>
<text text-anchor="start" x="346" y="-308.3" font-family="Helvetica,sans-Serif" font-size="11.00" fill="#000000">id</text>
<polygon fill="none" stroke="#000000" points="489,-301.2 489,-323.2 598,-323.2 598,-301.2 489,-301.2"/>
<text text-anchor="start" x="492" y="-308.9" font-family="Helvetica,sans-Serif" font-size="11.00" fill="#000000">serial[10]</text>
<polygon fill="#ffffff" stroke="transparent" points="326,-279.2 326,-301.2 489,-301.2 489,-279.2 326,-279.2"/>
<polygon fill="none" stroke="#000000" points="326,-279.2 326,-301.2 489,-301.2 489,-279.2 326,-279.2"/>
<text text-anchor="start" x="346" y="-286.3" font-family="Helvetica,sans-Serif" font-size="11.00" fill="#000000">name</text>
<polygon fill="none" stroke="#000000" points="489,-279.2 489,-301.2 598,-301.2 598,-279.2 489,-279.2"/>
<text text-anchor="start" x="491.5344" y="-286.9" font-family="Helvetica,sans-Serif" font-size="11.00" fill="#000000">varchar[2147483647]</text>
<polygon fill="#ffffff" stroke="transparent" points="326,-257.2 326,-279.2 489,-279.2 489,-257.2 326,-257.2"/>
<polygon fill="none" stroke="#000000" points="326,-257.2 326,-279.2 489,-279.2 489,-257.2 326,-257.2"/>
<text text-anchor="start" x="346" y="-264.3" font-family="Helvetica,sans-Serif" font-size="11.00" fill="#000000">icao</text>
<polygon fill="none" stroke="#000000" points="489,-257.2 489,-279.2 598,-279.2 598,-257.2 489,-257.2"/>
<text text-anchor="start" x="492" y="-264.9" font-family="Helvetica,sans-Serif" font-size="11.00" fill="#000000">varchar[4]</text>
<polygon fill="#ffffff" stroke="transparent" points="326,-235.2 326,-257.2 489,-257.2 489,-235.2 326,-235.2"/>
<polygon fill="none" stroke="#000000" points="326,-235.2 326,-257.2 489,-257.2 489,-235.2 326,-235.2"/>
<text text-anchor="start" x="346" y="-242.3" font-family="Helvetica,sans-Serif" font-size="11.00" fill="#000000">iata</text>
<polygon fill="none" stroke="#000000" points="489,-235.2 489,-257.2 598,-257.2 598,-235.2 489,-235.2"/>
<text text-anchor="start" x="492" y="-242.9" font-family="Helvetica,sans-Serif" font-size="11.00" fill="#000000">varchar[3]</text>
<polygon fill="#ffffff" stroke="transparent" points="326,-213.2 326,-235.2 489,-235.2 489,-213.2 326,-213.2"/>
<polygon fill="none" stroke="#000000" points="326,-213.2 326,-235.2 489,-235.2 489,-213.2 326,-213.2"/>
<image xlink:href="../../images/foreignKeys.png" width="11px" height="12px" preserveAspectRatio="xMinYMin meet" x="331" y="-230.2"/>
<text text-anchor="start" x="346" y="-220.3" font-family="Helvetica,sans-Serif" font-size="11.00" fill="#000000">city_id</text>
<polygon fill="none" stroke="#000000" points="489,-213.2 489,-235.2 598,-235.2 598,-213.2 489,-213.2"/>
<text text-anchor="start" x="492" y="-220.9" font-family="Helvetica,sans-Serif" font-size="11.00" fill="#000000">int4[10]</text>
<polygon fill="none" stroke="#000000" points="326,-191.2 326,-213.2 489,-213.2 489,-191.2 326,-191.2"/>
<text text-anchor="start" x="346" y="-198.3" font-family="Helvetica,sans-Serif" font-size="11.00" fill="#000000">number_of_runways</text>
<polygon fill="none" stroke="#000000" points="489,-191.2 489,-213.2 598,-213.2 598,-191.2 489,-191.2"/>
<text text-anchor="start" x="492" y="-198.9" font-family="Helvetica,sans-Serif" font-size="11.00" fill="#000000">int4[10]</text>
<polygon fill="none" stroke="#000000" points="326,-169.2 326,-191.2 489,-191.2 489,-169.2 326,-169.2"/>
<text text-anchor="start" x="346" y="-176.3" font-family="Helvetica,sans-Serif" font-size="11.00" fill="#000000">number_of_terminals</text>
<polygon fill="none" stroke="#000000" points="489,-169.2 489,-191.2 598,-191.2 598,-169.2 489,-169.2"/>
<text text-anchor="start" x="492" y="-176.9" font-family="Helvetica,sans-Serif" font-size="11.00" fill="#000000">int4[10]</text>
<polygon fill="none" stroke="#000000" points="326,-147.2 326,-169.2 489,-169.2 489,-147.2 326,-147.2"/>
<text text-anchor="start" x="346" y="-154.3" font-family="Helvetica,sans-Serif" font-size="11.00" fill="#000000">capacity</text>
<polygon fill="none" stroke="#000000" points="489,-147.2 489,-169.2 598,-169.2 598,-147.2 489,-147.2"/>
<text text-anchor="start" x="492" y="-154.9" font-family="Helvetica,sans-Serif" font-size="11.00" fill="#000000">int4[10]</text>
<polygon fill="none" stroke="#000000" points="326,-125.2 326,-147.2 489,-147.2 489,-125.2 326,-125.2"/>
<text text-anchor="start" x="346" y="-132.3" font-family="Helvetica,sans-Serif" font-size="11.00" fill="#000000">international</text>
<polygon fill="none" stroke="#000000" points="489,-125.2 489,-147.2 598,-147.2 598,-125.2 489,-125.2"/>
<text text-anchor="start" x="492" y="-132.9" font-family="Helvetica,sans-Serif" font-size="11.00" fill="#000000">bool[1]</text>
<polygon fill="none" stroke="#000000" points="326,-103.2 326,-125.2 489,-125.2 489,-103.2 326,-103.2"/>
<text text-anchor="start" x="346" y="-110.3" font-family="Helvetica,sans-Serif" font-size="11.00" fill="#000000">junction</text>
<polygon fill="none" stroke="#000000" points="489,-103.2 489,-125.2 598,-125.2 598,-103.2 489,-103.2"/>
<text text-anchor="start" x="492" y="-110.9" font-family="Helvetica,sans-Serif" font-size="11.00" fill="#000000">bool[1]</text>
<polygon fill="none" stroke="#000000" points="326,-81.2 326,-103.2 489,-103.2 489,-81.2 326,-81.2"/>
<text text-anchor="start" x="346" y="-88.3" font-family="Helvetica,sans-Serif" font-size="11.00" fill="#000000">created_at</text>
<polygon fill="none" stroke="#000000" points="489,-81.2 489,-103.2 598,-103.2 598,-81.2 489,-81.2"/>
<text text-anchor="start" x="492" y="-88.9" font-family="Helvetica,sans-Serif" font-size="11.00" fill="#000000">timestamp[29,6]</text>
<polygon fill="none" stroke="#000000" points="326,-59.2 326,-81.2 489,-81.2 489,-59.2 326,-59.2"/>
<text text-anchor="start" x="346" y="-66.3" font-family="Helvetica,sans-Serif" font-size="11.00" fill="#000000">last_updated_at</text>
<polygon fill="none" stroke="#000000" points="489,-59.2 489,-81.2 598,-81.2 598,-59.2 489,-59.2"/>
<text text-anchor="start" x="492" y="-66.9" font-family="Helvetica,sans-Serif" font-size="11.00" fill="#000000">timestamp[29,6]</text>
<polygon fill="#ffffff" stroke="transparent" points="326,-40.2 326,-59.2 412,-59.2 412,-40.2 326,-40.2"/>
<polygon fill="none" stroke="#000000" points="326,-40.2 326,-59.2 412,-59.2 412,-40.2 326,-40.2"/>
<text text-anchor="start" x="329" y="-46.3" font-family="Helvetica,sans-Serif" font-size="11.00" fill="#000000">&lt; 1</text>
<polygon fill="#ffffff" stroke="transparent" points="412,-40.2 412,-59.2 489,-59.2 489,-40.2 412,-40.2"/>
<polygon fill="none" stroke="#000000" points="412,-40.2 412,-59.2 489,-59.2 489,-40.2 412,-40.2"/>
<text text-anchor="start" x="479.8862" y="-46.3" font-family="Helvetica,sans-Serif" font-size="11.00" fill="#000000"> &#160;</text>
<polygon fill="#ffffff" stroke="transparent" points="489,-40.2 489,-59.2 598,-59.2 598,-40.2 489,-40.2"/>
<polygon fill="none" stroke="#000000" points="489,-40.2 489,-59.2 598,-59.2 598,-40.2 489,-40.2"/>
<text text-anchor="start" x="579.4053" y="-46.3" font-family="Helvetica,sans-Serif" font-size="11.00" fill="#000000">3 &gt;</text>
<polygon fill="none" stroke="#000000" stroke-width="2" points="325,-39.2 325,-347.2 599,-347.2 599,-39.2 325,-39.2"/>
</a>
</g>
</g>
<!-- city -->
<g id="node2" class="node">
<title>city</title>
<g id="a_node2"><a xlink:href="../../tables/city.html" xlink:title="city" target="_top">
<polygon fill="#ffffff" stroke="transparent" points="147,-217.7 147,-344.7 275,-344.7 275,-217.7 147,-217.7"/>
<polygon fill="#f5f5f5" stroke="transparent" points="147,-321.2 147,-344.2 275,-344.2 275,-321.2 147,-321.2"/>
<polygon fill="none" stroke="#000000" points="147,-321.2 147,-344.2 275,-344.2 275,-321.2 147,-321.2"/>
<text text-anchor="start" x="152" y="-329.8" font-family="Helvetica,sans-Serif" font-weight="bold" font-size="11.00" fill="#000000">city</text>
<text text-anchor="start" x="240.0437" y="-329.3" font-family="Helvetica,sans-Serif" font-size="11.00" fill="#000000">[table]</text>
<polygon fill="none" stroke="#000000" points="147,-299.2 147,-321.2 275,-321.2 275,-299.2 147,-299.2"/>
<image xlink:href="../../images/primaryKeys.png" width="11px" height="12px" preserveAspectRatio="xMinYMin meet" x="152" y="-316.2"/>
<text text-anchor="start" x="167" y="-306.3" font-family="Helvetica,sans-Serif" font-size="11.00" fill="#000000">id</text>
<polygon fill="#ffffff" stroke="transparent" points="147,-277.2 147,-299.2 275,-299.2 275,-277.2 147,-277.2"/>
<polygon fill="none" stroke="#000000" points="147,-277.2 147,-299.2 275,-299.2 275,-277.2 147,-277.2"/>
<text text-anchor="start" x="167" y="-284.3" font-family="Helvetica,sans-Serif" font-size="11.00" fill="#000000">name</text>
<polygon fill="#ffffff" stroke="transparent" points="147,-255.2 147,-277.2 275,-277.2 275,-255.2 147,-255.2"/>
<polygon fill="none" stroke="#000000" points="147,-255.2 147,-277.2 275,-277.2 275,-255.2 147,-255.2"/>
<image xlink:href="../../images/foreignKeys.png" width="11px" height="12px" preserveAspectRatio="xMinYMin meet" x="152" y="-272.2"/>
<text text-anchor="start" x="167" y="-262.3" font-family="Helvetica,sans-Serif" font-size="11.00" fill="#000000">country_id</text>
<polygon fill="none" stroke="#000000" points="147,-236.2 147,-255.2 275,-255.2 275,-236.2 147,-236.2"/>
<text text-anchor="start" x="150" y="-242.3" font-family="Helvetica,sans-Serif" font-size="11.00" fill="#000000">...</text>
<polygon fill="#ffffff" stroke="transparent" points="147,-217.2 147,-236.2 205,-236.2 205,-217.2 147,-217.2"/>
<polygon fill="none" stroke="#000000" points="147,-217.2 147,-236.2 205,-236.2 205,-217.2 147,-217.2"/>
<text text-anchor="start" x="150" y="-223.3" font-family="Helvetica,sans-Serif" font-size="11.00" fill="#000000">&lt; 1</text>
<polygon fill="#ffffff" stroke="transparent" points="205,-217.2 205,-236.2 235,-236.2 235,-217.2 205,-217.2"/>
<polygon fill="none" stroke="#000000" points="205,-217.2 205,-236.2 235,-236.2 235,-217.2 205,-217.2"/>
<text text-anchor="start" x="225.8862" y="-223.3" font-family="Helvetica,sans-Serif" font-size="11.00" fill="#000000"> &#160;</text>
<polygon fill="#ffffff" stroke="transparent" points="235,-217.2 235,-236.2 275,-236.2 275,-217.2 235,-217.2"/>
<polygon fill="none" stroke="#000000" points="235,-217.2 235,-236.2 275,-236.2 275,-217.2 235,-217.2"/>
<text text-anchor="start" x="256.4053" y="-223.3" font-family="Helvetica,sans-Serif" font-size="11.00" fill="#000000">2 &gt;</text>
</a>
</g>
</g>
<!-- airport&#45;&gt;city -->
<g id="edge1" class="edge">
<title>airport:w&#45;&gt;city:e</title>
<path fill="none" stroke="#000000" d="M311.9687,-228.583C290.3802,-246.1081 313.3623,-310.2 275,-310.2"/>
<polygon fill="#000000" stroke="#000000" points="318.3639,-226.5853 327.0734,-227.6363 322.1819,-225.3927 326,-224.2 326,-224.2 326,-224.2 322.1819,-225.3927 324.9266,-220.7637 318.3639,-226.5853 318.3639,-226.5853"/>
<ellipse fill="none" stroke="#000000" cx="315.3094" cy="-227.5395" rx="3.2" ry="3.2"/>
</g>
<!-- country -->
<g id="node3" class="node">
<title>country</title>
<g id="a_node3"><a xlink:href="../../tables/country.html" xlink:title="country" target="_top">
<polygon fill="#ffffff" stroke="transparent" points="8,-238.7 8,-299.7 98,-299.7 98,-238.7 8,-238.7"/>
<polygon fill="#f5f5f5" stroke="transparent" points="8,-276.2 8,-299.2 98,-299.2 98,-276.2 8,-276.2"/>
<polygon fill="none" stroke="#000000" points="8,-276.2 8,-299.2 98,-299.2 98,-276.2 8,-276.2"/>
<text text-anchor="start" x="13" y="-284.8" font-family="Helvetica,sans-Serif" font-weight="bold" font-size="11.00" fill="#000000">country</text>
<text text-anchor="start" x="63.5219" y="-284.3" font-family="Helvetica,sans-Serif" font-size="11.00" fill="#000000">[table]</text>
<polygon fill="none" stroke="#000000" points="8,-257.2 8,-276.2 98,-276.2 98,-257.2 8,-257.2"/>
<text text-anchor="start" x="11" y="-263.3" font-family="Helvetica,sans-Serif" font-size="11.00" fill="#000000">...</text>
<polygon fill="#ffffff" stroke="transparent" points="8,-238.2 8,-257.2 47,-257.2 47,-238.2 8,-238.2"/>
<polygon fill="none" stroke="#000000" points="8,-238.2 8,-257.2 47,-257.2 47,-238.2 8,-238.2"/>
<text text-anchor="start" x="11" y="-244.3" font-family="Helvetica,sans-Serif" font-size="11.00" fill="#000000">&lt; 4</text>
<polygon fill="#ffffff" stroke="transparent" points="47,-238.2 47,-257.2 68,-257.2 68,-238.2 47,-238.2"/>
<polygon fill="none" stroke="#000000" points="47,-238.2 47,-257.2 68,-257.2 68,-238.2 47,-238.2"/>
<text text-anchor="start" x="58.8862" y="-244.3" font-family="Helvetica,sans-Serif" font-size="11.00" fill="#000000"> &#160;</text>
<polygon fill="#ffffff" stroke="transparent" points="68,-238.2 68,-257.2 98,-257.2 98,-238.2 68,-238.2"/>
<polygon fill="none" stroke="#000000" points="68,-238.2 68,-257.2 98,-257.2 98,-238.2 68,-238.2"/>
<text text-anchor="start" x="79.4053" y="-244.3" font-family="Helvetica,sans-Serif" font-size="11.00" fill="#000000">1 &gt;</text>
</a>
</g>
</g>
<!-- city&#45;&gt;country -->
<g id="edge2" class="edge">
<title>city:w&#45;&gt;country:e</title>
<path fill="none" stroke="#000000" d="M132.4909,-266.2C121.1774,-266.2 113.9931,-266.2 98,-266.2"/>
<polygon fill="#000000" stroke="#000000" points="139,-266.2001 147,-269.8 143,-266.2 147,-266.2 147,-266.2 147,-266.2 143,-266.2 147,-262.6 139,-266.2001 139,-266.2001"/>
<ellipse fill="none" stroke="#000000" cx="135.8" cy="-266.2001" rx="3.2" ry="3.2"/>
</g>
<!-- fleet -->
<g id="node4" class="node">
<title>fleet</title>
<g id="a_node4"><a xlink:href="../../tables/fleet.html" xlink:title="fleet" target="_top">
<polygon fill="#ffffff" stroke="transparent" points="649,-336.7 649,-529.7 777,-529.7 777,-336.7 649,-336.7"/>
<polygon fill="#f5f5f5" stroke="transparent" points="649,-506.2 649,-529.2 777,-529.2 777,-506.2 649,-506.2"/>
<polygon fill="none" stroke="#000000" points="649,-506.2 649,-529.2 777,-529.2 777,-506.2 649,-506.2"/>
<text text-anchor="start" x="654" y="-514.8" font-family="Helvetica,sans-Serif" font-weight="bold" font-size="11.00" fill="#000000">fleet</text>
<text text-anchor="start" x="742.0437" y="-514.3" font-family="Helvetica,sans-Serif" font-size="11.00" fill="#000000">[table]</text>
<polygon fill="none" stroke="#000000" points="649,-484.2 649,-506.2 777,-506.2 777,-484.2 649,-484.2"/>
<image xlink:href="../../images/primaryKeys.png" width="11px" height="12px" preserveAspectRatio="xMinYMin meet" x="654" y="-501.2"/>
<text text-anchor="start" x="669" y="-491.3" font-family="Helvetica,sans-Serif" font-size="11.00" fill="#000000">id</text>
<polygon fill="#ffffff" stroke="transparent" points="649,-462.2 649,-484.2 777,-484.2 777,-462.2 649,-462.2"/>
<polygon fill="none" stroke="#000000" points="649,-462.2 649,-484.2 777,-484.2 777,-462.2 649,-462.2"/>
<text text-anchor="start" x="669" y="-469.3" font-family="Helvetica,sans-Serif" font-size="11.00" fill="#000000">name</text>
<polygon fill="#ffffff" stroke="transparent" points="649,-440.2 649,-462.2 777,-462.2 777,-440.2 649,-440.2"/>
<polygon fill="none" stroke="#000000" points="649,-440.2 649,-462.2 777,-462.2 777,-440.2 649,-440.2"/>
<text text-anchor="start" x="669" y="-447.3" font-family="Helvetica,sans-Serif" font-size="11.00" fill="#000000">iso2</text>
<polygon fill="#ffffff" stroke="transparent" points="649,-418.2 649,-440.2 777,-440.2 777,-418.2 649,-418.2"/>
<polygon fill="none" stroke="#000000" points="649,-418.2 649,-440.2 777,-440.2 777,-418.2 649,-418.2"/>
<text text-anchor="start" x="669" y="-425.3" font-family="Helvetica,sans-Serif" font-size="11.00" fill="#000000">iso3</text>
<polygon fill="#ffffff" stroke="transparent" points="649,-396.2 649,-418.2 777,-418.2 777,-396.2 649,-396.2"/>
<polygon fill="none" stroke="#000000" points="649,-396.2 649,-418.2 777,-418.2 777,-396.2 649,-396.2"/>
<text text-anchor="start" x="669" y="-403.3" font-family="Helvetica,sans-Serif" font-size="11.00" fill="#000000">call_sign</text>
<polygon fill="#ffffff" stroke="transparent" points="649,-374.2 649,-396.2 777,-396.2 777,-374.2 649,-374.2"/>
<polygon fill="none" stroke="#000000" points="649,-374.2 649,-396.2 777,-396.2 777,-374.2 649,-374.2"/>
<image xlink:href="../../images/foreignKeys.png" width="11px" height="12px" preserveAspectRatio="xMinYMin meet" x="654" y="-391.2"/>
<text text-anchor="start" x="669" y="-381.3" font-family="Helvetica,sans-Serif" font-size="11.00" fill="#000000">hub_airport_id</text>
<polygon fill="none" stroke="#000000" points="649,-355.2 649,-374.2 777,-374.2 777,-355.2 649,-355.2"/>
<text text-anchor="start" x="652" y="-361.3" font-family="Helvetica,sans-Serif" font-size="11.00" fill="#000000">...</text>
<polygon fill="#ffffff" stroke="transparent" points="649,-336.2 649,-355.2 707,-355.2 707,-336.2 649,-336.2"/>
<polygon fill="none" stroke="#000000" points="649,-336.2 649,-355.2 707,-355.2 707,-336.2 649,-336.2"/>
<text text-anchor="start" x="652" y="-342.3" font-family="Helvetica,sans-Serif" font-size="11.00" fill="#000000">&lt; 1</text>
<polygon fill="#ffffff" stroke="transparent" points="707,-336.2 707,-355.2 737,-355.2 737,-336.2 707,-336.2"/>
<polygon fill="none" stroke="#000000" points="707,-336.2 707,-355.2 737,-355.2 737,-336.2 707,-336.2"/>
<text text-anchor="start" x="727.8862" y="-342.3" font-family="Helvetica,sans-Serif" font-size="11.00" fill="#000000"> &#160;</text>
<polygon fill="#ffffff" stroke="transparent" points="737,-336.2 737,-355.2 777,-355.2 777,-336.2 737,-336.2"/>
<polygon fill="none" stroke="#000000" points="737,-336.2 737,-355.2 777,-355.2 777,-336.2 737,-336.2"/>
<text text-anchor="start" x="758.4053" y="-342.3" font-family="Helvetica,sans-Serif" font-size="11.00" fill="#000000">1 &gt;</text>
</a>
</g>
</g>
<!-- fleet&#45;&gt;airport -->
<g id="edge3" class="edge">
<title>fleet:w&#45;&gt;airport:e</title>
<path fill="none" stroke="#000000" d="M635.1487,-380.6335C616.4288,-364.652 631.5486,-312.2 598,-312.2"/>
<polygon fill="#000000" stroke="#000000" points="641.4022,-382.6951 647.8728,-388.619 645.2011,-383.9476 649,-385.2 649,-385.2 649,-385.2 645.2011,-383.9476 650.1272,-381.781 641.4022,-382.6951 641.4022,-382.6951"/>
<ellipse fill="none" stroke="#000000" cx="638.3631" cy="-381.6932" rx="3.2" ry="3.2"/>
</g>
<!-- fleet_airplane -->
<g id="node5" class="node">
<title>fleet_airplane</title>
<g id="a_node5"><a xlink:href="../../tables/fleet_airplane.html" xlink:title="fleet_airplane" target="_top">
<polygon fill="#ffffff" stroke="transparent" points="826,-401.7 826,-462.7 957,-462.7 957,-401.7 826,-401.7"/>
<polygon fill="#f5f5f5" stroke="transparent" points="826.5,-439.2 826.5,-462.2 957.5,-462.2 957.5,-439.2 826.5,-439.2"/>
<polygon fill="none" stroke="#000000" points="826.5,-439.2 826.5,-462.2 957.5,-462.2 957.5,-439.2 826.5,-439.2"/>
<text text-anchor="start" x="831.5" y="-447.8" font-family="Helvetica,sans-Serif" font-weight="bold" font-size="11.00" fill="#000000">fleet_airplane</text>
<text text-anchor="start" x="923.0219" y="-447.3" font-family="Helvetica,sans-Serif" font-size="11.00" fill="#000000">[table]</text>
<polygon fill="none" stroke="#000000" points="826.5,-420.2 826.5,-439.2 957.5,-439.2 957.5,-420.2 826.5,-420.2"/>
<text text-anchor="start" x="829.5" y="-426.3" font-family="Helvetica,sans-Serif" font-size="11.00" fill="#000000">...</text>
<polygon fill="#ffffff" stroke="transparent" points="826.5,-401.2 826.5,-420.2 885.5,-420.2 885.5,-401.2 826.5,-401.2"/>
<polygon fill="none" stroke="#000000" points="826.5,-401.2 826.5,-420.2 885.5,-420.2 885.5,-401.2 826.5,-401.2"/>
<text text-anchor="start" x="829.5" y="-407.3" font-family="Helvetica,sans-Serif" font-size="11.00" fill="#000000">&lt; 2</text>
<polygon fill="#ffffff" stroke="transparent" points="885.5,-401.2 885.5,-420.2 916.5,-420.2 916.5,-401.2 885.5,-401.2"/>
<polygon fill="none" stroke="#000000" points="885.5,-401.2 885.5,-420.2 916.5,-420.2 916.5,-401.2 885.5,-401.2"/>
<text text-anchor="start" x="907.3862" y="-407.3" font-family="Helvetica,sans-Serif" font-size="11.00" fill="#000000"> &#160;</text>
<polygon fill="#ffffff" stroke="transparent" points="916.5,-401.2 916.5,-420.2 957.5,-420.2 957.5,-401.2 916.5,-401.2"/>
<polygon fill="none" stroke="#000000" points="916.5,-401.2 916.5,-420.2 957.5,-420.2 957.5,-401.2 916.5,-401.2"/>
<text text-anchor="start" x="938.9053" y="-407.3" font-family="Helvetica,sans-Serif" font-size="11.00" fill="#000000">1 &gt;</text>
</a>
</g>
</g>
<!-- fleet_airplane&#45;&gt;fleet -->
<g id="edge4" class="edge">
<title>fleet_airplane:w&#45;&gt;fleet:e</title>
<path fill="none" stroke="#000000" d="M812.8041,-433.9466C796.0252,-449.0798 807.651,-495.2 777,-495.2"/>
<polygon fill="#000000" stroke="#000000" points="818.9411,-431.8197 827.6789,-432.6015 822.7205,-430.5099 826.5,-429.2 826.5,-429.2 826.5,-429.2 822.7205,-430.5099 825.3211,-425.7985 818.9411,-431.8197 818.9411,-431.8197"/>
<ellipse fill="none" stroke="#000000" cx="815.9175" cy="-432.8676" rx="3.2" ry="3.2"/>
</g>
<!-- fleet_route -->
<g id="node6" class="node">
<title>fleet_route</title>
<g id="a_node6"><a xlink:href="../../tables/fleet_route.html" xlink:title="fleet_route" target="_top">
<polygon fill="#ffffff" stroke="transparent" points="1006,-241.7 1006,-412.7 1175,-412.7 1175,-241.7 1006,-241.7"/>
<polygon fill="#f5f5f5" stroke="transparent" points="1006.5,-389.2 1006.5,-412.2 1175.5,-412.2 1175.5,-389.2 1006.5,-389.2"/>
<polygon fill="none" stroke="#000000" points="1006.5,-389.2 1006.5,-412.2 1175.5,-412.2 1175.5,-389.2 1006.5,-389.2"/>
<text text-anchor="start" x="1011.5" y="-397.8" font-family="Helvetica,sans-Serif" font-weight="bold" font-size="11.00" fill="#000000">fleet_route</text>
<text text-anchor="start" x="1140.5437" y="-397.3" font-family="Helvetica,sans-Serif" font-size="11.00" fill="#000000">[table]</text>
<polygon fill="none" stroke="#000000" points="1006.5,-367.2 1006.5,-389.2 1175.5,-389.2 1175.5,-367.2 1006.5,-367.2"/>
<image xlink:href="../../images/primaryKeys.png" width="11px" height="12px" preserveAspectRatio="xMinYMin meet" x="1011.5" y="-384.2"/>
<text text-anchor="start" x="1026.5" y="-374.3" font-family="Helvetica,sans-Serif" font-size="11.00" fill="#000000">id</text>
<polygon fill="none" stroke="#000000" points="1006.5,-345.2 1006.5,-367.2 1175.5,-367.2 1175.5,-345.2 1006.5,-345.2"/>
<image xlink:href="../../images/foreignKeys.png" width="11px" height="12px" preserveAspectRatio="xMinYMin meet" x="1011.5" y="-362.2"/>
<text text-anchor="start" x="1026.5" y="-352.3" font-family="Helvetica,sans-Serif" font-size="11.00" fill="#000000">fleet_airplane_id</text>
<polygon fill="#ffffff" stroke="transparent" points="1006.5,-323.2 1006.5,-345.2 1175.5,-345.2 1175.5,-323.2 1006.5,-323.2"/>
<polygon fill="none" stroke="#000000" points="1006.5,-323.2 1006.5,-345.2 1175.5,-345.2 1175.5,-323.2 1006.5,-323.2"/>
<text text-anchor="start" x="1026.5" y="-330.3" font-family="Helvetica,sans-Serif" font-size="11.00" fill="#000000">route_number</text>
<polygon fill="#ffffff" stroke="transparent" points="1006.5,-301.2 1006.5,-323.2 1175.5,-323.2 1175.5,-301.2 1006.5,-301.2"/>
<polygon fill="none" stroke="#000000" points="1006.5,-301.2 1006.5,-323.2 1175.5,-323.2 1175.5,-301.2 1006.5,-301.2"/>
<image xlink:href="../../images/foreignKeys.png" width="11px" height="12px" preserveAspectRatio="xMinYMin meet" x="1011.5" y="-318.2"/>
<text text-anchor="start" x="1026.5" y="-308.3" font-family="Helvetica,sans-Serif" font-size="11.00" fill="#000000">start_airport_id</text>
<polygon fill="#ffffff" stroke="transparent" points="1006.5,-279.2 1006.5,-301.2 1175.5,-301.2 1175.5,-279.2 1006.5,-279.2"/>
<polygon fill="none" stroke="#000000" points="1006.5,-279.2 1006.5,-301.2 1175.5,-301.2 1175.5,-279.2 1006.5,-279.2"/>
<image xlink:href="../../images/foreignKeys.png" width="11px" height="12px" preserveAspectRatio="xMinYMin meet" x="1011.5" y="-296.2"/>
<text text-anchor="start" x="1026.5" y="-286.3" font-family="Helvetica,sans-Serif" font-size="11.00" fill="#000000">destination_airport_id</text>
<polygon fill="none" stroke="#000000" points="1006.5,-260.2 1006.5,-279.2 1175.5,-279.2 1175.5,-260.2 1006.5,-260.2"/>
<text text-anchor="start" x="1009.5" y="-266.3" font-family="Helvetica,sans-Serif" font-size="11.00" fill="#000000">...</text>
<polygon fill="#ffffff" stroke="transparent" points="1006.5,-241.2 1006.5,-260.2 1089.5,-260.2 1089.5,-241.2 1006.5,-241.2"/>
<polygon fill="none" stroke="#000000" points="1006.5,-241.2 1006.5,-260.2 1089.5,-260.2 1089.5,-241.2 1006.5,-241.2"/>
<text text-anchor="start" x="1009.5" y="-247.3" font-family="Helvetica,sans-Serif" font-size="11.00" fill="#000000">&lt; 3</text>
<polygon fill="#ffffff" stroke="transparent" points="1089.5,-241.2 1089.5,-260.2 1132.5,-260.2 1132.5,-241.2 1089.5,-241.2"/>
<polygon fill="none" stroke="#000000" points="1089.5,-241.2 1089.5,-260.2 1132.5,-260.2 1132.5,-241.2 1089.5,-241.2"/>
<text text-anchor="start" x="1123.3862" y="-247.3" font-family="Helvetica,sans-Serif" font-size="11.00" fill="#000000"> &#160;</text>
<polygon fill="#ffffff" stroke="transparent" points="1132.5,-241.2 1132.5,-260.2 1175.5,-260.2 1175.5,-241.2 1132.5,-241.2"/>
<polygon fill="none" stroke="#000000" points="1132.5,-241.2 1132.5,-260.2 1175.5,-260.2 1175.5,-241.2 1132.5,-241.2"/>
<text text-anchor="start" x="1166.3862" y="-247.3" font-family="Helvetica,sans-Serif" font-size="11.00" fill="#000000"> &#160;</text>
</a>
</g>
</g>
<!-- fleet_route&#45;&gt;airport -->
<g id="edge5" class="edge">
<title>fleet_route:w&#45;&gt;airport:e</title>
<path fill="none" stroke="#000000" d="M992.064,-290.1759C841.3265,-289.6723 797.2681,-281.6653 641,-302.2 621.5461,-304.7564 617.6211,-312.2 598,-312.2"/>
<polygon fill="#000000" stroke="#000000" points="998.5,-290.1866 1006.494,-293.8 1002.5,-290.1933 1006.5,-290.2 1006.5,-290.2 1006.5,-290.2 1002.5,-290.1933 1006.506,-286.6 998.5,-290.1866 998.5,-290.1866"/>
<ellipse fill="none" stroke="#000000" cx="995.3" cy="-290.1812" rx="3.2" ry="3.2"/>
</g>
<!-- fleet_route&#45;&gt;airport -->
<g id="edge7" class="edge">
<title>fleet_route:w&#45;&gt;airport:e</title>
<path fill="none" stroke="#000000" d="M991.9066,-312.2C822.3604,-312.2 774.5911,-312.2 598,-312.2"/>
<polygon fill="#000000" stroke="#000000" points="998.5,-312.2001 1006.5,-315.8 1002.5,-312.2 1006.5,-312.2 1006.5,-312.2 1006.5,-312.2 1002.5,-312.2 1006.5,-308.6 998.5,-312.2001 998.5,-312.2001"/>
<ellipse fill="none" stroke="#000000" cx="995.3" cy="-312.2001" rx="3.2" ry="3.2"/>
</g>
<!-- fleet_route&#45;&gt;fleet_airplane -->
<g id="edge6" class="edge">
<title>fleet_route:w&#45;&gt;fleet_airplane:e</title>
<path fill="none" stroke="#000000" d="M992.6598,-360.9897C974.8684,-377.2303 990.4702,-429.2 957.5,-429.2"/>
<polygon fill="#000000" stroke="#000000" points="998.9399,-358.8164 1007.6774,-359.602 1002.72,-357.5082 1006.5,-356.2 1006.5,-356.2 1006.5,-356.2 1002.72,-357.5082 1005.3226,-352.798 998.9399,-358.8164 998.9399,-358.8164"/>
<ellipse fill="none" stroke="#000000" cx="995.9159" cy="-359.8629" rx="3.2" ry="3.2"/>
</g>
<!-- manufacturer -->
<g id="node7" class="node">
<title>manufacturer</title>
<g id="a_node7"><a xlink:href="../../tables/manufacturer.html" xlink:title="manufacturer" target="_top">
<polygon fill="#ffffff" stroke="transparent" points="396.5,-369.7 396.5,-430.7 527.5,-430.7 527.5,-369.7 396.5,-369.7"/>
<polygon fill="#f5f5f5" stroke="transparent" points="397,-407.2 397,-430.2 528,-430.2 528,-407.2 397,-407.2"/>
<polygon fill="none" stroke="#000000" points="397,-407.2 397,-430.2 528,-430.2 528,-407.2 397,-407.2"/>
<text text-anchor="start" x="402" y="-415.8" font-family="Helvetica,sans-Serif" font-weight="bold" font-size="11.00" fill="#000000">manufacturer</text>
<text text-anchor="start" x="493.5219" y="-415.3" font-family="Helvetica,sans-Serif" font-size="11.00" fill="#000000">[table]</text>
<polygon fill="none" stroke="#000000" points="397,-388.2 397,-407.2 528,-407.2 528,-388.2 397,-388.2"/>
<text text-anchor="start" x="400" y="-394.3" font-family="Helvetica,sans-Serif" font-size="11.00" fill="#000000">...</text>
<polygon fill="#ffffff" stroke="transparent" points="397,-369.2 397,-388.2 456,-388.2 456,-369.2 397,-369.2"/>
<polygon fill="none" stroke="#000000" points="397,-369.2 397,-388.2 456,-388.2 456,-369.2 397,-369.2"/>
<text text-anchor="start" x="400" y="-375.3" font-family="Helvetica,sans-Serif" font-size="11.00" fill="#000000">&lt; 1</text>
<polygon fill="#ffffff" stroke="transparent" points="456,-369.2 456,-388.2 487,-388.2 487,-369.2 456,-369.2"/>
<polygon fill="none" stroke="#000000" points="456,-369.2 456,-388.2 487,-388.2 487,-369.2 456,-369.2"/>
<text text-anchor="start" x="477.8862" y="-375.3" font-family="Helvetica,sans-Serif" font-size="11.00" fill="#000000"> &#160;</text>
<polygon fill="#ffffff" stroke="transparent" points="487,-369.2 487,-388.2 528,-388.2 528,-369.2 487,-369.2"/>
<polygon fill="none" stroke="#000000" points="487,-369.2 487,-388.2 528,-388.2 528,-369.2 487,-369.2"/>
<text text-anchor="start" x="509.4053" y="-375.3" font-family="Helvetica,sans-Serif" font-size="11.00" fill="#000000">1 &gt;</text>
</a>
</g>
</g>
<!-- manufacturer&#45;&gt;city -->
<g id="edge8" class="edge">
<title>manufacturer:w&#45;&gt;city:e</title>
<path fill="none" stroke="#000000" d="M382.2419,-396.438C354.167,-393.2477 343.1955,-380.1481 316,-359.2 293.5042,-341.872 303.3958,-310.2 275,-310.2"/>
<polygon fill="#000000" stroke="#000000" points="389.0106,-396.7874 396.8144,-400.7952 393.0053,-396.9937 397,-397.2 397,-397.2 397,-397.2 393.0053,-396.9937 397.1856,-393.6048 389.0106,-396.7874 389.0106,-396.7874"/>
<ellipse fill="none" stroke="#000000" cx="385.8149" cy="-396.6224" rx="3.2" ry="3.2"/>
</g>
</g>
</svg>
