<?xml version="1.0" encoding="UTF-8" standalone="no"?>
<!DOCTYPE svg PUBLIC "-//W3C//DTD SVG 1.1//EN"
 "http://www.w3.org/Graphics/SVG/1.1/DTD/svg11.dtd">
<!-- Generated by graphviz version 2.40.1 (20161225.0304)
 -->
<!-- Title: oneDegreeRelationshipsDiagram Pages: 1 -->
<svg width="695pt" height="639pt"
 viewBox="0.00 0.00 695.00 638.70" xmlns="http://www.w3.org/2000/svg" xmlns:xlink="http://www.w3.org/1999/xlink">
<g id="graph0" class="graph" transform="scale(1 1) rotate(0) translate(4 634.7)">
<title>oneDegreeRelationshipsDiagram</title>
<polygon fill="#ffffff" stroke="transparent" points="-4,4 -4,-634.7 691,-634.7 691,4 -4,4"/>
<text text-anchor="middle" x="72.4936" y="-7.3" font-family="Helvetica,sans-Serif" font-size="11.00" fill="#000000">Generated by SchemaSpy</text>
<!-- airport -->
<g id="node1" class="node">
<title>airport</title>
<g id="a_node1"><a xlink:href="../../tables/airport.html" xlink:title="airport" target="_top">
<polygon fill="#ffffff" stroke="transparent" points="185,-38.2 185,-348.2 461,-348.2 461,-38.2 185,-38.2"/>
<polygon fill="#f5f5f5" stroke="transparent" points="187,-323.2 187,-346.2 459,-346.2 459,-323.2 187,-323.2"/>
<polygon fill="none" stroke="#000000" points="187,-323.2 187,-346.2 459,-346.2 459,-323.2 187,-323.2"/>
<text text-anchor="start" x="192" y="-331.8" font-family="Helvetica,sans-Serif" font-weight="bold" font-size="11.00" fill="#000000">airport</text>
<text text-anchor="start" x="424.0437" y="-331.3" font-family="Helvetica,sans-Serif" font-size="11.00" fill="#000000">[table]</text>
<polygon fill="none" stroke="#000000" points="187,-301.2 187,-323.2 350,-323.2 350,-301.2 187,-301.2"/>
<image xlink:href="../../images/primaryKeys.png" width="11px" height="12px" preserveAspectRatio="xMinYMin meet" x="192" y="-318.2"/>
<text text-anchor="start" x="207" y="-308.3" font-family="Helvetica,sans-Serif" font-size="11.00" fill="#000000">id</text>
<polygon fill="none" stroke="#000000" points="350,-301.2 350,-323.2 459,-323.2 459,-301.2 350,-301.2"/>
<text text-anchor="start" x="353" y="-308.9" font-family="Helvetica,sans-Serif" font-size="11.00" fill="#000000">serial[10]</text>
<polygon fill="#ffffff" stroke="transparent" points="187,-279.2 187,-301.2 350,-301.2 350,-279.2 187,-279.2"/>
<polygon fill="none" stroke="#000000" points="187,-279.2 187,-301.2 350,-301.2 350,-279.2 187,-279.2"/>
<text text-anchor="start" x="207" y="-286.3" font-family="Helvetica,sans-Serif" font-size="11.00" fill="#000000">name</text>
<polygon fill="none" stroke="#000000" points="350,-279.2 350,-301.2 459,-301.2 459,-279.2 350,-279.2"/>
<text text-anchor="start" x="352.5344" y="-286.9" font-family="Helvetica,sans-Serif" font-size="11.00" fill="#000000">varchar[2147483647]</text>
<polygon fill="#ffffff" stroke="transparent" points="187,-257.2 187,-279.2 350,-279.2 350,-257.2 187,-257.2"/>
<polygon fill="none" stroke="#000000" points="187,-257.2 187,-279.2 350,-279.2 350,-257.2 187,-257.2"/>
<text text-anchor="start" x="207" y="-264.3" font-family="Helvetica,sans-Serif" font-size="11.00" fill="#000000">icao</text>
<polygon fill="none" stroke="#000000" points="350,-257.2 350,-279.2 459,-279.2 459,-257.2 350,-257.2"/>
<text text-anchor="start" x="353" y="-264.9" font-family="Helvetica,sans-Serif" font-size="11.00" fill="#000000">varchar[4]</text>
<polygon fill="#ffffff" stroke="transparent" points="187,-235.2 187,-257.2 350,-257.2 350,-235.2 187,-235.2"/>
<polygon fill="none" stroke="#000000" points="187,-235.2 187,-257.2 350,-257.2 350,-235.2 187,-235.2"/>
<text text-anchor="start" x="207" y="-242.3" font-family="Helvetica,sans-Serif" font-size="11.00" fill="#000000">iata</text>
<polygon fill="none" stroke="#000000" points="350,-235.2 350,-257.2 459,-257.2 459,-235.2 350,-235.2"/>
<text text-anchor="start" x="353" y="-242.9" font-family="Helvetica,sans-Serif" font-size="11.00" fill="#000000">varchar[3]</text>
<polygon fill="#ffffff" stroke="transparent" points="187,-213.2 187,-235.2 350,-235.2 350,-213.2 187,-213.2"/>
<polygon fill="none" stroke="#000000" points="187,-213.2 187,-235.2 350,-235.2 350,-213.2 187,-213.2"/>
<image xlink:href="../../images/foreignKeys.png" width="11px" height="12px" preserveAspectRatio="xMinYMin meet" x="192" y="-230.2"/>
<text text-anchor="start" x="207" y="-220.3" font-family="Helvetica,sans-Serif" font-size="11.00" fill="#000000">city_id</text>
<polygon fill="none" stroke="#000000" points="350,-213.2 350,-235.2 459,-235.2 459,-213.2 350,-213.2"/>
<text text-anchor="start" x="353" y="-220.9" font-family="Helvetica,sans-Serif" font-size="11.00" fill="#000000">int4[10]</text>
<polygon fill="none" stroke="#000000" points="187,-191.2 187,-213.2 350,-213.2 350,-191.2 187,-191.2"/>
<text text-anchor="start" x="207" y="-198.3" font-family="Helvetica,sans-Serif" font-size="11.00" fill="#000000">number_of_runways</text>
<polygon fill="none" stroke="#000000" points="350,-191.2 350,-213.2 459,-213.2 459,-191.2 350,-191.2"/>
<text text-anchor="start" x="353" y="-198.9" font-family="Helvetica,sans-Serif" font-size="11.00" fill="#000000">int4[10]</text>
<polygon fill="none" stroke="#000000" points="187,-169.2 187,-191.2 350,-191.2 350,-169.2 187,-169.2"/>
<text text-anchor="start" x="207" y="-176.3" font-family="Helvetica,sans-Serif" font-size="11.00" fill="#000000">number_of_terminals</text>
<polygon fill="none" stroke="#000000" points="350,-169.2 350,-191.2 459,-191.2 459,-169.2 350,-169.2"/>
<text text-anchor="start" x="353" y="-176.9" font-family="Helvetica,sans-Serif" font-size="11.00" fill="#000000">int4[10]</text>
<polygon fill="none" stroke="#000000" points="187,-147.2 187,-169.2 350,-169.2 350,-147.2 187,-147.2"/>
<text text-anchor="start" x="207" y="-154.3" font-family="Helvetica,sans-Serif" font-size="11.00" fill="#000000">capacity</text>
<polygon fill="none" stroke="#000000" points="350,-147.2 350,-169.2 459,-169.2 459,-147.2 350,-147.2"/>
<text text-anchor="start" x="353" y="-154.9" font-family="Helvetica,sans-Serif" font-size="11.00" fill="#000000">int4[10]</text>
<polygon fill="none" stroke="#000000" points="187,-125.2 187,-147.2 350,-147.2 350,-125.2 187,-125.2"/>
<text text-anchor="start" x="207" y="-132.3" font-family="Helvetica,sans-Serif" font-size="11.00" fill="#000000">international</text>
<polygon fill="none" stroke="#000000" points="350,-125.2 350,-147.2 459,-147.2 459,-125.2 350,-125.2"/>
<text text-anchor="start" x="353" y="-132.9" font-family="Helvetica,sans-Serif" font-size="11.00" fill="#000000">bool[1]</text>
<polygon fill="none" stroke="#000000" points="187,-103.2 187,-125.2 350,-125.2 350,-103.2 187,-103.2"/>
<text text-anchor="start" x="207" y="-110.3" font-family="Helvetica,sans-Serif" font-size="11.00" fill="#000000">junction</text>
<polygon fill="none" stroke="#000000" points="350,-103.2 350,-125.2 459,-125.2 459,-103.2 350,-103.2"/>
<text text-anchor="start" x="353" y="-110.9" font-family="Helvetica,sans-Serif" font-size="11.00" fill="#000000">bool[1]</text>
<polygon fill="none" stroke="#000000" points="187,-81.2 187,-103.2 350,-103.2 350,-81.2 187,-81.2"/>
<text text-anchor="start" x="207" y="-88.3" font-family="Helvetica,sans-Serif" font-size="11.00" fill="#000000">created_at</text>
<polygon fill="none" stroke="#000000" points="350,-81.2 350,-103.2 459,-103.2 459,-81.2 350,-81.2"/>
<text text-anchor="start" x="353" y="-88.9" font-family="Helvetica,sans-Serif" font-size="11.00" fill="#000000">timestamp[29,6]</text>
<polygon fill="none" stroke="#000000" points="187,-59.2 187,-81.2 350,-81.2 350,-59.2 187,-59.2"/>
<text text-anchor="start" x="207" y="-66.3" font-family="Helvetica,sans-Serif" font-size="11.00" fill="#000000">last_updated_at</text>
<polygon fill="none" stroke="#000000" points="350,-59.2 350,-81.2 459,-81.2 459,-59.2 350,-59.2"/>
<text text-anchor="start" x="353" y="-66.9" font-family="Helvetica,sans-Serif" font-size="11.00" fill="#000000">timestamp[29,6]</text>
<polygon fill="#ffffff" stroke="transparent" points="187,-40.2 187,-59.2 273,-59.2 273,-40.2 187,-40.2"/>
<polygon fill="none" stroke="#000000" points="187,-40.2 187,-59.2 273,-59.2 273,-40.2 187,-40.2"/>
<text text-anchor="start" x="190" y="-46.3" font-family="Helvetica,sans-Serif" font-size="11.00" fill="#000000">&lt; 1</text>
<polygon fill="#ffffff" stroke="transparent" points="273,-40.2 273,-59.2 350,-59.2 350,-40.2 273,-40.2"/>
<polygon fill="none" stroke="#000000" points="273,-40.2 273,-59.2 350,-59.2 350,-40.2 273,-40.2"/>
<text text-anchor="start" x="340.8862" y="-46.3" font-family="Helvetica,sans-Serif" font-size="11.00" fill="#000000"> &#160;</text>
<polygon fill="#ffffff" stroke="transparent" points="350,-40.2 350,-59.2 459,-59.2 459,-40.2 350,-40.2"/>
<polygon fill="none" stroke="#000000" points="350,-40.2 350,-59.2 459,-59.2 459,-40.2 350,-40.2"/>
<text text-anchor="start" x="440.4053" y="-46.3" font-family="Helvetica,sans-Serif" font-size="11.00" fill="#000000">3 &gt;</text>
<polygon fill="none" stroke="#000000" stroke-width="2" points="186,-39.2 186,-347.2 460,-347.2 460,-39.2 186,-39.2"/>
</a>
</g>
</g>
<!-- city -->
<g id="node2" class="node">
<title>city</title>
<g id="a_node2"><a xlink:href="../../tables/city.html" xlink:title="city" target="_top">
<polygon fill="#ffffff" stroke="transparent" points="8,-131.7 8,-258.7 136,-258.7 136,-131.7 8,-131.7"/>
<polygon fill="#f5f5f5" stroke="transparent" points="8,-235.2 8,-258.2 136,-258.2 136,-235.2 8,-235.2"/>
<polygon fill="none" stroke="#000000" points="8,-235.2 8,-258.2 136,-258.2 136,-235.2 8,-235.2"/>
<text text-anchor="start" x="13" y="-243.8" font-family="Helvetica,sans-Serif" font-weight="bold" font-size="11.00" fill="#000000">city</text>
<text text-anchor="start" x="101.0437" y="-243.3" font-family="Helvetica,sans-Serif" font-size="11.00" fill="#000000">[table]</text>
<polygon fill="none" stroke="#000000" points="8,-213.2 8,-235.2 136,-235.2 136,-213.2 8,-213.2"/>
<image xlink:href="../../images/primaryKeys.png" width="11px" height="12px" preserveAspectRatio="xMinYMin meet" x="13" y="-230.2"/>
<text text-anchor="start" x="28" y="-220.3" font-family="Helvetica,sans-Serif" font-size="11.00" fill="#000000">id</text>
<polygon fill="#ffffff" stroke="transparent" points="8,-191.2 8,-213.2 136,-213.2 136,-191.2 8,-191.2"/>
<polygon fill="none" stroke="#000000" points="8,-191.2 8,-213.2 136,-213.2 136,-191.2 8,-191.2"/>
<text text-anchor="start" x="28" y="-198.3" font-family="Helvetica,sans-Serif" font-size="11.00" fill="#000000">name</text>
<polygon fill="#ffffff" stroke="transparent" points="8,-169.2 8,-191.2 136,-191.2 136,-169.2 8,-169.2"/>
<polygon fill="none" stroke="#000000" points="8,-169.2 8,-191.2 136,-191.2 136,-169.2 8,-169.2"/>
<image xlink:href="../../images/foreignKeys.png" width="11px" height="12px" preserveAspectRatio="xMinYMin meet" x="13" y="-186.2"/>
<text text-anchor="start" x="28" y="-176.3" font-family="Helvetica,sans-Serif" font-size="11.00" fill="#000000">country_id</text>
<polygon fill="none" stroke="#000000" points="8,-150.2 8,-169.2 136,-169.2 136,-150.2 8,-150.2"/>
<text text-anchor="start" x="11" y="-156.3" font-family="Helvetica,sans-Serif" font-size="11.00" fill="#000000">...</text>
<polygon fill="#ffffff" stroke="transparent" points="8,-131.2 8,-150.2 66,-150.2 66,-131.2 8,-131.2"/>
<polygon fill="none" stroke="#000000" points="8,-131.2 8,-150.2 66,-150.2 66,-131.2 8,-131.2"/>
<text text-anchor="start" x="11" y="-137.3" font-family="Helvetica,sans-Serif" font-size="11.00" fill="#000000">&lt; 1</text>
<polygon fill="#ffffff" stroke="transparent" points="66,-131.2 66,-150.2 96,-150.2 96,-131.2 66,-131.2"/>
<polygon fill="none" stroke="#000000" points="66,-131.2 66,-150.2 96,-150.2 96,-131.2 66,-131.2"/>
<text text-anchor="start" x="86.8862" y="-137.3" font-family="Helvetica,sans-Serif" font-size="11.00" fill="#000000"> &#160;</text>
<polygon fill="#ffffff" stroke="transparent" points="96,-131.2 96,-150.2 136,-150.2 136,-131.2 96,-131.2"/>
<polygon fill="none" stroke="#000000" points="96,-131.2 96,-150.2 136,-150.2 136,-131.2 96,-131.2"/>
<text text-anchor="start" x="117.4053" y="-137.3" font-family="Helvetica,sans-Serif" font-size="11.00" fill="#000000">2 &gt;</text>
</a>
</g>
</g>
<!-- airport&#45;&gt;city -->
<g id="edge1" class="edge">
<title>airport:w&#45;&gt;city:e</title>
<path fill="none" stroke="#000000" d="M172.276,-224.2C160.2815,-224.2 152.8229,-224.2 136,-224.2"/>
<polygon fill="#000000" stroke="#000000" points="179,-224.2001 187,-227.8 183,-224.2 187,-224.2 187,-224.2 187,-224.2 183,-224.2 187,-220.6 179,-224.2001 179,-224.2001"/>
<ellipse fill="none" stroke="#000000" cx="175.8" cy="-224.2001" rx="3.2" ry="3.2"/>
</g>
<!-- fleet -->
<g id="node3" class="node">
<title>fleet</title>
<g id="a_node3"><a xlink:href="../../tables/fleet.html" xlink:title="fleet" target="_top">
<polygon fill="#ffffff" stroke="transparent" points="530.5,-433.7 530.5,-626.7 658.5,-626.7 658.5,-433.7 530.5,-433.7"/>
<polygon fill="#f5f5f5" stroke="transparent" points="530.5,-603.2 530.5,-626.2 658.5,-626.2 658.5,-603.2 530.5,-603.2"/>
<polygon fill="none" stroke="#000000" points="530.5,-603.2 530.5,-626.2 658.5,-626.2 658.5,-603.2 530.5,-603.2"/>
<text text-anchor="start" x="535.5" y="-611.8" font-family="Helvetica,sans-Serif" font-weight="bold" font-size="11.00" fill="#000000">fleet</text>
<text text-anchor="start" x="623.5437" y="-611.3" font-family="Helvetica,sans-Serif" font-size="11.00" fill="#000000">[table]</text>
<polygon fill="none" stroke="#000000" points="530.5,-581.2 530.5,-603.2 658.5,-603.2 658.5,-581.2 530.5,-581.2"/>
<image xlink:href="../../images/primaryKeys.png" width="11px" height="12px" preserveAspectRatio="xMinYMin meet" x="535.5" y="-598.2"/>
<text text-anchor="start" x="550.5" y="-588.3" font-family="Helvetica,sans-Serif" font-size="11.00" fill="#000000">id</text>
<polygon fill="#ffffff" stroke="transparent" points="530.5,-559.2 530.5,-581.2 658.5,-581.2 658.5,-559.2 530.5,-559.2"/>
<polygon fill="none" stroke="#000000" points="530.5,-559.2 530.5,-581.2 658.5,-581.2 658.5,-559.2 530.5,-559.2"/>
<text text-anchor="start" x="550.5" y="-566.3" font-family="Helvetica,sans-Serif" font-size="11.00" fill="#000000">name</text>
<polygon fill="#ffffff" stroke="transparent" points="530.5,-537.2 530.5,-559.2 658.5,-559.2 658.5,-537.2 530.5,-537.2"/>
<polygon fill="none" stroke="#000000" points="530.5,-537.2 530.5,-559.2 658.5,-559.2 658.5,-537.2 530.5,-537.2"/>
<text text-anchor="start" x="550.5" y="-544.3" font-family="Helvetica,sans-Serif" font-size="11.00" fill="#000000">iso2</text>
<polygon fill="#ffffff" stroke="transparent" points="530.5,-515.2 530.5,-537.2 658.5,-537.2 658.5,-515.2 530.5,-515.2"/>
<polygon fill="none" stroke="#000000" points="530.5,-515.2 530.5,-537.2 658.5,-537.2 658.5,-515.2 530.5,-515.2"/>
<text text-anchor="start" x="550.5" y="-522.3" font-family="Helvetica,sans-Serif" font-size="11.00" fill="#000000">iso3</text>
<polygon fill="#ffffff" stroke="transparent" points="530.5,-493.2 530.5,-515.2 658.5,-515.2 658.5,-493.2 530.5,-493.2"/>
<polygon fill="none" stroke="#000000" points="530.5,-493.2 530.5,-515.2 658.5,-515.2 658.5,-493.2 530.5,-493.2"/>
<text text-anchor="start" x="550.5" y="-500.3" font-family="Helvetica,sans-Serif" font-size="11.00" fill="#000000">call_sign</text>
<polygon fill="#ffffff" stroke="transparent" points="530.5,-471.2 530.5,-493.2 658.5,-493.2 658.5,-471.2 530.5,-471.2"/>
<polygon fill="none" stroke="#000000" points="530.5,-471.2 530.5,-493.2 658.5,-493.2 658.5,-471.2 530.5,-471.2"/>
<image xlink:href="../../images/foreignKeys.png" width="11px" height="12px" preserveAspectRatio="xMinYMin meet" x="535.5" y="-488.2"/>
<text text-anchor="start" x="550.5" y="-478.3" font-family="Helvetica,sans-Serif" font-size="11.00" fill="#000000">hub_airport_id</text>
<polygon fill="none" stroke="#000000" points="530.5,-452.2 530.5,-471.2 658.5,-471.2 658.5,-452.2 530.5,-452.2"/>
<text text-anchor="start" x="533.5" y="-458.3" font-family="Helvetica,sans-Serif" font-size="11.00" fill="#000000">...</text>
<polygon fill="#ffffff" stroke="transparent" points="530.5,-433.2 530.5,-452.2 588.5,-452.2 588.5,-433.2 530.5,-433.2"/>
<polygon fill="none" stroke="#000000" points="530.5,-433.2 530.5,-452.2 588.5,-452.2 588.5,-433.2 530.5,-433.2"/>
<text text-anchor="start" x="533.5" y="-439.3" font-family="Helvetica,sans-Serif" font-size="11.00" fill="#000000">&lt; 1</text>
<polygon fill="#ffffff" stroke="transparent" points="588.5,-433.2 588.5,-452.2 618.5,-452.2 618.5,-433.2 588.5,-433.2"/>
<polygon fill="none" stroke="#000000" points="588.5,-433.2 588.5,-452.2 618.5,-452.2 618.5,-433.2 588.5,-433.2"/>
<text text-anchor="start" x="609.3862" y="-439.3" font-family="Helvetica,sans-Serif" font-size="11.00" fill="#000000"> &#160;</text>
<polygon fill="#ffffff" stroke="transparent" points="618.5,-433.2 618.5,-452.2 658.5,-452.2 658.5,-433.2 618.5,-433.2"/>
<polygon fill="none" stroke="#000000" points="618.5,-433.2 618.5,-452.2 658.5,-452.2 658.5,-433.2 618.5,-433.2"/>
<text text-anchor="start" x="639.9053" y="-439.3" font-family="Helvetica,sans-Serif" font-size="11.00" fill="#000000">1 &gt;</text>
</a>
</g>
</g>
<!-- fleet&#45;&gt;airport -->
<g id="edge2" class="edge">
<title>fleet:w&#45;&gt;airport:e</title>
<path fill="none" stroke="#000000" d="M516.024,-479.9254C460.356,-459.7522 535.3631,-312.2 459,-312.2"/>
<polygon fill="#000000" stroke="#000000" points="522.597,-480.9581 529.9412,-485.7564 526.5485,-481.5791 530.5,-482.2 530.5,-482.2 530.5,-482.2 526.5485,-481.5791 531.0588,-478.6436 522.597,-480.9581 522.597,-480.9581"/>
<ellipse fill="none" stroke="#000000" cx="519.4358" cy="-480.4614" rx="3.2" ry="3.2"/>
</g>
<!-- fleet_route -->
<g id="node4" class="node">
<title>fleet_route</title>
<g id="a_node4"><a xlink:href="../../tables/fleet_route.html" xlink:title="fleet_route" target="_top">
<polygon fill="#ffffff" stroke="transparent" points="510,-241.7 510,-412.7 679,-412.7 679,-241.7 510,-241.7"/>
<polygon fill="#f5f5f5" stroke="transparent" points="510.5,-389.2 510.5,-412.2 679.5,-412.2 679.5,-389.2 510.5,-389.2"/>
<polygon fill="none" stroke="#000000" points="510.5,-389.2 510.5,-412.2 679.5,-412.2 679.5,-389.2 510.5,-389.2"/>
<text text-anchor="start" x="515.5" y="-397.8" font-family="Helvetica,sans-Serif" font-weight="bold" font-size="11.00" fill="#000000">fleet_route</text>
<text text-anchor="start" x="644.5437" y="-397.3" font-family="Helvetica,sans-Serif" font-size="11.00" fill="#000000">[table]</text>
<polygon fill="none" stroke="#000000" points="510.5,-367.2 510.5,-389.2 679.5,-389.2 679.5,-367.2 510.5,-367.2"/>
<image xlink:href="../../images/primaryKeys.png" width="11px" height="12px" preserveAspectRatio="xMinYMin meet" x="515.5" y="-384.2"/>
<text text-anchor="start" x="530.5" y="-374.3" font-family="Helvetica,sans-Serif" font-size="11.00" fill="#000000">id</text>
<polygon fill="none" stroke="#000000" points="510.5,-345.2 510.5,-367.2 679.5,-367.2 679.5,-345.2 510.5,-345.2"/>
<image xlink:href="../../images/foreignKeys.png" width="11px" height="12px" preserveAspectRatio="xMinYMin meet" x="515.5" y="-362.2"/>
<text text-anchor="start" x="530.5" y="-352.3" font-family="Helvetica,sans-Serif" font-size="11.00" fill="#000000">fleet_airplane_id</text>
<polygon fill="#ffffff" stroke="transparent" points="510.5,-323.2 510.5,-345.2 679.5,-345.2 679.5,-323.2 510.5,-323.2"/>
<polygon fill="none" stroke="#000000" points="510.5,-323.2 510.5,-345.2 679.5,-345.2 679.5,-323.2 510.5,-323.2"/>
<text text-anchor="start" x="530.5" y="-330.3" font-family="Helvetica,sans-Serif" font-size="11.00" fill="#000000">route_number</text>
<polygon fill="#ffffff" stroke="transparent" points="510.5,-301.2 510.5,-323.2 679.5,-323.2 679.5,-301.2 510.5,-301.2"/>
<polygon fill="none" stroke="#000000" points="510.5,-301.2 510.5,-323.2 679.5,-323.2 679.5,-301.2 510.5,-301.2"/>
<image xlink:href="../../images/foreignKeys.png" width="11px" height="12px" preserveAspectRatio="xMinYMin meet" x="515.5" y="-318.2"/>
<text text-anchor="start" x="530.5" y="-308.3" font-family="Helvetica,sans-Serif" font-size="11.00" fill="#000000">start_airport_id</text>
<polygon fill="#ffffff" stroke="transparent" points="510.5,-279.2 510.5,-301.2 679.5,-301.2 679.5,-279.2 510.5,-279.2"/>
<polygon fill="none" stroke="#000000" points="510.5,-279.2 510.5,-301.2 679.5,-301.2 679.5,-279.2 510.5,-279.2"/>
<image xlink:href="../../images/foreignKeys.png" width="11px" height="12px" preserveAspectRatio="xMinYMin meet" x="515.5" y="-296.2"/>
<text text-anchor="start" x="530.5" y="-286.3" font-family="Helvetica,sans-Serif" font-size="11.00" fill="#000000">destination_airport_id</text>
<polygon fill="none" stroke="#000000" points="510.5,-260.2 510.5,-279.2 679.5,-279.2 679.5,-260.2 510.5,-260.2"/>
<text text-anchor="start" x="513.5" y="-266.3" font-family="Helvetica,sans-Serif" font-size="11.00" fill="#000000">...</text>
<polygon fill="#ffffff" stroke="transparent" points="510.5,-241.2 510.5,-260.2 593.5,-260.2 593.5,-241.2 510.5,-241.2"/>
<polygon fill="none" stroke="#000000" points="510.5,-241.2 510.5,-260.2 593.5,-260.2 593.5,-241.2 510.5,-241.2"/>
<text text-anchor="start" x="513.5" y="-247.3" font-family="Helvetica,sans-Serif" font-size="11.00" fill="#000000">&lt; 3</text>
<polygon fill="#ffffff" stroke="transparent" points="593.5,-241.2 593.5,-260.2 636.5,-260.2 636.5,-241.2 593.5,-241.2"/>
<polygon fill="none" stroke="#000000" points="593.5,-241.2 593.5,-260.2 636.5,-260.2 636.5,-241.2 593.5,-241.2"/>
<text text-anchor="start" x="627.3862" y="-247.3" font-family="Helvetica,sans-Serif" font-size="11.00" fill="#000000"> &#160;</text>
<polygon fill="#ffffff" stroke="transparent" points="636.5,-241.2 636.5,-260.2 679.5,-260.2 679.5,-241.2 636.5,-241.2"/>
<polygon fill="none" stroke="#000000" points="636.5,-241.2 636.5,-260.2 679.5,-260.2 679.5,-241.2 636.5,-241.2"/>
<text text-anchor="start" x="670.3862" y="-247.3" font-family="Helvetica,sans-Serif" font-size="11.00" fill="#000000"> &#160;</text>
</a>
</g>
</g>
<!-- fleet_route&#45;&gt;airport -->
<g id="edge3" class="edge">
<title>fleet_route:w&#45;&gt;airport:e</title>
<path fill="none" stroke="#000000" d="M496.2209,-293.259C483.531,-299.304 478.0563,-312.2 459,-312.2"/>
<polygon fill="#000000" stroke="#000000" points="502.6775,-291.8759 511.2541,-293.7201 506.5887,-291.0379 510.5,-290.2 510.5,-290.2 510.5,-290.2 506.5887,-291.0379 509.7459,-286.6799 502.6775,-291.8759 502.6775,-291.8759"/>
<ellipse fill="none" stroke="#000000" cx="499.5485" cy="-292.5462" rx="3.2" ry="3.2"/>
</g>
<!-- fleet_route&#45;&gt;airport -->
<g id="edge4" class="edge">
<title>fleet_route:w&#45;&gt;airport:e</title>
<path fill="none" stroke="#000000" d="M496.0156,-312.2C483.6771,-312.2 476.1667,-312.2 459,-312.2"/>
<polygon fill="#000000" stroke="#000000" points="502.5,-312.2001 510.5,-315.8 506.5,-312.2 510.5,-312.2 510.5,-312.2 510.5,-312.2 506.5,-312.2 510.5,-308.6 502.5,-312.2001 502.5,-312.2001"/>
<ellipse fill="none" stroke="#000000" cx="499.3" cy="-312.2001" rx="3.2" ry="3.2"/>
</g>
</g>
</svg>
