<?xml version="1.0" encoding="UTF-8" standalone="no"?>
<!DOCTYPE svg PUBLIC "-//W3C//DTD SVG 1.1//EN"
 "http://www.w3.org/Graphics/SVG/1.1/DTD/svg11.dtd">
<!-- Generated by graphviz version 2.40.1 (20161225.0304)
 -->
<!-- Title: oneDegreeRelationshipsDiagram Pages: 1 -->
<svg width="636pt" height="293pt"
 viewBox="0.00 0.00 636.00 292.70" xmlns="http://www.w3.org/2000/svg" xmlns:xlink="http://www.w3.org/1999/xlink">
<g id="graph0" class="graph" transform="scale(1 1) rotate(0) translate(4 288.7)">
<title>oneDegreeRelationshipsDiagram</title>
<polygon fill="#ffffff" stroke="transparent" points="-4,4 -4,-288.7 632,-288.7 632,4 -4,4"/>
<text text-anchor="middle" x="72.4936" y="-7.3" font-family="Helvetica,sans-Serif" font-size="11.00" fill="#000000">Generated by SchemaSpy</text>
<!-- airplane -->
<g id="node1" class="node">
<title>airplane</title>
<g id="a_node1"><a xlink:href="../../tables/airplane.html" xlink:title="airplane" target="_top">
<polygon fill="#ffffff" stroke="transparent" points="188,-38.2 188,-238.2 440,-238.2 440,-38.2 188,-38.2"/>
<polygon fill="#f5f5f5" stroke="transparent" points="190,-213.2 190,-236.2 438,-236.2 438,-213.2 190,-213.2"/>
<polygon fill="none" stroke="#000000" points="190,-213.2 190,-236.2 438,-236.2 438,-213.2 190,-213.2"/>
<text text-anchor="start" x="195" y="-221.8" font-family="Helvetica,sans-Serif" font-weight="bold" font-size="11.00" fill="#000000">airplane</text>
<text text-anchor="start" x="403.0437" y="-221.3" font-family="Helvetica,sans-Serif" font-size="11.00" fill="#000000">[table]</text>
<polygon fill="none" stroke="#000000" points="190,-191.2 190,-213.2 329,-213.2 329,-191.2 190,-191.2"/>
<image xlink:href="../../images/primaryKeys.png" width="11px" height="12px" preserveAspectRatio="xMinYMin meet" x="195" y="-208.2"/>
<text text-anchor="start" x="210" y="-198.3" font-family="Helvetica,sans-Serif" font-size="11.00" fill="#000000">id</text>
<polygon fill="none" stroke="#000000" points="329,-191.2 329,-213.2 438,-213.2 438,-191.2 329,-191.2"/>
<text text-anchor="start" x="332" y="-198.9" font-family="Helvetica,sans-Serif" font-size="11.00" fill="#000000">serial[10]</text>
<polygon fill="#ffffff" stroke="transparent" points="190,-169.2 190,-191.2 329,-191.2 329,-169.2 190,-169.2"/>
<polygon fill="none" stroke="#000000" points="190,-169.2 190,-191.2 329,-191.2 329,-169.2 190,-169.2"/>
<text text-anchor="start" x="210" y="-176.3" font-family="Helvetica,sans-Serif" font-size="11.00" fill="#000000">name</text>
<polygon fill="none" stroke="#000000" points="329,-169.2 329,-191.2 438,-191.2 438,-169.2 329,-169.2"/>
<text text-anchor="start" x="331.5344" y="-176.9" font-family="Helvetica,sans-Serif" font-size="11.00" fill="#000000">varchar[2147483647]</text>
<polygon fill="none" stroke="#000000" points="190,-147.2 190,-169.2 329,-169.2 329,-147.2 190,-147.2"/>
<image xlink:href="../../images/foreignKeys.png" width="11px" height="12px" preserveAspectRatio="xMinYMin meet" x="195" y="-164.2"/>
<text text-anchor="start" x="210" y="-154.3" font-family="Helvetica,sans-Serif" font-size="11.00" fill="#000000">manufacturer_id</text>
<polygon fill="none" stroke="#000000" points="329,-147.2 329,-169.2 438,-169.2 438,-147.2 329,-147.2"/>
<text text-anchor="start" x="332" y="-154.9" font-family="Helvetica,sans-Serif" font-size="11.00" fill="#000000">int4[10]</text>
<polygon fill="none" stroke="#000000" points="190,-125.2 190,-147.2 329,-147.2 329,-125.2 190,-125.2"/>
<text text-anchor="start" x="210" y="-132.3" font-family="Helvetica,sans-Serif" font-size="11.00" fill="#000000">capacity</text>
<polygon fill="none" stroke="#000000" points="329,-125.2 329,-147.2 438,-147.2 438,-125.2 329,-125.2"/>
<text text-anchor="start" x="332" y="-132.9" font-family="Helvetica,sans-Serif" font-size="11.00" fill="#000000">int4[10]</text>
<polygon fill="none" stroke="#000000" points="190,-103.2 190,-125.2 329,-125.2 329,-103.2 190,-103.2"/>
<text text-anchor="start" x="210" y="-110.3" font-family="Helvetica,sans-Serif" font-size="11.00" fill="#000000">max_range_in_km</text>
<polygon fill="none" stroke="#000000" points="329,-103.2 329,-125.2 438,-125.2 438,-103.2 329,-103.2"/>
<text text-anchor="start" x="332" y="-110.9" font-family="Helvetica,sans-Serif" font-size="11.00" fill="#000000">int4[10]</text>
<polygon fill="none" stroke="#000000" points="190,-81.2 190,-103.2 329,-103.2 329,-81.2 190,-81.2"/>
<text text-anchor="start" x="210" y="-88.3" font-family="Helvetica,sans-Serif" font-size="11.00" fill="#000000">created_at</text>
<polygon fill="none" stroke="#000000" points="329,-81.2 329,-103.2 438,-103.2 438,-81.2 329,-81.2"/>
<text text-anchor="start" x="332" y="-88.9" font-family="Helvetica,sans-Serif" font-size="11.00" fill="#000000">timestamp[29,6]</text>
<polygon fill="none" stroke="#000000" points="190,-59.2 190,-81.2 329,-81.2 329,-59.2 190,-59.2"/>
<text text-anchor="start" x="210" y="-66.3" font-family="Helvetica,sans-Serif" font-size="11.00" fill="#000000">last_updated_at</text>
<polygon fill="none" stroke="#000000" points="329,-59.2 329,-81.2 438,-81.2 438,-59.2 329,-59.2"/>
<text text-anchor="start" x="332" y="-66.9" font-family="Helvetica,sans-Serif" font-size="11.00" fill="#000000">timestamp[29,6]</text>
<polygon fill="#ffffff" stroke="transparent" points="190,-40.2 190,-59.2 264,-59.2 264,-40.2 190,-40.2"/>
<polygon fill="none" stroke="#000000" points="190,-40.2 190,-59.2 264,-59.2 264,-40.2 190,-40.2"/>
<text text-anchor="start" x="193" y="-46.3" font-family="Helvetica,sans-Serif" font-size="11.00" fill="#000000">&lt; 1</text>
<polygon fill="#ffffff" stroke="transparent" points="264,-40.2 264,-59.2 329,-59.2 329,-40.2 264,-40.2"/>
<polygon fill="none" stroke="#000000" points="264,-40.2 264,-59.2 329,-59.2 329,-40.2 264,-40.2"/>
<text text-anchor="start" x="319.8862" y="-46.3" font-family="Helvetica,sans-Serif" font-size="11.00" fill="#000000"> &#160;</text>
<polygon fill="#ffffff" stroke="transparent" points="329,-40.2 329,-59.2 438,-59.2 438,-40.2 329,-40.2"/>
<polygon fill="none" stroke="#000000" points="329,-40.2 329,-59.2 438,-59.2 438,-40.2 329,-40.2"/>
<text text-anchor="start" x="419.4053" y="-46.3" font-family="Helvetica,sans-Serif" font-size="11.00" fill="#000000">1 &gt;</text>
<polygon fill="none" stroke="#000000" stroke-width="2" points="189,-39.2 189,-237.2 439,-237.2 439,-39.2 189,-39.2"/>
</a>
</g>
</g>
<!-- manufacturer -->
<g id="node2" class="node">
<title>manufacturer</title>
<g id="a_node2"><a xlink:href="../../tables/manufacturer.html" xlink:title="manufacturer" target="_top">
<polygon fill="#ffffff" stroke="transparent" points="8,-65.7 8,-192.7 139,-192.7 139,-65.7 8,-65.7"/>
<polygon fill="#f5f5f5" stroke="transparent" points="8.5,-169.2 8.5,-192.2 139.5,-192.2 139.5,-169.2 8.5,-169.2"/>
<polygon fill="none" stroke="#000000" points="8.5,-169.2 8.5,-192.2 139.5,-192.2 139.5,-169.2 8.5,-169.2"/>
<text text-anchor="start" x="13.5" y="-177.8" font-family="Helvetica,sans-Serif" font-weight="bold" font-size="11.00" fill="#000000">manufacturer</text>
<text text-anchor="start" x="105.0219" y="-177.3" font-family="Helvetica,sans-Serif" font-size="11.00" fill="#000000">[table]</text>
<polygon fill="none" stroke="#000000" points="8.5,-147.2 8.5,-169.2 139.5,-169.2 139.5,-147.2 8.5,-147.2"/>
<image xlink:href="../../images/primaryKeys.png" width="11px" height="12px" preserveAspectRatio="xMinYMin meet" x="13.5" y="-164.2"/>
<text text-anchor="start" x="30.5" y="-154.3" font-family="Helvetica,sans-Serif" font-size="11.00" fill="#000000">id</text>
<polygon fill="#ffffff" stroke="transparent" points="8.5,-125.2 8.5,-147.2 139.5,-147.2 139.5,-125.2 8.5,-125.2"/>
<polygon fill="none" stroke="#000000" points="8.5,-125.2 8.5,-147.2 139.5,-147.2 139.5,-125.2 8.5,-125.2"/>
<text text-anchor="start" x="30.5" y="-132.3" font-family="Helvetica,sans-Serif" font-size="11.00" fill="#000000">name</text>
<polygon fill="none" stroke="#000000" points="8.5,-103.2 8.5,-125.2 139.5,-125.2 139.5,-103.2 8.5,-103.2"/>
<image xlink:href="../../images/foreignKeys.png" width="11px" height="12px" preserveAspectRatio="xMinYMin meet" x="13.5" y="-120.2"/>
<text text-anchor="start" x="30.5" y="-110.3" font-family="Helvetica,sans-Serif" font-size="11.00" fill="#000000">city_based_in</text>
<polygon fill="none" stroke="#000000" points="8.5,-84.2 8.5,-103.2 139.5,-103.2 139.5,-84.2 8.5,-84.2"/>
<text text-anchor="start" x="11.5" y="-90.3" font-family="Helvetica,sans-Serif" font-size="11.00" fill="#000000">...</text>
<polygon fill="#ffffff" stroke="transparent" points="8.5,-65.2 8.5,-84.2 67.5,-84.2 67.5,-65.2 8.5,-65.2"/>
<polygon fill="none" stroke="#000000" points="8.5,-65.2 8.5,-84.2 67.5,-84.2 67.5,-65.2 8.5,-65.2"/>
<text text-anchor="start" x="11.5" y="-71.3" font-family="Helvetica,sans-Serif" font-size="11.00" fill="#000000">&lt; 1</text>
<polygon fill="#ffffff" stroke="transparent" points="67.5,-65.2 67.5,-84.2 98.5,-84.2 98.5,-65.2 67.5,-65.2"/>
<polygon fill="none" stroke="#000000" points="67.5,-65.2 67.5,-84.2 98.5,-84.2 98.5,-65.2 67.5,-65.2"/>
<text text-anchor="start" x="89.3862" y="-71.3" font-family="Helvetica,sans-Serif" font-size="11.00" fill="#000000"> &#160;</text>
<polygon fill="#ffffff" stroke="transparent" points="98.5,-65.2 98.5,-84.2 139.5,-84.2 139.5,-65.2 98.5,-65.2"/>
<polygon fill="none" stroke="#000000" points="98.5,-65.2 98.5,-84.2 139.5,-84.2 139.5,-65.2 98.5,-65.2"/>
<text text-anchor="start" x="120.9053" y="-71.3" font-family="Helvetica,sans-Serif" font-size="11.00" fill="#000000">1 &gt;</text>
</a>
</g>
</g>
<!-- airplane&#45;&gt;manufacturer -->
<g id="edge1" class="edge">
<title>airplane:w&#45;&gt;manufacturer:e</title>
<path fill="none" stroke="#000000" d="M175.4203,-158.2C163.5435,-158.2 156.158,-158.2 139.5,-158.2"/>
<polygon fill="#000000" stroke="#000000" points="182,-158.2001 190,-161.8 186,-158.2 190,-158.2 190,-158.2 190,-158.2 186,-158.2 190,-154.6 182,-158.2001 182,-158.2001"/>
<ellipse fill="none" stroke="#000000" cx="178.8" cy="-158.2001" rx="3.2" ry="3.2"/>
</g>
<!-- fleet_airplane -->
<g id="node3" class="node">
<title>fleet_airplane</title>
<g id="a_node3"><a xlink:href="../../tables/fleet_airplane.html" xlink:title="fleet_airplane" target="_top">
<polygon fill="#ffffff" stroke="transparent" points="489,-153.7 489,-280.7 620,-280.7 620,-153.7 489,-153.7"/>
<polygon fill="#f5f5f5" stroke="transparent" points="489.5,-257.2 489.5,-280.2 620.5,-280.2 620.5,-257.2 489.5,-257.2"/>
<polygon fill="none" stroke="#000000" points="489.5,-257.2 489.5,-280.2 620.5,-280.2 620.5,-257.2 489.5,-257.2"/>
<text text-anchor="start" x="494.5" y="-265.8" font-family="Helvetica,sans-Serif" font-weight="bold" font-size="11.00" fill="#000000">fleet_airplane</text>
<text text-anchor="start" x="586.0219" y="-265.3" font-family="Helvetica,sans-Serif" font-size="11.00" fill="#000000">[table]</text>
<polygon fill="none" stroke="#000000" points="489.5,-235.2 489.5,-257.2 620.5,-257.2 620.5,-235.2 489.5,-235.2"/>
<image xlink:href="../../images/primaryKeys.png" width="11px" height="12px" preserveAspectRatio="xMinYMin meet" x="494.5" y="-252.2"/>
<text text-anchor="start" x="511.5" y="-242.3" font-family="Helvetica,sans-Serif" font-size="11.00" fill="#000000">id</text>
<polygon fill="#ffffff" stroke="transparent" points="489.5,-213.2 489.5,-235.2 620.5,-235.2 620.5,-213.2 489.5,-213.2"/>
<polygon fill="none" stroke="#000000" points="489.5,-213.2 489.5,-235.2 620.5,-235.2 620.5,-213.2 489.5,-213.2"/>
<image xlink:href="../../images/foreignKeys.png" width="11px" height="12px" preserveAspectRatio="xMinYMin meet" x="494.5" y="-230.2"/>
<text text-anchor="start" x="511.5" y="-220.3" font-family="Helvetica,sans-Serif" font-size="11.00" fill="#000000">fleet_id</text>
<polygon fill="#ffffff" stroke="transparent" points="489.5,-191.2 489.5,-213.2 620.5,-213.2 620.5,-191.2 489.5,-191.2"/>
<polygon fill="none" stroke="#000000" points="489.5,-191.2 489.5,-213.2 620.5,-213.2 620.5,-191.2 489.5,-191.2"/>
<image xlink:href="../../images/foreignKeys.png" width="11px" height="12px" preserveAspectRatio="xMinYMin meet" x="494.5" y="-208.2"/>
<text text-anchor="start" x="511.5" y="-198.3" font-family="Helvetica,sans-Serif" font-size="11.00" fill="#000000">airplane_id</text>
<polygon fill="none" stroke="#000000" points="489.5,-172.2 489.5,-191.2 620.5,-191.2 620.5,-172.2 489.5,-172.2"/>
<text text-anchor="start" x="492.5" y="-178.3" font-family="Helvetica,sans-Serif" font-size="11.00" fill="#000000">...</text>
<polygon fill="#ffffff" stroke="transparent" points="489.5,-153.2 489.5,-172.2 548.5,-172.2 548.5,-153.2 489.5,-153.2"/>
<polygon fill="none" stroke="#000000" points="489.5,-153.2 489.5,-172.2 548.5,-172.2 548.5,-153.2 489.5,-153.2"/>
<text text-anchor="start" x="492.5" y="-159.3" font-family="Helvetica,sans-Serif" font-size="11.00" fill="#000000">&lt; 2</text>
<polygon fill="#ffffff" stroke="transparent" points="548.5,-153.2 548.5,-172.2 579.5,-172.2 579.5,-153.2 548.5,-153.2"/>
<polygon fill="none" stroke="#000000" points="548.5,-153.2 548.5,-172.2 579.5,-172.2 579.5,-153.2 548.5,-153.2"/>
<text text-anchor="start" x="570.3862" y="-159.3" font-family="Helvetica,sans-Serif" font-size="11.00" fill="#000000"> &#160;</text>
<polygon fill="#ffffff" stroke="transparent" points="579.5,-153.2 579.5,-172.2 620.5,-172.2 620.5,-153.2 579.5,-153.2"/>
<polygon fill="none" stroke="#000000" points="579.5,-153.2 579.5,-172.2 620.5,-172.2 620.5,-153.2 579.5,-153.2"/>
<text text-anchor="start" x="601.9053" y="-159.3" font-family="Helvetica,sans-Serif" font-size="11.00" fill="#000000">1 &gt;</text>
</a>
</g>
</g>
<!-- fleet_airplane&#45;&gt;airplane -->
<g id="edge2" class="edge">
<title>fleet_airplane:w&#45;&gt;airplane:e</title>
<path fill="none" stroke="#000000" d="M475.0156,-202.2C462.6771,-202.2 455.1667,-202.2 438,-202.2"/>
<polygon fill="#000000" stroke="#000000" points="481.5,-202.2001 489.5,-205.8 485.5,-202.2 489.5,-202.2 489.5,-202.2 489.5,-202.2 485.5,-202.2 489.5,-198.6 481.5,-202.2001 481.5,-202.2001"/>
<ellipse fill="none" stroke="#000000" cx="478.3" cy="-202.2001" rx="3.2" ry="3.2"/>
</g>
</g>
</svg>
