<?xml version="1.0" encoding="UTF-8" standalone="no"?>
<!DOCTYPE svg PUBLIC "-//W3C//DTD SVG 1.1//EN"
 "http://www.w3.org/Graphics/SVG/1.1/DTD/svg11.dtd">
<!-- Generated by graphviz version 2.40.1 (20161225.0304)
 -->
<!-- Title: oneDegreeRelationshipsDiagram Pages: 1 -->
<svg width="704pt" height="537pt"
 viewBox="0.00 0.00 704.00 537.20" xmlns="http://www.w3.org/2000/svg" xmlns:xlink="http://www.w3.org/1999/xlink">
<g id="graph0" class="graph" transform="scale(1 1) rotate(0) translate(4 533.2)">
<title>oneDegreeRelationshipsDiagram</title>
<polygon fill="#ffffff" stroke="transparent" points="-4,4 -4,-533.2 700,-533.2 700,4 -4,4"/>
<text text-anchor="middle" x="72.4936" y="-7.3" font-family="Helvetica,sans-Serif" font-size="11.00" fill="#000000">Generated by SchemaSpy</text>
<!-- airport -->
<g id="node1" class="node">
<title>airport</title>
<g id="a_node1"><a xlink:href="../../tables/airport.html" xlink:title="airport" target="_top">
<polygon fill="#ffffff" stroke="transparent" points="525,-354.2 525,-525.2 688,-525.2 688,-354.2 525,-354.2"/>
<polygon fill="#f5f5f5" stroke="transparent" points="525.5,-501.7 525.5,-524.7 688.5,-524.7 688.5,-501.7 525.5,-501.7"/>
<polygon fill="none" stroke="#000000" points="525.5,-501.7 525.5,-524.7 688.5,-524.7 688.5,-501.7 525.5,-501.7"/>
<text text-anchor="start" x="530.5" y="-510.3" font-family="Helvetica,sans-Serif" font-weight="bold" font-size="11.00" fill="#000000">airport</text>
<text text-anchor="start" x="653.5437" y="-509.8" font-family="Helvetica,sans-Serif" font-size="11.00" fill="#000000">[table]</text>
<polygon fill="none" stroke="#000000" points="525.5,-479.7 525.5,-501.7 688.5,-501.7 688.5,-479.7 525.5,-479.7"/>
<image xlink:href="../../images/primaryKeys.png" width="11px" height="12px" preserveAspectRatio="xMinYMin meet" x="530.5" y="-496.7"/>
<text text-anchor="start" x="545.5" y="-486.8" font-family="Helvetica,sans-Serif" font-size="11.00" fill="#000000">id</text>
<polygon fill="#ffffff" stroke="transparent" points="525.5,-457.7 525.5,-479.7 688.5,-479.7 688.5,-457.7 525.5,-457.7"/>
<polygon fill="none" stroke="#000000" points="525.5,-457.7 525.5,-479.7 688.5,-479.7 688.5,-457.7 525.5,-457.7"/>
<text text-anchor="start" x="545.5" y="-464.8" font-family="Helvetica,sans-Serif" font-size="11.00" fill="#000000">name</text>
<polygon fill="#ffffff" stroke="transparent" points="525.5,-435.7 525.5,-457.7 688.5,-457.7 688.5,-435.7 525.5,-435.7"/>
<polygon fill="none" stroke="#000000" points="525.5,-435.7 525.5,-457.7 688.5,-457.7 688.5,-435.7 525.5,-435.7"/>
<text text-anchor="start" x="545.5" y="-442.8" font-family="Helvetica,sans-Serif" font-size="11.00" fill="#000000">icao</text>
<polygon fill="#ffffff" stroke="transparent" points="525.5,-413.7 525.5,-435.7 688.5,-435.7 688.5,-413.7 525.5,-413.7"/>
<polygon fill="none" stroke="#000000" points="525.5,-413.7 525.5,-435.7 688.5,-435.7 688.5,-413.7 525.5,-413.7"/>
<text text-anchor="start" x="545.5" y="-420.8" font-family="Helvetica,sans-Serif" font-size="11.00" fill="#000000">iata</text>
<polygon fill="#ffffff" stroke="transparent" points="525.5,-391.7 525.5,-413.7 688.5,-413.7 688.5,-391.7 525.5,-391.7"/>
<polygon fill="none" stroke="#000000" points="525.5,-391.7 525.5,-413.7 688.5,-413.7 688.5,-391.7 525.5,-391.7"/>
<image xlink:href="../../images/foreignKeys.png" width="11px" height="12px" preserveAspectRatio="xMinYMin meet" x="530.5" y="-408.7"/>
<text text-anchor="start" x="545.5" y="-398.8" font-family="Helvetica,sans-Serif" font-size="11.00" fill="#000000">city_id</text>
<polygon fill="none" stroke="#000000" points="525.5,-372.7 525.5,-391.7 688.5,-391.7 688.5,-372.7 525.5,-372.7"/>
<text text-anchor="start" x="528.5" y="-378.8" font-family="Helvetica,sans-Serif" font-size="11.00" fill="#000000">...</text>
<polygon fill="#ffffff" stroke="transparent" points="525.5,-353.7 525.5,-372.7 600.5,-372.7 600.5,-353.7 525.5,-353.7"/>
<polygon fill="none" stroke="#000000" points="525.5,-353.7 525.5,-372.7 600.5,-372.7 600.5,-353.7 525.5,-353.7"/>
<text text-anchor="start" x="528.5" y="-359.8" font-family="Helvetica,sans-Serif" font-size="11.00" fill="#000000">&lt; 1</text>
<polygon fill="#ffffff" stroke="transparent" points="600.5,-353.7 600.5,-372.7 639.5,-372.7 639.5,-353.7 600.5,-353.7"/>
<polygon fill="none" stroke="#000000" points="600.5,-353.7 600.5,-372.7 639.5,-372.7 639.5,-353.7 600.5,-353.7"/>
<text text-anchor="start" x="630.3862" y="-359.8" font-family="Helvetica,sans-Serif" font-size="11.00" fill="#000000"> &#160;</text>
<polygon fill="#ffffff" stroke="transparent" points="639.5,-353.7 639.5,-372.7 688.5,-372.7 688.5,-353.7 639.5,-353.7"/>
<polygon fill="none" stroke="#000000" points="639.5,-353.7 639.5,-372.7 688.5,-372.7 688.5,-353.7 639.5,-353.7"/>
<text text-anchor="start" x="669.9053" y="-359.8" font-family="Helvetica,sans-Serif" font-size="11.00" fill="#000000">3 &gt;</text>
</a>
</g>
</g>
<!-- city -->
<g id="node2" class="node">
<title>city</title>
<g id="a_node2"><a xlink:href="../../tables/city.html" xlink:title="city" target="_top">
<polygon fill="#ffffff" stroke="transparent" points="235,-120.7 235,-364.7 476,-364.7 476,-120.7 235,-120.7"/>
<polygon fill="#f5f5f5" stroke="transparent" points="237.5,-339.7 237.5,-362.7 474.5,-362.7 474.5,-339.7 237.5,-339.7"/>
<polygon fill="none" stroke="#000000" points="237.5,-339.7 237.5,-362.7 474.5,-362.7 474.5,-339.7 237.5,-339.7"/>
<text text-anchor="start" x="242.5" y="-348.3" font-family="Helvetica,sans-Serif" font-weight="bold" font-size="11.00" fill="#000000">city</text>
<text text-anchor="start" x="439.5437" y="-347.8" font-family="Helvetica,sans-Serif" font-size="11.00" fill="#000000">[table]</text>
<polygon fill="none" stroke="#000000" points="237.5,-317.7 237.5,-339.7 365.5,-339.7 365.5,-317.7 237.5,-317.7"/>
<image xlink:href="../../images/primaryKeys.png" width="11px" height="12px" preserveAspectRatio="xMinYMin meet" x="242.5" y="-334.7"/>
<text text-anchor="start" x="257.5" y="-324.8" font-family="Helvetica,sans-Serif" font-size="11.00" fill="#000000">id</text>
<polygon fill="none" stroke="#000000" points="365.5,-317.7 365.5,-339.7 474.5,-339.7 474.5,-317.7 365.5,-317.7"/>
<text text-anchor="start" x="368.5" y="-325.4" font-family="Helvetica,sans-Serif" font-size="11.00" fill="#000000">serial[10]</text>
<polygon fill="#ffffff" stroke="transparent" points="237.5,-295.7 237.5,-317.7 365.5,-317.7 365.5,-295.7 237.5,-295.7"/>
<polygon fill="none" stroke="#000000" points="237.5,-295.7 237.5,-317.7 365.5,-317.7 365.5,-295.7 237.5,-295.7"/>
<text text-anchor="start" x="257.5" y="-302.8" font-family="Helvetica,sans-Serif" font-size="11.00" fill="#000000">name</text>
<polygon fill="none" stroke="#000000" points="365.5,-295.7 365.5,-317.7 474.5,-317.7 474.5,-295.7 365.5,-295.7"/>
<text text-anchor="start" x="368.0344" y="-303.4" font-family="Helvetica,sans-Serif" font-size="11.00" fill="#000000">varchar[2147483647]</text>
<polygon fill="#ffffff" stroke="transparent" points="237.5,-273.7 237.5,-295.7 365.5,-295.7 365.5,-273.7 237.5,-273.7"/>
<polygon fill="none" stroke="#000000" points="237.5,-273.7 237.5,-295.7 365.5,-295.7 365.5,-273.7 237.5,-273.7"/>
<image xlink:href="../../images/foreignKeys.png" width="11px" height="12px" preserveAspectRatio="xMinYMin meet" x="242.5" y="-290.7"/>
<text text-anchor="start" x="257.5" y="-280.8" font-family="Helvetica,sans-Serif" font-size="11.00" fill="#000000">country_id</text>
<polygon fill="none" stroke="#000000" points="365.5,-273.7 365.5,-295.7 474.5,-295.7 474.5,-273.7 365.5,-273.7"/>
<text text-anchor="start" x="368.5" y="-281.4" font-family="Helvetica,sans-Serif" font-size="11.00" fill="#000000">int4[10]</text>
<polygon fill="none" stroke="#000000" points="237.5,-251.7 237.5,-273.7 365.5,-273.7 365.5,-251.7 237.5,-251.7"/>
<text text-anchor="start" x="257.5" y="-258.8" font-family="Helvetica,sans-Serif" font-size="11.00" fill="#000000">capital</text>
<polygon fill="none" stroke="#000000" points="365.5,-251.7 365.5,-273.7 474.5,-273.7 474.5,-251.7 365.5,-251.7"/>
<text text-anchor="start" x="368.5" y="-259.4" font-family="Helvetica,sans-Serif" font-size="11.00" fill="#000000">bool[1]</text>
<polygon fill="none" stroke="#000000" points="237.5,-229.7 237.5,-251.7 365.5,-251.7 365.5,-229.7 237.5,-229.7"/>
<text text-anchor="start" x="257.5" y="-236.8" font-family="Helvetica,sans-Serif" font-size="11.00" fill="#000000">population</text>
<polygon fill="none" stroke="#000000" points="365.5,-229.7 365.5,-251.7 474.5,-251.7 474.5,-229.7 365.5,-229.7"/>
<text text-anchor="start" x="368.5" y="-237.4" font-family="Helvetica,sans-Serif" font-size="11.00" fill="#000000">int4[10]</text>
<polygon fill="none" stroke="#000000" points="237.5,-207.7 237.5,-229.7 365.5,-229.7 365.5,-207.7 237.5,-207.7"/>
<text text-anchor="start" x="257.5" y="-214.8" font-family="Helvetica,sans-Serif" font-size="11.00" fill="#000000">latitude</text>
<polygon fill="none" stroke="#000000" points="365.5,-207.7 365.5,-229.7 474.5,-229.7 474.5,-207.7 365.5,-207.7"/>
<text text-anchor="start" x="368.5" y="-215.4" font-family="Helvetica,sans-Serif" font-size="11.00" fill="#000000">numeric[0]</text>
<polygon fill="none" stroke="#000000" points="237.5,-185.7 237.5,-207.7 365.5,-207.7 365.5,-185.7 237.5,-185.7"/>
<text text-anchor="start" x="257.5" y="-192.8" font-family="Helvetica,sans-Serif" font-size="11.00" fill="#000000">longitude</text>
<polygon fill="none" stroke="#000000" points="365.5,-185.7 365.5,-207.7 474.5,-207.7 474.5,-185.7 365.5,-185.7"/>
<text text-anchor="start" x="368.5" y="-193.4" font-family="Helvetica,sans-Serif" font-size="11.00" fill="#000000">numeric[0]</text>
<polygon fill="none" stroke="#000000" points="237.5,-163.7 237.5,-185.7 365.5,-185.7 365.5,-163.7 237.5,-163.7"/>
<text text-anchor="start" x="257.5" y="-170.8" font-family="Helvetica,sans-Serif" font-size="11.00" fill="#000000">created_at</text>
<polygon fill="none" stroke="#000000" points="365.5,-163.7 365.5,-185.7 474.5,-185.7 474.5,-163.7 365.5,-163.7"/>
<text text-anchor="start" x="368.5" y="-171.4" font-family="Helvetica,sans-Serif" font-size="11.00" fill="#000000">timestamp[29,6]</text>
<polygon fill="none" stroke="#000000" points="237.5,-141.7 237.5,-163.7 365.5,-163.7 365.5,-141.7 237.5,-141.7"/>
<text text-anchor="start" x="257.5" y="-148.8" font-family="Helvetica,sans-Serif" font-size="11.00" fill="#000000">last_updated_at</text>
<polygon fill="none" stroke="#000000" points="365.5,-141.7 365.5,-163.7 474.5,-163.7 474.5,-141.7 365.5,-141.7"/>
<text text-anchor="start" x="368.5" y="-149.4" font-family="Helvetica,sans-Serif" font-size="11.00" fill="#000000">timestamp[29,6]</text>
<polygon fill="#ffffff" stroke="transparent" points="237.5,-122.7 237.5,-141.7 305.5,-141.7 305.5,-122.7 237.5,-122.7"/>
<polygon fill="none" stroke="#000000" points="237.5,-122.7 237.5,-141.7 305.5,-141.7 305.5,-122.7 237.5,-122.7"/>
<text text-anchor="start" x="240.5" y="-128.8" font-family="Helvetica,sans-Serif" font-size="11.00" fill="#000000">&lt; 1</text>
<polygon fill="#ffffff" stroke="transparent" points="305.5,-122.7 305.5,-141.7 365.5,-141.7 365.5,-122.7 305.5,-122.7"/>
<polygon fill="none" stroke="#000000" points="305.5,-122.7 305.5,-141.7 365.5,-141.7 365.5,-122.7 305.5,-122.7"/>
<text text-anchor="start" x="356.3862" y="-128.8" font-family="Helvetica,sans-Serif" font-size="11.00" fill="#000000"> &#160;</text>
<polygon fill="#ffffff" stroke="transparent" points="365.5,-122.7 365.5,-141.7 474.5,-141.7 474.5,-122.7 365.5,-122.7"/>
<polygon fill="none" stroke="#000000" points="365.5,-122.7 365.5,-141.7 474.5,-141.7 474.5,-122.7 365.5,-122.7"/>
<text text-anchor="start" x="455.9053" y="-128.8" font-family="Helvetica,sans-Serif" font-size="11.00" fill="#000000">2 &gt;</text>
<polygon fill="none" stroke="#000000" stroke-width="2" points="236,-121.7 236,-363.7 475,-363.7 475,-121.7 236,-121.7"/>
</a>
</g>
</g>
<!-- airport&#45;&gt;city -->
<g id="edge1" class="edge">
<title>airport:w&#45;&gt;city:e</title>
<path fill="none" stroke="#000000" d="M511.5503,-398.071C492.7607,-381.8706 508.3581,-328.7 474.5,-328.7"/>
<polygon fill="#000000" stroke="#000000" points="517.9071,-400.1804 524.3662,-406.1168 521.7036,-401.4402 525.5,-402.7 525.5,-402.7 525.5,-402.7 521.7036,-401.4402 526.6338,-399.2832 517.9071,-400.1804 517.9071,-400.1804"/>
<ellipse fill="none" stroke="#000000" cx="514.87" cy="-399.1725" rx="3.2" ry="3.2"/>
</g>
<!-- country -->
<g id="node3" class="node">
<title>country</title>
<g id="a_node3"><a xlink:href="../../tables/country.html" xlink:title="country" target="_top">
<polygon fill="#ffffff" stroke="transparent" points="8,-38.2 8,-319.2 186,-319.2 186,-38.2 8,-38.2"/>
<polygon fill="#f5f5f5" stroke="transparent" points="8,-295.7 8,-318.7 186,-318.7 186,-295.7 8,-295.7"/>
<polygon fill="none" stroke="#000000" points="8,-295.7 8,-318.7 186,-318.7 186,-295.7 8,-295.7"/>
<text text-anchor="start" x="13" y="-304.3" font-family="Helvetica,sans-Serif" font-weight="bold" font-size="11.00" fill="#000000">country</text>
<text text-anchor="start" x="151.0437" y="-303.8" font-family="Helvetica,sans-Serif" font-size="11.00" fill="#000000">[table]</text>
<polygon fill="none" stroke="#000000" points="8,-273.7 8,-295.7 186,-295.7 186,-273.7 8,-273.7"/>
<image xlink:href="../../images/primaryKeys.png" width="11px" height="12px" preserveAspectRatio="xMinYMin meet" x="13" y="-290.7"/>
<text text-anchor="start" x="28" y="-280.8" font-family="Helvetica,sans-Serif" font-size="11.00" fill="#000000">id</text>
<polygon fill="#ffffff" stroke="transparent" points="8,-251.7 8,-273.7 186,-273.7 186,-251.7 8,-251.7"/>
<polygon fill="none" stroke="#000000" points="8,-251.7 8,-273.7 186,-273.7 186,-251.7 8,-251.7"/>
<text text-anchor="start" x="28" y="-258.8" font-family="Helvetica,sans-Serif" font-size="11.00" fill="#000000">iso2</text>
<polygon fill="#ffffff" stroke="transparent" points="8,-229.7 8,-251.7 186,-251.7 186,-229.7 8,-229.7"/>
<polygon fill="none" stroke="#000000" points="8,-229.7 8,-251.7 186,-251.7 186,-229.7 8,-229.7"/>
<text text-anchor="start" x="28" y="-236.8" font-family="Helvetica,sans-Serif" font-size="11.00" fill="#000000">iso3</text>
<polygon fill="#ffffff" stroke="transparent" points="8,-207.7 8,-229.7 186,-229.7 186,-207.7 8,-207.7"/>
<polygon fill="none" stroke="#000000" points="8,-207.7 8,-229.7 186,-229.7 186,-207.7 8,-207.7"/>
<text text-anchor="start" x="28" y="-214.8" font-family="Helvetica,sans-Serif" font-size="11.00" fill="#000000">country_code</text>
<polygon fill="#ffffff" stroke="transparent" points="8,-185.7 8,-207.7 186,-207.7 186,-185.7 8,-185.7"/>
<polygon fill="none" stroke="#000000" points="8,-185.7 8,-207.7 186,-207.7 186,-185.7 8,-185.7"/>
<text text-anchor="start" x="28" y="-192.8" font-family="Helvetica,sans-Serif" font-size="11.00" fill="#000000">domain_name</text>
<polygon fill="none" stroke="#000000" points="8,-163.7 8,-185.7 186,-185.7 186,-163.7 8,-163.7"/>
<image xlink:href="../../images/foreignKeys.png" width="11px" height="12px" preserveAspectRatio="xMinYMin meet" x="13" y="-180.7"/>
<text text-anchor="start" x="28" y="-170.8" font-family="Helvetica,sans-Serif" font-size="11.00" fill="#000000">main_language_id</text>
<polygon fill="none" stroke="#000000" points="8,-141.7 8,-163.7 186,-163.7 186,-141.7 8,-141.7"/>
<image xlink:href="../../images/foreignKeys.png" width="11px" height="12px" preserveAspectRatio="xMinYMin meet" x="13" y="-158.7"/>
<text text-anchor="start" x="28" y="-148.8" font-family="Helvetica,sans-Serif" font-size="11.00" fill="#000000">secondary_language_id</text>
<polygon fill="none" stroke="#000000" points="8,-119.7 8,-141.7 186,-141.7 186,-119.7 8,-119.7"/>
<image xlink:href="../../images/foreignKeys.png" width="11px" height="12px" preserveAspectRatio="xMinYMin meet" x="13" y="-136.7"/>
<text text-anchor="start" x="28" y="-126.8" font-family="Helvetica,sans-Serif" font-size="11.00" fill="#000000">tertiary_language_id</text>
<polygon fill="none" stroke="#000000" points="8,-97.7 8,-119.7 186,-119.7 186,-97.7 8,-97.7"/>
<image xlink:href="../../images/foreignKeys.png" width="11px" height="12px" preserveAspectRatio="xMinYMin meet" x="13" y="-114.7"/>
<text text-anchor="start" x="28" y="-104.8" font-family="Helvetica,sans-Serif" font-size="11.00" fill="#000000">currency_id</text>
<polygon fill="#ffffff" stroke="transparent" points="8,-75.7 8,-97.7 186,-97.7 186,-75.7 8,-75.7"/>
<polygon fill="none" stroke="#000000" points="8,-75.7 8,-97.7 186,-97.7 186,-75.7 8,-75.7"/>
<text text-anchor="start" x="28" y="-82.8" font-family="Helvetica,sans-Serif" font-size="11.00" fill="#000000">nationality</text>
<polygon fill="none" stroke="#000000" points="8,-56.7 8,-75.7 186,-75.7 186,-56.7 8,-56.7"/>
<text text-anchor="start" x="11" y="-62.8" font-family="Helvetica,sans-Serif" font-size="11.00" fill="#000000">...</text>
<polygon fill="#ffffff" stroke="transparent" points="8,-37.7 8,-56.7 91,-56.7 91,-37.7 8,-37.7"/>
<polygon fill="none" stroke="#000000" points="8,-37.7 8,-56.7 91,-56.7 91,-37.7 8,-37.7"/>
<text text-anchor="start" x="11" y="-43.8" font-family="Helvetica,sans-Serif" font-size="11.00" fill="#000000">&lt; 4</text>
<polygon fill="#ffffff" stroke="transparent" points="91,-37.7 91,-56.7 134,-56.7 134,-37.7 91,-37.7"/>
<polygon fill="none" stroke="#000000" points="91,-37.7 91,-56.7 134,-56.7 134,-37.7 91,-37.7"/>
<text text-anchor="start" x="124.8862" y="-43.8" font-family="Helvetica,sans-Serif" font-size="11.00" fill="#000000"> &#160;</text>
<polygon fill="#ffffff" stroke="transparent" points="134,-37.7 134,-56.7 186,-56.7 186,-37.7 134,-37.7"/>
<polygon fill="none" stroke="#000000" points="134,-37.7 134,-56.7 186,-56.7 186,-37.7 134,-37.7"/>
<text text-anchor="start" x="167.4053" y="-43.8" font-family="Helvetica,sans-Serif" font-size="11.00" fill="#000000">1 &gt;</text>
</a>
</g>
</g>
<!-- city&#45;&gt;country -->
<g id="edge2" class="edge">
<title>city:w&#45;&gt;country:e</title>
<path fill="none" stroke="#000000" d="M223.0156,-284.7C210.6771,-284.7 203.1667,-284.7 186,-284.7"/>
<polygon fill="#000000" stroke="#000000" points="229.5,-284.7001 237.5,-288.3 233.5,-284.7 237.5,-284.7 237.5,-284.7 237.5,-284.7 233.5,-284.7 237.5,-281.1 229.5,-284.7001 229.5,-284.7001"/>
<ellipse fill="none" stroke="#000000" cx="226.3" cy="-284.7001" rx="3.2" ry="3.2"/>
</g>
<!-- manufacturer -->
<g id="node4" class="node">
<title>manufacturer</title>
<g id="a_node4"><a xlink:href="../../tables/manufacturer.html" xlink:title="manufacturer" target="_top">
<polygon fill="#ffffff" stroke="transparent" points="541,-206.2 541,-333.2 672,-333.2 672,-206.2 541,-206.2"/>
<polygon fill="#f5f5f5" stroke="transparent" points="541.5,-309.7 541.5,-332.7 672.5,-332.7 672.5,-309.7 541.5,-309.7"/>
<polygon fill="none" stroke="#000000" points="541.5,-309.7 541.5,-332.7 672.5,-332.7 672.5,-309.7 541.5,-309.7"/>
<text text-anchor="start" x="546.5" y="-318.3" font-family="Helvetica,sans-Serif" font-weight="bold" font-size="11.00" fill="#000000">manufacturer</text>
<text text-anchor="start" x="638.0219" y="-317.8" font-family="Helvetica,sans-Serif" font-size="11.00" fill="#000000">[table]</text>
<polygon fill="none" stroke="#000000" points="541.5,-287.7 541.5,-309.7 672.5,-309.7 672.5,-287.7 541.5,-287.7"/>
<image xlink:href="../../images/primaryKeys.png" width="11px" height="12px" preserveAspectRatio="xMinYMin meet" x="546.5" y="-304.7"/>
<text text-anchor="start" x="563.5" y="-294.8" font-family="Helvetica,sans-Serif" font-size="11.00" fill="#000000">id</text>
<polygon fill="#ffffff" stroke="transparent" points="541.5,-265.7 541.5,-287.7 672.5,-287.7 672.5,-265.7 541.5,-265.7"/>
<polygon fill="none" stroke="#000000" points="541.5,-265.7 541.5,-287.7 672.5,-287.7 672.5,-265.7 541.5,-265.7"/>
<text text-anchor="start" x="563.5" y="-272.8" font-family="Helvetica,sans-Serif" font-size="11.00" fill="#000000">name</text>
<polygon fill="none" stroke="#000000" points="541.5,-243.7 541.5,-265.7 672.5,-265.7 672.5,-243.7 541.5,-243.7"/>
<image xlink:href="../../images/foreignKeys.png" width="11px" height="12px" preserveAspectRatio="xMinYMin meet" x="546.5" y="-260.7"/>
<text text-anchor="start" x="563.5" y="-250.8" font-family="Helvetica,sans-Serif" font-size="11.00" fill="#000000">city_based_in</text>
<polygon fill="none" stroke="#000000" points="541.5,-224.7 541.5,-243.7 672.5,-243.7 672.5,-224.7 541.5,-224.7"/>
<text text-anchor="start" x="544.5" y="-230.8" font-family="Helvetica,sans-Serif" font-size="11.00" fill="#000000">...</text>
<polygon fill="#ffffff" stroke="transparent" points="541.5,-205.7 541.5,-224.7 600.5,-224.7 600.5,-205.7 541.5,-205.7"/>
<polygon fill="none" stroke="#000000" points="541.5,-205.7 541.5,-224.7 600.5,-224.7 600.5,-205.7 541.5,-205.7"/>
<text text-anchor="start" x="544.5" y="-211.8" font-family="Helvetica,sans-Serif" font-size="11.00" fill="#000000">&lt; 1</text>
<polygon fill="#ffffff" stroke="transparent" points="600.5,-205.7 600.5,-224.7 631.5,-224.7 631.5,-205.7 600.5,-205.7"/>
<polygon fill="none" stroke="#000000" points="600.5,-205.7 600.5,-224.7 631.5,-224.7 631.5,-205.7 600.5,-205.7"/>
<text text-anchor="start" x="622.3862" y="-211.8" font-family="Helvetica,sans-Serif" font-size="11.00" fill="#000000"> &#160;</text>
<polygon fill="#ffffff" stroke="transparent" points="631.5,-205.7 631.5,-224.7 672.5,-224.7 672.5,-205.7 631.5,-205.7"/>
<polygon fill="none" stroke="#000000" points="631.5,-205.7 631.5,-224.7 672.5,-224.7 672.5,-205.7 631.5,-205.7"/>
<text text-anchor="start" x="653.9053" y="-211.8" font-family="Helvetica,sans-Serif" font-size="11.00" fill="#000000">1 &gt;</text>
</a>
</g>
</g>
<!-- manufacturer&#45;&gt;city -->
<g id="edge3" class="edge">
<title>manufacturer:w&#45;&gt;city:e</title>
<path fill="none" stroke="#000000" d="M527.3545,-258.0719C501.6381,-272.5485 513.1475,-328.7 474.5,-328.7"/>
<polygon fill="#000000" stroke="#000000" points="533.718,-256.5551 542.3348,-258.2019 537.609,-255.6275 541.5,-254.7 541.5,-254.7 541.5,-254.7 537.609,-255.6275 540.6652,-251.1981 533.718,-256.5551 533.718,-256.5551"/>
<ellipse fill="none" stroke="#000000" cx="530.6053" cy="-257.2971" rx="3.2" ry="3.2"/>
</g>
</g>
</svg>
