<?xml version="1.0" encoding="UTF-8" standalone="no"?>
<!DOCTYPE svg PUBLIC "-//W3C//DTD SVG 1.1//EN"
 "http://www.w3.org/Graphics/SVG/1.1/DTD/svg11.dtd">
<!-- Generated by graphviz version 2.40.1 (20161225.0304)
 -->
<!-- Title: twoDegreesRelationshipsDiagram Pages: 1 -->
<svg width="1015pt" height="524pt"
 viewBox="0.00 0.00 1015.00 524.20" xmlns="http://www.w3.org/2000/svg" xmlns:xlink="http://www.w3.org/1999/xlink">
<g id="graph0" class="graph" transform="scale(1 1) rotate(0) translate(4 520.2)">
<title>twoDegreesRelationshipsDiagram</title>
<polygon fill="#ffffff" stroke="transparent" points="-4,4 -4,-520.2 1011,-520.2 1011,4 -4,4"/>
<text text-anchor="middle" x="72.4936" y="-7.3" font-family="Helvetica,sans-Serif" font-size="11.00" fill="#000000">Generated by SchemaSpy</text>
<!-- airplane -->
<g id="node1" class="node">
<title>airplane</title>
<g id="a_node1"><a xlink:href="../../tables/airplane.html" xlink:title="airplane" target="_top">
<polygon fill="#ffffff" stroke="transparent" points="896,-451.2 896,-512.2 990,-512.2 990,-451.2 896,-451.2"/>
<polygon fill="#f5f5f5" stroke="transparent" points="896,-488.7 896,-511.7 990,-511.7 990,-488.7 896,-488.7"/>
<polygon fill="none" stroke="#000000" points="896,-488.7 896,-511.7 990,-511.7 990,-488.7 896,-488.7"/>
<text text-anchor="start" x="901" y="-497.3" font-family="Helvetica,sans-Serif" font-weight="bold" font-size="11.00" fill="#000000">airplane</text>
<text text-anchor="start" x="955.5219" y="-496.8" font-family="Helvetica,sans-Serif" font-size="11.00" fill="#000000">[table]</text>
<polygon fill="none" stroke="#000000" points="896,-469.7 896,-488.7 990,-488.7 990,-469.7 896,-469.7"/>
<text text-anchor="start" x="899" y="-475.8" font-family="Helvetica,sans-Serif" font-size="11.00" fill="#000000">...</text>
<polygon fill="#ffffff" stroke="transparent" points="896,-450.7 896,-469.7 937,-469.7 937,-450.7 896,-450.7"/>
<polygon fill="none" stroke="#000000" points="896,-450.7 896,-469.7 937,-469.7 937,-450.7 896,-450.7"/>
<text text-anchor="start" x="899" y="-456.8" font-family="Helvetica,sans-Serif" font-size="11.00" fill="#000000">&lt; 1</text>
<polygon fill="#ffffff" stroke="transparent" points="937,-450.7 937,-469.7 959,-469.7 959,-450.7 937,-450.7"/>
<polygon fill="none" stroke="#000000" points="937,-450.7 937,-469.7 959,-469.7 959,-450.7 937,-450.7"/>
<text text-anchor="start" x="949.8862" y="-456.8" font-family="Helvetica,sans-Serif" font-size="11.00" fill="#000000"> &#160;</text>
<polygon fill="#ffffff" stroke="transparent" points="959,-450.7 959,-469.7 990,-469.7 990,-450.7 959,-450.7"/>
<polygon fill="none" stroke="#000000" points="959,-450.7 959,-469.7 990,-469.7 990,-450.7 959,-450.7"/>
<text text-anchor="start" x="971.4053" y="-456.8" font-family="Helvetica,sans-Serif" font-size="11.00" fill="#000000">1 &gt;</text>
</a>
</g>
</g>
<!-- manufacturer -->
<g id="node2" class="node">
<title>manufacturer</title>
<g id="a_node2"><a xlink:href="../../tables/manufacturer.html" xlink:title="manufacturer" target="_top">
<polygon fill="#ffffff" stroke="transparent" points="691,-378.2 691,-505.2 822,-505.2 822,-378.2 691,-378.2"/>
<polygon fill="#f5f5f5" stroke="transparent" points="691.5,-481.7 691.5,-504.7 822.5,-504.7 822.5,-481.7 691.5,-481.7"/>
<polygon fill="none" stroke="#000000" points="691.5,-481.7 691.5,-504.7 822.5,-504.7 822.5,-481.7 691.5,-481.7"/>
<text text-anchor="start" x="696.5" y="-490.3" font-family="Helvetica,sans-Serif" font-weight="bold" font-size="11.00" fill="#000000">manufacturer</text>
<text text-anchor="start" x="788.0219" y="-489.8" font-family="Helvetica,sans-Serif" font-size="11.00" fill="#000000">[table]</text>
<polygon fill="none" stroke="#000000" points="691.5,-459.7 691.5,-481.7 822.5,-481.7 822.5,-459.7 691.5,-459.7"/>
<image xlink:href="../../images/primaryKeys.png" width="11px" height="12px" preserveAspectRatio="xMinYMin meet" x="696.5" y="-476.7"/>
<text text-anchor="start" x="713.5" y="-466.8" font-family="Helvetica,sans-Serif" font-size="11.00" fill="#000000">id</text>
<polygon fill="#ffffff" stroke="transparent" points="691.5,-437.7 691.5,-459.7 822.5,-459.7 822.5,-437.7 691.5,-437.7"/>
<polygon fill="none" stroke="#000000" points="691.5,-437.7 691.5,-459.7 822.5,-459.7 822.5,-437.7 691.5,-437.7"/>
<text text-anchor="start" x="713.5" y="-444.8" font-family="Helvetica,sans-Serif" font-size="11.00" fill="#000000">name</text>
<polygon fill="none" stroke="#000000" points="691.5,-415.7 691.5,-437.7 822.5,-437.7 822.5,-415.7 691.5,-415.7"/>
<image xlink:href="../../images/foreignKeys.png" width="11px" height="12px" preserveAspectRatio="xMinYMin meet" x="696.5" y="-432.7"/>
<text text-anchor="start" x="713.5" y="-422.8" font-family="Helvetica,sans-Serif" font-size="11.00" fill="#000000">city_based_in</text>
<polygon fill="none" stroke="#000000" points="691.5,-396.7 691.5,-415.7 822.5,-415.7 822.5,-396.7 691.5,-396.7"/>
<text text-anchor="start" x="694.5" y="-402.8" font-family="Helvetica,sans-Serif" font-size="11.00" fill="#000000">...</text>
<polygon fill="#ffffff" stroke="transparent" points="691.5,-377.7 691.5,-396.7 750.5,-396.7 750.5,-377.7 691.5,-377.7"/>
<polygon fill="none" stroke="#000000" points="691.5,-377.7 691.5,-396.7 750.5,-396.7 750.5,-377.7 691.5,-377.7"/>
<text text-anchor="start" x="694.5" y="-383.8" font-family="Helvetica,sans-Serif" font-size="11.00" fill="#000000">&lt; 1</text>
<polygon fill="#ffffff" stroke="transparent" points="750.5,-377.7 750.5,-396.7 781.5,-396.7 781.5,-377.7 750.5,-377.7"/>
<polygon fill="none" stroke="#000000" points="750.5,-377.7 750.5,-396.7 781.5,-396.7 781.5,-377.7 750.5,-377.7"/>
<text text-anchor="start" x="772.3862" y="-383.8" font-family="Helvetica,sans-Serif" font-size="11.00" fill="#000000"> &#160;</text>
<polygon fill="#ffffff" stroke="transparent" points="781.5,-377.7 781.5,-396.7 822.5,-396.7 822.5,-377.7 781.5,-377.7"/>
<polygon fill="none" stroke="#000000" points="781.5,-377.7 781.5,-396.7 822.5,-396.7 822.5,-377.7 781.5,-377.7"/>
<text text-anchor="start" x="803.9053" y="-383.8" font-family="Helvetica,sans-Serif" font-size="11.00" fill="#000000">1 &gt;</text>
</a>
</g>
</g>
<!-- airplane&#45;&gt;manufacturer -->
<g id="edge1" class="edge">
<title>airplane:w&#45;&gt;manufacturer:e</title>
<path fill="none" stroke="#000000" d="M881.3268,-478.0987C859.819,-476.2382 849.8402,-470.7 822.5,-470.7"/>
<polygon fill="#000000" stroke="#000000" points="888.0067,-478.3724 895.8526,-482.297 892.0034,-478.5362 896,-478.7 896,-478.7 896,-478.7 892.0034,-478.5362 896.1474,-475.103 888.0067,-478.3724 888.0067,-478.3724"/>
<ellipse fill="none" stroke="#000000" cx="884.8094" cy="-478.2413" rx="3.2" ry="3.2"/>
</g>
<!-- city -->
<g id="node4" class="node">
<title>city</title>
<g id="a_node4"><a xlink:href="../../tables/city.html" xlink:title="city" target="_top">
<polygon fill="#ffffff" stroke="transparent" points="385,-120.7 385,-364.7 626,-364.7 626,-120.7 385,-120.7"/>
<polygon fill="#f5f5f5" stroke="transparent" points="387.5,-339.7 387.5,-362.7 624.5,-362.7 624.5,-339.7 387.5,-339.7"/>
<polygon fill="none" stroke="#000000" points="387.5,-339.7 387.5,-362.7 624.5,-362.7 624.5,-339.7 387.5,-339.7"/>
<text text-anchor="start" x="392.5" y="-348.3" font-family="Helvetica,sans-Serif" font-weight="bold" font-size="11.00" fill="#000000">city</text>
<text text-anchor="start" x="589.5437" y="-347.8" font-family="Helvetica,sans-Serif" font-size="11.00" fill="#000000">[table]</text>
<polygon fill="none" stroke="#000000" points="387.5,-317.7 387.5,-339.7 515.5,-339.7 515.5,-317.7 387.5,-317.7"/>
<image xlink:href="../../images/primaryKeys.png" width="11px" height="12px" preserveAspectRatio="xMinYMin meet" x="392.5" y="-334.7"/>
<text text-anchor="start" x="407.5" y="-324.8" font-family="Helvetica,sans-Serif" font-size="11.00" fill="#000000">id</text>
<polygon fill="none" stroke="#000000" points="515.5,-317.7 515.5,-339.7 624.5,-339.7 624.5,-317.7 515.5,-317.7"/>
<text text-anchor="start" x="518.5" y="-325.4" font-family="Helvetica,sans-Serif" font-size="11.00" fill="#000000">serial[10]</text>
<polygon fill="#ffffff" stroke="transparent" points="387.5,-295.7 387.5,-317.7 515.5,-317.7 515.5,-295.7 387.5,-295.7"/>
<polygon fill="none" stroke="#000000" points="387.5,-295.7 387.5,-317.7 515.5,-317.7 515.5,-295.7 387.5,-295.7"/>
<text text-anchor="start" x="407.5" y="-302.8" font-family="Helvetica,sans-Serif" font-size="11.00" fill="#000000">name</text>
<polygon fill="none" stroke="#000000" points="515.5,-295.7 515.5,-317.7 624.5,-317.7 624.5,-295.7 515.5,-295.7"/>
<text text-anchor="start" x="518.0344" y="-303.4" font-family="Helvetica,sans-Serif" font-size="11.00" fill="#000000">varchar[2147483647]</text>
<polygon fill="#ffffff" stroke="transparent" points="387.5,-273.7 387.5,-295.7 515.5,-295.7 515.5,-273.7 387.5,-273.7"/>
<polygon fill="none" stroke="#000000" points="387.5,-273.7 387.5,-295.7 515.5,-295.7 515.5,-273.7 387.5,-273.7"/>
<image xlink:href="../../images/foreignKeys.png" width="11px" height="12px" preserveAspectRatio="xMinYMin meet" x="392.5" y="-290.7"/>
<text text-anchor="start" x="407.5" y="-280.8" font-family="Helvetica,sans-Serif" font-size="11.00" fill="#000000">country_id</text>
<polygon fill="none" stroke="#000000" points="515.5,-273.7 515.5,-295.7 624.5,-295.7 624.5,-273.7 515.5,-273.7"/>
<text text-anchor="start" x="518.5" y="-281.4" font-family="Helvetica,sans-Serif" font-size="11.00" fill="#000000">int4[10]</text>
<polygon fill="none" stroke="#000000" points="387.5,-251.7 387.5,-273.7 515.5,-273.7 515.5,-251.7 387.5,-251.7"/>
<text text-anchor="start" x="407.5" y="-258.8" font-family="Helvetica,sans-Serif" font-size="11.00" fill="#000000">capital</text>
<polygon fill="none" stroke="#000000" points="515.5,-251.7 515.5,-273.7 624.5,-273.7 624.5,-251.7 515.5,-251.7"/>
<text text-anchor="start" x="518.5" y="-259.4" font-family="Helvetica,sans-Serif" font-size="11.00" fill="#000000">bool[1]</text>
<polygon fill="none" stroke="#000000" points="387.5,-229.7 387.5,-251.7 515.5,-251.7 515.5,-229.7 387.5,-229.7"/>
<text text-anchor="start" x="407.5" y="-236.8" font-family="Helvetica,sans-Serif" font-size="11.00" fill="#000000">population</text>
<polygon fill="none" stroke="#000000" points="515.5,-229.7 515.5,-251.7 624.5,-251.7 624.5,-229.7 515.5,-229.7"/>
<text text-anchor="start" x="518.5" y="-237.4" font-family="Helvetica,sans-Serif" font-size="11.00" fill="#000000">int4[10]</text>
<polygon fill="none" stroke="#000000" points="387.5,-207.7 387.5,-229.7 515.5,-229.7 515.5,-207.7 387.5,-207.7"/>
<text text-anchor="start" x="407.5" y="-214.8" font-family="Helvetica,sans-Serif" font-size="11.00" fill="#000000">latitude</text>
<polygon fill="none" stroke="#000000" points="515.5,-207.7 515.5,-229.7 624.5,-229.7 624.5,-207.7 515.5,-207.7"/>
<text text-anchor="start" x="518.5" y="-215.4" font-family="Helvetica,sans-Serif" font-size="11.00" fill="#000000">numeric[0]</text>
<polygon fill="none" stroke="#000000" points="387.5,-185.7 387.5,-207.7 515.5,-207.7 515.5,-185.7 387.5,-185.7"/>
<text text-anchor="start" x="407.5" y="-192.8" font-family="Helvetica,sans-Serif" font-size="11.00" fill="#000000">longitude</text>
<polygon fill="none" stroke="#000000" points="515.5,-185.7 515.5,-207.7 624.5,-207.7 624.5,-185.7 515.5,-185.7"/>
<text text-anchor="start" x="518.5" y="-193.4" font-family="Helvetica,sans-Serif" font-size="11.00" fill="#000000">numeric[0]</text>
<polygon fill="none" stroke="#000000" points="387.5,-163.7 387.5,-185.7 515.5,-185.7 515.5,-163.7 387.5,-163.7"/>
<text text-anchor="start" x="407.5" y="-170.8" font-family="Helvetica,sans-Serif" font-size="11.00" fill="#000000">created_at</text>
<polygon fill="none" stroke="#000000" points="515.5,-163.7 515.5,-185.7 624.5,-185.7 624.5,-163.7 515.5,-163.7"/>
<text text-anchor="start" x="518.5" y="-171.4" font-family="Helvetica,sans-Serif" font-size="11.00" fill="#000000">timestamp[29,6]</text>
<polygon fill="none" stroke="#000000" points="387.5,-141.7 387.5,-163.7 515.5,-163.7 515.5,-141.7 387.5,-141.7"/>
<text text-anchor="start" x="407.5" y="-148.8" font-family="Helvetica,sans-Serif" font-size="11.00" fill="#000000">last_updated_at</text>
<polygon fill="none" stroke="#000000" points="515.5,-141.7 515.5,-163.7 624.5,-163.7 624.5,-141.7 515.5,-141.7"/>
<text text-anchor="start" x="518.5" y="-149.4" font-family="Helvetica,sans-Serif" font-size="11.00" fill="#000000">timestamp[29,6]</text>
<polygon fill="#ffffff" stroke="transparent" points="387.5,-122.7 387.5,-141.7 455.5,-141.7 455.5,-122.7 387.5,-122.7"/>
<polygon fill="none" stroke="#000000" points="387.5,-122.7 387.5,-141.7 455.5,-141.7 455.5,-122.7 387.5,-122.7"/>
<text text-anchor="start" x="390.5" y="-128.8" font-family="Helvetica,sans-Serif" font-size="11.00" fill="#000000">&lt; 1</text>
<polygon fill="#ffffff" stroke="transparent" points="455.5,-122.7 455.5,-141.7 515.5,-141.7 515.5,-122.7 455.5,-122.7"/>
<polygon fill="none" stroke="#000000" points="455.5,-122.7 455.5,-141.7 515.5,-141.7 515.5,-122.7 455.5,-122.7"/>
<text text-anchor="start" x="506.3862" y="-128.8" font-family="Helvetica,sans-Serif" font-size="11.00" fill="#000000"> &#160;</text>
<polygon fill="#ffffff" stroke="transparent" points="515.5,-122.7 515.5,-141.7 624.5,-141.7 624.5,-122.7 515.5,-122.7"/>
<polygon fill="none" stroke="#000000" points="515.5,-122.7 515.5,-141.7 624.5,-141.7 624.5,-122.7 515.5,-122.7"/>
<text text-anchor="start" x="605.9053" y="-128.8" font-family="Helvetica,sans-Serif" font-size="11.00" fill="#000000">2 &gt;</text>
<polygon fill="none" stroke="#000000" stroke-width="2" points="386,-121.7 386,-363.7 625,-363.7 625,-121.7 386,-121.7"/>
</a>
</g>
</g>
<!-- manufacturer&#45;&gt;city -->
<g id="edge11" class="edge">
<title>manufacturer:w&#45;&gt;city:e</title>
<path fill="none" stroke="#000000" d="M677.2248,-423.4394C646.0732,-406.4349 671.4909,-328.7 624.5,-328.7"/>
<polygon fill="#000000" stroke="#000000" points="683.7009,-424.9185 690.6983,-430.2096 687.6004,-425.8093 691.5,-426.7 691.5,-426.7 691.5,-426.7 687.6004,-425.8093 692.3017,-423.1904 683.7009,-424.9185 683.7009,-424.9185"/>
<ellipse fill="none" stroke="#000000" cx="680.5812" cy="-424.206" rx="3.2" ry="3.2"/>
</g>
<!-- airport -->
<g id="node3" class="node">
<title>airport</title>
<g id="a_node3"><a xlink:href="../../tables/airport.html" xlink:title="airport" target="_top">
<polygon fill="#ffffff" stroke="transparent" points="675,-182.2 675,-353.2 838,-353.2 838,-182.2 675,-182.2"/>
<polygon fill="#f5f5f5" stroke="transparent" points="675.5,-329.7 675.5,-352.7 838.5,-352.7 838.5,-329.7 675.5,-329.7"/>
<polygon fill="none" stroke="#000000" points="675.5,-329.7 675.5,-352.7 838.5,-352.7 838.5,-329.7 675.5,-329.7"/>
<text text-anchor="start" x="680.5" y="-338.3" font-family="Helvetica,sans-Serif" font-weight="bold" font-size="11.00" fill="#000000">airport</text>
<text text-anchor="start" x="803.5437" y="-337.8" font-family="Helvetica,sans-Serif" font-size="11.00" fill="#000000">[table]</text>
<polygon fill="none" stroke="#000000" points="675.5,-307.7 675.5,-329.7 838.5,-329.7 838.5,-307.7 675.5,-307.7"/>
<image xlink:href="../../images/primaryKeys.png" width="11px" height="12px" preserveAspectRatio="xMinYMin meet" x="680.5" y="-324.7"/>
<text text-anchor="start" x="695.5" y="-314.8" font-family="Helvetica,sans-Serif" font-size="11.00" fill="#000000">id</text>
<polygon fill="#ffffff" stroke="transparent" points="675.5,-285.7 675.5,-307.7 838.5,-307.7 838.5,-285.7 675.5,-285.7"/>
<polygon fill="none" stroke="#000000" points="675.5,-285.7 675.5,-307.7 838.5,-307.7 838.5,-285.7 675.5,-285.7"/>
<text text-anchor="start" x="695.5" y="-292.8" font-family="Helvetica,sans-Serif" font-size="11.00" fill="#000000">name</text>
<polygon fill="#ffffff" stroke="transparent" points="675.5,-263.7 675.5,-285.7 838.5,-285.7 838.5,-263.7 675.5,-263.7"/>
<polygon fill="none" stroke="#000000" points="675.5,-263.7 675.5,-285.7 838.5,-285.7 838.5,-263.7 675.5,-263.7"/>
<text text-anchor="start" x="695.5" y="-270.8" font-family="Helvetica,sans-Serif" font-size="11.00" fill="#000000">icao</text>
<polygon fill="#ffffff" stroke="transparent" points="675.5,-241.7 675.5,-263.7 838.5,-263.7 838.5,-241.7 675.5,-241.7"/>
<polygon fill="none" stroke="#000000" points="675.5,-241.7 675.5,-263.7 838.5,-263.7 838.5,-241.7 675.5,-241.7"/>
<text text-anchor="start" x="695.5" y="-248.8" font-family="Helvetica,sans-Serif" font-size="11.00" fill="#000000">iata</text>
<polygon fill="#ffffff" stroke="transparent" points="675.5,-219.7 675.5,-241.7 838.5,-241.7 838.5,-219.7 675.5,-219.7"/>
<polygon fill="none" stroke="#000000" points="675.5,-219.7 675.5,-241.7 838.5,-241.7 838.5,-219.7 675.5,-219.7"/>
<image xlink:href="../../images/foreignKeys.png" width="11px" height="12px" preserveAspectRatio="xMinYMin meet" x="680.5" y="-236.7"/>
<text text-anchor="start" x="695.5" y="-226.8" font-family="Helvetica,sans-Serif" font-size="11.00" fill="#000000">city_id</text>
<polygon fill="none" stroke="#000000" points="675.5,-200.7 675.5,-219.7 838.5,-219.7 838.5,-200.7 675.5,-200.7"/>
<text text-anchor="start" x="678.5" y="-206.8" font-family="Helvetica,sans-Serif" font-size="11.00" fill="#000000">...</text>
<polygon fill="#ffffff" stroke="transparent" points="675.5,-181.7 675.5,-200.7 750.5,-200.7 750.5,-181.7 675.5,-181.7"/>
<polygon fill="none" stroke="#000000" points="675.5,-181.7 675.5,-200.7 750.5,-200.7 750.5,-181.7 675.5,-181.7"/>
<text text-anchor="start" x="678.5" y="-187.8" font-family="Helvetica,sans-Serif" font-size="11.00" fill="#000000">&lt; 1</text>
<polygon fill="#ffffff" stroke="transparent" points="750.5,-181.7 750.5,-200.7 789.5,-200.7 789.5,-181.7 750.5,-181.7"/>
<polygon fill="none" stroke="#000000" points="750.5,-181.7 750.5,-200.7 789.5,-200.7 789.5,-181.7 750.5,-181.7"/>
<text text-anchor="start" x="780.3862" y="-187.8" font-family="Helvetica,sans-Serif" font-size="11.00" fill="#000000"> &#160;</text>
<polygon fill="#ffffff" stroke="transparent" points="789.5,-181.7 789.5,-200.7 838.5,-200.7 838.5,-181.7 789.5,-181.7"/>
<polygon fill="none" stroke="#000000" points="789.5,-181.7 789.5,-200.7 838.5,-200.7 838.5,-181.7 789.5,-181.7"/>
<text text-anchor="start" x="819.9053" y="-187.8" font-family="Helvetica,sans-Serif" font-size="11.00" fill="#000000">3 &gt;</text>
</a>
</g>
</g>
<!-- airport&#45;&gt;city -->
<g id="edge2" class="edge">
<title>airport:w&#45;&gt;city:e</title>
<path fill="none" stroke="#000000" d="M661.5571,-234.6631C636.4188,-252.9973 667.6548,-328.7 624.5,-328.7"/>
<polygon fill="#000000" stroke="#000000" points="667.8048,-232.8873 676.4843,-234.1628 671.6524,-231.7936 675.5,-230.7 675.5,-230.7 675.5,-230.7 671.6524,-231.7936 674.5157,-227.2372 667.8048,-232.8873 667.8048,-232.8873"/>
<ellipse fill="none" stroke="#000000" cx="664.7267" cy="-233.7622" rx="3.2" ry="3.2"/>
</g>
<!-- country -->
<g id="node5" class="node">
<title>country</title>
<g id="a_node5"><a xlink:href="../../tables/country.html" xlink:title="country" target="_top">
<polygon fill="#ffffff" stroke="transparent" points="158,-38.2 158,-319.2 336,-319.2 336,-38.2 158,-38.2"/>
<polygon fill="#f5f5f5" stroke="transparent" points="158,-295.7 158,-318.7 336,-318.7 336,-295.7 158,-295.7"/>
<polygon fill="none" stroke="#000000" points="158,-295.7 158,-318.7 336,-318.7 336,-295.7 158,-295.7"/>
<text text-anchor="start" x="163" y="-304.3" font-family="Helvetica,sans-Serif" font-weight="bold" font-size="11.00" fill="#000000">country</text>
<text text-anchor="start" x="301.0437" y="-303.8" font-family="Helvetica,sans-Serif" font-size="11.00" fill="#000000">[table]</text>
<polygon fill="none" stroke="#000000" points="158,-273.7 158,-295.7 336,-295.7 336,-273.7 158,-273.7"/>
<image xlink:href="../../images/primaryKeys.png" width="11px" height="12px" preserveAspectRatio="xMinYMin meet" x="163" y="-290.7"/>
<text text-anchor="start" x="178" y="-280.8" font-family="Helvetica,sans-Serif" font-size="11.00" fill="#000000">id</text>
<polygon fill="#ffffff" stroke="transparent" points="158,-251.7 158,-273.7 336,-273.7 336,-251.7 158,-251.7"/>
<polygon fill="none" stroke="#000000" points="158,-251.7 158,-273.7 336,-273.7 336,-251.7 158,-251.7"/>
<text text-anchor="start" x="178" y="-258.8" font-family="Helvetica,sans-Serif" font-size="11.00" fill="#000000">iso2</text>
<polygon fill="#ffffff" stroke="transparent" points="158,-229.7 158,-251.7 336,-251.7 336,-229.7 158,-229.7"/>
<polygon fill="none" stroke="#000000" points="158,-229.7 158,-251.7 336,-251.7 336,-229.7 158,-229.7"/>
<text text-anchor="start" x="178" y="-236.8" font-family="Helvetica,sans-Serif" font-size="11.00" fill="#000000">iso3</text>
<polygon fill="#ffffff" stroke="transparent" points="158,-207.7 158,-229.7 336,-229.7 336,-207.7 158,-207.7"/>
<polygon fill="none" stroke="#000000" points="158,-207.7 158,-229.7 336,-229.7 336,-207.7 158,-207.7"/>
<text text-anchor="start" x="178" y="-214.8" font-family="Helvetica,sans-Serif" font-size="11.00" fill="#000000">country_code</text>
<polygon fill="#ffffff" stroke="transparent" points="158,-185.7 158,-207.7 336,-207.7 336,-185.7 158,-185.7"/>
<polygon fill="none" stroke="#000000" points="158,-185.7 158,-207.7 336,-207.7 336,-185.7 158,-185.7"/>
<text text-anchor="start" x="178" y="-192.8" font-family="Helvetica,sans-Serif" font-size="11.00" fill="#000000">domain_name</text>
<polygon fill="none" stroke="#000000" points="158,-163.7 158,-185.7 336,-185.7 336,-163.7 158,-163.7"/>
<image xlink:href="../../images/foreignKeys.png" width="11px" height="12px" preserveAspectRatio="xMinYMin meet" x="163" y="-180.7"/>
<text text-anchor="start" x="178" y="-170.8" font-family="Helvetica,sans-Serif" font-size="11.00" fill="#000000">main_language_id</text>
<polygon fill="none" stroke="#000000" points="158,-141.7 158,-163.7 336,-163.7 336,-141.7 158,-141.7"/>
<image xlink:href="../../images/foreignKeys.png" width="11px" height="12px" preserveAspectRatio="xMinYMin meet" x="163" y="-158.7"/>
<text text-anchor="start" x="178" y="-148.8" font-family="Helvetica,sans-Serif" font-size="11.00" fill="#000000">secondary_language_id</text>
<polygon fill="none" stroke="#000000" points="158,-119.7 158,-141.7 336,-141.7 336,-119.7 158,-119.7"/>
<image xlink:href="../../images/foreignKeys.png" width="11px" height="12px" preserveAspectRatio="xMinYMin meet" x="163" y="-136.7"/>
<text text-anchor="start" x="178" y="-126.8" font-family="Helvetica,sans-Serif" font-size="11.00" fill="#000000">tertiary_language_id</text>
<polygon fill="none" stroke="#000000" points="158,-97.7 158,-119.7 336,-119.7 336,-97.7 158,-97.7"/>
<image xlink:href="../../images/foreignKeys.png" width="11px" height="12px" preserveAspectRatio="xMinYMin meet" x="163" y="-114.7"/>
<text text-anchor="start" x="178" y="-104.8" font-family="Helvetica,sans-Serif" font-size="11.00" fill="#000000">currency_id</text>
<polygon fill="#ffffff" stroke="transparent" points="158,-75.7 158,-97.7 336,-97.7 336,-75.7 158,-75.7"/>
<polygon fill="none" stroke="#000000" points="158,-75.7 158,-97.7 336,-97.7 336,-75.7 158,-75.7"/>
<text text-anchor="start" x="178" y="-82.8" font-family="Helvetica,sans-Serif" font-size="11.00" fill="#000000">nationality</text>
<polygon fill="none" stroke="#000000" points="158,-56.7 158,-75.7 336,-75.7 336,-56.7 158,-56.7"/>
<text text-anchor="start" x="161" y="-62.8" font-family="Helvetica,sans-Serif" font-size="11.00" fill="#000000">...</text>
<polygon fill="#ffffff" stroke="transparent" points="158,-37.7 158,-56.7 241,-56.7 241,-37.7 158,-37.7"/>
<polygon fill="none" stroke="#000000" points="158,-37.7 158,-56.7 241,-56.7 241,-37.7 158,-37.7"/>
<text text-anchor="start" x="161" y="-43.8" font-family="Helvetica,sans-Serif" font-size="11.00" fill="#000000">&lt; 4</text>
<polygon fill="#ffffff" stroke="transparent" points="241,-37.7 241,-56.7 284,-56.7 284,-37.7 241,-37.7"/>
<polygon fill="none" stroke="#000000" points="241,-37.7 241,-56.7 284,-56.7 284,-37.7 241,-37.7"/>
<text text-anchor="start" x="274.8862" y="-43.8" font-family="Helvetica,sans-Serif" font-size="11.00" fill="#000000"> &#160;</text>
<polygon fill="#ffffff" stroke="transparent" points="284,-37.7 284,-56.7 336,-56.7 336,-37.7 284,-37.7"/>
<polygon fill="none" stroke="#000000" points="284,-37.7 284,-56.7 336,-56.7 336,-37.7 284,-37.7"/>
<text text-anchor="start" x="317.4053" y="-43.8" font-family="Helvetica,sans-Serif" font-size="11.00" fill="#000000">1 &gt;</text>
</a>
</g>
</g>
<!-- city&#45;&gt;country -->
<g id="edge3" class="edge">
<title>city:w&#45;&gt;country:e</title>
<path fill="none" stroke="#000000" d="M373.0156,-284.7C360.6771,-284.7 353.1667,-284.7 336,-284.7"/>
<polygon fill="#000000" stroke="#000000" points="379.5,-284.7001 387.5,-288.3 383.5,-284.7 387.5,-284.7 387.5,-284.7 387.5,-284.7 383.5,-284.7 387.5,-281.1 379.5,-284.7001 379.5,-284.7001"/>
<ellipse fill="none" stroke="#000000" cx="376.3" cy="-284.7001" rx="3.2" ry="3.2"/>
</g>
<!-- currency -->
<g id="node6" class="node">
<title>currency</title>
<g id="a_node6"><a xlink:href="../../tables/currency.html" xlink:title="currency" target="_top">
<polygon fill="#ffffff" stroke="transparent" points="9.5,-54.2 9.5,-115.2 107.5,-115.2 107.5,-54.2 9.5,-54.2"/>
<polygon fill="#f5f5f5" stroke="transparent" points="9.5,-91.7 9.5,-114.7 107.5,-114.7 107.5,-91.7 9.5,-91.7"/>
<polygon fill="none" stroke="#000000" points="9.5,-91.7 9.5,-114.7 107.5,-114.7 107.5,-91.7 9.5,-91.7"/>
<text text-anchor="start" x="14.5" y="-100.3" font-family="Helvetica,sans-Serif" font-weight="bold" font-size="11.00" fill="#000000">currency</text>
<text text-anchor="start" x="73.0219" y="-99.8" font-family="Helvetica,sans-Serif" font-size="11.00" fill="#000000">[table]</text>
<polygon fill="none" stroke="#000000" points="9.5,-72.7 9.5,-91.7 107.5,-91.7 107.5,-72.7 9.5,-72.7"/>
<text text-anchor="start" x="12.5" y="-78.8" font-family="Helvetica,sans-Serif" font-size="11.00" fill="#000000">...</text>
<polygon fill="#ffffff" stroke="transparent" points="9.5,-53.7 9.5,-72.7 47.5,-72.7 47.5,-53.7 9.5,-53.7"/>
<polygon fill="none" stroke="#000000" points="9.5,-53.7 9.5,-72.7 47.5,-72.7 47.5,-53.7 9.5,-53.7"/>
<text text-anchor="start" x="12.5" y="-59.8" font-family="Helvetica,sans-Serif" font-size="11.00" fill="#000000"> &#160;</text>
<polygon fill="#ffffff" stroke="transparent" points="47.5,-53.7 47.5,-72.7 72.5,-72.7 72.5,-53.7 47.5,-53.7"/>
<polygon fill="none" stroke="#000000" points="47.5,-53.7 47.5,-72.7 72.5,-72.7 72.5,-53.7 47.5,-53.7"/>
<text text-anchor="start" x="63.3862" y="-59.8" font-family="Helvetica,sans-Serif" font-size="11.00" fill="#000000"> &#160;</text>
<polygon fill="#ffffff" stroke="transparent" points="72.5,-53.7 72.5,-72.7 107.5,-72.7 107.5,-53.7 72.5,-53.7"/>
<polygon fill="none" stroke="#000000" points="72.5,-53.7 72.5,-72.7 107.5,-72.7 107.5,-53.7 72.5,-53.7"/>
<text text-anchor="start" x="88.9053" y="-59.8" font-family="Helvetica,sans-Serif" font-size="11.00" fill="#000000">1 &gt;</text>
</a>
</g>
</g>
<!-- country&#45;&gt;currency -->
<g id="edge4" class="edge">
<title>country:w&#45;&gt;currency:e</title>
<path fill="none" stroke="#000000" d="M143.6995,-104.9458C131.3173,-97.5269 126.9859,-81.7 107.5,-81.7"/>
<polygon fill="#000000" stroke="#000000" points="150.2622,-106.6686 157.0859,-112.182 154.1311,-107.6843 158,-108.7 158,-108.7 158,-108.7 154.1311,-107.6843 158.9141,-105.218 150.2622,-106.6686 150.2622,-106.6686"/>
<ellipse fill="none" stroke="#000000" cx="147.1671" cy="-105.856" rx="3.2" ry="3.2"/>
</g>
<!-- language -->
<g id="node7" class="node">
<title>language</title>
<g id="a_node7"><a xlink:href="../../tables/language.html" xlink:title="language" target="_top">
<polygon fill="#ffffff" stroke="transparent" points="8,-136.2 8,-197.2 109,-197.2 109,-136.2 8,-136.2"/>
<polygon fill="#f5f5f5" stroke="transparent" points="8.5,-173.7 8.5,-196.7 109.5,-196.7 109.5,-173.7 8.5,-173.7"/>
<polygon fill="none" stroke="#000000" points="8.5,-173.7 8.5,-196.7 109.5,-196.7 109.5,-173.7 8.5,-173.7"/>
<text text-anchor="start" x="13.5" y="-182.3" font-family="Helvetica,sans-Serif" font-weight="bold" font-size="11.00" fill="#000000">language</text>
<text text-anchor="start" x="75.0219" y="-181.8" font-family="Helvetica,sans-Serif" font-size="11.00" fill="#000000">[table]</text>
<polygon fill="none" stroke="#000000" points="8.5,-154.7 8.5,-173.7 109.5,-173.7 109.5,-154.7 8.5,-154.7"/>
<text text-anchor="start" x="11.5" y="-160.8" font-family="Helvetica,sans-Serif" font-size="11.00" fill="#000000">...</text>
<polygon fill="#ffffff" stroke="transparent" points="8.5,-135.7 8.5,-154.7 48.5,-154.7 48.5,-135.7 8.5,-135.7"/>
<polygon fill="none" stroke="#000000" points="8.5,-135.7 8.5,-154.7 48.5,-154.7 48.5,-135.7 8.5,-135.7"/>
<text text-anchor="start" x="11.5" y="-141.8" font-family="Helvetica,sans-Serif" font-size="11.00" fill="#000000"> &#160;</text>
<polygon fill="#ffffff" stroke="transparent" points="48.5,-135.7 48.5,-154.7 74.5,-154.7 74.5,-135.7 48.5,-135.7"/>
<polygon fill="none" stroke="#000000" points="48.5,-135.7 48.5,-154.7 74.5,-154.7 74.5,-135.7 48.5,-135.7"/>
<text text-anchor="start" x="65.3862" y="-141.8" font-family="Helvetica,sans-Serif" font-size="11.00" fill="#000000"> &#160;</text>
<polygon fill="#ffffff" stroke="transparent" points="74.5,-135.7 74.5,-154.7 109.5,-154.7 109.5,-135.7 74.5,-135.7"/>
<polygon fill="none" stroke="#000000" points="74.5,-135.7 74.5,-154.7 109.5,-154.7 109.5,-135.7 74.5,-135.7"/>
<text text-anchor="start" x="90.9053" y="-141.8" font-family="Helvetica,sans-Serif" font-size="11.00" fill="#000000">3 &gt;</text>
</a>
</g>
</g>
<!-- country&#45;&gt;language -->
<g id="edge5" class="edge">
<title>country:w&#45;&gt;language:e</title>
<path fill="none" stroke="#000000" d="M143.4888,-172.7839C132.3593,-169.6324 125.7319,-163.7 109.5,-163.7"/>
<polygon fill="#000000" stroke="#000000" points="150.0688,-173.6527 157.5287,-178.269 154.0344,-174.1764 158,-174.7 158,-174.7 158,-174.7 154.0344,-174.1764 158.4713,-171.131 150.0688,-173.6527 150.0688,-173.6527"/>
<ellipse fill="none" stroke="#000000" cx="146.8964" cy="-173.2338" rx="3.2" ry="3.2"/>
</g>
<!-- country&#45;&gt;language -->
<g id="edge6" class="edge">
<title>country:w&#45;&gt;language:e</title>
<path fill="none" stroke="#000000" d="M143.4888,-154.6161C132.3593,-157.7676 125.7319,-163.7 109.5,-163.7"/>
<polygon fill="#000000" stroke="#000000" points="150.0688,-153.7473 158.4713,-156.269 154.0344,-153.2236 158,-152.7 158,-152.7 158,-152.7 154.0344,-153.2236 157.5287,-149.131 150.0688,-153.7473 150.0688,-153.7473"/>
<ellipse fill="none" stroke="#000000" cx="146.8964" cy="-154.1662" rx="3.2" ry="3.2"/>
</g>
<!-- country&#45;&gt;language -->
<g id="edge7" class="edge">
<title>country:w&#45;&gt;language:e</title>
<path fill="none" stroke="#000000" d="M144.164,-135.0142C132.0538,-143.9592 129.6651,-163.7 109.5,-163.7"/>
<polygon fill="#000000" stroke="#000000" points="150.3627,-133.0814 159.0716,-134.1368 154.1813,-131.8907 158,-130.7 158,-130.7 158,-130.7 154.1813,-131.8907 156.9284,-127.2632 150.3627,-133.0814 150.3627,-133.0814"/>
<ellipse fill="none" stroke="#000000" cx="147.3077" cy="-134.034" rx="3.2" ry="3.2"/>
</g>
<!-- fleet -->
<g id="node8" class="node">
<title>fleet</title>
<g id="a_node8"><a xlink:href="../../tables/fleet.html" xlink:title="fleet" target="_top">
<polygon fill="#ffffff" stroke="transparent" points="908,-369.2 908,-430.2 978,-430.2 978,-369.2 908,-369.2"/>
<polygon fill="#f5f5f5" stroke="transparent" points="908,-406.7 908,-429.7 978,-429.7 978,-406.7 908,-406.7"/>
<polygon fill="none" stroke="#000000" points="908,-406.7 908,-429.7 978,-429.7 978,-406.7 908,-406.7"/>
<text text-anchor="start" x="913" y="-415.3" font-family="Helvetica,sans-Serif" font-weight="bold" font-size="11.00" fill="#000000">fleet</text>
<text text-anchor="start" x="943.5219" y="-414.8" font-family="Helvetica,sans-Serif" font-size="11.00" fill="#000000">[table]</text>
<polygon fill="none" stroke="#000000" points="908,-387.7 908,-406.7 978,-406.7 978,-387.7 908,-387.7"/>
<text text-anchor="start" x="911" y="-393.8" font-family="Helvetica,sans-Serif" font-size="11.00" fill="#000000">...</text>
<polygon fill="#ffffff" stroke="transparent" points="908,-368.7 908,-387.7 937,-387.7 937,-368.7 908,-368.7"/>
<polygon fill="none" stroke="#000000" points="908,-368.7 908,-387.7 937,-387.7 937,-368.7 908,-368.7"/>
<text text-anchor="start" x="911" y="-374.8" font-family="Helvetica,sans-Serif" font-size="11.00" fill="#000000">&lt; 1</text>
<polygon fill="#ffffff" stroke="transparent" points="937,-368.7 937,-387.7 953,-387.7 953,-368.7 937,-368.7"/>
<polygon fill="none" stroke="#000000" points="937,-368.7 937,-387.7 953,-387.7 953,-368.7 937,-368.7"/>
<text text-anchor="start" x="943.8862" y="-374.8" font-family="Helvetica,sans-Serif" font-size="11.00" fill="#000000"> &#160;</text>
<polygon fill="#ffffff" stroke="transparent" points="953,-368.7 953,-387.7 978,-387.7 978,-368.7 953,-368.7"/>
<polygon fill="none" stroke="#000000" points="953,-368.7 953,-387.7 978,-387.7 978,-368.7 953,-368.7"/>
<text text-anchor="start" x="959.4053" y="-374.8" font-family="Helvetica,sans-Serif" font-size="11.00" fill="#000000">1 &gt;</text>
</a>
</g>
</g>
<!-- fleet&#45;&gt;airport -->
<g id="edge8" class="edge">
<title>fleet:w&#45;&gt;airport:e</title>
<path fill="none" stroke="#000000" d="M893.5871,-393.3484C866.3186,-378.4188 879.1277,-318.7 838.5,-318.7"/>
<polygon fill="#000000" stroke="#000000" points="900.2079,-394.888 907.1846,-400.2064 904.104,-395.794 908,-396.7 908,-396.7 908,-396.7 904.104,-395.794 908.8154,-393.1936 900.2079,-394.888 900.2079,-394.888"/>
<ellipse fill="none" stroke="#000000" cx="897.0911" cy="-394.1632" rx="3.2" ry="3.2"/>
</g>
<!-- fleet_route -->
<g id="node9" class="node">
<title>fleet_route</title>
<g id="a_node9"><a xlink:href="../../tables/fleet_route.html" xlink:title="fleet_route" target="_top">
<polygon fill="#ffffff" stroke="transparent" points="887,-287.2 887,-348.2 999,-348.2 999,-287.2 887,-287.2"/>
<polygon fill="#f5f5f5" stroke="transparent" points="887,-324.7 887,-347.7 999,-347.7 999,-324.7 887,-324.7"/>
<polygon fill="none" stroke="#000000" points="887,-324.7 887,-347.7 999,-347.7 999,-324.7 887,-324.7"/>
<text text-anchor="start" x="892" y="-333.3" font-family="Helvetica,sans-Serif" font-weight="bold" font-size="11.00" fill="#000000">fleet_route</text>
<text text-anchor="start" x="964.5219" y="-332.8" font-family="Helvetica,sans-Serif" font-size="11.00" fill="#000000">[table]</text>
<polygon fill="none" stroke="#000000" points="887,-305.7 887,-324.7 999,-324.7 999,-305.7 887,-305.7"/>
<text text-anchor="start" x="890" y="-311.8" font-family="Helvetica,sans-Serif" font-size="11.00" fill="#000000">...</text>
<polygon fill="#ffffff" stroke="transparent" points="887,-286.7 887,-305.7 941,-305.7 941,-286.7 887,-286.7"/>
<polygon fill="none" stroke="#000000" points="887,-286.7 887,-305.7 941,-305.7 941,-286.7 887,-286.7"/>
<text text-anchor="start" x="890" y="-292.8" font-family="Helvetica,sans-Serif" font-size="11.00" fill="#000000">&lt; 3</text>
<polygon fill="#ffffff" stroke="transparent" points="941,-286.7 941,-305.7 970,-305.7 970,-286.7 941,-286.7"/>
<polygon fill="none" stroke="#000000" points="941,-286.7 941,-305.7 970,-305.7 970,-286.7 941,-286.7"/>
<text text-anchor="start" x="960.8862" y="-292.8" font-family="Helvetica,sans-Serif" font-size="11.00" fill="#000000"> &#160;</text>
<polygon fill="#ffffff" stroke="transparent" points="970,-286.7 970,-305.7 999,-305.7 999,-286.7 970,-286.7"/>
<polygon fill="none" stroke="#000000" points="970,-286.7 970,-305.7 999,-305.7 999,-286.7 970,-286.7"/>
<text text-anchor="start" x="989.8862" y="-292.8" font-family="Helvetica,sans-Serif" font-size="11.00" fill="#000000"> &#160;</text>
</a>
</g>
</g>
<!-- fleet_route&#45;&gt;airport -->
<g id="edge9" class="edge">
<title>fleet_route:w&#45;&gt;airport:e</title>
<path fill="none" stroke="#000000" d="M872.6189,-311.8855C861.43,-310.9661 854.3836,-314.2938 838.5,-318.7"/>
<polygon fill="#000000" stroke="#000000" points="879.1489,-313.1635 886.3086,-318.233 883.0745,-313.9317 887,-314.7 887,-314.7 887,-314.7 883.0745,-313.9317 887.6914,-311.167 879.1489,-313.1635 879.1489,-313.1635"/>
<ellipse fill="none" stroke="#000000" cx="876.0085" cy="-312.5488" rx="3.2" ry="3.2"/>
</g>
<!-- fleet_route&#45;&gt;airport -->
<g id="edge10" class="edge">
<title>fleet_route:w&#45;&gt;airport:e</title>
<path fill="none" stroke="#000000" d="M873.3388,-319.2625C861.7259,-323.0125 854.7216,-323.95 838.5,-318.7"/>
<polygon fill="#000000" stroke="#000000" points="879.412,-317.2342 888.1404,-318.1146 883.206,-315.9671 887,-314.7 887,-314.7 887,-314.7 883.206,-315.9671 885.8596,-311.2854 879.412,-317.2342 879.412,-317.2342"/>
<ellipse fill="none" stroke="#000000" cx="876.3768" cy="-318.2479" rx="3.2" ry="3.2"/>
</g>
</g>
</svg>
