<?xml version="1.0" encoding="UTF-8" standalone="no"?>
<!DOCTYPE svg PUBLIC "-//W3C//DTD SVG 1.1//EN"
 "http://www.w3.org/Graphics/SVG/1.1/DTD/svg11.dtd">
<!-- Generated by graphviz version 2.40.1 (20161225.0304)
 -->
<!-- Title: oneDegreeRelationshipsDiagram Pages: 1 -->
<svg width="669pt" height="512pt"
 viewBox="0.00 0.00 669.00 512.20" xmlns="http://www.w3.org/2000/svg" xmlns:xlink="http://www.w3.org/1999/xlink">
<g id="graph0" class="graph" transform="scale(1 1) rotate(0) translate(4 508.2)">
<title>oneDegreeRelationshipsDiagram</title>
<polygon fill="#ffffff" stroke="transparent" points="-4,4 -4,-508.2 665,-508.2 665,4 -4,4"/>
<text text-anchor="middle" x="72.4936" y="-7.3" font-family="Helvetica,sans-Serif" font-size="11.00" fill="#000000">Generated by SchemaSpy</text>
<!-- city -->
<g id="node1" class="node">
<title>city</title>
<g id="a_node1"><a xlink:href="../../tables/city.html" xlink:title="city" target="_top">
<polygon fill="#ffffff" stroke="transparent" points="525,-373.2 525,-500.2 653,-500.2 653,-373.2 525,-373.2"/>
<polygon fill="#f5f5f5" stroke="transparent" points="525,-476.7 525,-499.7 653,-499.7 653,-476.7 525,-476.7"/>
<polygon fill="none" stroke="#000000" points="525,-476.7 525,-499.7 653,-499.7 653,-476.7 525,-476.7"/>
<text text-anchor="start" x="530" y="-485.3" font-family="Helvetica,sans-Serif" font-weight="bold" font-size="11.00" fill="#000000">city</text>
<text text-anchor="start" x="618.0437" y="-484.8" font-family="Helvetica,sans-Serif" font-size="11.00" fill="#000000">[table]</text>
<polygon fill="none" stroke="#000000" points="525,-454.7 525,-476.7 653,-476.7 653,-454.7 525,-454.7"/>
<image xlink:href="../../images/primaryKeys.png" width="11px" height="12px" preserveAspectRatio="xMinYMin meet" x="530" y="-471.7"/>
<text text-anchor="start" x="545" y="-461.8" font-family="Helvetica,sans-Serif" font-size="11.00" fill="#000000">id</text>
<polygon fill="#ffffff" stroke="transparent" points="525,-432.7 525,-454.7 653,-454.7 653,-432.7 525,-432.7"/>
<polygon fill="none" stroke="#000000" points="525,-432.7 525,-454.7 653,-454.7 653,-432.7 525,-432.7"/>
<text text-anchor="start" x="545" y="-439.8" font-family="Helvetica,sans-Serif" font-size="11.00" fill="#000000">name</text>
<polygon fill="#ffffff" stroke="transparent" points="525,-410.7 525,-432.7 653,-432.7 653,-410.7 525,-410.7"/>
<polygon fill="none" stroke="#000000" points="525,-410.7 525,-432.7 653,-432.7 653,-410.7 525,-410.7"/>
<image xlink:href="../../images/foreignKeys.png" width="11px" height="12px" preserveAspectRatio="xMinYMin meet" x="530" y="-427.7"/>
<text text-anchor="start" x="545" y="-417.8" font-family="Helvetica,sans-Serif" font-size="11.00" fill="#000000">country_id</text>
<polygon fill="none" stroke="#000000" points="525,-391.7 525,-410.7 653,-410.7 653,-391.7 525,-391.7"/>
<text text-anchor="start" x="528" y="-397.8" font-family="Helvetica,sans-Serif" font-size="11.00" fill="#000000">...</text>
<polygon fill="#ffffff" stroke="transparent" points="525,-372.7 525,-391.7 583,-391.7 583,-372.7 525,-372.7"/>
<polygon fill="none" stroke="#000000" points="525,-372.7 525,-391.7 583,-391.7 583,-372.7 525,-372.7"/>
<text text-anchor="start" x="528" y="-378.8" font-family="Helvetica,sans-Serif" font-size="11.00" fill="#000000">&lt; 1</text>
<polygon fill="#ffffff" stroke="transparent" points="583,-372.7 583,-391.7 613,-391.7 613,-372.7 583,-372.7"/>
<polygon fill="none" stroke="#000000" points="583,-372.7 583,-391.7 613,-391.7 613,-372.7 583,-372.7"/>
<text text-anchor="start" x="603.8862" y="-378.8" font-family="Helvetica,sans-Serif" font-size="11.00" fill="#000000"> &#160;</text>
<polygon fill="#ffffff" stroke="transparent" points="613,-372.7 613,-391.7 653,-391.7 653,-372.7 613,-372.7"/>
<polygon fill="none" stroke="#000000" points="613,-372.7 613,-391.7 653,-391.7 653,-372.7 613,-372.7"/>
<text text-anchor="start" x="634.4053" y="-378.8" font-family="Helvetica,sans-Serif" font-size="11.00" fill="#000000">2 &gt;</text>
</a>
</g>
</g>
<!-- country -->
<g id="node2" class="node">
<title>country</title>
<g id="a_node2"><a xlink:href="../../tables/country.html" xlink:title="country" target="_top">
<polygon fill="#ffffff" stroke="transparent" points="185,-125.7 185,-457.7 476,-457.7 476,-125.7 185,-125.7"/>
<polygon fill="#f5f5f5" stroke="transparent" points="187.5,-432.7 187.5,-455.7 474.5,-455.7 474.5,-432.7 187.5,-432.7"/>
<polygon fill="none" stroke="#000000" points="187.5,-432.7 187.5,-455.7 474.5,-455.7 474.5,-432.7 187.5,-432.7"/>
<text text-anchor="start" x="192.5" y="-441.3" font-family="Helvetica,sans-Serif" font-weight="bold" font-size="11.00" fill="#000000">country</text>
<text text-anchor="start" x="439.5437" y="-440.8" font-family="Helvetica,sans-Serif" font-size="11.00" fill="#000000">[table]</text>
<polygon fill="none" stroke="#000000" points="187.5,-410.7 187.5,-432.7 365.5,-432.7 365.5,-410.7 187.5,-410.7"/>
<image xlink:href="../../images/primaryKeys.png" width="11px" height="12px" preserveAspectRatio="xMinYMin meet" x="192.5" y="-427.7"/>
<text text-anchor="start" x="207.5" y="-417.8" font-family="Helvetica,sans-Serif" font-size="11.00" fill="#000000">id</text>
<polygon fill="none" stroke="#000000" points="365.5,-410.7 365.5,-432.7 474.5,-432.7 474.5,-410.7 365.5,-410.7"/>
<text text-anchor="start" x="368.5" y="-418.4" font-family="Helvetica,sans-Serif" font-size="11.00" fill="#000000">serial[10]</text>
<polygon fill="none" stroke="#000000" points="187.5,-388.7 187.5,-410.7 365.5,-410.7 365.5,-388.7 187.5,-388.7"/>
<text text-anchor="start" x="207.5" y="-395.8" font-family="Helvetica,sans-Serif" font-size="11.00" fill="#000000">name</text>
<polygon fill="none" stroke="#000000" points="365.5,-388.7 365.5,-410.7 474.5,-410.7 474.5,-388.7 365.5,-388.7"/>
<text text-anchor="start" x="368.0344" y="-396.4" font-family="Helvetica,sans-Serif" font-size="11.00" fill="#000000">varchar[2147483647]</text>
<polygon fill="#ffffff" stroke="transparent" points="187.5,-366.7 187.5,-388.7 365.5,-388.7 365.5,-366.7 187.5,-366.7"/>
<polygon fill="none" stroke="#000000" points="187.5,-366.7 187.5,-388.7 365.5,-388.7 365.5,-366.7 187.5,-366.7"/>
<text text-anchor="start" x="207.5" y="-373.8" font-family="Helvetica,sans-Serif" font-size="11.00" fill="#000000">iso2</text>
<polygon fill="none" stroke="#000000" points="365.5,-366.7 365.5,-388.7 474.5,-388.7 474.5,-366.7 365.5,-366.7"/>
<text text-anchor="start" x="368.5" y="-374.4" font-family="Helvetica,sans-Serif" font-size="11.00" fill="#000000">varchar[2]</text>
<polygon fill="#ffffff" stroke="transparent" points="187.5,-344.7 187.5,-366.7 365.5,-366.7 365.5,-344.7 187.5,-344.7"/>
<polygon fill="none" stroke="#000000" points="187.5,-344.7 187.5,-366.7 365.5,-366.7 365.5,-344.7 187.5,-344.7"/>
<text text-anchor="start" x="207.5" y="-351.8" font-family="Helvetica,sans-Serif" font-size="11.00" fill="#000000">iso3</text>
<polygon fill="none" stroke="#000000" points="365.5,-344.7 365.5,-366.7 474.5,-366.7 474.5,-344.7 365.5,-344.7"/>
<text text-anchor="start" x="368.5" y="-352.4" font-family="Helvetica,sans-Serif" font-size="11.00" fill="#000000">varchar[3]</text>
<polygon fill="#ffffff" stroke="transparent" points="187.5,-322.7 187.5,-344.7 365.5,-344.7 365.5,-322.7 187.5,-322.7"/>
<polygon fill="none" stroke="#000000" points="187.5,-322.7 187.5,-344.7 365.5,-344.7 365.5,-322.7 187.5,-322.7"/>
<text text-anchor="start" x="207.5" y="-329.8" font-family="Helvetica,sans-Serif" font-size="11.00" fill="#000000">country_code</text>
<polygon fill="none" stroke="#000000" points="365.5,-322.7 365.5,-344.7 474.5,-344.7 474.5,-322.7 365.5,-322.7"/>
<text text-anchor="start" x="368.5" y="-330.4" font-family="Helvetica,sans-Serif" font-size="11.00" fill="#000000">int4[10]</text>
<polygon fill="#ffffff" stroke="transparent" points="187.5,-300.7 187.5,-322.7 365.5,-322.7 365.5,-300.7 187.5,-300.7"/>
<polygon fill="none" stroke="#000000" points="187.5,-300.7 187.5,-322.7 365.5,-322.7 365.5,-300.7 187.5,-300.7"/>
<text text-anchor="start" x="207.5" y="-307.8" font-family="Helvetica,sans-Serif" font-size="11.00" fill="#000000">domain_name</text>
<polygon fill="none" stroke="#000000" points="365.5,-300.7 365.5,-322.7 474.5,-322.7 474.5,-300.7 365.5,-300.7"/>
<text text-anchor="start" x="368.5" y="-308.4" font-family="Helvetica,sans-Serif" font-size="11.00" fill="#000000">varchar[10]</text>
<polygon fill="none" stroke="#000000" points="187.5,-278.7 187.5,-300.7 365.5,-300.7 365.5,-278.7 187.5,-278.7"/>
<image xlink:href="../../images/foreignKeys.png" width="11px" height="12px" preserveAspectRatio="xMinYMin meet" x="192.5" y="-295.7"/>
<text text-anchor="start" x="207.5" y="-285.8" font-family="Helvetica,sans-Serif" font-size="11.00" fill="#000000">main_language_id</text>
<polygon fill="none" stroke="#000000" points="365.5,-278.7 365.5,-300.7 474.5,-300.7 474.5,-278.7 365.5,-278.7"/>
<text text-anchor="start" x="368.5" y="-286.4" font-family="Helvetica,sans-Serif" font-size="11.00" fill="#000000">int4[10]</text>
<polygon fill="none" stroke="#000000" points="187.5,-256.7 187.5,-278.7 365.5,-278.7 365.5,-256.7 187.5,-256.7"/>
<image xlink:href="../../images/foreignKeys.png" width="11px" height="12px" preserveAspectRatio="xMinYMin meet" x="192.5" y="-273.7"/>
<text text-anchor="start" x="207.5" y="-263.8" font-family="Helvetica,sans-Serif" font-size="11.00" fill="#000000">secondary_language_id</text>
<polygon fill="none" stroke="#000000" points="365.5,-256.7 365.5,-278.7 474.5,-278.7 474.5,-256.7 365.5,-256.7"/>
<text text-anchor="start" x="368.5" y="-264.4" font-family="Helvetica,sans-Serif" font-size="11.00" fill="#000000">int4[10]</text>
<polygon fill="none" stroke="#000000" points="187.5,-234.7 187.5,-256.7 365.5,-256.7 365.5,-234.7 187.5,-234.7"/>
<image xlink:href="../../images/foreignKeys.png" width="11px" height="12px" preserveAspectRatio="xMinYMin meet" x="192.5" y="-251.7"/>
<text text-anchor="start" x="207.5" y="-241.8" font-family="Helvetica,sans-Serif" font-size="11.00" fill="#000000">tertiary_language_id</text>
<polygon fill="none" stroke="#000000" points="365.5,-234.7 365.5,-256.7 474.5,-256.7 474.5,-234.7 365.5,-234.7"/>
<text text-anchor="start" x="368.5" y="-242.4" font-family="Helvetica,sans-Serif" font-size="11.00" fill="#000000">int4[10]</text>
<polygon fill="none" stroke="#000000" points="187.5,-212.7 187.5,-234.7 365.5,-234.7 365.5,-212.7 187.5,-212.7"/>
<image xlink:href="../../images/foreignKeys.png" width="11px" height="12px" preserveAspectRatio="xMinYMin meet" x="192.5" y="-229.7"/>
<text text-anchor="start" x="207.5" y="-219.8" font-family="Helvetica,sans-Serif" font-size="11.00" fill="#000000">currency_id</text>
<polygon fill="none" stroke="#000000" points="365.5,-212.7 365.5,-234.7 474.5,-234.7 474.5,-212.7 365.5,-212.7"/>
<text text-anchor="start" x="368.5" y="-220.4" font-family="Helvetica,sans-Serif" font-size="11.00" fill="#000000">int4[10]</text>
<polygon fill="#ffffff" stroke="transparent" points="187.5,-190.7 187.5,-212.7 365.5,-212.7 365.5,-190.7 187.5,-190.7"/>
<polygon fill="none" stroke="#000000" points="187.5,-190.7 187.5,-212.7 365.5,-212.7 365.5,-190.7 187.5,-190.7"/>
<text text-anchor="start" x="207.5" y="-197.8" font-family="Helvetica,sans-Serif" font-size="11.00" fill="#000000">nationality</text>
<polygon fill="none" stroke="#000000" points="365.5,-190.7 365.5,-212.7 474.5,-212.7 474.5,-190.7 365.5,-190.7"/>
<text text-anchor="start" x="368.0344" y="-198.4" font-family="Helvetica,sans-Serif" font-size="11.00" fill="#000000">varchar[2147483647]</text>
<polygon fill="none" stroke="#000000" points="187.5,-168.7 187.5,-190.7 365.5,-190.7 365.5,-168.7 187.5,-168.7"/>
<text text-anchor="start" x="207.5" y="-175.8" font-family="Helvetica,sans-Serif" font-size="11.00" fill="#000000">created_at</text>
<polygon fill="none" stroke="#000000" points="365.5,-168.7 365.5,-190.7 474.5,-190.7 474.5,-168.7 365.5,-168.7"/>
<text text-anchor="start" x="368.5" y="-176.4" font-family="Helvetica,sans-Serif" font-size="11.00" fill="#000000">timestamp[29,6]</text>
<polygon fill="none" stroke="#000000" points="187.5,-146.7 187.5,-168.7 365.5,-168.7 365.5,-146.7 187.5,-146.7"/>
<text text-anchor="start" x="207.5" y="-153.8" font-family="Helvetica,sans-Serif" font-size="11.00" fill="#000000">last_updated_at</text>
<polygon fill="none" stroke="#000000" points="365.5,-146.7 365.5,-168.7 474.5,-168.7 474.5,-146.7 365.5,-146.7"/>
<text text-anchor="start" x="368.5" y="-154.4" font-family="Helvetica,sans-Serif" font-size="11.00" fill="#000000">timestamp[29,6]</text>
<polygon fill="#ffffff" stroke="transparent" points="187.5,-127.7 187.5,-146.7 280.5,-146.7 280.5,-127.7 187.5,-127.7"/>
<polygon fill="none" stroke="#000000" points="187.5,-127.7 187.5,-146.7 280.5,-146.7 280.5,-127.7 187.5,-127.7"/>
<text text-anchor="start" x="190.5" y="-133.8" font-family="Helvetica,sans-Serif" font-size="11.00" fill="#000000">&lt; 4</text>
<polygon fill="#ffffff" stroke="transparent" points="280.5,-127.7 280.5,-146.7 365.5,-146.7 365.5,-127.7 280.5,-127.7"/>
<polygon fill="none" stroke="#000000" points="280.5,-127.7 280.5,-146.7 365.5,-146.7 365.5,-127.7 280.5,-127.7"/>
<text text-anchor="start" x="356.3862" y="-133.8" font-family="Helvetica,sans-Serif" font-size="11.00" fill="#000000"> &#160;</text>
<polygon fill="#ffffff" stroke="transparent" points="365.5,-127.7 365.5,-146.7 474.5,-146.7 474.5,-127.7 365.5,-127.7"/>
<polygon fill="none" stroke="#000000" points="365.5,-127.7 365.5,-146.7 474.5,-146.7 474.5,-127.7 365.5,-127.7"/>
<text text-anchor="start" x="455.9053" y="-133.8" font-family="Helvetica,sans-Serif" font-size="11.00" fill="#000000">1 &gt;</text>
<polygon fill="none" stroke="#000000" stroke-width="2" points="186,-126.7 186,-456.7 475,-456.7 475,-126.7 186,-126.7"/>
</a>
</g>
</g>
<!-- city&#45;&gt;country -->
<g id="edge1" class="edge">
<title>city:w&#45;&gt;country:e</title>
<path fill="none" stroke="#000000" d="M510.4203,-421.7C498.5435,-421.7 491.158,-421.7 474.5,-421.7"/>
<polygon fill="#000000" stroke="#000000" points="517,-421.7001 525,-425.3 521,-421.7 525,-421.7 525,-421.7 525,-421.7 521,-421.7 525,-418.1 517,-421.7001 517,-421.7001"/>
<ellipse fill="none" stroke="#000000" cx="513.8" cy="-421.7001" rx="3.2" ry="3.2"/>
</g>
<!-- currency -->
<g id="node3" class="node">
<title>currency</title>
<g id="a_node3"><a xlink:href="../../tables/currency.html" xlink:title="currency" target="_top">
<polygon fill="#ffffff" stroke="transparent" points="8,-38.2 8,-165.2 136,-165.2 136,-38.2 8,-38.2"/>
<polygon fill="#f5f5f5" stroke="transparent" points="8,-141.7 8,-164.7 136,-164.7 136,-141.7 8,-141.7"/>
<polygon fill="none" stroke="#000000" points="8,-141.7 8,-164.7 136,-164.7 136,-141.7 8,-141.7"/>
<text text-anchor="start" x="13" y="-150.3" font-family="Helvetica,sans-Serif" font-weight="bold" font-size="11.00" fill="#000000">currency</text>
<text text-anchor="start" x="101.0437" y="-149.8" font-family="Helvetica,sans-Serif" font-size="11.00" fill="#000000">[table]</text>
<polygon fill="none" stroke="#000000" points="8,-119.7 8,-141.7 136,-141.7 136,-119.7 8,-119.7"/>
<image xlink:href="../../images/primaryKeys.png" width="11px" height="12px" preserveAspectRatio="xMinYMin meet" x="13" y="-136.7"/>
<text text-anchor="start" x="28" y="-126.8" font-family="Helvetica,sans-Serif" font-size="11.00" fill="#000000">id</text>
<polygon fill="#ffffff" stroke="transparent" points="8,-97.7 8,-119.7 136,-119.7 136,-97.7 8,-97.7"/>
<polygon fill="none" stroke="#000000" points="8,-97.7 8,-119.7 136,-119.7 136,-97.7 8,-97.7"/>
<text text-anchor="start" x="28" y="-104.8" font-family="Helvetica,sans-Serif" font-size="11.00" fill="#000000">iso</text>
<polygon fill="#ffffff" stroke="transparent" points="8,-75.7 8,-97.7 136,-97.7 136,-75.7 8,-75.7"/>
<polygon fill="none" stroke="#000000" points="8,-75.7 8,-97.7 136,-97.7 136,-75.7 8,-75.7"/>
<text text-anchor="start" x="28" y="-82.8" font-family="Helvetica,sans-Serif" font-size="11.00" fill="#000000">symbol</text>
<polygon fill="none" stroke="#000000" points="8,-56.7 8,-75.7 136,-75.7 136,-56.7 8,-56.7"/>
<text text-anchor="start" x="11" y="-62.8" font-family="Helvetica,sans-Serif" font-size="11.00" fill="#000000">...</text>
<polygon fill="#ffffff" stroke="transparent" points="8,-37.7 8,-56.7 61,-56.7 61,-37.7 8,-37.7"/>
<polygon fill="none" stroke="#000000" points="8,-37.7 8,-56.7 61,-56.7 61,-37.7 8,-37.7"/>
<text text-anchor="start" x="11" y="-43.8" font-family="Helvetica,sans-Serif" font-size="11.00" fill="#000000"> &#160;</text>
<polygon fill="#ffffff" stroke="transparent" points="61,-37.7 61,-56.7 94,-56.7 94,-37.7 61,-37.7"/>
<polygon fill="none" stroke="#000000" points="61,-37.7 61,-56.7 94,-56.7 94,-37.7 61,-37.7"/>
<text text-anchor="start" x="84.8862" y="-43.8" font-family="Helvetica,sans-Serif" font-size="11.00" fill="#000000"> &#160;</text>
<polygon fill="#ffffff" stroke="transparent" points="94,-37.7 94,-56.7 136,-56.7 136,-37.7 94,-37.7"/>
<polygon fill="none" stroke="#000000" points="94,-37.7 94,-56.7 136,-56.7 136,-37.7 94,-37.7"/>
<text text-anchor="start" x="117.4053" y="-43.8" font-family="Helvetica,sans-Serif" font-size="11.00" fill="#000000">1 &gt;</text>
</a>
</g>
</g>
<!-- country&#45;&gt;currency -->
<g id="edge2" class="edge">
<title>country:w&#45;&gt;currency:e</title>
<path fill="none" stroke="#000000" d="M173.6597,-219.7039C149.5911,-201.9031 177.3417,-130.7 136,-130.7"/>
<polygon fill="#000000" stroke="#000000" points="179.814,-221.4808 186.5013,-227.1587 183.657,-222.5904 187.5,-223.7 187.5,-223.7 187.5,-223.7 183.657,-222.5904 188.4987,-220.2413 179.814,-221.4808 179.814,-221.4808"/>
<ellipse fill="none" stroke="#000000" cx="176.7395" cy="-220.5931" rx="3.2" ry="3.2"/>
</g>
<!-- language -->
<g id="node4" class="node">
<title>language</title>
<g id="a_node4"><a xlink:href="../../tables/language.html" xlink:title="language" target="_top">
<polygon fill="#ffffff" stroke="transparent" points="8,-186.2 8,-313.2 136,-313.2 136,-186.2 8,-186.2"/>
<polygon fill="#f5f5f5" stroke="transparent" points="8,-289.7 8,-312.7 136,-312.7 136,-289.7 8,-289.7"/>
<polygon fill="none" stroke="#000000" points="8,-289.7 8,-312.7 136,-312.7 136,-289.7 8,-289.7"/>
<text text-anchor="start" x="13" y="-298.3" font-family="Helvetica,sans-Serif" font-weight="bold" font-size="11.00" fill="#000000">language</text>
<text text-anchor="start" x="101.0437" y="-297.8" font-family="Helvetica,sans-Serif" font-size="11.00" fill="#000000">[table]</text>
<polygon fill="none" stroke="#000000" points="8,-267.7 8,-289.7 136,-289.7 136,-267.7 8,-267.7"/>
<image xlink:href="../../images/primaryKeys.png" width="11px" height="12px" preserveAspectRatio="xMinYMin meet" x="13" y="-284.7"/>
<text text-anchor="start" x="28" y="-274.8" font-family="Helvetica,sans-Serif" font-size="11.00" fill="#000000">id</text>
<polygon fill="#ffffff" stroke="transparent" points="8,-245.7 8,-267.7 136,-267.7 136,-245.7 8,-245.7"/>
<polygon fill="none" stroke="#000000" points="8,-245.7 8,-267.7 136,-267.7 136,-245.7 8,-245.7"/>
<text text-anchor="start" x="28" y="-252.8" font-family="Helvetica,sans-Serif" font-size="11.00" fill="#000000">iso2</text>
<polygon fill="#ffffff" stroke="transparent" points="8,-223.7 8,-245.7 136,-245.7 136,-223.7 8,-223.7"/>
<polygon fill="none" stroke="#000000" points="8,-223.7 8,-245.7 136,-245.7 136,-223.7 8,-223.7"/>
<text text-anchor="start" x="28" y="-230.8" font-family="Helvetica,sans-Serif" font-size="11.00" fill="#000000">iso3</text>
<polygon fill="none" stroke="#000000" points="8,-204.7 8,-223.7 136,-223.7 136,-204.7 8,-204.7"/>
<text text-anchor="start" x="11" y="-210.8" font-family="Helvetica,sans-Serif" font-size="11.00" fill="#000000">...</text>
<polygon fill="#ffffff" stroke="transparent" points="8,-185.7 8,-204.7 61,-204.7 61,-185.7 8,-185.7"/>
<polygon fill="none" stroke="#000000" points="8,-185.7 8,-204.7 61,-204.7 61,-185.7 8,-185.7"/>
<text text-anchor="start" x="11" y="-191.8" font-family="Helvetica,sans-Serif" font-size="11.00" fill="#000000"> &#160;</text>
<polygon fill="#ffffff" stroke="transparent" points="61,-185.7 61,-204.7 94,-204.7 94,-185.7 61,-185.7"/>
<polygon fill="none" stroke="#000000" points="61,-185.7 61,-204.7 94,-204.7 94,-185.7 61,-185.7"/>
<text text-anchor="start" x="84.8862" y="-191.8" font-family="Helvetica,sans-Serif" font-size="11.00" fill="#000000"> &#160;</text>
<polygon fill="#ffffff" stroke="transparent" points="94,-185.7 94,-204.7 136,-204.7 136,-185.7 94,-185.7"/>
<polygon fill="none" stroke="#000000" points="94,-185.7 94,-204.7 136,-204.7 136,-185.7 94,-185.7"/>
<text text-anchor="start" x="117.4053" y="-191.8" font-family="Helvetica,sans-Serif" font-size="11.00" fill="#000000">3 &gt;</text>
</a>
</g>
</g>
<!-- country&#45;&gt;language -->
<g id="edge3" class="edge">
<title>country:w&#45;&gt;language:e</title>
<path fill="none" stroke="#000000" d="M172.8704,-287.9813C160.5803,-284.8875 153.5539,-278.7 136,-278.7"/>
<polygon fill="#000000" stroke="#000000" points="179.5546,-288.7665 187.0799,-293.2754 183.5273,-289.2332 187.5,-289.7 187.5,-289.7 187.5,-289.7 183.5273,-289.2332 187.9201,-286.1246 179.5546,-288.7665 179.5546,-288.7665"/>
<ellipse fill="none" stroke="#000000" cx="176.3765" cy="-288.3931" rx="3.2" ry="3.2"/>
</g>
<!-- country&#45;&gt;language -->
<g id="edge4" class="edge">
<title>country:w&#45;&gt;language:e</title>
<path fill="none" stroke="#000000" d="M172.8704,-269.4188C160.5803,-272.5125 153.5539,-278.7 136,-278.7"/>
<polygon fill="#000000" stroke="#000000" points="179.5546,-268.6335 187.9201,-271.2754 183.5273,-268.1668 187.5,-267.7 187.5,-267.7 187.5,-267.7 183.5273,-268.1668 187.0799,-264.1246 179.5546,-268.6335 179.5546,-268.6335"/>
<ellipse fill="none" stroke="#000000" cx="176.3765" cy="-269.0069" rx="3.2" ry="3.2"/>
</g>
<!-- country&#45;&gt;language -->
<g id="edge5" class="edge">
<title>country:w&#45;&gt;language:e</title>
<path fill="none" stroke="#000000" d="M173.3452,-249.7464C160.1325,-258.5584 157.2381,-278.7 136,-278.7"/>
<polygon fill="#000000" stroke="#000000" points="179.8081,-247.8989 188.4895,-249.1613 183.6541,-246.7995 187.5,-245.7 187.5,-245.7 187.5,-245.7 183.6541,-246.7995 186.5105,-242.2387 179.8081,-247.8989 179.8081,-247.8989"/>
<ellipse fill="none" stroke="#000000" cx="176.7314" cy="-248.7785" rx="3.2" ry="3.2"/>
</g>
</g>
</svg>
