<?xml version="1.0" encoding="UTF-8" standalone="no"?>
<!DOCTYPE svg PUBLIC "-//W3C//DTD SVG 1.1//EN"
 "http://www.w3.org/Graphics/SVG/1.1/DTD/svg11.dtd">
<!-- Generated by graphviz version 2.40.1 (20161225.0304)
 -->
<!-- Title: twoDegreesRelationshipsDiagram Pages: 1 -->
<svg width="604pt" height="433pt"
 viewBox="0.00 0.00 604.00 432.70" xmlns="http://www.w3.org/2000/svg" xmlns:xlink="http://www.w3.org/1999/xlink">
<g id="graph0" class="graph" transform="scale(1 1) rotate(0) translate(4 428.7)">
<title>twoDegreesRelationshipsDiagram</title>
<polygon fill="#ffffff" stroke="transparent" points="-4,4 -4,-428.7 600,-428.7 600,4 -4,4"/>
<text text-anchor="middle" x="72.4936" y="-7.3" font-family="Helvetica,sans-Serif" font-size="11.00" fill="#000000">Generated by SchemaSpy</text>
<!-- city -->
<g id="node1" class="node">
<title>city</title>
<g id="a_node1"><a xlink:href="../../tables/city.html" xlink:title="city" target="_top">
<polygon fill="#ffffff" stroke="transparent" points="525,-358.7 525,-419.7 588,-419.7 588,-358.7 525,-358.7"/>
<polygon fill="#f5f5f5" stroke="transparent" points="525.5,-396.2 525.5,-419.2 588.5,-419.2 588.5,-396.2 525.5,-396.2"/>
<polygon fill="none" stroke="#000000" points="525.5,-396.2 525.5,-419.2 588.5,-419.2 588.5,-396.2 525.5,-396.2"/>
<text text-anchor="start" x="530.5" y="-404.8" font-family="Helvetica,sans-Serif" font-weight="bold" font-size="11.00" fill="#000000">city</text>
<text text-anchor="start" x="554.0219" y="-404.3" font-family="Helvetica,sans-Serif" font-size="11.00" fill="#000000">[table]</text>
<polygon fill="none" stroke="#000000" points="525.5,-377.2 525.5,-396.2 588.5,-396.2 588.5,-377.2 525.5,-377.2"/>
<text text-anchor="start" x="528.5" y="-383.3" font-family="Helvetica,sans-Serif" font-size="11.00" fill="#000000">...</text>
<polygon fill="#ffffff" stroke="transparent" points="525.5,-358.2 525.5,-377.2 550.5,-377.2 550.5,-358.2 525.5,-358.2"/>
<polygon fill="none" stroke="#000000" points="525.5,-358.2 525.5,-377.2 550.5,-377.2 550.5,-358.2 525.5,-358.2"/>
<text text-anchor="start" x="528.5" y="-364.3" font-family="Helvetica,sans-Serif" font-size="11.00" fill="#000000">&lt; 1</text>
<polygon fill="#ffffff" stroke="transparent" points="550.5,-358.2 550.5,-377.2 564.5,-377.2 564.5,-358.2 550.5,-358.2"/>
<polygon fill="none" stroke="#000000" points="550.5,-358.2 550.5,-377.2 564.5,-377.2 564.5,-358.2 550.5,-358.2"/>
<text text-anchor="start" x="555.3862" y="-364.3" font-family="Helvetica,sans-Serif" font-size="11.00" fill="#000000"> &#160;</text>
<polygon fill="#ffffff" stroke="transparent" points="564.5,-358.2 564.5,-377.2 588.5,-377.2 588.5,-358.2 564.5,-358.2"/>
<polygon fill="none" stroke="#000000" points="564.5,-358.2 564.5,-377.2 588.5,-377.2 588.5,-358.2 564.5,-358.2"/>
<text text-anchor="start" x="569.9053" y="-364.3" font-family="Helvetica,sans-Serif" font-size="11.00" fill="#000000">2 &gt;</text>
</a>
</g>
</g>
<!-- country -->
<g id="node2" class="node">
<title>country</title>
<g id="a_node2"><a xlink:href="../../tables/country.html" xlink:title="country" target="_top">
<polygon fill="#ffffff" stroke="transparent" points="298,-139.7 298,-420.7 476,-420.7 476,-139.7 298,-139.7"/>
<polygon fill="#f5f5f5" stroke="transparent" points="298,-397.2 298,-420.2 476,-420.2 476,-397.2 298,-397.2"/>
<polygon fill="none" stroke="#000000" points="298,-397.2 298,-420.2 476,-420.2 476,-397.2 298,-397.2"/>
<text text-anchor="start" x="303" y="-405.8" font-family="Helvetica,sans-Serif" font-weight="bold" font-size="11.00" fill="#000000">country</text>
<text text-anchor="start" x="441.0437" y="-405.3" font-family="Helvetica,sans-Serif" font-size="11.00" fill="#000000">[table]</text>
<polygon fill="none" stroke="#000000" points="298,-375.2 298,-397.2 476,-397.2 476,-375.2 298,-375.2"/>
<image xlink:href="../../images/primaryKeys.png" width="11px" height="12px" preserveAspectRatio="xMinYMin meet" x="303" y="-392.2"/>
<text text-anchor="start" x="318" y="-382.3" font-family="Helvetica,sans-Serif" font-size="11.00" fill="#000000">id</text>
<polygon fill="#ffffff" stroke="transparent" points="298,-353.2 298,-375.2 476,-375.2 476,-353.2 298,-353.2"/>
<polygon fill="none" stroke="#000000" points="298,-353.2 298,-375.2 476,-375.2 476,-353.2 298,-353.2"/>
<text text-anchor="start" x="318" y="-360.3" font-family="Helvetica,sans-Serif" font-size="11.00" fill="#000000">iso2</text>
<polygon fill="#ffffff" stroke="transparent" points="298,-331.2 298,-353.2 476,-353.2 476,-331.2 298,-331.2"/>
<polygon fill="none" stroke="#000000" points="298,-331.2 298,-353.2 476,-353.2 476,-331.2 298,-331.2"/>
<text text-anchor="start" x="318" y="-338.3" font-family="Helvetica,sans-Serif" font-size="11.00" fill="#000000">iso3</text>
<polygon fill="#ffffff" stroke="transparent" points="298,-309.2 298,-331.2 476,-331.2 476,-309.2 298,-309.2"/>
<polygon fill="none" stroke="#000000" points="298,-309.2 298,-331.2 476,-331.2 476,-309.2 298,-309.2"/>
<text text-anchor="start" x="318" y="-316.3" font-family="Helvetica,sans-Serif" font-size="11.00" fill="#000000">country_code</text>
<polygon fill="#ffffff" stroke="transparent" points="298,-287.2 298,-309.2 476,-309.2 476,-287.2 298,-287.2"/>
<polygon fill="none" stroke="#000000" points="298,-287.2 298,-309.2 476,-309.2 476,-287.2 298,-287.2"/>
<text text-anchor="start" x="318" y="-294.3" font-family="Helvetica,sans-Serif" font-size="11.00" fill="#000000">domain_name</text>
<polygon fill="none" stroke="#000000" points="298,-265.2 298,-287.2 476,-287.2 476,-265.2 298,-265.2"/>
<image xlink:href="../../images/foreignKeys.png" width="11px" height="12px" preserveAspectRatio="xMinYMin meet" x="303" y="-282.2"/>
<text text-anchor="start" x="318" y="-272.3" font-family="Helvetica,sans-Serif" font-size="11.00" fill="#000000">main_language_id</text>
<polygon fill="none" stroke="#000000" points="298,-243.2 298,-265.2 476,-265.2 476,-243.2 298,-243.2"/>
<image xlink:href="../../images/foreignKeys.png" width="11px" height="12px" preserveAspectRatio="xMinYMin meet" x="303" y="-260.2"/>
<text text-anchor="start" x="318" y="-250.3" font-family="Helvetica,sans-Serif" font-size="11.00" fill="#000000">secondary_language_id</text>
<polygon fill="none" stroke="#000000" points="298,-221.2 298,-243.2 476,-243.2 476,-221.2 298,-221.2"/>
<image xlink:href="../../images/foreignKeys.png" width="11px" height="12px" preserveAspectRatio="xMinYMin meet" x="303" y="-238.2"/>
<text text-anchor="start" x="318" y="-228.3" font-family="Helvetica,sans-Serif" font-size="11.00" fill="#000000">tertiary_language_id</text>
<polygon fill="none" stroke="#000000" points="298,-199.2 298,-221.2 476,-221.2 476,-199.2 298,-199.2"/>
<image xlink:href="../../images/foreignKeys.png" width="11px" height="12px" preserveAspectRatio="xMinYMin meet" x="303" y="-216.2"/>
<text text-anchor="start" x="318" y="-206.3" font-family="Helvetica,sans-Serif" font-size="11.00" fill="#000000">currency_id</text>
<polygon fill="#ffffff" stroke="transparent" points="298,-177.2 298,-199.2 476,-199.2 476,-177.2 298,-177.2"/>
<polygon fill="none" stroke="#000000" points="298,-177.2 298,-199.2 476,-199.2 476,-177.2 298,-177.2"/>
<text text-anchor="start" x="318" y="-184.3" font-family="Helvetica,sans-Serif" font-size="11.00" fill="#000000">nationality</text>
<polygon fill="none" stroke="#000000" points="298,-158.2 298,-177.2 476,-177.2 476,-158.2 298,-158.2"/>
<text text-anchor="start" x="301" y="-164.3" font-family="Helvetica,sans-Serif" font-size="11.00" fill="#000000">...</text>
<polygon fill="#ffffff" stroke="transparent" points="298,-139.2 298,-158.2 381,-158.2 381,-139.2 298,-139.2"/>
<polygon fill="none" stroke="#000000" points="298,-139.2 298,-158.2 381,-158.2 381,-139.2 298,-139.2"/>
<text text-anchor="start" x="301" y="-145.3" font-family="Helvetica,sans-Serif" font-size="11.00" fill="#000000">&lt; 4</text>
<polygon fill="#ffffff" stroke="transparent" points="381,-139.2 381,-158.2 424,-158.2 424,-139.2 381,-139.2"/>
<polygon fill="none" stroke="#000000" points="381,-139.2 381,-158.2 424,-158.2 424,-139.2 381,-139.2"/>
<text text-anchor="start" x="414.8862" y="-145.3" font-family="Helvetica,sans-Serif" font-size="11.00" fill="#000000"> &#160;</text>
<polygon fill="#ffffff" stroke="transparent" points="424,-139.2 424,-158.2 476,-158.2 476,-139.2 424,-139.2"/>
<polygon fill="none" stroke="#000000" points="424,-139.2 424,-158.2 476,-158.2 476,-139.2 424,-139.2"/>
<text text-anchor="start" x="457.4053" y="-145.3" font-family="Helvetica,sans-Serif" font-size="11.00" fill="#000000">1 &gt;</text>
</a>
</g>
</g>
<!-- city&#45;&gt;country -->
<g id="edge1" class="edge">
<title>city:w&#45;&gt;country:e</title>
<path fill="none" stroke="#000000" d="M510.8428,-386.2C499.4139,-386.2 492.1563,-386.2 476,-386.2"/>
<polygon fill="#000000" stroke="#000000" points="517.5,-386.2001 525.5,-389.8 521.5,-386.2 525.5,-386.2 525.5,-386.2 525.5,-386.2 521.5,-386.2 525.5,-382.6 517.5,-386.2001 517.5,-386.2001"/>
<ellipse fill="none" stroke="#000000" cx="514.3" cy="-386.2001" rx="3.2" ry="3.2"/>
</g>
<!-- currency -->
<g id="node3" class="node">
<title>currency</title>
<g id="a_node3"><a xlink:href="../../tables/currency.html" xlink:title="currency" target="_top">
<polygon fill="#ffffff" stroke="transparent" points="8,-38.2 8,-216.2 249,-216.2 249,-38.2 8,-38.2"/>
<polygon fill="#f5f5f5" stroke="transparent" points="10.5,-191.2 10.5,-214.2 247.5,-214.2 247.5,-191.2 10.5,-191.2"/>
<polygon fill="none" stroke="#000000" points="10.5,-191.2 10.5,-214.2 247.5,-214.2 247.5,-191.2 10.5,-191.2"/>
<text text-anchor="start" x="15.5" y="-199.8" font-family="Helvetica,sans-Serif" font-weight="bold" font-size="11.00" fill="#000000">currency</text>
<text text-anchor="start" x="212.5437" y="-199.3" font-family="Helvetica,sans-Serif" font-size="11.00" fill="#000000">[table]</text>
<polygon fill="none" stroke="#000000" points="10.5,-169.2 10.5,-191.2 138.5,-191.2 138.5,-169.2 10.5,-169.2"/>
<image xlink:href="../../images/primaryKeys.png" width="11px" height="12px" preserveAspectRatio="xMinYMin meet" x="15.5" y="-186.2"/>
<text text-anchor="start" x="30.5" y="-176.3" font-family="Helvetica,sans-Serif" font-size="11.00" fill="#000000">id</text>
<polygon fill="none" stroke="#000000" points="138.5,-169.2 138.5,-191.2 247.5,-191.2 247.5,-169.2 138.5,-169.2"/>
<text text-anchor="start" x="141.5" y="-176.9" font-family="Helvetica,sans-Serif" font-size="11.00" fill="#000000">serial[10]</text>
<polygon fill="none" stroke="#000000" points="10.5,-147.2 10.5,-169.2 138.5,-169.2 138.5,-147.2 10.5,-147.2"/>
<text text-anchor="start" x="30.5" y="-154.3" font-family="Helvetica,sans-Serif" font-size="11.00" fill="#000000">name</text>
<polygon fill="none" stroke="#000000" points="138.5,-147.2 138.5,-169.2 247.5,-169.2 247.5,-147.2 138.5,-147.2"/>
<text text-anchor="start" x="141.0344" y="-154.9" font-family="Helvetica,sans-Serif" font-size="11.00" fill="#000000">varchar[2147483647]</text>
<polygon fill="#ffffff" stroke="transparent" points="10.5,-125.2 10.5,-147.2 138.5,-147.2 138.5,-125.2 10.5,-125.2"/>
<polygon fill="none" stroke="#000000" points="10.5,-125.2 10.5,-147.2 138.5,-147.2 138.5,-125.2 10.5,-125.2"/>
<text text-anchor="start" x="30.5" y="-132.3" font-family="Helvetica,sans-Serif" font-size="11.00" fill="#000000">iso</text>
<polygon fill="none" stroke="#000000" points="138.5,-125.2 138.5,-147.2 247.5,-147.2 247.5,-125.2 138.5,-125.2"/>
<text text-anchor="start" x="141.0344" y="-132.9" font-family="Helvetica,sans-Serif" font-size="11.00" fill="#000000">varchar[2147483647]</text>
<polygon fill="#ffffff" stroke="transparent" points="10.5,-103.2 10.5,-125.2 138.5,-125.2 138.5,-103.2 10.5,-103.2"/>
<polygon fill="none" stroke="#000000" points="10.5,-103.2 10.5,-125.2 138.5,-125.2 138.5,-103.2 10.5,-103.2"/>
<text text-anchor="start" x="30.5" y="-110.3" font-family="Helvetica,sans-Serif" font-size="11.00" fill="#000000">symbol</text>
<polygon fill="none" stroke="#000000" points="138.5,-103.2 138.5,-125.2 247.5,-125.2 247.5,-103.2 138.5,-103.2"/>
<text text-anchor="start" x="141.5" y="-110.9" font-family="Helvetica,sans-Serif" font-size="11.00" fill="#000000">varchar[3]</text>
<polygon fill="none" stroke="#000000" points="10.5,-81.2 10.5,-103.2 138.5,-103.2 138.5,-81.2 10.5,-81.2"/>
<text text-anchor="start" x="30.5" y="-88.3" font-family="Helvetica,sans-Serif" font-size="11.00" fill="#000000">created_at</text>
<polygon fill="none" stroke="#000000" points="138.5,-81.2 138.5,-103.2 247.5,-103.2 247.5,-81.2 138.5,-81.2"/>
<text text-anchor="start" x="141.5" y="-88.9" font-family="Helvetica,sans-Serif" font-size="11.00" fill="#000000">timestamp[29,6]</text>
<polygon fill="none" stroke="#000000" points="10.5,-59.2 10.5,-81.2 138.5,-81.2 138.5,-59.2 10.5,-59.2"/>
<text text-anchor="start" x="30.5" y="-66.3" font-family="Helvetica,sans-Serif" font-size="11.00" fill="#000000">last_updated_at</text>
<polygon fill="none" stroke="#000000" points="138.5,-59.2 138.5,-81.2 247.5,-81.2 247.5,-59.2 138.5,-59.2"/>
<text text-anchor="start" x="141.5" y="-66.9" font-family="Helvetica,sans-Serif" font-size="11.00" fill="#000000">timestamp[29,6]</text>
<polygon fill="#ffffff" stroke="transparent" points="10.5,-40.2 10.5,-59.2 78.5,-59.2 78.5,-40.2 10.5,-40.2"/>
<polygon fill="none" stroke="#000000" points="10.5,-40.2 10.5,-59.2 78.5,-59.2 78.5,-40.2 10.5,-40.2"/>
<text text-anchor="start" x="13.5" y="-46.3" font-family="Helvetica,sans-Serif" font-size="11.00" fill="#000000">&lt; 0</text>
<polygon fill="#ffffff" stroke="transparent" points="78.5,-40.2 78.5,-59.2 138.5,-59.2 138.5,-40.2 78.5,-40.2"/>
<polygon fill="none" stroke="#000000" points="78.5,-40.2 78.5,-59.2 138.5,-59.2 138.5,-40.2 78.5,-40.2"/>
<text text-anchor="start" x="129.3862" y="-46.3" font-family="Helvetica,sans-Serif" font-size="11.00" fill="#000000"> &#160;</text>
<polygon fill="#ffffff" stroke="transparent" points="138.5,-40.2 138.5,-59.2 247.5,-59.2 247.5,-40.2 138.5,-40.2"/>
<polygon fill="none" stroke="#000000" points="138.5,-40.2 138.5,-59.2 247.5,-59.2 247.5,-40.2 138.5,-40.2"/>
<text text-anchor="start" x="228.9053" y="-46.3" font-family="Helvetica,sans-Serif" font-size="11.00" fill="#000000">1 &gt;</text>
<polygon fill="none" stroke="#000000" stroke-width="2" points="9,-39.2 9,-215.2 248,-215.2 248,-39.2 9,-39.2"/>
</a>
</g>
</g>
<!-- country&#45;&gt;currency -->
<g id="edge2" class="edge">
<title>country:w&#45;&gt;currency:e</title>
<path fill="none" stroke="#000000" d="M283.8928,-206.278C271.2418,-198.1462 267.6915,-180.2 247.5,-180.2"/>
<polygon fill="#000000" stroke="#000000" points="290.2923,-208.0571 297.0357,-213.6685 294.1462,-209.1286 298,-210.2 298,-210.2 298,-210.2 294.1462,-209.1286 298.9643,-206.7315 290.2923,-208.0571 290.2923,-208.0571"/>
<ellipse fill="none" stroke="#000000" cx="287.2092" cy="-207.2" rx="3.2" ry="3.2"/>
</g>
<!-- language -->
<g id="node4" class="node">
<title>language</title>
<g id="a_node4"><a xlink:href="../../tables/language.html" xlink:title="language" target="_top">
<polygon fill="#ffffff" stroke="transparent" points="78,-237.7 78,-298.7 179,-298.7 179,-237.7 78,-237.7"/>
<polygon fill="#f5f5f5" stroke="transparent" points="78.5,-275.2 78.5,-298.2 179.5,-298.2 179.5,-275.2 78.5,-275.2"/>
<polygon fill="none" stroke="#000000" points="78.5,-275.2 78.5,-298.2 179.5,-298.2 179.5,-275.2 78.5,-275.2"/>
<text text-anchor="start" x="83.5" y="-283.8" font-family="Helvetica,sans-Serif" font-weight="bold" font-size="11.00" fill="#000000">language</text>
<text text-anchor="start" x="145.0219" y="-283.3" font-family="Helvetica,sans-Serif" font-size="11.00" fill="#000000">[table]</text>
<polygon fill="none" stroke="#000000" points="78.5,-256.2 78.5,-275.2 179.5,-275.2 179.5,-256.2 78.5,-256.2"/>
<text text-anchor="start" x="81.5" y="-262.3" font-family="Helvetica,sans-Serif" font-size="11.00" fill="#000000">...</text>
<polygon fill="#ffffff" stroke="transparent" points="78.5,-237.2 78.5,-256.2 118.5,-256.2 118.5,-237.2 78.5,-237.2"/>
<polygon fill="none" stroke="#000000" points="78.5,-237.2 78.5,-256.2 118.5,-256.2 118.5,-237.2 78.5,-237.2"/>
<text text-anchor="start" x="81.5" y="-243.3" font-family="Helvetica,sans-Serif" font-size="11.00" fill="#000000"> &#160;</text>
<polygon fill="#ffffff" stroke="transparent" points="118.5,-237.2 118.5,-256.2 144.5,-256.2 144.5,-237.2 118.5,-237.2"/>
<polygon fill="none" stroke="#000000" points="118.5,-237.2 118.5,-256.2 144.5,-256.2 144.5,-237.2 118.5,-237.2"/>
<text text-anchor="start" x="135.3862" y="-243.3" font-family="Helvetica,sans-Serif" font-size="11.00" fill="#000000"> &#160;</text>
<polygon fill="#ffffff" stroke="transparent" points="144.5,-237.2 144.5,-256.2 179.5,-256.2 179.5,-237.2 144.5,-237.2"/>
<polygon fill="none" stroke="#000000" points="144.5,-237.2 144.5,-256.2 179.5,-256.2 179.5,-237.2 144.5,-237.2"/>
<text text-anchor="start" x="160.9053" y="-243.3" font-family="Helvetica,sans-Serif" font-size="11.00" fill="#000000">3 &gt;</text>
</a>
</g>
</g>
<!-- country&#45;&gt;language -->
<g id="edge3" class="edge">
<title>country:w&#45;&gt;language:e</title>
<path fill="none" stroke="#000000" d="M283.5787,-275.9058C242.2406,-274.1565 227.2277,-265.2 179.5,-265.2"/>
<polygon fill="#000000" stroke="#000000" points="290.0017,-276.0368 297.9265,-279.7993 294.0008,-276.1184 298,-276.2 298,-276.2 298,-276.2 294.0008,-276.1184 298.0735,-272.6007 290.0017,-276.0368 290.0017,-276.0368"/>
<ellipse fill="none" stroke="#000000" cx="286.8023" cy="-275.9715" rx="3.2" ry="3.2"/>
</g>
<!-- country&#45;&gt;language -->
<g id="edge4" class="edge">
<title>country:w&#45;&gt;language:e</title>
<path fill="none" stroke="#000000" d="M283.5787,-254.4942C242.2406,-256.2435 227.2277,-265.2 179.5,-265.2"/>
<polygon fill="#000000" stroke="#000000" points="290.0017,-254.3632 298.0735,-257.7993 294.0008,-254.2816 298,-254.2 298,-254.2 298,-254.2 294.0008,-254.2816 297.9265,-250.6007 290.0017,-254.3632 290.0017,-254.3632"/>
<ellipse fill="none" stroke="#000000" cx="286.8023" cy="-254.4285" rx="3.2" ry="3.2"/>
</g>
<!-- country&#45;&gt;language -->
<g id="edge5" class="edge">
<title>country:w&#45;&gt;language:e</title>
<path fill="none" stroke="#000000" d="M283.4743,-233.0489C241.1594,-238.2142 228.9386,-265.2 179.5,-265.2"/>
<polygon fill="#000000" stroke="#000000" points="290.0136,-232.6668 298.2101,-235.7939 294.0068,-232.4334 298,-232.2 298,-232.2 298,-232.2 294.0068,-232.4334 297.7899,-228.6061 290.0136,-232.6668 290.0136,-232.6668"/>
<ellipse fill="none" stroke="#000000" cx="286.8191" cy="-232.8535" rx="3.2" ry="3.2"/>
</g>
</g>
</svg>
