<?xml version="1.0" encoding="UTF-8" standalone="no"?>
<!DOCTYPE svg PUBLIC "-//W3C//DTD SVG 1.1//EN"
 "http://www.w3.org/Graphics/SVG/1.1/DTD/svg11.dtd">
<!-- Generated by graphviz version 2.40.1 (20161225.0304)
 -->
<!-- Title: oneDegreeRelationshipsDiagram Pages: 1 -->
<svg width="492pt" height="403pt"
 viewBox="0.00 0.00 492.00 402.70" xmlns="http://www.w3.org/2000/svg" xmlns:xlink="http://www.w3.org/1999/xlink">
<g id="graph0" class="graph" transform="scale(1 1) rotate(0) translate(4 398.7)">
<title>oneDegreeRelationshipsDiagram</title>
<polygon fill="#ffffff" stroke="transparent" points="-4,4 -4,-398.7 488,-398.7 488,4 -4,4"/>
<text text-anchor="middle" x="72.4936" y="-7.3" font-family="Helvetica,sans-Serif" font-size="11.00" fill="#000000">Generated by SchemaSpy</text>
<!-- country -->
<g id="node1" class="node">
<title>country</title>
<g id="a_node1"><a xlink:href="../../tables/country.html" xlink:title="country" target="_top">
<polygon fill="#ffffff" stroke="transparent" points="298,-109.7 298,-390.7 476,-390.7 476,-109.7 298,-109.7"/>
<polygon fill="#f5f5f5" stroke="transparent" points="298,-367.2 298,-390.2 476,-390.2 476,-367.2 298,-367.2"/>
<polygon fill="none" stroke="#000000" points="298,-367.2 298,-390.2 476,-390.2 476,-367.2 298,-367.2"/>
<text text-anchor="start" x="303" y="-375.8" font-family="Helvetica,sans-Serif" font-weight="bold" font-size="11.00" fill="#000000">country</text>
<text text-anchor="start" x="441.0437" y="-375.3" font-family="Helvetica,sans-Serif" font-size="11.00" fill="#000000">[table]</text>
<polygon fill="none" stroke="#000000" points="298,-345.2 298,-367.2 476,-367.2 476,-345.2 298,-345.2"/>
<image xlink:href="../../images/primaryKeys.png" width="11px" height="12px" preserveAspectRatio="xMinYMin meet" x="303" y="-362.2"/>
<text text-anchor="start" x="318" y="-352.3" font-family="Helvetica,sans-Serif" font-size="11.00" fill="#000000">id</text>
<polygon fill="#ffffff" stroke="transparent" points="298,-323.2 298,-345.2 476,-345.2 476,-323.2 298,-323.2"/>
<polygon fill="none" stroke="#000000" points="298,-323.2 298,-345.2 476,-345.2 476,-323.2 298,-323.2"/>
<text text-anchor="start" x="318" y="-330.3" font-family="Helvetica,sans-Serif" font-size="11.00" fill="#000000">iso2</text>
<polygon fill="#ffffff" stroke="transparent" points="298,-301.2 298,-323.2 476,-323.2 476,-301.2 298,-301.2"/>
<polygon fill="none" stroke="#000000" points="298,-301.2 298,-323.2 476,-323.2 476,-301.2 298,-301.2"/>
<text text-anchor="start" x="318" y="-308.3" font-family="Helvetica,sans-Serif" font-size="11.00" fill="#000000">iso3</text>
<polygon fill="#ffffff" stroke="transparent" points="298,-279.2 298,-301.2 476,-301.2 476,-279.2 298,-279.2"/>
<polygon fill="none" stroke="#000000" points="298,-279.2 298,-301.2 476,-301.2 476,-279.2 298,-279.2"/>
<text text-anchor="start" x="318" y="-286.3" font-family="Helvetica,sans-Serif" font-size="11.00" fill="#000000">country_code</text>
<polygon fill="#ffffff" stroke="transparent" points="298,-257.2 298,-279.2 476,-279.2 476,-257.2 298,-257.2"/>
<polygon fill="none" stroke="#000000" points="298,-257.2 298,-279.2 476,-279.2 476,-257.2 298,-257.2"/>
<text text-anchor="start" x="318" y="-264.3" font-family="Helvetica,sans-Serif" font-size="11.00" fill="#000000">domain_name</text>
<polygon fill="none" stroke="#000000" points="298,-235.2 298,-257.2 476,-257.2 476,-235.2 298,-235.2"/>
<image xlink:href="../../images/foreignKeys.png" width="11px" height="12px" preserveAspectRatio="xMinYMin meet" x="303" y="-252.2"/>
<text text-anchor="start" x="318" y="-242.3" font-family="Helvetica,sans-Serif" font-size="11.00" fill="#000000">main_language_id</text>
<polygon fill="none" stroke="#000000" points="298,-213.2 298,-235.2 476,-235.2 476,-213.2 298,-213.2"/>
<image xlink:href="../../images/foreignKeys.png" width="11px" height="12px" preserveAspectRatio="xMinYMin meet" x="303" y="-230.2"/>
<text text-anchor="start" x="318" y="-220.3" font-family="Helvetica,sans-Serif" font-size="11.00" fill="#000000">secondary_language_id</text>
<polygon fill="none" stroke="#000000" points="298,-191.2 298,-213.2 476,-213.2 476,-191.2 298,-191.2"/>
<image xlink:href="../../images/foreignKeys.png" width="11px" height="12px" preserveAspectRatio="xMinYMin meet" x="303" y="-208.2"/>
<text text-anchor="start" x="318" y="-198.3" font-family="Helvetica,sans-Serif" font-size="11.00" fill="#000000">tertiary_language_id</text>
<polygon fill="none" stroke="#000000" points="298,-169.2 298,-191.2 476,-191.2 476,-169.2 298,-169.2"/>
<image xlink:href="../../images/foreignKeys.png" width="11px" height="12px" preserveAspectRatio="xMinYMin meet" x="303" y="-186.2"/>
<text text-anchor="start" x="318" y="-176.3" font-family="Helvetica,sans-Serif" font-size="11.00" fill="#000000">currency_id</text>
<polygon fill="#ffffff" stroke="transparent" points="298,-147.2 298,-169.2 476,-169.2 476,-147.2 298,-147.2"/>
<polygon fill="none" stroke="#000000" points="298,-147.2 298,-169.2 476,-169.2 476,-147.2 298,-147.2"/>
<text text-anchor="start" x="318" y="-154.3" font-family="Helvetica,sans-Serif" font-size="11.00" fill="#000000">nationality</text>
<polygon fill="none" stroke="#000000" points="298,-128.2 298,-147.2 476,-147.2 476,-128.2 298,-128.2"/>
<text text-anchor="start" x="301" y="-134.3" font-family="Helvetica,sans-Serif" font-size="11.00" fill="#000000">...</text>
<polygon fill="#ffffff" stroke="transparent" points="298,-109.2 298,-128.2 381,-128.2 381,-109.2 298,-109.2"/>
<polygon fill="none" stroke="#000000" points="298,-109.2 298,-128.2 381,-128.2 381,-109.2 298,-109.2"/>
<text text-anchor="start" x="301" y="-115.3" font-family="Helvetica,sans-Serif" font-size="11.00" fill="#000000">&lt; 4</text>
<polygon fill="#ffffff" stroke="transparent" points="381,-109.2 381,-128.2 424,-128.2 424,-109.2 381,-109.2"/>
<polygon fill="none" stroke="#000000" points="381,-109.2 381,-128.2 424,-128.2 424,-109.2 381,-109.2"/>
<text text-anchor="start" x="414.8862" y="-115.3" font-family="Helvetica,sans-Serif" font-size="11.00" fill="#000000"> &#160;</text>
<polygon fill="#ffffff" stroke="transparent" points="424,-109.2 424,-128.2 476,-128.2 476,-109.2 424,-109.2"/>
<polygon fill="none" stroke="#000000" points="424,-109.2 424,-128.2 476,-128.2 476,-109.2 424,-109.2"/>
<text text-anchor="start" x="457.4053" y="-115.3" font-family="Helvetica,sans-Serif" font-size="11.00" fill="#000000">1 &gt;</text>
</a>
</g>
</g>
<!-- currency -->
<g id="node2" class="node">
<title>currency</title>
<g id="a_node2"><a xlink:href="../../tables/currency.html" xlink:title="currency" target="_top">
<polygon fill="#ffffff" stroke="transparent" points="8,-38.2 8,-216.2 249,-216.2 249,-38.2 8,-38.2"/>
<polygon fill="#f5f5f5" stroke="transparent" points="10.5,-191.2 10.5,-214.2 247.5,-214.2 247.5,-191.2 10.5,-191.2"/>
<polygon fill="none" stroke="#000000" points="10.5,-191.2 10.5,-214.2 247.5,-214.2 247.5,-191.2 10.5,-191.2"/>
<text text-anchor="start" x="15.5" y="-199.8" font-family="Helvetica,sans-Serif" font-weight="bold" font-size="11.00" fill="#000000">currency</text>
<text text-anchor="start" x="212.5437" y="-199.3" font-family="Helvetica,sans-Serif" font-size="11.00" fill="#000000">[table]</text>
<polygon fill="none" stroke="#000000" points="10.5,-169.2 10.5,-191.2 138.5,-191.2 138.5,-169.2 10.5,-169.2"/>
<image xlink:href="../../images/primaryKeys.png" width="11px" height="12px" preserveAspectRatio="xMinYMin meet" x="15.5" y="-186.2"/>
<text text-anchor="start" x="30.5" y="-176.3" font-family="Helvetica,sans-Serif" font-size="11.00" fill="#000000">id</text>
<polygon fill="none" stroke="#000000" points="138.5,-169.2 138.5,-191.2 247.5,-191.2 247.5,-169.2 138.5,-169.2"/>
<text text-anchor="start" x="141.5" y="-176.9" font-family="Helvetica,sans-Serif" font-size="11.00" fill="#000000">serial[10]</text>
<polygon fill="none" stroke="#000000" points="10.5,-147.2 10.5,-169.2 138.5,-169.2 138.5,-147.2 10.5,-147.2"/>
<text text-anchor="start" x="30.5" y="-154.3" font-family="Helvetica,sans-Serif" font-size="11.00" fill="#000000">name</text>
<polygon fill="none" stroke="#000000" points="138.5,-147.2 138.5,-169.2 247.5,-169.2 247.5,-147.2 138.5,-147.2"/>
<text text-anchor="start" x="141.0344" y="-154.9" font-family="Helvetica,sans-Serif" font-size="11.00" fill="#000000">varchar[2147483647]</text>
<polygon fill="#ffffff" stroke="transparent" points="10.5,-125.2 10.5,-147.2 138.5,-147.2 138.5,-125.2 10.5,-125.2"/>
<polygon fill="none" stroke="#000000" points="10.5,-125.2 10.5,-147.2 138.5,-147.2 138.5,-125.2 10.5,-125.2"/>
<text text-anchor="start" x="30.5" y="-132.3" font-family="Helvetica,sans-Serif" font-size="11.00" fill="#000000">iso</text>
<polygon fill="none" stroke="#000000" points="138.5,-125.2 138.5,-147.2 247.5,-147.2 247.5,-125.2 138.5,-125.2"/>
<text text-anchor="start" x="141.0344" y="-132.9" font-family="Helvetica,sans-Serif" font-size="11.00" fill="#000000">varchar[2147483647]</text>
<polygon fill="#ffffff" stroke="transparent" points="10.5,-103.2 10.5,-125.2 138.5,-125.2 138.5,-103.2 10.5,-103.2"/>
<polygon fill="none" stroke="#000000" points="10.5,-103.2 10.5,-125.2 138.5,-125.2 138.5,-103.2 10.5,-103.2"/>
<text text-anchor="start" x="30.5" y="-110.3" font-family="Helvetica,sans-Serif" font-size="11.00" fill="#000000">symbol</text>
<polygon fill="none" stroke="#000000" points="138.5,-103.2 138.5,-125.2 247.5,-125.2 247.5,-103.2 138.5,-103.2"/>
<text text-anchor="start" x="141.5" y="-110.9" font-family="Helvetica,sans-Serif" font-size="11.00" fill="#000000">varchar[3]</text>
<polygon fill="none" stroke="#000000" points="10.5,-81.2 10.5,-103.2 138.5,-103.2 138.5,-81.2 10.5,-81.2"/>
<text text-anchor="start" x="30.5" y="-88.3" font-family="Helvetica,sans-Serif" font-size="11.00" fill="#000000">created_at</text>
<polygon fill="none" stroke="#000000" points="138.5,-81.2 138.5,-103.2 247.5,-103.2 247.5,-81.2 138.5,-81.2"/>
<text text-anchor="start" x="141.5" y="-88.9" font-family="Helvetica,sans-Serif" font-size="11.00" fill="#000000">timestamp[29,6]</text>
<polygon fill="none" stroke="#000000" points="10.5,-59.2 10.5,-81.2 138.5,-81.2 138.5,-59.2 10.5,-59.2"/>
<text text-anchor="start" x="30.5" y="-66.3" font-family="Helvetica,sans-Serif" font-size="11.00" fill="#000000">last_updated_at</text>
<polygon fill="none" stroke="#000000" points="138.5,-59.2 138.5,-81.2 247.5,-81.2 247.5,-59.2 138.5,-59.2"/>
<text text-anchor="start" x="141.5" y="-66.9" font-family="Helvetica,sans-Serif" font-size="11.00" fill="#000000">timestamp[29,6]</text>
<polygon fill="#ffffff" stroke="transparent" points="10.5,-40.2 10.5,-59.2 78.5,-59.2 78.5,-40.2 10.5,-40.2"/>
<polygon fill="none" stroke="#000000" points="10.5,-40.2 10.5,-59.2 78.5,-59.2 78.5,-40.2 10.5,-40.2"/>
<text text-anchor="start" x="13.5" y="-46.3" font-family="Helvetica,sans-Serif" font-size="11.00" fill="#000000">&lt; 0</text>
<polygon fill="#ffffff" stroke="transparent" points="78.5,-40.2 78.5,-59.2 138.5,-59.2 138.5,-40.2 78.5,-40.2"/>
<polygon fill="none" stroke="#000000" points="78.5,-40.2 78.5,-59.2 138.5,-59.2 138.5,-40.2 78.5,-40.2"/>
<text text-anchor="start" x="129.3862" y="-46.3" font-family="Helvetica,sans-Serif" font-size="11.00" fill="#000000"> &#160;</text>
<polygon fill="#ffffff" stroke="transparent" points="138.5,-40.2 138.5,-59.2 247.5,-59.2 247.5,-40.2 138.5,-40.2"/>
<polygon fill="none" stroke="#000000" points="138.5,-40.2 138.5,-59.2 247.5,-59.2 247.5,-40.2 138.5,-40.2"/>
<text text-anchor="start" x="228.9053" y="-46.3" font-family="Helvetica,sans-Serif" font-size="11.00" fill="#000000">1 &gt;</text>
<polygon fill="none" stroke="#000000" stroke-width="2" points="9,-39.2 9,-215.2 248,-215.2 248,-39.2 9,-39.2"/>
</a>
</g>
</g>
<!-- country&#45;&gt;currency -->
<g id="edge1" class="edge">
<title>country:w&#45;&gt;currency:e</title>
<path fill="none" stroke="#000000" d="M283.4203,-180.2C271.5435,-180.2 264.158,-180.2 247.5,-180.2"/>
<polygon fill="#000000" stroke="#000000" points="290,-180.2001 298,-183.8 294,-180.2 298,-180.2 298,-180.2 298,-180.2 294,-180.2 298,-176.6 290,-180.2001 290,-180.2001"/>
<ellipse fill="none" stroke="#000000" cx="286.8" cy="-180.2001" rx="3.2" ry="3.2"/>
</g>
</g>
</svg>
