<?xml version="1.0" encoding="UTF-8" standalone="no"?>
<!DOCTYPE svg PUBLIC "-//W3C//DTD SVG 1.1//EN"
 "http://www.w3.org/Graphics/SVG/1.1/DTD/svg11.dtd">
<!-- Generated by graphviz version 2.40.1 (20161225.0304)
 -->
<!-- Title: twoDegreesRelationshipsDiagram Pages: 1 -->
<svg width="826pt" height="486pt"
 viewBox="0.00 0.00 826.00 486.20" xmlns="http://www.w3.org/2000/svg" xmlns:xlink="http://www.w3.org/1999/xlink">
<g id="graph0" class="graph" transform="scale(1 1) rotate(0) translate(4 482.2)">
<title>twoDegreesRelationshipsDiagram</title>
<polygon fill="#ffffff" stroke="transparent" points="-4,4 -4,-482.2 822,-482.2 822,4 -4,4"/>
<text text-anchor="middle" x="72.4936" y="-7.3" font-family="Helvetica,sans-Serif" font-size="11.00" fill="#000000">Generated by SchemaSpy</text>
<!-- airplane -->
<g id="node1" class="node">
<title>airplane</title>
<g id="a_node1"><a xlink:href="../../tables/airplane.html" xlink:title="airplane" target="_top">
<polygon fill="#ffffff" stroke="transparent" points="188,-133.2 188,-260.2 327,-260.2 327,-133.2 188,-133.2"/>
<polygon fill="#f5f5f5" stroke="transparent" points="188.5,-236.7 188.5,-259.7 327.5,-259.7 327.5,-236.7 188.5,-236.7"/>
<polygon fill="none" stroke="#000000" points="188.5,-236.7 188.5,-259.7 327.5,-259.7 327.5,-236.7 188.5,-236.7"/>
<text text-anchor="start" x="193.5" y="-245.3" font-family="Helvetica,sans-Serif" font-weight="bold" font-size="11.00" fill="#000000">airplane</text>
<text text-anchor="start" x="292.5437" y="-244.8" font-family="Helvetica,sans-Serif" font-size="11.00" fill="#000000">[table]</text>
<polygon fill="none" stroke="#000000" points="188.5,-214.7 188.5,-236.7 327.5,-236.7 327.5,-214.7 188.5,-214.7"/>
<image xlink:href="../../images/primaryKeys.png" width="11px" height="12px" preserveAspectRatio="xMinYMin meet" x="193.5" y="-231.7"/>
<text text-anchor="start" x="208.5" y="-221.8" font-family="Helvetica,sans-Serif" font-size="11.00" fill="#000000">id</text>
<polygon fill="#ffffff" stroke="transparent" points="188.5,-192.7 188.5,-214.7 327.5,-214.7 327.5,-192.7 188.5,-192.7"/>
<polygon fill="none" stroke="#000000" points="188.5,-192.7 188.5,-214.7 327.5,-214.7 327.5,-192.7 188.5,-192.7"/>
<text text-anchor="start" x="208.5" y="-199.8" font-family="Helvetica,sans-Serif" font-size="11.00" fill="#000000">name</text>
<polygon fill="none" stroke="#000000" points="188.5,-170.7 188.5,-192.7 327.5,-192.7 327.5,-170.7 188.5,-170.7"/>
<image xlink:href="../../images/foreignKeys.png" width="11px" height="12px" preserveAspectRatio="xMinYMin meet" x="193.5" y="-187.7"/>
<text text-anchor="start" x="208.5" y="-177.8" font-family="Helvetica,sans-Serif" font-size="11.00" fill="#000000">manufacturer_id</text>
<polygon fill="none" stroke="#000000" points="188.5,-151.7 188.5,-170.7 327.5,-170.7 327.5,-151.7 188.5,-151.7"/>
<text text-anchor="start" x="191.5" y="-157.8" font-family="Helvetica,sans-Serif" font-size="11.00" fill="#000000">...</text>
<polygon fill="#ffffff" stroke="transparent" points="188.5,-132.7 188.5,-151.7 251.5,-151.7 251.5,-132.7 188.5,-132.7"/>
<polygon fill="none" stroke="#000000" points="188.5,-132.7 188.5,-151.7 251.5,-151.7 251.5,-132.7 188.5,-132.7"/>
<text text-anchor="start" x="191.5" y="-138.8" font-family="Helvetica,sans-Serif" font-size="11.00" fill="#000000">&lt; 1</text>
<polygon fill="#ffffff" stroke="transparent" points="251.5,-132.7 251.5,-151.7 284.5,-151.7 284.5,-132.7 251.5,-132.7"/>
<polygon fill="none" stroke="#000000" points="251.5,-132.7 251.5,-151.7 284.5,-151.7 284.5,-132.7 251.5,-132.7"/>
<text text-anchor="start" x="275.3862" y="-138.8" font-family="Helvetica,sans-Serif" font-size="11.00" fill="#000000"> &#160;</text>
<polygon fill="#ffffff" stroke="transparent" points="284.5,-132.7 284.5,-151.7 327.5,-151.7 327.5,-132.7 284.5,-132.7"/>
<polygon fill="none" stroke="#000000" points="284.5,-132.7 284.5,-151.7 327.5,-151.7 327.5,-132.7 284.5,-132.7"/>
<text text-anchor="start" x="308.9053" y="-138.8" font-family="Helvetica,sans-Serif" font-size="11.00" fill="#000000">1 &gt;</text>
</a>
</g>
</g>
<!-- manufacturer -->
<g id="node2" class="node">
<title>manufacturer</title>
<g id="a_node2"><a xlink:href="../../tables/manufacturer.html" xlink:title="manufacturer" target="_top">
<polygon fill="#ffffff" stroke="transparent" points="8,-158.2 8,-219.2 139,-219.2 139,-158.2 8,-158.2"/>
<polygon fill="#f5f5f5" stroke="transparent" points="8.5,-195.7 8.5,-218.7 139.5,-218.7 139.5,-195.7 8.5,-195.7"/>
<polygon fill="none" stroke="#000000" points="8.5,-195.7 8.5,-218.7 139.5,-218.7 139.5,-195.7 8.5,-195.7"/>
<text text-anchor="start" x="13.5" y="-204.3" font-family="Helvetica,sans-Serif" font-weight="bold" font-size="11.00" fill="#000000">manufacturer</text>
<text text-anchor="start" x="105.0219" y="-203.8" font-family="Helvetica,sans-Serif" font-size="11.00" fill="#000000">[table]</text>
<polygon fill="none" stroke="#000000" points="8.5,-176.7 8.5,-195.7 139.5,-195.7 139.5,-176.7 8.5,-176.7"/>
<text text-anchor="start" x="11.5" y="-182.8" font-family="Helvetica,sans-Serif" font-size="11.00" fill="#000000">...</text>
<polygon fill="#ffffff" stroke="transparent" points="8.5,-157.7 8.5,-176.7 67.5,-176.7 67.5,-157.7 8.5,-157.7"/>
<polygon fill="none" stroke="#000000" points="8.5,-157.7 8.5,-176.7 67.5,-176.7 67.5,-157.7 8.5,-157.7"/>
<text text-anchor="start" x="11.5" y="-163.8" font-family="Helvetica,sans-Serif" font-size="11.00" fill="#000000">&lt; 1</text>
<polygon fill="#ffffff" stroke="transparent" points="67.5,-157.7 67.5,-176.7 98.5,-176.7 98.5,-157.7 67.5,-157.7"/>
<polygon fill="none" stroke="#000000" points="67.5,-157.7 67.5,-176.7 98.5,-176.7 98.5,-157.7 67.5,-157.7"/>
<text text-anchor="start" x="89.3862" y="-163.8" font-family="Helvetica,sans-Serif" font-size="11.00" fill="#000000"> &#160;</text>
<polygon fill="#ffffff" stroke="transparent" points="98.5,-157.7 98.5,-176.7 139.5,-176.7 139.5,-157.7 98.5,-157.7"/>
<polygon fill="none" stroke="#000000" points="98.5,-157.7 98.5,-176.7 139.5,-176.7 139.5,-157.7 98.5,-157.7"/>
<text text-anchor="start" x="120.9053" y="-163.8" font-family="Helvetica,sans-Serif" font-size="11.00" fill="#000000">1 &gt;</text>
</a>
</g>
</g>
<!-- airplane&#45;&gt;manufacturer -->
<g id="edge1" class="edge">
<title>airplane:w&#45;&gt;manufacturer:e</title>
<path fill="none" stroke="#000000" d="M173.971,-182.3967C162.6666,-183.5428 155.5463,-185.7 139.5,-185.7"/>
<polygon fill="#000000" stroke="#000000" points="180.5092,-182.0833 188.6725,-185.2959 184.5046,-181.8916 188.5,-181.7 188.5,-181.7 188.5,-181.7 184.5046,-181.8916 188.3275,-178.1041 180.5092,-182.0833 180.5092,-182.0833"/>
<ellipse fill="none" stroke="#000000" cx="177.3129" cy="-182.2366" rx="3.2" ry="3.2"/>
</g>
<!-- fleet -->
<g id="node3" class="node">
<title>fleet</title>
<g id="a_node3"><a xlink:href="../../tables/fleet.html" xlink:title="fleet" target="_top">
<polygon fill="#ffffff" stroke="transparent" points="193.5,-281.2 193.5,-474.2 321.5,-474.2 321.5,-281.2 193.5,-281.2"/>
<polygon fill="#f5f5f5" stroke="transparent" points="193.5,-450.7 193.5,-473.7 321.5,-473.7 321.5,-450.7 193.5,-450.7"/>
<polygon fill="none" stroke="#000000" points="193.5,-450.7 193.5,-473.7 321.5,-473.7 321.5,-450.7 193.5,-450.7"/>
<text text-anchor="start" x="198.5" y="-459.3" font-family="Helvetica,sans-Serif" font-weight="bold" font-size="11.00" fill="#000000">fleet</text>
<text text-anchor="start" x="286.5437" y="-458.8" font-family="Helvetica,sans-Serif" font-size="11.00" fill="#000000">[table]</text>
<polygon fill="none" stroke="#000000" points="193.5,-428.7 193.5,-450.7 321.5,-450.7 321.5,-428.7 193.5,-428.7"/>
<image xlink:href="../../images/primaryKeys.png" width="11px" height="12px" preserveAspectRatio="xMinYMin meet" x="198.5" y="-445.7"/>
<text text-anchor="start" x="213.5" y="-435.8" font-family="Helvetica,sans-Serif" font-size="11.00" fill="#000000">id</text>
<polygon fill="#ffffff" stroke="transparent" points="193.5,-406.7 193.5,-428.7 321.5,-428.7 321.5,-406.7 193.5,-406.7"/>
<polygon fill="none" stroke="#000000" points="193.5,-406.7 193.5,-428.7 321.5,-428.7 321.5,-406.7 193.5,-406.7"/>
<text text-anchor="start" x="213.5" y="-413.8" font-family="Helvetica,sans-Serif" font-size="11.00" fill="#000000">name</text>
<polygon fill="#ffffff" stroke="transparent" points="193.5,-384.7 193.5,-406.7 321.5,-406.7 321.5,-384.7 193.5,-384.7"/>
<polygon fill="none" stroke="#000000" points="193.5,-384.7 193.5,-406.7 321.5,-406.7 321.5,-384.7 193.5,-384.7"/>
<text text-anchor="start" x="213.5" y="-391.8" font-family="Helvetica,sans-Serif" font-size="11.00" fill="#000000">iso2</text>
<polygon fill="#ffffff" stroke="transparent" points="193.5,-362.7 193.5,-384.7 321.5,-384.7 321.5,-362.7 193.5,-362.7"/>
<polygon fill="none" stroke="#000000" points="193.5,-362.7 193.5,-384.7 321.5,-384.7 321.5,-362.7 193.5,-362.7"/>
<text text-anchor="start" x="213.5" y="-369.8" font-family="Helvetica,sans-Serif" font-size="11.00" fill="#000000">iso3</text>
<polygon fill="#ffffff" stroke="transparent" points="193.5,-340.7 193.5,-362.7 321.5,-362.7 321.5,-340.7 193.5,-340.7"/>
<polygon fill="none" stroke="#000000" points="193.5,-340.7 193.5,-362.7 321.5,-362.7 321.5,-340.7 193.5,-340.7"/>
<text text-anchor="start" x="213.5" y="-347.8" font-family="Helvetica,sans-Serif" font-size="11.00" fill="#000000">call_sign</text>
<polygon fill="#ffffff" stroke="transparent" points="193.5,-318.7 193.5,-340.7 321.5,-340.7 321.5,-318.7 193.5,-318.7"/>
<polygon fill="none" stroke="#000000" points="193.5,-318.7 193.5,-340.7 321.5,-340.7 321.5,-318.7 193.5,-318.7"/>
<image xlink:href="../../images/foreignKeys.png" width="11px" height="12px" preserveAspectRatio="xMinYMin meet" x="198.5" y="-335.7"/>
<text text-anchor="start" x="213.5" y="-325.8" font-family="Helvetica,sans-Serif" font-size="11.00" fill="#000000">hub_airport_id</text>
<polygon fill="none" stroke="#000000" points="193.5,-299.7 193.5,-318.7 321.5,-318.7 321.5,-299.7 193.5,-299.7"/>
<text text-anchor="start" x="196.5" y="-305.8" font-family="Helvetica,sans-Serif" font-size="11.00" fill="#000000">...</text>
<polygon fill="#ffffff" stroke="transparent" points="193.5,-280.7 193.5,-299.7 251.5,-299.7 251.5,-280.7 193.5,-280.7"/>
<polygon fill="none" stroke="#000000" points="193.5,-280.7 193.5,-299.7 251.5,-299.7 251.5,-280.7 193.5,-280.7"/>
<text text-anchor="start" x="196.5" y="-286.8" font-family="Helvetica,sans-Serif" font-size="11.00" fill="#000000">&lt; 1</text>
<polygon fill="#ffffff" stroke="transparent" points="251.5,-280.7 251.5,-299.7 281.5,-299.7 281.5,-280.7 251.5,-280.7"/>
<polygon fill="none" stroke="#000000" points="251.5,-280.7 251.5,-299.7 281.5,-299.7 281.5,-280.7 251.5,-280.7"/>
<text text-anchor="start" x="272.3862" y="-286.8" font-family="Helvetica,sans-Serif" font-size="11.00" fill="#000000"> &#160;</text>
<polygon fill="#ffffff" stroke="transparent" points="281.5,-280.7 281.5,-299.7 321.5,-299.7 321.5,-280.7 281.5,-280.7"/>
<polygon fill="none" stroke="#000000" points="281.5,-280.7 281.5,-299.7 321.5,-299.7 321.5,-280.7 281.5,-280.7"/>
<text text-anchor="start" x="302.9053" y="-286.8" font-family="Helvetica,sans-Serif" font-size="11.00" fill="#000000">1 &gt;</text>
</a>
</g>
</g>
<!-- airport -->
<g id="node4" class="node">
<title>airport</title>
<g id="a_node4"><a xlink:href="../../tables/airport.html" xlink:title="airport" target="_top">
<polygon fill="#ffffff" stroke="transparent" points="31,-76.2 31,-137.2 116,-137.2 116,-76.2 31,-76.2"/>
<polygon fill="#f5f5f5" stroke="transparent" points="31.5,-113.7 31.5,-136.7 116.5,-136.7 116.5,-113.7 31.5,-113.7"/>
<polygon fill="none" stroke="#000000" points="31.5,-113.7 31.5,-136.7 116.5,-136.7 116.5,-113.7 31.5,-113.7"/>
<text text-anchor="start" x="36.5" y="-122.3" font-family="Helvetica,sans-Serif" font-weight="bold" font-size="11.00" fill="#000000">airport</text>
<text text-anchor="start" x="82.0219" y="-121.8" font-family="Helvetica,sans-Serif" font-size="11.00" fill="#000000">[table]</text>
<polygon fill="none" stroke="#000000" points="31.5,-94.7 31.5,-113.7 116.5,-113.7 116.5,-94.7 31.5,-94.7"/>
<text text-anchor="start" x="34.5" y="-100.8" font-family="Helvetica,sans-Serif" font-size="11.00" fill="#000000">...</text>
<polygon fill="#ffffff" stroke="transparent" points="31.5,-75.7 31.5,-94.7 67.5,-94.7 67.5,-75.7 31.5,-75.7"/>
<polygon fill="none" stroke="#000000" points="31.5,-75.7 31.5,-94.7 67.5,-94.7 67.5,-75.7 31.5,-75.7"/>
<text text-anchor="start" x="34.5" y="-81.8" font-family="Helvetica,sans-Serif" font-size="11.00" fill="#000000">&lt; 1</text>
<polygon fill="#ffffff" stroke="transparent" points="67.5,-75.7 67.5,-94.7 87.5,-94.7 87.5,-75.7 67.5,-75.7"/>
<polygon fill="none" stroke="#000000" points="67.5,-75.7 67.5,-94.7 87.5,-94.7 87.5,-75.7 67.5,-75.7"/>
<text text-anchor="start" x="78.3862" y="-81.8" font-family="Helvetica,sans-Serif" font-size="11.00" fill="#000000"> &#160;</text>
<polygon fill="#ffffff" stroke="transparent" points="87.5,-75.7 87.5,-94.7 116.5,-94.7 116.5,-75.7 87.5,-75.7"/>
<polygon fill="none" stroke="#000000" points="87.5,-75.7 87.5,-94.7 116.5,-94.7 116.5,-75.7 87.5,-75.7"/>
<text text-anchor="start" x="97.9053" y="-81.8" font-family="Helvetica,sans-Serif" font-size="11.00" fill="#000000">3 &gt;</text>
</a>
</g>
</g>
<!-- fleet&#45;&gt;airport -->
<g id="edge2" class="edge">
<title>fleet:w&#45;&gt;airport:e</title>
<path fill="none" stroke="#000000" d="M179.138,-328.0108C100.4975,-307.3297 217.2257,-103.7 116.5,-103.7"/>
<polygon fill="#000000" stroke="#000000" points="185.5548,-328.7655 193.0795,-333.2754 189.5274,-329.2327 193.5,-329.7 193.5,-329.7 193.5,-329.7 189.5274,-329.2327 193.9205,-326.1246 185.5548,-328.7655 185.5548,-328.7655"/>
<ellipse fill="none" stroke="#000000" cx="182.3767" cy="-328.3917" rx="3.2" ry="3.2"/>
</g>
<!-- fleet_airplane -->
<g id="node5" class="node">
<title>fleet_airplane</title>
<g id="a_node5"><a xlink:href="../../tables/fleet_airplane.html" xlink:title="fleet_airplane" target="_top">
<polygon fill="#ffffff" stroke="transparent" points="376,-149.7 376,-305.7 592,-305.7 592,-149.7 376,-149.7"/>
<polygon fill="#f5f5f5" stroke="transparent" points="378,-280.7 378,-303.7 590,-303.7 590,-280.7 378,-280.7"/>
<polygon fill="none" stroke="#000000" points="378,-280.7 378,-303.7 590,-303.7 590,-280.7 378,-280.7"/>
<text text-anchor="start" x="383" y="-289.3" font-family="Helvetica,sans-Serif" font-weight="bold" font-size="11.00" fill="#000000">fleet_airplane</text>
<text text-anchor="start" x="555.0437" y="-288.8" font-family="Helvetica,sans-Serif" font-size="11.00" fill="#000000">[table]</text>
<polygon fill="none" stroke="#000000" points="378,-258.7 378,-280.7 506,-280.7 506,-258.7 378,-258.7"/>
<image xlink:href="../../images/primaryKeys.png" width="11px" height="12px" preserveAspectRatio="xMinYMin meet" x="383" y="-275.7"/>
<text text-anchor="start" x="398" y="-265.8" font-family="Helvetica,sans-Serif" font-size="11.00" fill="#000000">id</text>
<polygon fill="none" stroke="#000000" points="506,-258.7 506,-280.7 590,-280.7 590,-258.7 506,-258.7"/>
<text text-anchor="start" x="509" y="-266.4" font-family="Helvetica,sans-Serif" font-size="11.00" fill="#000000">serial[10]</text>
<polygon fill="#ffffff" stroke="transparent" points="378,-236.7 378,-258.7 506,-258.7 506,-236.7 378,-236.7"/>
<polygon fill="none" stroke="#000000" points="378,-236.7 378,-258.7 506,-258.7 506,-236.7 378,-236.7"/>
<image xlink:href="../../images/foreignKeys.png" width="11px" height="12px" preserveAspectRatio="xMinYMin meet" x="383" y="-253.7"/>
<text text-anchor="start" x="398" y="-243.8" font-family="Helvetica,sans-Serif" font-size="11.00" fill="#000000">fleet_id</text>
<polygon fill="none" stroke="#000000" points="506,-236.7 506,-258.7 590,-258.7 590,-236.7 506,-236.7"/>
<text text-anchor="start" x="509" y="-244.4" font-family="Helvetica,sans-Serif" font-size="11.00" fill="#000000">int4[10]</text>
<polygon fill="#ffffff" stroke="transparent" points="378,-214.7 378,-236.7 506,-236.7 506,-214.7 378,-214.7"/>
<polygon fill="none" stroke="#000000" points="378,-214.7 378,-236.7 506,-236.7 506,-214.7 378,-214.7"/>
<image xlink:href="../../images/foreignKeys.png" width="11px" height="12px" preserveAspectRatio="xMinYMin meet" x="383" y="-231.7"/>
<text text-anchor="start" x="398" y="-221.8" font-family="Helvetica,sans-Serif" font-size="11.00" fill="#000000">airplane_id</text>
<polygon fill="none" stroke="#000000" points="506,-214.7 506,-236.7 590,-236.7 590,-214.7 506,-214.7"/>
<text text-anchor="start" x="509" y="-222.4" font-family="Helvetica,sans-Serif" font-size="11.00" fill="#000000">int4[10]</text>
<polygon fill="none" stroke="#000000" points="378,-192.7 378,-214.7 506,-214.7 506,-192.7 378,-192.7"/>
<text text-anchor="start" x="398" y="-199.8" font-family="Helvetica,sans-Serif" font-size="11.00" fill="#000000">created_at</text>
<polygon fill="none" stroke="#000000" points="506,-192.7 506,-214.7 590,-214.7 590,-192.7 506,-192.7"/>
<text text-anchor="start" x="508.8807" y="-200.4" font-family="Helvetica,sans-Serif" font-size="11.00" fill="#000000">timestamp[29,6]</text>
<polygon fill="none" stroke="#000000" points="378,-170.7 378,-192.7 506,-192.7 506,-170.7 378,-170.7"/>
<text text-anchor="start" x="398" y="-177.8" font-family="Helvetica,sans-Serif" font-size="11.00" fill="#000000">last_updated_at</text>
<polygon fill="none" stroke="#000000" points="506,-170.7 506,-192.7 590,-192.7 590,-170.7 506,-170.7"/>
<text text-anchor="start" x="508.8807" y="-178.4" font-family="Helvetica,sans-Serif" font-size="11.00" fill="#000000">timestamp[29,6]</text>
<polygon fill="#ffffff" stroke="transparent" points="378,-151.7 378,-170.7 446,-170.7 446,-151.7 378,-151.7"/>
<polygon fill="none" stroke="#000000" points="378,-151.7 378,-170.7 446,-170.7 446,-151.7 378,-151.7"/>
<text text-anchor="start" x="381" y="-157.8" font-family="Helvetica,sans-Serif" font-size="11.00" fill="#000000">&lt; 2</text>
<polygon fill="#ffffff" stroke="transparent" points="446,-151.7 446,-170.7 506,-170.7 506,-151.7 446,-151.7"/>
<polygon fill="none" stroke="#000000" points="446,-151.7 446,-170.7 506,-170.7 506,-151.7 446,-151.7"/>
<text text-anchor="start" x="496.8862" y="-157.8" font-family="Helvetica,sans-Serif" font-size="11.00" fill="#000000"> &#160;</text>
<polygon fill="#ffffff" stroke="transparent" points="506,-151.7 506,-170.7 590,-170.7 590,-151.7 506,-151.7"/>
<polygon fill="none" stroke="#000000" points="506,-151.7 506,-170.7 590,-170.7 590,-151.7 506,-151.7"/>
<text text-anchor="start" x="571.4053" y="-157.8" font-family="Helvetica,sans-Serif" font-size="11.00" fill="#000000">1 &gt;</text>
<polygon fill="none" stroke="#000000" stroke-width="2" points="377,-150.7 377,-304.7 591,-304.7 591,-150.7 377,-150.7"/>
</a>
</g>
</g>
<!-- fleet_airplane&#45;&gt;airplane -->
<g id="edge3" class="edge">
<title>fleet_airplane:w&#45;&gt;airplane:e</title>
<path fill="none" stroke="#000000" d="M363.4203,-225.7C351.5435,-225.7 344.158,-225.7 327.5,-225.7"/>
<polygon fill="#000000" stroke="#000000" points="370,-225.7001 378,-229.3 374,-225.7 378,-225.7 378,-225.7 378,-225.7 374,-225.7 378,-222.1 370,-225.7001 370,-225.7001"/>
<ellipse fill="none" stroke="#000000" cx="366.8" cy="-225.7001" rx="3.2" ry="3.2"/>
</g>
<!-- fleet_airplane&#45;&gt;fleet -->
<g id="edge4" class="edge">
<title>fleet_airplane:w&#45;&gt;fleet:e</title>
<path fill="none" stroke="#000000" d="M363.684,-249.8563C303.4023,-270.95 404.8919,-439.7 321.5,-439.7"/>
<polygon fill="#000000" stroke="#000000" points="370.0892,-248.8916 378.5362,-251.2598 374.0446,-248.2958 378,-247.7 378,-247.7 378,-247.7 374.0446,-248.2958 377.4638,-244.1402 370.0892,-248.8916 370.0892,-248.8916"/>
<ellipse fill="none" stroke="#000000" cx="366.9249" cy="-249.3682" rx="3.2" ry="3.2"/>
</g>
<!-- fleet_route -->
<g id="node6" class="node">
<title>fleet_route</title>
<g id="a_node6"><a xlink:href="../../tables/fleet_route.html" xlink:title="fleet_route" target="_top">
<polygon fill="#ffffff" stroke="transparent" points="641,-38.2 641,-209.2 810,-209.2 810,-38.2 641,-38.2"/>
<polygon fill="#f5f5f5" stroke="transparent" points="641.5,-185.7 641.5,-208.7 810.5,-208.7 810.5,-185.7 641.5,-185.7"/>
<polygon fill="none" stroke="#000000" points="641.5,-185.7 641.5,-208.7 810.5,-208.7 810.5,-185.7 641.5,-185.7"/>
<text text-anchor="start" x="646.5" y="-194.3" font-family="Helvetica,sans-Serif" font-weight="bold" font-size="11.00" fill="#000000">fleet_route</text>
<text text-anchor="start" x="775.5437" y="-193.8" font-family="Helvetica,sans-Serif" font-size="11.00" fill="#000000">[table]</text>
<polygon fill="none" stroke="#000000" points="641.5,-163.7 641.5,-185.7 810.5,-185.7 810.5,-163.7 641.5,-163.7"/>
<image xlink:href="../../images/primaryKeys.png" width="11px" height="12px" preserveAspectRatio="xMinYMin meet" x="646.5" y="-180.7"/>
<text text-anchor="start" x="661.5" y="-170.8" font-family="Helvetica,sans-Serif" font-size="11.00" fill="#000000">id</text>
<polygon fill="none" stroke="#000000" points="641.5,-141.7 641.5,-163.7 810.5,-163.7 810.5,-141.7 641.5,-141.7"/>
<image xlink:href="../../images/foreignKeys.png" width="11px" height="12px" preserveAspectRatio="xMinYMin meet" x="646.5" y="-158.7"/>
<text text-anchor="start" x="661.5" y="-148.8" font-family="Helvetica,sans-Serif" font-size="11.00" fill="#000000">fleet_airplane_id</text>
<polygon fill="#ffffff" stroke="transparent" points="641.5,-119.7 641.5,-141.7 810.5,-141.7 810.5,-119.7 641.5,-119.7"/>
<polygon fill="none" stroke="#000000" points="641.5,-119.7 641.5,-141.7 810.5,-141.7 810.5,-119.7 641.5,-119.7"/>
<text text-anchor="start" x="661.5" y="-126.8" font-family="Helvetica,sans-Serif" font-size="11.00" fill="#000000">route_number</text>
<polygon fill="#ffffff" stroke="transparent" points="641.5,-97.7 641.5,-119.7 810.5,-119.7 810.5,-97.7 641.5,-97.7"/>
<polygon fill="none" stroke="#000000" points="641.5,-97.7 641.5,-119.7 810.5,-119.7 810.5,-97.7 641.5,-97.7"/>
<image xlink:href="../../images/foreignKeys.png" width="11px" height="12px" preserveAspectRatio="xMinYMin meet" x="646.5" y="-114.7"/>
<text text-anchor="start" x="661.5" y="-104.8" font-family="Helvetica,sans-Serif" font-size="11.00" fill="#000000">start_airport_id</text>
<polygon fill="#ffffff" stroke="transparent" points="641.5,-75.7 641.5,-97.7 810.5,-97.7 810.5,-75.7 641.5,-75.7"/>
<polygon fill="none" stroke="#000000" points="641.5,-75.7 641.5,-97.7 810.5,-97.7 810.5,-75.7 641.5,-75.7"/>
<image xlink:href="../../images/foreignKeys.png" width="11px" height="12px" preserveAspectRatio="xMinYMin meet" x="646.5" y="-92.7"/>
<text text-anchor="start" x="661.5" y="-82.8" font-family="Helvetica,sans-Serif" font-size="11.00" fill="#000000">destination_airport_id</text>
<polygon fill="none" stroke="#000000" points="641.5,-56.7 641.5,-75.7 810.5,-75.7 810.5,-56.7 641.5,-56.7"/>
<text text-anchor="start" x="644.5" y="-62.8" font-family="Helvetica,sans-Serif" font-size="11.00" fill="#000000">...</text>
<polygon fill="#ffffff" stroke="transparent" points="641.5,-37.7 641.5,-56.7 724.5,-56.7 724.5,-37.7 641.5,-37.7"/>
<polygon fill="none" stroke="#000000" points="641.5,-37.7 641.5,-56.7 724.5,-56.7 724.5,-37.7 641.5,-37.7"/>
<text text-anchor="start" x="644.5" y="-43.8" font-family="Helvetica,sans-Serif" font-size="11.00" fill="#000000">&lt; 3</text>
<polygon fill="#ffffff" stroke="transparent" points="724.5,-37.7 724.5,-56.7 767.5,-56.7 767.5,-37.7 724.5,-37.7"/>
<polygon fill="none" stroke="#000000" points="724.5,-37.7 724.5,-56.7 767.5,-56.7 767.5,-37.7 724.5,-37.7"/>
<text text-anchor="start" x="758.3862" y="-43.8" font-family="Helvetica,sans-Serif" font-size="11.00" fill="#000000"> &#160;</text>
<polygon fill="#ffffff" stroke="transparent" points="767.5,-37.7 767.5,-56.7 810.5,-56.7 810.5,-37.7 767.5,-37.7"/>
<polygon fill="none" stroke="#000000" points="767.5,-37.7 767.5,-56.7 810.5,-56.7 810.5,-37.7 767.5,-37.7"/>
<text text-anchor="start" x="801.3862" y="-43.8" font-family="Helvetica,sans-Serif" font-size="11.00" fill="#000000"> &#160;</text>
</a>
</g>
</g>
<!-- fleet_route&#45;&gt;airport -->
<g id="edge5" class="edge">
<title>fleet_route:w&#45;&gt;airport:e</title>
<path fill="none" stroke="#000000" d="M627.0325,-86.7023C433.7712,-86.7665 379.9976,-88.2331 180,-98.7 151.7291,-100.1796 144.8096,-103.7 116.5,-103.7"/>
<polygon fill="#000000" stroke="#000000" points="633.5,-86.7013 641.5006,-90.3 637.5,-86.7007 641.5,-86.7 641.5,-86.7 641.5,-86.7 637.5,-86.7007 641.4994,-83.1 633.5,-86.7013 633.5,-86.7013"/>
<ellipse fill="none" stroke="#000000" cx="630.3" cy="-86.7019" rx="3.2" ry="3.2"/>
</g>
<!-- fleet_route&#45;&gt;airport -->
<g id="edge7" class="edge">
<title>fleet_route:w&#45;&gt;airport:e</title>
<path fill="none" stroke="#000000" d="M627.0303,-108.6935C405.6303,-108.4922 344.9446,-103.7 116.5,-103.7"/>
<polygon fill="#000000" stroke="#000000" points="633.5,-108.6963 641.4984,-112.3 637.5,-108.6982 641.5,-108.7 641.5,-108.7 641.5,-108.7 637.5,-108.6982 641.5016,-105.1 633.5,-108.6963 633.5,-108.6963"/>
<ellipse fill="none" stroke="#000000" cx="630.3" cy="-108.6949" rx="3.2" ry="3.2"/>
</g>
<!-- fleet_route&#45;&gt;fleet_airplane -->
<g id="edge6" class="edge">
<title>fleet_route:w&#45;&gt;fleet_airplane:e</title>
<path fill="none" stroke="#000000" d="M627.2137,-156.3299C596.4677,-176.0782 640.8225,-269.7 590,-269.7"/>
<polygon fill="#000000" stroke="#000000" points="633.7464,-154.6701 642.3865,-156.1891 637.6232,-153.685 641.5,-152.7 641.5,-152.7 641.5,-152.7 637.6232,-153.685 640.6135,-149.2109 633.7464,-154.6701 633.7464,-154.6701"/>
<ellipse fill="none" stroke="#000000" cx="630.6449" cy="-155.4581" rx="3.2" ry="3.2"/>
</g>
</g>
</svg>
