<?xml version="1.0" encoding="UTF-8" standalone="no"?>
<!DOCTYPE svg PUBLIC "-//W3C//DTD SVG 1.1//EN"
 "http://www.w3.org/Graphics/SVG/1.1/DTD/svg11.dtd">
<!-- Generated by graphviz version 2.40.1 (20161225.0304)
 -->
<!-- Title: twoDegreesRelationshipsDiagram Pages: 1 -->
<svg width="930pt" height="419pt"
 viewBox="0.00 0.00 930.00 419.20" xmlns="http://www.w3.org/2000/svg" xmlns:xlink="http://www.w3.org/1999/xlink">
<g id="graph0" class="graph" transform="scale(1 1) rotate(0) translate(4 415.2)">
<title>twoDegreesRelationshipsDiagram</title>
<polygon fill="#ffffff" stroke="transparent" points="-4,4 -4,-415.2 926,-415.2 926,4 -4,4"/>
<text text-anchor="middle" x="72.4936" y="-7.3" font-family="Helvetica,sans-Serif" font-size="11.00" fill="#000000">Generated by SchemaSpy</text>
<!-- airport -->
<g id="node1" class="node">
<title>airport</title>
<g id="a_node1"><a xlink:href="../../tables/airport.html" xlink:title="airport" target="_top">
<polygon fill="#ffffff" stroke="transparent" points="120,-236.2 120,-407.2 283,-407.2 283,-236.2 120,-236.2"/>
<polygon fill="#f5f5f5" stroke="transparent" points="120.5,-383.7 120.5,-406.7 283.5,-406.7 283.5,-383.7 120.5,-383.7"/>
<polygon fill="none" stroke="#000000" points="120.5,-383.7 120.5,-406.7 283.5,-406.7 283.5,-383.7 120.5,-383.7"/>
<text text-anchor="start" x="125.5" y="-392.3" font-family="Helvetica,sans-Serif" font-weight="bold" font-size="11.00" fill="#000000">airport</text>
<text text-anchor="start" x="248.5437" y="-391.8" font-family="Helvetica,sans-Serif" font-size="11.00" fill="#000000">[table]</text>
<polygon fill="none" stroke="#000000" points="120.5,-361.7 120.5,-383.7 283.5,-383.7 283.5,-361.7 120.5,-361.7"/>
<image xlink:href="../../images/primaryKeys.png" width="11px" height="12px" preserveAspectRatio="xMinYMin meet" x="125.5" y="-378.7"/>
<text text-anchor="start" x="140.5" y="-368.8" font-family="Helvetica,sans-Serif" font-size="11.00" fill="#000000">id</text>
<polygon fill="#ffffff" stroke="transparent" points="120.5,-339.7 120.5,-361.7 283.5,-361.7 283.5,-339.7 120.5,-339.7"/>
<polygon fill="none" stroke="#000000" points="120.5,-339.7 120.5,-361.7 283.5,-361.7 283.5,-339.7 120.5,-339.7"/>
<text text-anchor="start" x="140.5" y="-346.8" font-family="Helvetica,sans-Serif" font-size="11.00" fill="#000000">name</text>
<polygon fill="#ffffff" stroke="transparent" points="120.5,-317.7 120.5,-339.7 283.5,-339.7 283.5,-317.7 120.5,-317.7"/>
<polygon fill="none" stroke="#000000" points="120.5,-317.7 120.5,-339.7 283.5,-339.7 283.5,-317.7 120.5,-317.7"/>
<text text-anchor="start" x="140.5" y="-324.8" font-family="Helvetica,sans-Serif" font-size="11.00" fill="#000000">icao</text>
<polygon fill="#ffffff" stroke="transparent" points="120.5,-295.7 120.5,-317.7 283.5,-317.7 283.5,-295.7 120.5,-295.7"/>
<polygon fill="none" stroke="#000000" points="120.5,-295.7 120.5,-317.7 283.5,-317.7 283.5,-295.7 120.5,-295.7"/>
<text text-anchor="start" x="140.5" y="-302.8" font-family="Helvetica,sans-Serif" font-size="11.00" fill="#000000">iata</text>
<polygon fill="#ffffff" stroke="transparent" points="120.5,-273.7 120.5,-295.7 283.5,-295.7 283.5,-273.7 120.5,-273.7"/>
<polygon fill="none" stroke="#000000" points="120.5,-273.7 120.5,-295.7 283.5,-295.7 283.5,-273.7 120.5,-273.7"/>
<image xlink:href="../../images/foreignKeys.png" width="11px" height="12px" preserveAspectRatio="xMinYMin meet" x="125.5" y="-290.7"/>
<text text-anchor="start" x="140.5" y="-280.8" font-family="Helvetica,sans-Serif" font-size="11.00" fill="#000000">city_id</text>
<polygon fill="none" stroke="#000000" points="120.5,-254.7 120.5,-273.7 283.5,-273.7 283.5,-254.7 120.5,-254.7"/>
<text text-anchor="start" x="123.5" y="-260.8" font-family="Helvetica,sans-Serif" font-size="11.00" fill="#000000">...</text>
<polygon fill="#ffffff" stroke="transparent" points="120.5,-235.7 120.5,-254.7 195.5,-254.7 195.5,-235.7 120.5,-235.7"/>
<polygon fill="none" stroke="#000000" points="120.5,-235.7 120.5,-254.7 195.5,-254.7 195.5,-235.7 120.5,-235.7"/>
<text text-anchor="start" x="123.5" y="-241.8" font-family="Helvetica,sans-Serif" font-size="11.00" fill="#000000">&lt; 1</text>
<polygon fill="#ffffff" stroke="transparent" points="195.5,-235.7 195.5,-254.7 234.5,-254.7 234.5,-235.7 195.5,-235.7"/>
<polygon fill="none" stroke="#000000" points="195.5,-235.7 195.5,-254.7 234.5,-254.7 234.5,-235.7 195.5,-235.7"/>
<text text-anchor="start" x="225.3862" y="-241.8" font-family="Helvetica,sans-Serif" font-size="11.00" fill="#000000"> &#160;</text>
<polygon fill="#ffffff" stroke="transparent" points="234.5,-235.7 234.5,-254.7 283.5,-254.7 283.5,-235.7 234.5,-235.7"/>
<polygon fill="none" stroke="#000000" points="234.5,-235.7 234.5,-254.7 283.5,-254.7 283.5,-235.7 234.5,-235.7"/>
<text text-anchor="start" x="264.9053" y="-241.8" font-family="Helvetica,sans-Serif" font-size="11.00" fill="#000000">3 &gt;</text>
</a>
</g>
</g>
<!-- city -->
<g id="node2" class="node">
<title>city</title>
<g id="a_node2"><a xlink:href="../../tables/city.html" xlink:title="city" target="_top">
<polygon fill="#ffffff" stroke="transparent" points="8,-257.2 8,-318.2 71,-318.2 71,-257.2 8,-257.2"/>
<polygon fill="#f5f5f5" stroke="transparent" points="8.5,-294.7 8.5,-317.7 71.5,-317.7 71.5,-294.7 8.5,-294.7"/>
<polygon fill="none" stroke="#000000" points="8.5,-294.7 8.5,-317.7 71.5,-317.7 71.5,-294.7 8.5,-294.7"/>
<text text-anchor="start" x="13.5" y="-303.3" font-family="Helvetica,sans-Serif" font-weight="bold" font-size="11.00" fill="#000000">city</text>
<text text-anchor="start" x="37.0219" y="-302.8" font-family="Helvetica,sans-Serif" font-size="11.00" fill="#000000">[table]</text>
<polygon fill="none" stroke="#000000" points="8.5,-275.7 8.5,-294.7 71.5,-294.7 71.5,-275.7 8.5,-275.7"/>
<text text-anchor="start" x="11.5" y="-281.8" font-family="Helvetica,sans-Serif" font-size="11.00" fill="#000000">...</text>
<polygon fill="#ffffff" stroke="transparent" points="8.5,-256.7 8.5,-275.7 33.5,-275.7 33.5,-256.7 8.5,-256.7"/>
<polygon fill="none" stroke="#000000" points="8.5,-256.7 8.5,-275.7 33.5,-275.7 33.5,-256.7 8.5,-256.7"/>
<text text-anchor="start" x="11.5" y="-262.8" font-family="Helvetica,sans-Serif" font-size="11.00" fill="#000000">&lt; 1</text>
<polygon fill="#ffffff" stroke="transparent" points="33.5,-256.7 33.5,-275.7 47.5,-275.7 47.5,-256.7 33.5,-256.7"/>
<polygon fill="none" stroke="#000000" points="33.5,-256.7 33.5,-275.7 47.5,-275.7 47.5,-256.7 33.5,-256.7"/>
<text text-anchor="start" x="38.3862" y="-262.8" font-family="Helvetica,sans-Serif" font-size="11.00" fill="#000000"> &#160;</text>
<polygon fill="#ffffff" stroke="transparent" points="47.5,-256.7 47.5,-275.7 71.5,-275.7 71.5,-256.7 47.5,-256.7"/>
<polygon fill="none" stroke="#000000" points="47.5,-256.7 47.5,-275.7 71.5,-275.7 71.5,-256.7 47.5,-256.7"/>
<text text-anchor="start" x="52.9053" y="-262.8" font-family="Helvetica,sans-Serif" font-size="11.00" fill="#000000">2 &gt;</text>
</a>
</g>
</g>
<!-- airport&#45;&gt;city -->
<g id="edge1" class="edge">
<title>airport:w&#45;&gt;city:e</title>
<path fill="none" stroke="#000000" d="M105.9909,-284.7C94.6774,-284.7 87.4931,-284.7 71.5,-284.7"/>
<polygon fill="#000000" stroke="#000000" points="112.5,-284.7001 120.5,-288.3 116.5,-284.7 120.5,-284.7 120.5,-284.7 120.5,-284.7 116.5,-284.7 120.5,-281.1 112.5,-284.7001 112.5,-284.7001"/>
<ellipse fill="none" stroke="#000000" cx="109.3" cy="-284.7001" rx="3.2" ry="3.2"/>
</g>
<!-- fleet -->
<g id="node3" class="node">
<title>fleet</title>
<g id="a_node3"><a xlink:href="../../tables/fleet.html" xlink:title="fleet" target="_top">
<polygon fill="#ffffff" stroke="transparent" points="332,-120.7 332,-342.7 573,-342.7 573,-120.7 332,-120.7"/>
<polygon fill="#f5f5f5" stroke="transparent" points="334.5,-317.7 334.5,-340.7 571.5,-340.7 571.5,-317.7 334.5,-317.7"/>
<polygon fill="none" stroke="#000000" points="334.5,-317.7 334.5,-340.7 571.5,-340.7 571.5,-317.7 334.5,-317.7"/>
<text text-anchor="start" x="339.5" y="-326.3" font-family="Helvetica,sans-Serif" font-weight="bold" font-size="11.00" fill="#000000">fleet</text>
<text text-anchor="start" x="536.5437" y="-325.8" font-family="Helvetica,sans-Serif" font-size="11.00" fill="#000000">[table]</text>
<polygon fill="none" stroke="#000000" points="334.5,-295.7 334.5,-317.7 462.5,-317.7 462.5,-295.7 334.5,-295.7"/>
<image xlink:href="../../images/primaryKeys.png" width="11px" height="12px" preserveAspectRatio="xMinYMin meet" x="339.5" y="-312.7"/>
<text text-anchor="start" x="354.5" y="-302.8" font-family="Helvetica,sans-Serif" font-size="11.00" fill="#000000">id</text>
<polygon fill="none" stroke="#000000" points="462.5,-295.7 462.5,-317.7 571.5,-317.7 571.5,-295.7 462.5,-295.7"/>
<text text-anchor="start" x="465.5" y="-303.4" font-family="Helvetica,sans-Serif" font-size="11.00" fill="#000000">serial[10]</text>
<polygon fill="#ffffff" stroke="transparent" points="334.5,-273.7 334.5,-295.7 462.5,-295.7 462.5,-273.7 334.5,-273.7"/>
<polygon fill="none" stroke="#000000" points="334.5,-273.7 334.5,-295.7 462.5,-295.7 462.5,-273.7 334.5,-273.7"/>
<text text-anchor="start" x="354.5" y="-280.8" font-family="Helvetica,sans-Serif" font-size="11.00" fill="#000000">name</text>
<polygon fill="none" stroke="#000000" points="462.5,-273.7 462.5,-295.7 571.5,-295.7 571.5,-273.7 462.5,-273.7"/>
<text text-anchor="start" x="465.0344" y="-281.4" font-family="Helvetica,sans-Serif" font-size="11.00" fill="#000000">varchar[2147483647]</text>
<polygon fill="#ffffff" stroke="transparent" points="334.5,-251.7 334.5,-273.7 462.5,-273.7 462.5,-251.7 334.5,-251.7"/>
<polygon fill="none" stroke="#000000" points="334.5,-251.7 334.5,-273.7 462.5,-273.7 462.5,-251.7 334.5,-251.7"/>
<text text-anchor="start" x="354.5" y="-258.8" font-family="Helvetica,sans-Serif" font-size="11.00" fill="#000000">iso2</text>
<polygon fill="none" stroke="#000000" points="462.5,-251.7 462.5,-273.7 571.5,-273.7 571.5,-251.7 462.5,-251.7"/>
<text text-anchor="start" x="465.5" y="-259.4" font-family="Helvetica,sans-Serif" font-size="11.00" fill="#000000">varchar[2]</text>
<polygon fill="#ffffff" stroke="transparent" points="334.5,-229.7 334.5,-251.7 462.5,-251.7 462.5,-229.7 334.5,-229.7"/>
<polygon fill="none" stroke="#000000" points="334.5,-229.7 334.5,-251.7 462.5,-251.7 462.5,-229.7 334.5,-229.7"/>
<text text-anchor="start" x="354.5" y="-236.8" font-family="Helvetica,sans-Serif" font-size="11.00" fill="#000000">iso3</text>
<polygon fill="none" stroke="#000000" points="462.5,-229.7 462.5,-251.7 571.5,-251.7 571.5,-229.7 462.5,-229.7"/>
<text text-anchor="start" x="465.5" y="-237.4" font-family="Helvetica,sans-Serif" font-size="11.00" fill="#000000">varchar[3]</text>
<polygon fill="#ffffff" stroke="transparent" points="334.5,-207.7 334.5,-229.7 462.5,-229.7 462.5,-207.7 334.5,-207.7"/>
<polygon fill="none" stroke="#000000" points="334.5,-207.7 334.5,-229.7 462.5,-229.7 462.5,-207.7 334.5,-207.7"/>
<text text-anchor="start" x="354.5" y="-214.8" font-family="Helvetica,sans-Serif" font-size="11.00" fill="#000000">call_sign</text>
<polygon fill="none" stroke="#000000" points="462.5,-207.7 462.5,-229.7 571.5,-229.7 571.5,-207.7 462.5,-207.7"/>
<text text-anchor="start" x="465.0344" y="-215.4" font-family="Helvetica,sans-Serif" font-size="11.00" fill="#000000">varchar[2147483647]</text>
<polygon fill="#ffffff" stroke="transparent" points="334.5,-185.7 334.5,-207.7 462.5,-207.7 462.5,-185.7 334.5,-185.7"/>
<polygon fill="none" stroke="#000000" points="334.5,-185.7 334.5,-207.7 462.5,-207.7 462.5,-185.7 334.5,-185.7"/>
<image xlink:href="../../images/foreignKeys.png" width="11px" height="12px" preserveAspectRatio="xMinYMin meet" x="339.5" y="-202.7"/>
<text text-anchor="start" x="354.5" y="-192.8" font-family="Helvetica,sans-Serif" font-size="11.00" fill="#000000">hub_airport_id</text>
<polygon fill="none" stroke="#000000" points="462.5,-185.7 462.5,-207.7 571.5,-207.7 571.5,-185.7 462.5,-185.7"/>
<text text-anchor="start" x="465.5" y="-193.4" font-family="Helvetica,sans-Serif" font-size="11.00" fill="#000000">int4[10]</text>
<polygon fill="none" stroke="#000000" points="334.5,-163.7 334.5,-185.7 462.5,-185.7 462.5,-163.7 334.5,-163.7"/>
<text text-anchor="start" x="354.5" y="-170.8" font-family="Helvetica,sans-Serif" font-size="11.00" fill="#000000">created_at</text>
<polygon fill="none" stroke="#000000" points="462.5,-163.7 462.5,-185.7 571.5,-185.7 571.5,-163.7 462.5,-163.7"/>
<text text-anchor="start" x="465.5" y="-171.4" font-family="Helvetica,sans-Serif" font-size="11.00" fill="#000000">timestamp[29,6]</text>
<polygon fill="none" stroke="#000000" points="334.5,-141.7 334.5,-163.7 462.5,-163.7 462.5,-141.7 334.5,-141.7"/>
<text text-anchor="start" x="354.5" y="-148.8" font-family="Helvetica,sans-Serif" font-size="11.00" fill="#000000">last_updated_at</text>
<polygon fill="none" stroke="#000000" points="462.5,-141.7 462.5,-163.7 571.5,-163.7 571.5,-141.7 462.5,-141.7"/>
<text text-anchor="start" x="465.5" y="-149.4" font-family="Helvetica,sans-Serif" font-size="11.00" fill="#000000">timestamp[29,6]</text>
<polygon fill="#ffffff" stroke="transparent" points="334.5,-122.7 334.5,-141.7 402.5,-141.7 402.5,-122.7 334.5,-122.7"/>
<polygon fill="none" stroke="#000000" points="334.5,-122.7 334.5,-141.7 402.5,-141.7 402.5,-122.7 334.5,-122.7"/>
<text text-anchor="start" x="337.5" y="-128.8" font-family="Helvetica,sans-Serif" font-size="11.00" fill="#000000">&lt; 1</text>
<polygon fill="#ffffff" stroke="transparent" points="402.5,-122.7 402.5,-141.7 462.5,-141.7 462.5,-122.7 402.5,-122.7"/>
<polygon fill="none" stroke="#000000" points="402.5,-122.7 402.5,-141.7 462.5,-141.7 462.5,-122.7 402.5,-122.7"/>
<text text-anchor="start" x="453.3862" y="-128.8" font-family="Helvetica,sans-Serif" font-size="11.00" fill="#000000"> &#160;</text>
<polygon fill="#ffffff" stroke="transparent" points="462.5,-122.7 462.5,-141.7 571.5,-141.7 571.5,-122.7 462.5,-122.7"/>
<polygon fill="none" stroke="#000000" points="462.5,-122.7 462.5,-141.7 571.5,-141.7 571.5,-122.7 462.5,-122.7"/>
<text text-anchor="start" x="552.9053" y="-128.8" font-family="Helvetica,sans-Serif" font-size="11.00" fill="#000000">1 &gt;</text>
<polygon fill="none" stroke="#000000" stroke-width="2" points="333,-121.7 333,-341.7 572,-341.7 572,-121.7 333,-121.7"/>
</a>
</g>
</g>
<!-- fleet&#45;&gt;airport -->
<g id="edge2" class="edge">
<title>fleet:w&#45;&gt;airport:e</title>
<path fill="none" stroke="#000000" d="M320.0541,-199.188C267.8373,-220.5799 359.2139,-372.7 283.5,-372.7"/>
<polygon fill="#000000" stroke="#000000" points="326.6161,-198.0579 335.111,-200.2478 330.558,-197.3789 334.5,-196.7 334.5,-196.7 334.5,-196.7 330.558,-197.3789 333.889,-193.1522 326.6161,-198.0579 326.6161,-198.0579"/>
<ellipse fill="none" stroke="#000000" cx="323.4625" cy="-198.601" rx="3.2" ry="3.2"/>
</g>
<!-- fleet_airplane -->
<g id="node4" class="node">
<title>fleet_airplane</title>
<g id="a_node4"><a xlink:href="../../tables/fleet_airplane.html" xlink:title="fleet_airplane" target="_top">
<polygon fill="#ffffff" stroke="transparent" points="622,-215.2 622,-342.2 753,-342.2 753,-215.2 622,-215.2"/>
<polygon fill="#f5f5f5" stroke="transparent" points="622.5,-318.7 622.5,-341.7 753.5,-341.7 753.5,-318.7 622.5,-318.7"/>
<polygon fill="none" stroke="#000000" points="622.5,-318.7 622.5,-341.7 753.5,-341.7 753.5,-318.7 622.5,-318.7"/>
<text text-anchor="start" x="627.5" y="-327.3" font-family="Helvetica,sans-Serif" font-weight="bold" font-size="11.00" fill="#000000">fleet_airplane</text>
<text text-anchor="start" x="719.0219" y="-326.8" font-family="Helvetica,sans-Serif" font-size="11.00" fill="#000000">[table]</text>
<polygon fill="none" stroke="#000000" points="622.5,-296.7 622.5,-318.7 753.5,-318.7 753.5,-296.7 622.5,-296.7"/>
<image xlink:href="../../images/primaryKeys.png" width="11px" height="12px" preserveAspectRatio="xMinYMin meet" x="627.5" y="-313.7"/>
<text text-anchor="start" x="644.5" y="-303.8" font-family="Helvetica,sans-Serif" font-size="11.00" fill="#000000">id</text>
<polygon fill="#ffffff" stroke="transparent" points="622.5,-274.7 622.5,-296.7 753.5,-296.7 753.5,-274.7 622.5,-274.7"/>
<polygon fill="none" stroke="#000000" points="622.5,-274.7 622.5,-296.7 753.5,-296.7 753.5,-274.7 622.5,-274.7"/>
<image xlink:href="../../images/foreignKeys.png" width="11px" height="12px" preserveAspectRatio="xMinYMin meet" x="627.5" y="-291.7"/>
<text text-anchor="start" x="644.5" y="-281.8" font-family="Helvetica,sans-Serif" font-size="11.00" fill="#000000">fleet_id</text>
<polygon fill="#ffffff" stroke="transparent" points="622.5,-252.7 622.5,-274.7 753.5,-274.7 753.5,-252.7 622.5,-252.7"/>
<polygon fill="none" stroke="#000000" points="622.5,-252.7 622.5,-274.7 753.5,-274.7 753.5,-252.7 622.5,-252.7"/>
<image xlink:href="../../images/foreignKeys.png" width="11px" height="12px" preserveAspectRatio="xMinYMin meet" x="627.5" y="-269.7"/>
<text text-anchor="start" x="644.5" y="-259.8" font-family="Helvetica,sans-Serif" font-size="11.00" fill="#000000">airplane_id</text>
<polygon fill="none" stroke="#000000" points="622.5,-233.7 622.5,-252.7 753.5,-252.7 753.5,-233.7 622.5,-233.7"/>
<text text-anchor="start" x="625.5" y="-239.8" font-family="Helvetica,sans-Serif" font-size="11.00" fill="#000000">...</text>
<polygon fill="#ffffff" stroke="transparent" points="622.5,-214.7 622.5,-233.7 681.5,-233.7 681.5,-214.7 622.5,-214.7"/>
<polygon fill="none" stroke="#000000" points="622.5,-214.7 622.5,-233.7 681.5,-233.7 681.5,-214.7 622.5,-214.7"/>
<text text-anchor="start" x="625.5" y="-220.8" font-family="Helvetica,sans-Serif" font-size="11.00" fill="#000000">&lt; 2</text>
<polygon fill="#ffffff" stroke="transparent" points="681.5,-214.7 681.5,-233.7 712.5,-233.7 712.5,-214.7 681.5,-214.7"/>
<polygon fill="none" stroke="#000000" points="681.5,-214.7 681.5,-233.7 712.5,-233.7 712.5,-214.7 681.5,-214.7"/>
<text text-anchor="start" x="703.3862" y="-220.8" font-family="Helvetica,sans-Serif" font-size="11.00" fill="#000000"> &#160;</text>
<polygon fill="#ffffff" stroke="transparent" points="712.5,-214.7 712.5,-233.7 753.5,-233.7 753.5,-214.7 712.5,-214.7"/>
<polygon fill="none" stroke="#000000" points="712.5,-214.7 712.5,-233.7 753.5,-233.7 753.5,-214.7 712.5,-214.7"/>
<text text-anchor="start" x="734.9053" y="-220.8" font-family="Helvetica,sans-Serif" font-size="11.00" fill="#000000">1 &gt;</text>
</a>
</g>
</g>
<!-- fleet_airplane&#45;&gt;fleet -->
<g id="edge4" class="edge">
<title>fleet_airplane:w&#45;&gt;fleet:e</title>
<path fill="none" stroke="#000000" d="M608.3982,-288.62C595.8236,-294.3902 590.2678,-306.7 571.5,-306.7"/>
<polygon fill="#000000" stroke="#000000" points="614.6662,-287.3221 623.23,-289.2252 618.5831,-286.5111 622.5,-285.7 622.5,-285.7 622.5,-285.7 618.5831,-286.5111 621.77,-282.1748 614.6662,-287.3221 614.6662,-287.3221"/>
<ellipse fill="none" stroke="#000000" cx="611.5326" cy="-287.971" rx="3.2" ry="3.2"/>
</g>
<!-- airplane -->
<g id="node5" class="node">
<title>airplane</title>
<g id="a_node5"><a xlink:href="../../tables/airplane.html" xlink:title="airplane" target="_top">
<polygon fill="#ffffff" stroke="transparent" points="405.5,-38.2 405.5,-99.2 499.5,-99.2 499.5,-38.2 405.5,-38.2"/>
<polygon fill="#f5f5f5" stroke="transparent" points="405.5,-75.7 405.5,-98.7 499.5,-98.7 499.5,-75.7 405.5,-75.7"/>
<polygon fill="none" stroke="#000000" points="405.5,-75.7 405.5,-98.7 499.5,-98.7 499.5,-75.7 405.5,-75.7"/>
<text text-anchor="start" x="410.5" y="-84.3" font-family="Helvetica,sans-Serif" font-weight="bold" font-size="11.00" fill="#000000">airplane</text>
<text text-anchor="start" x="465.0219" y="-83.8" font-family="Helvetica,sans-Serif" font-size="11.00" fill="#000000">[table]</text>
<polygon fill="none" stroke="#000000" points="405.5,-56.7 405.5,-75.7 499.5,-75.7 499.5,-56.7 405.5,-56.7"/>
<text text-anchor="start" x="408.5" y="-62.8" font-family="Helvetica,sans-Serif" font-size="11.00" fill="#000000">...</text>
<polygon fill="#ffffff" stroke="transparent" points="405.5,-37.7 405.5,-56.7 446.5,-56.7 446.5,-37.7 405.5,-37.7"/>
<polygon fill="none" stroke="#000000" points="405.5,-37.7 405.5,-56.7 446.5,-56.7 446.5,-37.7 405.5,-37.7"/>
<text text-anchor="start" x="408.5" y="-43.8" font-family="Helvetica,sans-Serif" font-size="11.00" fill="#000000">&lt; 1</text>
<polygon fill="#ffffff" stroke="transparent" points="446.5,-37.7 446.5,-56.7 468.5,-56.7 468.5,-37.7 446.5,-37.7"/>
<polygon fill="none" stroke="#000000" points="446.5,-37.7 446.5,-56.7 468.5,-56.7 468.5,-37.7 446.5,-37.7"/>
<text text-anchor="start" x="459.3862" y="-43.8" font-family="Helvetica,sans-Serif" font-size="11.00" fill="#000000"> &#160;</text>
<polygon fill="#ffffff" stroke="transparent" points="468.5,-37.7 468.5,-56.7 499.5,-56.7 499.5,-37.7 468.5,-37.7"/>
<polygon fill="none" stroke="#000000" points="468.5,-37.7 468.5,-56.7 499.5,-56.7 499.5,-37.7 468.5,-37.7"/>
<text text-anchor="start" x="480.9053" y="-43.8" font-family="Helvetica,sans-Serif" font-size="11.00" fill="#000000">1 &gt;</text>
</a>
</g>
</g>
<!-- fleet_airplane&#45;&gt;airplane -->
<g id="edge3" class="edge">
<title>fleet_airplane:w&#45;&gt;airplane:e</title>
<path fill="none" stroke="#000000" d="M608.1116,-261.8793C562.6131,-248.2128 621.4684,-160.8333 581,-109.7 555.4541,-77.4219 540.6639,-65.7 499.5,-65.7"/>
<polygon fill="#000000" stroke="#000000" points="614.5633,-262.6956 622.048,-267.2715 618.5316,-263.1978 622.5,-263.7 622.5,-263.7 622.5,-263.7 618.5316,-263.1978 622.952,-260.1285 614.5633,-262.6956 614.5633,-262.6956"/>
<ellipse fill="none" stroke="#000000" cx="611.3886" cy="-262.2939" rx="3.2" ry="3.2"/>
</g>
<!-- fleet_route -->
<g id="node6" class="node">
<title>fleet_route</title>
<g id="a_node6"><a xlink:href="../../tables/fleet_route.html" xlink:title="fleet_route" target="_top">
<polygon fill="#ffffff" stroke="transparent" points="802,-345.2 802,-406.2 914,-406.2 914,-345.2 802,-345.2"/>
<polygon fill="#f5f5f5" stroke="transparent" points="802,-382.7 802,-405.7 914,-405.7 914,-382.7 802,-382.7"/>
<polygon fill="none" stroke="#000000" points="802,-382.7 802,-405.7 914,-405.7 914,-382.7 802,-382.7"/>
<text text-anchor="start" x="807" y="-391.3" font-family="Helvetica,sans-Serif" font-weight="bold" font-size="11.00" fill="#000000">fleet_route</text>
<text text-anchor="start" x="879.5219" y="-390.8" font-family="Helvetica,sans-Serif" font-size="11.00" fill="#000000">[table]</text>
<polygon fill="none" stroke="#000000" points="802,-363.7 802,-382.7 914,-382.7 914,-363.7 802,-363.7"/>
<text text-anchor="start" x="805" y="-369.8" font-family="Helvetica,sans-Serif" font-size="11.00" fill="#000000">...</text>
<polygon fill="#ffffff" stroke="transparent" points="802,-344.7 802,-363.7 856,-363.7 856,-344.7 802,-344.7"/>
<polygon fill="none" stroke="#000000" points="802,-344.7 802,-363.7 856,-363.7 856,-344.7 802,-344.7"/>
<text text-anchor="start" x="805" y="-350.8" font-family="Helvetica,sans-Serif" font-size="11.00" fill="#000000">&lt; 3</text>
<polygon fill="#ffffff" stroke="transparent" points="856,-344.7 856,-363.7 885,-363.7 885,-344.7 856,-344.7"/>
<polygon fill="none" stroke="#000000" points="856,-344.7 856,-363.7 885,-363.7 885,-344.7 856,-344.7"/>
<text text-anchor="start" x="875.8862" y="-350.8" font-family="Helvetica,sans-Serif" font-size="11.00" fill="#000000"> &#160;</text>
<polygon fill="#ffffff" stroke="transparent" points="885,-344.7 885,-363.7 914,-363.7 914,-344.7 885,-344.7"/>
<polygon fill="none" stroke="#000000" points="885,-344.7 885,-363.7 914,-363.7 914,-344.7 885,-344.7"/>
<text text-anchor="start" x="904.8862" y="-350.8" font-family="Helvetica,sans-Serif" font-size="11.00" fill="#000000"> &#160;</text>
</a>
</g>
</g>
<!-- fleet_route&#45;&gt;airport -->
<g id="edge5" class="edge">
<title>fleet_route:w&#45;&gt;airport:e</title>
<path fill="none" stroke="#000000" d="M787.383,-372.7C569.0003,-372.7 508.9935,-372.7 283.5,-372.7"/>
<polygon fill="#000000" stroke="#000000" points="794,-372.7001 802,-376.3 798,-372.7 802,-372.7 802,-372.7 802,-372.7 798,-372.7 802,-369.1 794,-372.7001 794,-372.7001"/>
<ellipse fill="none" stroke="#000000" cx="790.8" cy="-372.7001" rx="3.2" ry="3.2"/>
</g>
<!-- fleet_route&#45;&gt;airport -->
<g id="edge7" class="edge">
<title>fleet_route:w&#45;&gt;airport:e</title>
<path fill="none" stroke="#000000" d="M787.383,-372.7C569.0003,-372.7 508.9935,-372.7 283.5,-372.7"/>
<polygon fill="#000000" stroke="#000000" points="794,-372.7001 802,-376.3 798,-372.7 802,-372.7 802,-372.7 802,-372.7 798,-372.7 802,-369.1 794,-372.7001 794,-372.7001"/>
<ellipse fill="none" stroke="#000000" cx="790.8" cy="-372.7001" rx="3.2" ry="3.2"/>
</g>
<!-- fleet_route&#45;&gt;fleet_airplane -->
<g id="edge6" class="edge">
<title>fleet_route:w&#45;&gt;fleet_airplane:e</title>
<path fill="none" stroke="#000000" d="M788.0939,-367.5996C772.3026,-352.2764 783.3494,-307.7 753.5,-307.7"/>
<polygon fill="#000000" stroke="#000000" points="794.4893,-369.9452 800.7603,-376.0798 798.2446,-371.3226 802,-372.7 802,-372.7 802,-372.7 798.2446,-371.3226 803.2397,-369.3202 794.4893,-369.9452 794.4893,-369.9452"/>
<ellipse fill="none" stroke="#000000" cx="791.485" cy="-368.8433" rx="3.2" ry="3.2"/>
</g>
</g>
</svg>
