<?xml version="1.0" encoding="UTF-8" standalone="no"?>
<!DOCTYPE svg PUBLIC "-//W3C//DTD SVG 1.1//EN"
 "http://www.w3.org/Graphics/SVG/1.1/DTD/svg11.dtd">
<!-- Generated by graphviz version 2.40.1 (20161225.0304)
 -->
<!-- Title: oneDegreeRelationshipsDiagram Pages: 1 -->
<svg width="493pt" height="369pt"
 viewBox="0.00 0.00 493.00 369.20" xmlns="http://www.w3.org/2000/svg" xmlns:xlink="http://www.w3.org/1999/xlink">
<g id="graph0" class="graph" transform="scale(1 1) rotate(0) translate(4 365.2)">
<title>oneDegreeRelationshipsDiagram</title>
<polygon fill="#ffffff" stroke="transparent" points="-4,4 -4,-365.2 489,-365.2 489,4 -4,4"/>
<text text-anchor="middle" x="72.4936" y="-7.3" font-family="Helvetica,sans-Serif" font-size="11.00" fill="#000000">Generated by SchemaSpy</text>
<!-- fleet_route -->
<g id="node1" class="node">
<title>fleet_route</title>
<g id="a_node1"><a xlink:href="../../tables/fleet_route.html" xlink:title="fleet_route" target="_top">
<polygon fill="#ffffff" stroke="transparent" points="220,-98.7 220,-298.7 477,-298.7 477,-98.7 220,-98.7"/>
<polygon fill="#f5f5f5" stroke="transparent" points="222.5,-273.7 222.5,-296.7 475.5,-296.7 475.5,-273.7 222.5,-273.7"/>
<polygon fill="none" stroke="#000000" points="222.5,-273.7 222.5,-296.7 475.5,-296.7 475.5,-273.7 222.5,-273.7"/>
<text text-anchor="start" x="227.5" y="-282.3" font-family="Helvetica,sans-Serif" font-weight="bold" font-size="11.00" fill="#000000">fleet_route</text>
<text text-anchor="start" x="440.5437" y="-281.8" font-family="Helvetica,sans-Serif" font-size="11.00" fill="#000000">[table]</text>
<polygon fill="none" stroke="#000000" points="222.5,-251.7 222.5,-273.7 391.5,-273.7 391.5,-251.7 222.5,-251.7"/>
<image xlink:href="../../images/primaryKeys.png" width="11px" height="12px" preserveAspectRatio="xMinYMin meet" x="227.5" y="-268.7"/>
<text text-anchor="start" x="242.5" y="-258.8" font-family="Helvetica,sans-Serif" font-size="11.00" fill="#000000">id</text>
<polygon fill="none" stroke="#000000" points="391.5,-251.7 391.5,-273.7 475.5,-273.7 475.5,-251.7 391.5,-251.7"/>
<text text-anchor="start" x="394.5" y="-259.4" font-family="Helvetica,sans-Serif" font-size="11.00" fill="#000000">serial[10]</text>
<polygon fill="none" stroke="#000000" points="222.5,-229.7 222.5,-251.7 391.5,-251.7 391.5,-229.7 222.5,-229.7"/>
<image xlink:href="../../images/foreignKeys.png" width="11px" height="12px" preserveAspectRatio="xMinYMin meet" x="227.5" y="-246.7"/>
<text text-anchor="start" x="242.5" y="-236.8" font-family="Helvetica,sans-Serif" font-size="11.00" fill="#000000">fleet_airplane_id</text>
<polygon fill="none" stroke="#000000" points="391.5,-229.7 391.5,-251.7 475.5,-251.7 475.5,-229.7 391.5,-229.7"/>
<text text-anchor="start" x="394.5" y="-237.4" font-family="Helvetica,sans-Serif" font-size="11.00" fill="#000000">int4[10]</text>
<polygon fill="#ffffff" stroke="transparent" points="222.5,-207.7 222.5,-229.7 391.5,-229.7 391.5,-207.7 222.5,-207.7"/>
<polygon fill="none" stroke="#000000" points="222.5,-207.7 222.5,-229.7 391.5,-229.7 391.5,-207.7 222.5,-207.7"/>
<text text-anchor="start" x="242.5" y="-214.8" font-family="Helvetica,sans-Serif" font-size="11.00" fill="#000000">route_number</text>
<polygon fill="none" stroke="#000000" points="391.5,-207.7 391.5,-229.7 475.5,-229.7 475.5,-207.7 391.5,-207.7"/>
<text text-anchor="start" x="394.5" y="-215.4" font-family="Helvetica,sans-Serif" font-size="11.00" fill="#000000">varchar[10]</text>
<polygon fill="#ffffff" stroke="transparent" points="222.5,-185.7 222.5,-207.7 391.5,-207.7 391.5,-185.7 222.5,-185.7"/>
<polygon fill="none" stroke="#000000" points="222.5,-185.7 222.5,-207.7 391.5,-207.7 391.5,-185.7 222.5,-185.7"/>
<image xlink:href="../../images/foreignKeys.png" width="11px" height="12px" preserveAspectRatio="xMinYMin meet" x="227.5" y="-202.7"/>
<text text-anchor="start" x="242.5" y="-192.8" font-family="Helvetica,sans-Serif" font-size="11.00" fill="#000000">start_airport_id</text>
<polygon fill="none" stroke="#000000" points="391.5,-185.7 391.5,-207.7 475.5,-207.7 475.5,-185.7 391.5,-185.7"/>
<text text-anchor="start" x="394.5" y="-193.4" font-family="Helvetica,sans-Serif" font-size="11.00" fill="#000000">int4[10]</text>
<polygon fill="#ffffff" stroke="transparent" points="222.5,-163.7 222.5,-185.7 391.5,-185.7 391.5,-163.7 222.5,-163.7"/>
<polygon fill="none" stroke="#000000" points="222.5,-163.7 222.5,-185.7 391.5,-185.7 391.5,-163.7 222.5,-163.7"/>
<image xlink:href="../../images/foreignKeys.png" width="11px" height="12px" preserveAspectRatio="xMinYMin meet" x="227.5" y="-180.7"/>
<text text-anchor="start" x="242.5" y="-170.8" font-family="Helvetica,sans-Serif" font-size="11.00" fill="#000000">destination_airport_id</text>
<polygon fill="none" stroke="#000000" points="391.5,-163.7 391.5,-185.7 475.5,-185.7 475.5,-163.7 391.5,-163.7"/>
<text text-anchor="start" x="394.5" y="-171.4" font-family="Helvetica,sans-Serif" font-size="11.00" fill="#000000">int4[10]</text>
<polygon fill="none" stroke="#000000" points="222.5,-141.7 222.5,-163.7 391.5,-163.7 391.5,-141.7 222.5,-141.7"/>
<text text-anchor="start" x="242.5" y="-148.8" font-family="Helvetica,sans-Serif" font-size="11.00" fill="#000000">created_at</text>
<polygon fill="none" stroke="#000000" points="391.5,-141.7 391.5,-163.7 475.5,-163.7 475.5,-141.7 391.5,-141.7"/>
<text text-anchor="start" x="394.3807" y="-149.4" font-family="Helvetica,sans-Serif" font-size="11.00" fill="#000000">timestamp[29,6]</text>
<polygon fill="none" stroke="#000000" points="222.5,-119.7 222.5,-141.7 391.5,-141.7 391.5,-119.7 222.5,-119.7"/>
<text text-anchor="start" x="242.5" y="-126.8" font-family="Helvetica,sans-Serif" font-size="11.00" fill="#000000">last_updated_at</text>
<polygon fill="none" stroke="#000000" points="391.5,-119.7 391.5,-141.7 475.5,-141.7 475.5,-119.7 391.5,-119.7"/>
<text text-anchor="start" x="394.3807" y="-127.4" font-family="Helvetica,sans-Serif" font-size="11.00" fill="#000000">timestamp[29,6]</text>
<polygon fill="#ffffff" stroke="transparent" points="222.5,-100.7 222.5,-119.7 311.5,-119.7 311.5,-100.7 222.5,-100.7"/>
<polygon fill="none" stroke="#000000" points="222.5,-100.7 222.5,-119.7 311.5,-119.7 311.5,-100.7 222.5,-100.7"/>
<text text-anchor="start" x="225.5" y="-106.8" font-family="Helvetica,sans-Serif" font-size="11.00" fill="#000000">&lt; 3</text>
<polygon fill="#ffffff" stroke="transparent" points="311.5,-100.7 311.5,-119.7 391.5,-119.7 391.5,-100.7 311.5,-100.7"/>
<polygon fill="none" stroke="#000000" points="311.5,-100.7 311.5,-119.7 391.5,-119.7 391.5,-100.7 311.5,-100.7"/>
<text text-anchor="start" x="382.3862" y="-106.8" font-family="Helvetica,sans-Serif" font-size="11.00" fill="#000000"> &#160;</text>
<polygon fill="#ffffff" stroke="transparent" points="391.5,-100.7 391.5,-119.7 475.5,-119.7 475.5,-100.7 391.5,-100.7"/>
<polygon fill="none" stroke="#000000" points="391.5,-100.7 391.5,-119.7 475.5,-119.7 475.5,-100.7 391.5,-100.7"/>
<text text-anchor="start" x="456.9053" y="-106.8" font-family="Helvetica,sans-Serif" font-size="11.00" fill="#000000">0 &gt;</text>
<polygon fill="none" stroke="#000000" stroke-width="2" points="221,-99.7 221,-297.7 476,-297.7 476,-99.7 221,-99.7"/>
</a>
</g>
</g>
<!-- airport -->
<g id="node2" class="node">
<title>airport</title>
<g id="a_node2"><a xlink:href="../../tables/airport.html" xlink:title="airport" target="_top">
<polygon fill="#ffffff" stroke="transparent" points="8,-38.2 8,-209.2 171,-209.2 171,-38.2 8,-38.2"/>
<polygon fill="#f5f5f5" stroke="transparent" points="8.5,-185.7 8.5,-208.7 171.5,-208.7 171.5,-185.7 8.5,-185.7"/>
<polygon fill="none" stroke="#000000" points="8.5,-185.7 8.5,-208.7 171.5,-208.7 171.5,-185.7 8.5,-185.7"/>
<text text-anchor="start" x="13.5" y="-194.3" font-family="Helvetica,sans-Serif" font-weight="bold" font-size="11.00" fill="#000000">airport</text>
<text text-anchor="start" x="136.5437" y="-193.8" font-family="Helvetica,sans-Serif" font-size="11.00" fill="#000000">[table]</text>
<polygon fill="none" stroke="#000000" points="8.5,-163.7 8.5,-185.7 171.5,-185.7 171.5,-163.7 8.5,-163.7"/>
<image xlink:href="../../images/primaryKeys.png" width="11px" height="12px" preserveAspectRatio="xMinYMin meet" x="13.5" y="-180.7"/>
<text text-anchor="start" x="28.5" y="-170.8" font-family="Helvetica,sans-Serif" font-size="11.00" fill="#000000">id</text>
<polygon fill="#ffffff" stroke="transparent" points="8.5,-141.7 8.5,-163.7 171.5,-163.7 171.5,-141.7 8.5,-141.7"/>
<polygon fill="none" stroke="#000000" points="8.5,-141.7 8.5,-163.7 171.5,-163.7 171.5,-141.7 8.5,-141.7"/>
<text text-anchor="start" x="28.5" y="-148.8" font-family="Helvetica,sans-Serif" font-size="11.00" fill="#000000">name</text>
<polygon fill="#ffffff" stroke="transparent" points="8.5,-119.7 8.5,-141.7 171.5,-141.7 171.5,-119.7 8.5,-119.7"/>
<polygon fill="none" stroke="#000000" points="8.5,-119.7 8.5,-141.7 171.5,-141.7 171.5,-119.7 8.5,-119.7"/>
<text text-anchor="start" x="28.5" y="-126.8" font-family="Helvetica,sans-Serif" font-size="11.00" fill="#000000">icao</text>
<polygon fill="#ffffff" stroke="transparent" points="8.5,-97.7 8.5,-119.7 171.5,-119.7 171.5,-97.7 8.5,-97.7"/>
<polygon fill="none" stroke="#000000" points="8.5,-97.7 8.5,-119.7 171.5,-119.7 171.5,-97.7 8.5,-97.7"/>
<text text-anchor="start" x="28.5" y="-104.8" font-family="Helvetica,sans-Serif" font-size="11.00" fill="#000000">iata</text>
<polygon fill="#ffffff" stroke="transparent" points="8.5,-75.7 8.5,-97.7 171.5,-97.7 171.5,-75.7 8.5,-75.7"/>
<polygon fill="none" stroke="#000000" points="8.5,-75.7 8.5,-97.7 171.5,-97.7 171.5,-75.7 8.5,-75.7"/>
<image xlink:href="../../images/foreignKeys.png" width="11px" height="12px" preserveAspectRatio="xMinYMin meet" x="13.5" y="-92.7"/>
<text text-anchor="start" x="28.5" y="-82.8" font-family="Helvetica,sans-Serif" font-size="11.00" fill="#000000">city_id</text>
<polygon fill="none" stroke="#000000" points="8.5,-56.7 8.5,-75.7 171.5,-75.7 171.5,-56.7 8.5,-56.7"/>
<text text-anchor="start" x="11.5" y="-62.8" font-family="Helvetica,sans-Serif" font-size="11.00" fill="#000000">...</text>
<polygon fill="#ffffff" stroke="transparent" points="8.5,-37.7 8.5,-56.7 83.5,-56.7 83.5,-37.7 8.5,-37.7"/>
<polygon fill="none" stroke="#000000" points="8.5,-37.7 8.5,-56.7 83.5,-56.7 83.5,-37.7 8.5,-37.7"/>
<text text-anchor="start" x="11.5" y="-43.8" font-family="Helvetica,sans-Serif" font-size="11.00" fill="#000000">&lt; 1</text>
<polygon fill="#ffffff" stroke="transparent" points="83.5,-37.7 83.5,-56.7 122.5,-56.7 122.5,-37.7 83.5,-37.7"/>
<polygon fill="none" stroke="#000000" points="83.5,-37.7 83.5,-56.7 122.5,-56.7 122.5,-37.7 83.5,-37.7"/>
<text text-anchor="start" x="113.3862" y="-43.8" font-family="Helvetica,sans-Serif" font-size="11.00" fill="#000000"> &#160;</text>
<polygon fill="#ffffff" stroke="transparent" points="122.5,-37.7 122.5,-56.7 171.5,-56.7 171.5,-37.7 122.5,-37.7"/>
<polygon fill="none" stroke="#000000" points="122.5,-37.7 122.5,-56.7 171.5,-56.7 171.5,-37.7 122.5,-37.7"/>
<text text-anchor="start" x="152.9053" y="-43.8" font-family="Helvetica,sans-Serif" font-size="11.00" fill="#000000">3 &gt;</text>
</a>
</g>
</g>
<!-- fleet_route&#45;&gt;airport -->
<g id="edge1" class="edge">
<title>fleet_route:w&#45;&gt;airport:e</title>
<path fill="none" stroke="#000000" d="M207.776,-174.7C195.7815,-174.7 188.3229,-174.7 171.5,-174.7"/>
<polygon fill="#000000" stroke="#000000" points="214.5,-174.7001 222.5,-178.3 218.5,-174.7 222.5,-174.7 222.5,-174.7 222.5,-174.7 218.5,-174.7 222.5,-171.1 214.5,-174.7001 214.5,-174.7001"/>
<ellipse fill="none" stroke="#000000" cx="211.3" cy="-174.7001" rx="3.2" ry="3.2"/>
</g>
<!-- fleet_route&#45;&gt;airport -->
<g id="edge3" class="edge">
<title>fleet_route:w&#45;&gt;airport:e</title>
<path fill="none" stroke="#000000" d="M208.3489,-193.641C195.7843,-187.596 190.4,-174.7 171.5,-174.7"/>
<polygon fill="#000000" stroke="#000000" points="214.6806,-195.0097 221.7393,-200.2187 218.5903,-195.8548 222.5,-196.7 222.5,-196.7 222.5,-196.7 218.5903,-195.8548 223.2607,-193.1813 214.6806,-195.0097 214.6806,-195.0097"/>
<ellipse fill="none" stroke="#000000" cx="211.5528" cy="-194.3335" rx="3.2" ry="3.2"/>
</g>
<!-- fleet_airplane -->
<g id="node3" class="node">
<title>fleet_airplane</title>
<g id="a_node3"><a xlink:href="../../tables/fleet_airplane.html" xlink:title="fleet_airplane" target="_top">
<polygon fill="#ffffff" stroke="transparent" points="24,-230.2 24,-357.2 155,-357.2 155,-230.2 24,-230.2"/>
<polygon fill="#f5f5f5" stroke="transparent" points="24.5,-333.7 24.5,-356.7 155.5,-356.7 155.5,-333.7 24.5,-333.7"/>
<polygon fill="none" stroke="#000000" points="24.5,-333.7 24.5,-356.7 155.5,-356.7 155.5,-333.7 24.5,-333.7"/>
<text text-anchor="start" x="29.5" y="-342.3" font-family="Helvetica,sans-Serif" font-weight="bold" font-size="11.00" fill="#000000">fleet_airplane</text>
<text text-anchor="start" x="121.0219" y="-341.8" font-family="Helvetica,sans-Serif" font-size="11.00" fill="#000000">[table]</text>
<polygon fill="none" stroke="#000000" points="24.5,-311.7 24.5,-333.7 155.5,-333.7 155.5,-311.7 24.5,-311.7"/>
<image xlink:href="../../images/primaryKeys.png" width="11px" height="12px" preserveAspectRatio="xMinYMin meet" x="29.5" y="-328.7"/>
<text text-anchor="start" x="46.5" y="-318.8" font-family="Helvetica,sans-Serif" font-size="11.00" fill="#000000">id</text>
<polygon fill="#ffffff" stroke="transparent" points="24.5,-289.7 24.5,-311.7 155.5,-311.7 155.5,-289.7 24.5,-289.7"/>
<polygon fill="none" stroke="#000000" points="24.5,-289.7 24.5,-311.7 155.5,-311.7 155.5,-289.7 24.5,-289.7"/>
<image xlink:href="../../images/foreignKeys.png" width="11px" height="12px" preserveAspectRatio="xMinYMin meet" x="29.5" y="-306.7"/>
<text text-anchor="start" x="46.5" y="-296.8" font-family="Helvetica,sans-Serif" font-size="11.00" fill="#000000">fleet_id</text>
<polygon fill="#ffffff" stroke="transparent" points="24.5,-267.7 24.5,-289.7 155.5,-289.7 155.5,-267.7 24.5,-267.7"/>
<polygon fill="none" stroke="#000000" points="24.5,-267.7 24.5,-289.7 155.5,-289.7 155.5,-267.7 24.5,-267.7"/>
<image xlink:href="../../images/foreignKeys.png" width="11px" height="12px" preserveAspectRatio="xMinYMin meet" x="29.5" y="-284.7"/>
<text text-anchor="start" x="46.5" y="-274.8" font-family="Helvetica,sans-Serif" font-size="11.00" fill="#000000">airplane_id</text>
<polygon fill="none" stroke="#000000" points="24.5,-248.7 24.5,-267.7 155.5,-267.7 155.5,-248.7 24.5,-248.7"/>
<text text-anchor="start" x="27.5" y="-254.8" font-family="Helvetica,sans-Serif" font-size="11.00" fill="#000000">...</text>
<polygon fill="#ffffff" stroke="transparent" points="24.5,-229.7 24.5,-248.7 83.5,-248.7 83.5,-229.7 24.5,-229.7"/>
<polygon fill="none" stroke="#000000" points="24.5,-229.7 24.5,-248.7 83.5,-248.7 83.5,-229.7 24.5,-229.7"/>
<text text-anchor="start" x="27.5" y="-235.8" font-family="Helvetica,sans-Serif" font-size="11.00" fill="#000000">&lt; 2</text>
<polygon fill="#ffffff" stroke="transparent" points="83.5,-229.7 83.5,-248.7 114.5,-248.7 114.5,-229.7 83.5,-229.7"/>
<polygon fill="none" stroke="#000000" points="83.5,-229.7 83.5,-248.7 114.5,-248.7 114.5,-229.7 83.5,-229.7"/>
<text text-anchor="start" x="105.3862" y="-235.8" font-family="Helvetica,sans-Serif" font-size="11.00" fill="#000000"> &#160;</text>
<polygon fill="#ffffff" stroke="transparent" points="114.5,-229.7 114.5,-248.7 155.5,-248.7 155.5,-229.7 114.5,-229.7"/>
<polygon fill="none" stroke="#000000" points="114.5,-229.7 114.5,-248.7 155.5,-248.7 155.5,-229.7 114.5,-229.7"/>
<text text-anchor="start" x="136.9053" y="-235.8" font-family="Helvetica,sans-Serif" font-size="11.00" fill="#000000">1 &gt;</text>
</a>
</g>
</g>
<!-- fleet_route&#45;&gt;fleet_airplane -->
<g id="edge2" class="edge">
<title>fleet_route:w&#45;&gt;fleet_airplane:e</title>
<path fill="none" stroke="#000000" d="M208.4031,-244.0161C180.9188,-259.357 196.8638,-322.7 155.5,-322.7"/>
<polygon fill="#000000" stroke="#000000" points="214.7126,-242.5319 223.3244,-244.2044 218.6063,-241.616 222.5,-240.7 222.5,-240.7 222.5,-240.7 218.6063,-241.616 221.6756,-237.1956 214.7126,-242.5319 214.7126,-242.5319"/>
<ellipse fill="none" stroke="#000000" cx="211.5976" cy="-243.2647" rx="3.2" ry="3.2"/>
</g>
</g>
</svg>
