<?xml version="1.0" encoding="UTF-8" standalone="no"?>
<!DOCTYPE svg PUBLIC "-//W3C//DTD SVG 1.1//EN"
 "http://www.w3.org/Graphics/SVG/1.1/DTD/svg11.dtd">
<!-- Generated by graphviz version 2.40.1 (20161225.0304)
 -->
<!-- Title: oneDegreeRelationshipsDiagram Pages: 1 -->
<svg width="646pt" height="391pt"
 viewBox="0.00 0.00 646.00 391.20" xmlns="http://www.w3.org/2000/svg" xmlns:xlink="http://www.w3.org/1999/xlink">
<g id="graph0" class="graph" transform="scale(1 1) rotate(0) translate(4 387.2)">
<title>oneDegreeRelationshipsDiagram</title>
<polygon fill="#ffffff" stroke="transparent" points="-4,4 -4,-387.2 642,-387.2 642,4 -4,4"/>
<text text-anchor="middle" x="72.4936" y="-7.3" font-family="Helvetica,sans-Serif" font-size="11.00" fill="#000000">Generated by SchemaSpy</text>
<!-- fleet_airplane -->
<g id="node1" class="node">
<title>fleet_airplane</title>
<g id="a_node1"><a xlink:href="../../tables/fleet_airplane.html" xlink:title="fleet_airplane" target="_top">
<polygon fill="#ffffff" stroke="transparent" points="196,-150.7 196,-306.7 412,-306.7 412,-150.7 196,-150.7"/>
<polygon fill="#f5f5f5" stroke="transparent" points="198,-281.7 198,-304.7 410,-304.7 410,-281.7 198,-281.7"/>
<polygon fill="none" stroke="#000000" points="198,-281.7 198,-304.7 410,-304.7 410,-281.7 198,-281.7"/>
<text text-anchor="start" x="203" y="-290.3" font-family="Helvetica,sans-Serif" font-weight="bold" font-size="11.00" fill="#000000">fleet_airplane</text>
<text text-anchor="start" x="375.0437" y="-289.8" font-family="Helvetica,sans-Serif" font-size="11.00" fill="#000000">[table]</text>
<polygon fill="none" stroke="#000000" points="198,-259.7 198,-281.7 326,-281.7 326,-259.7 198,-259.7"/>
<image xlink:href="../../images/primaryKeys.png" width="11px" height="12px" preserveAspectRatio="xMinYMin meet" x="203" y="-276.7"/>
<text text-anchor="start" x="218" y="-266.8" font-family="Helvetica,sans-Serif" font-size="11.00" fill="#000000">id</text>
<polygon fill="none" stroke="#000000" points="326,-259.7 326,-281.7 410,-281.7 410,-259.7 326,-259.7"/>
<text text-anchor="start" x="329" y="-267.4" font-family="Helvetica,sans-Serif" font-size="11.00" fill="#000000">serial[10]</text>
<polygon fill="#ffffff" stroke="transparent" points="198,-237.7 198,-259.7 326,-259.7 326,-237.7 198,-237.7"/>
<polygon fill="none" stroke="#000000" points="198,-237.7 198,-259.7 326,-259.7 326,-237.7 198,-237.7"/>
<image xlink:href="../../images/foreignKeys.png" width="11px" height="12px" preserveAspectRatio="xMinYMin meet" x="203" y="-254.7"/>
<text text-anchor="start" x="218" y="-244.8" font-family="Helvetica,sans-Serif" font-size="11.00" fill="#000000">fleet_id</text>
<polygon fill="none" stroke="#000000" points="326,-237.7 326,-259.7 410,-259.7 410,-237.7 326,-237.7"/>
<text text-anchor="start" x="329" y="-245.4" font-family="Helvetica,sans-Serif" font-size="11.00" fill="#000000">int4[10]</text>
<polygon fill="#ffffff" stroke="transparent" points="198,-215.7 198,-237.7 326,-237.7 326,-215.7 198,-215.7"/>
<polygon fill="none" stroke="#000000" points="198,-215.7 198,-237.7 326,-237.7 326,-215.7 198,-215.7"/>
<image xlink:href="../../images/foreignKeys.png" width="11px" height="12px" preserveAspectRatio="xMinYMin meet" x="203" y="-232.7"/>
<text text-anchor="start" x="218" y="-222.8" font-family="Helvetica,sans-Serif" font-size="11.00" fill="#000000">airplane_id</text>
<polygon fill="none" stroke="#000000" points="326,-215.7 326,-237.7 410,-237.7 410,-215.7 326,-215.7"/>
<text text-anchor="start" x="329" y="-223.4" font-family="Helvetica,sans-Serif" font-size="11.00" fill="#000000">int4[10]</text>
<polygon fill="none" stroke="#000000" points="198,-193.7 198,-215.7 326,-215.7 326,-193.7 198,-193.7"/>
<text text-anchor="start" x="218" y="-200.8" font-family="Helvetica,sans-Serif" font-size="11.00" fill="#000000">created_at</text>
<polygon fill="none" stroke="#000000" points="326,-193.7 326,-215.7 410,-215.7 410,-193.7 326,-193.7"/>
<text text-anchor="start" x="328.8807" y="-201.4" font-family="Helvetica,sans-Serif" font-size="11.00" fill="#000000">timestamp[29,6]</text>
<polygon fill="none" stroke="#000000" points="198,-171.7 198,-193.7 326,-193.7 326,-171.7 198,-171.7"/>
<text text-anchor="start" x="218" y="-178.8" font-family="Helvetica,sans-Serif" font-size="11.00" fill="#000000">last_updated_at</text>
<polygon fill="none" stroke="#000000" points="326,-171.7 326,-193.7 410,-193.7 410,-171.7 326,-171.7"/>
<text text-anchor="start" x="328.8807" y="-179.4" font-family="Helvetica,sans-Serif" font-size="11.00" fill="#000000">timestamp[29,6]</text>
<polygon fill="#ffffff" stroke="transparent" points="198,-152.7 198,-171.7 266,-171.7 266,-152.7 198,-152.7"/>
<polygon fill="none" stroke="#000000" points="198,-152.7 198,-171.7 266,-171.7 266,-152.7 198,-152.7"/>
<text text-anchor="start" x="201" y="-158.8" font-family="Helvetica,sans-Serif" font-size="11.00" fill="#000000">&lt; 2</text>
<polygon fill="#ffffff" stroke="transparent" points="266,-152.7 266,-171.7 326,-171.7 326,-152.7 266,-152.7"/>
<polygon fill="none" stroke="#000000" points="266,-152.7 266,-171.7 326,-171.7 326,-152.7 266,-152.7"/>
<text text-anchor="start" x="316.8862" y="-158.8" font-family="Helvetica,sans-Serif" font-size="11.00" fill="#000000"> &#160;</text>
<polygon fill="#ffffff" stroke="transparent" points="326,-152.7 326,-171.7 410,-171.7 410,-152.7 326,-152.7"/>
<polygon fill="none" stroke="#000000" points="326,-152.7 326,-171.7 410,-171.7 410,-152.7 326,-152.7"/>
<text text-anchor="start" x="391.4053" y="-158.8" font-family="Helvetica,sans-Serif" font-size="11.00" fill="#000000">1 &gt;</text>
<polygon fill="none" stroke="#000000" stroke-width="2" points="197,-151.7 197,-305.7 411,-305.7 411,-151.7 197,-151.7"/>
</a>
</g>
</g>
<!-- airplane -->
<g id="node2" class="node">
<title>airplane</title>
<g id="a_node2"><a xlink:href="../../tables/airplane.html" xlink:title="airplane" target="_top">
<polygon fill="#ffffff" stroke="transparent" points="8,-38.2 8,-165.2 147,-165.2 147,-38.2 8,-38.2"/>
<polygon fill="#f5f5f5" stroke="transparent" points="8.5,-141.7 8.5,-164.7 147.5,-164.7 147.5,-141.7 8.5,-141.7"/>
<polygon fill="none" stroke="#000000" points="8.5,-141.7 8.5,-164.7 147.5,-164.7 147.5,-141.7 8.5,-141.7"/>
<text text-anchor="start" x="13.5" y="-150.3" font-family="Helvetica,sans-Serif" font-weight="bold" font-size="11.00" fill="#000000">airplane</text>
<text text-anchor="start" x="112.5437" y="-149.8" font-family="Helvetica,sans-Serif" font-size="11.00" fill="#000000">[table]</text>
<polygon fill="none" stroke="#000000" points="8.5,-119.7 8.5,-141.7 147.5,-141.7 147.5,-119.7 8.5,-119.7"/>
<image xlink:href="../../images/primaryKeys.png" width="11px" height="12px" preserveAspectRatio="xMinYMin meet" x="13.5" y="-136.7"/>
<text text-anchor="start" x="28.5" y="-126.8" font-family="Helvetica,sans-Serif" font-size="11.00" fill="#000000">id</text>
<polygon fill="#ffffff" stroke="transparent" points="8.5,-97.7 8.5,-119.7 147.5,-119.7 147.5,-97.7 8.5,-97.7"/>
<polygon fill="none" stroke="#000000" points="8.5,-97.7 8.5,-119.7 147.5,-119.7 147.5,-97.7 8.5,-97.7"/>
<text text-anchor="start" x="28.5" y="-104.8" font-family="Helvetica,sans-Serif" font-size="11.00" fill="#000000">name</text>
<polygon fill="none" stroke="#000000" points="8.5,-75.7 8.5,-97.7 147.5,-97.7 147.5,-75.7 8.5,-75.7"/>
<image xlink:href="../../images/foreignKeys.png" width="11px" height="12px" preserveAspectRatio="xMinYMin meet" x="13.5" y="-92.7"/>
<text text-anchor="start" x="28.5" y="-82.8" font-family="Helvetica,sans-Serif" font-size="11.00" fill="#000000">manufacturer_id</text>
<polygon fill="none" stroke="#000000" points="8.5,-56.7 8.5,-75.7 147.5,-75.7 147.5,-56.7 8.5,-56.7"/>
<text text-anchor="start" x="11.5" y="-62.8" font-family="Helvetica,sans-Serif" font-size="11.00" fill="#000000">...</text>
<polygon fill="#ffffff" stroke="transparent" points="8.5,-37.7 8.5,-56.7 71.5,-56.7 71.5,-37.7 8.5,-37.7"/>
<polygon fill="none" stroke="#000000" points="8.5,-37.7 8.5,-56.7 71.5,-56.7 71.5,-37.7 8.5,-37.7"/>
<text text-anchor="start" x="11.5" y="-43.8" font-family="Helvetica,sans-Serif" font-size="11.00" fill="#000000">&lt; 1</text>
<polygon fill="#ffffff" stroke="transparent" points="71.5,-37.7 71.5,-56.7 104.5,-56.7 104.5,-37.7 71.5,-37.7"/>
<polygon fill="none" stroke="#000000" points="71.5,-37.7 71.5,-56.7 104.5,-56.7 104.5,-37.7 71.5,-37.7"/>
<text text-anchor="start" x="95.3862" y="-43.8" font-family="Helvetica,sans-Serif" font-size="11.00" fill="#000000"> &#160;</text>
<polygon fill="#ffffff" stroke="transparent" points="104.5,-37.7 104.5,-56.7 147.5,-56.7 147.5,-37.7 104.5,-37.7"/>
<polygon fill="none" stroke="#000000" points="104.5,-37.7 104.5,-56.7 147.5,-56.7 147.5,-37.7 104.5,-37.7"/>
<text text-anchor="start" x="128.9053" y="-43.8" font-family="Helvetica,sans-Serif" font-size="11.00" fill="#000000">1 &gt;</text>
</a>
</g>
</g>
<!-- fleet_airplane&#45;&gt;airplane -->
<g id="edge1" class="edge">
<title>fleet_airplane:w&#45;&gt;airplane:e</title>
<path fill="none" stroke="#000000" d="M183.9659,-222.575C159.7993,-204.2 189.6837,-130.7 147.5,-130.7"/>
<polygon fill="#000000" stroke="#000000" points="190.3247,-224.444 196.9848,-230.1539 194.1623,-225.572 198,-226.7 198,-226.7 198,-226.7 194.1623,-225.572 199.0152,-223.2461 190.3247,-224.444 190.3247,-224.444"/>
<ellipse fill="none" stroke="#000000" cx="187.2545" cy="-223.5416" rx="3.2" ry="3.2"/>
</g>
<!-- fleet -->
<g id="node3" class="node">
<title>fleet</title>
<g id="a_node3"><a xlink:href="../../tables/fleet.html" xlink:title="fleet" target="_top">
<polygon fill="#ffffff" stroke="transparent" points="13.5,-186.2 13.5,-379.2 141.5,-379.2 141.5,-186.2 13.5,-186.2"/>
<polygon fill="#f5f5f5" stroke="transparent" points="13.5,-355.7 13.5,-378.7 141.5,-378.7 141.5,-355.7 13.5,-355.7"/>
<polygon fill="none" stroke="#000000" points="13.5,-355.7 13.5,-378.7 141.5,-378.7 141.5,-355.7 13.5,-355.7"/>
<text text-anchor="start" x="18.5" y="-364.3" font-family="Helvetica,sans-Serif" font-weight="bold" font-size="11.00" fill="#000000">fleet</text>
<text text-anchor="start" x="106.5437" y="-363.8" font-family="Helvetica,sans-Serif" font-size="11.00" fill="#000000">[table]</text>
<polygon fill="none" stroke="#000000" points="13.5,-333.7 13.5,-355.7 141.5,-355.7 141.5,-333.7 13.5,-333.7"/>
<image xlink:href="../../images/primaryKeys.png" width="11px" height="12px" preserveAspectRatio="xMinYMin meet" x="18.5" y="-350.7"/>
<text text-anchor="start" x="33.5" y="-340.8" font-family="Helvetica,sans-Serif" font-size="11.00" fill="#000000">id</text>
<polygon fill="#ffffff" stroke="transparent" points="13.5,-311.7 13.5,-333.7 141.5,-333.7 141.5,-311.7 13.5,-311.7"/>
<polygon fill="none" stroke="#000000" points="13.5,-311.7 13.5,-333.7 141.5,-333.7 141.5,-311.7 13.5,-311.7"/>
<text text-anchor="start" x="33.5" y="-318.8" font-family="Helvetica,sans-Serif" font-size="11.00" fill="#000000">name</text>
<polygon fill="#ffffff" stroke="transparent" points="13.5,-289.7 13.5,-311.7 141.5,-311.7 141.5,-289.7 13.5,-289.7"/>
<polygon fill="none" stroke="#000000" points="13.5,-289.7 13.5,-311.7 141.5,-311.7 141.5,-289.7 13.5,-289.7"/>
<text text-anchor="start" x="33.5" y="-296.8" font-family="Helvetica,sans-Serif" font-size="11.00" fill="#000000">iso2</text>
<polygon fill="#ffffff" stroke="transparent" points="13.5,-267.7 13.5,-289.7 141.5,-289.7 141.5,-267.7 13.5,-267.7"/>
<polygon fill="none" stroke="#000000" points="13.5,-267.7 13.5,-289.7 141.5,-289.7 141.5,-267.7 13.5,-267.7"/>
<text text-anchor="start" x="33.5" y="-274.8" font-family="Helvetica,sans-Serif" font-size="11.00" fill="#000000">iso3</text>
<polygon fill="#ffffff" stroke="transparent" points="13.5,-245.7 13.5,-267.7 141.5,-267.7 141.5,-245.7 13.5,-245.7"/>
<polygon fill="none" stroke="#000000" points="13.5,-245.7 13.5,-267.7 141.5,-267.7 141.5,-245.7 13.5,-245.7"/>
<text text-anchor="start" x="33.5" y="-252.8" font-family="Helvetica,sans-Serif" font-size="11.00" fill="#000000">call_sign</text>
<polygon fill="#ffffff" stroke="transparent" points="13.5,-223.7 13.5,-245.7 141.5,-245.7 141.5,-223.7 13.5,-223.7"/>
<polygon fill="none" stroke="#000000" points="13.5,-223.7 13.5,-245.7 141.5,-245.7 141.5,-223.7 13.5,-223.7"/>
<image xlink:href="../../images/foreignKeys.png" width="11px" height="12px" preserveAspectRatio="xMinYMin meet" x="18.5" y="-240.7"/>
<text text-anchor="start" x="33.5" y="-230.8" font-family="Helvetica,sans-Serif" font-size="11.00" fill="#000000">hub_airport_id</text>
<polygon fill="none" stroke="#000000" points="13.5,-204.7 13.5,-223.7 141.5,-223.7 141.5,-204.7 13.5,-204.7"/>
<text text-anchor="start" x="16.5" y="-210.8" font-family="Helvetica,sans-Serif" font-size="11.00" fill="#000000">...</text>
<polygon fill="#ffffff" stroke="transparent" points="13.5,-185.7 13.5,-204.7 71.5,-204.7 71.5,-185.7 13.5,-185.7"/>
<polygon fill="none" stroke="#000000" points="13.5,-185.7 13.5,-204.7 71.5,-204.7 71.5,-185.7 13.5,-185.7"/>
<text text-anchor="start" x="16.5" y="-191.8" font-family="Helvetica,sans-Serif" font-size="11.00" fill="#000000">&lt; 1</text>
<polygon fill="#ffffff" stroke="transparent" points="71.5,-185.7 71.5,-204.7 101.5,-204.7 101.5,-185.7 71.5,-185.7"/>
<polygon fill="none" stroke="#000000" points="71.5,-185.7 71.5,-204.7 101.5,-204.7 101.5,-185.7 71.5,-185.7"/>
<text text-anchor="start" x="92.3862" y="-191.8" font-family="Helvetica,sans-Serif" font-size="11.00" fill="#000000"> &#160;</text>
<polygon fill="#ffffff" stroke="transparent" points="101.5,-185.7 101.5,-204.7 141.5,-204.7 141.5,-185.7 101.5,-185.7"/>
<polygon fill="none" stroke="#000000" points="101.5,-185.7 101.5,-204.7 141.5,-204.7 141.5,-185.7 101.5,-185.7"/>
<text text-anchor="start" x="122.9053" y="-191.8" font-family="Helvetica,sans-Serif" font-size="11.00" fill="#000000">1 &gt;</text>
</a>
</g>
</g>
<!-- fleet_airplane&#45;&gt;fleet -->
<g id="edge2" class="edge">
<title>fleet_airplane:w&#45;&gt;fleet:e</title>
<path fill="none" stroke="#000000" d="M183.7362,-252.5822C157.4396,-270.5423 185.0126,-344.7 141.5,-344.7"/>
<polygon fill="#000000" stroke="#000000" points="190.2808,-250.801 198.9454,-252.1736 194.1404,-249.7505 198,-248.7 198,-248.7 198,-248.7 194.1404,-249.7505 197.0546,-245.2264 190.2808,-250.801 190.2808,-250.801"/>
<ellipse fill="none" stroke="#000000" cx="187.1931" cy="-251.6414" rx="3.2" ry="3.2"/>
</g>
<!-- fleet_route -->
<g id="node4" class="node">
<title>fleet_route</title>
<g id="a_node4"><a xlink:href="../../tables/fleet_route.html" xlink:title="fleet_route" target="_top">
<polygon fill="#ffffff" stroke="transparent" points="461,-156.2 461,-327.2 630,-327.2 630,-156.2 461,-156.2"/>
<polygon fill="#f5f5f5" stroke="transparent" points="461.5,-303.7 461.5,-326.7 630.5,-326.7 630.5,-303.7 461.5,-303.7"/>
<polygon fill="none" stroke="#000000" points="461.5,-303.7 461.5,-326.7 630.5,-326.7 630.5,-303.7 461.5,-303.7"/>
<text text-anchor="start" x="466.5" y="-312.3" font-family="Helvetica,sans-Serif" font-weight="bold" font-size="11.00" fill="#000000">fleet_route</text>
<text text-anchor="start" x="595.5437" y="-311.8" font-family="Helvetica,sans-Serif" font-size="11.00" fill="#000000">[table]</text>
<polygon fill="none" stroke="#000000" points="461.5,-281.7 461.5,-303.7 630.5,-303.7 630.5,-281.7 461.5,-281.7"/>
<image xlink:href="../../images/primaryKeys.png" width="11px" height="12px" preserveAspectRatio="xMinYMin meet" x="466.5" y="-298.7"/>
<text text-anchor="start" x="481.5" y="-288.8" font-family="Helvetica,sans-Serif" font-size="11.00" fill="#000000">id</text>
<polygon fill="none" stroke="#000000" points="461.5,-259.7 461.5,-281.7 630.5,-281.7 630.5,-259.7 461.5,-259.7"/>
<image xlink:href="../../images/foreignKeys.png" width="11px" height="12px" preserveAspectRatio="xMinYMin meet" x="466.5" y="-276.7"/>
<text text-anchor="start" x="481.5" y="-266.8" font-family="Helvetica,sans-Serif" font-size="11.00" fill="#000000">fleet_airplane_id</text>
<polygon fill="#ffffff" stroke="transparent" points="461.5,-237.7 461.5,-259.7 630.5,-259.7 630.5,-237.7 461.5,-237.7"/>
<polygon fill="none" stroke="#000000" points="461.5,-237.7 461.5,-259.7 630.5,-259.7 630.5,-237.7 461.5,-237.7"/>
<text text-anchor="start" x="481.5" y="-244.8" font-family="Helvetica,sans-Serif" font-size="11.00" fill="#000000">route_number</text>
<polygon fill="#ffffff" stroke="transparent" points="461.5,-215.7 461.5,-237.7 630.5,-237.7 630.5,-215.7 461.5,-215.7"/>
<polygon fill="none" stroke="#000000" points="461.5,-215.7 461.5,-237.7 630.5,-237.7 630.5,-215.7 461.5,-215.7"/>
<image xlink:href="../../images/foreignKeys.png" width="11px" height="12px" preserveAspectRatio="xMinYMin meet" x="466.5" y="-232.7"/>
<text text-anchor="start" x="481.5" y="-222.8" font-family="Helvetica,sans-Serif" font-size="11.00" fill="#000000">start_airport_id</text>
<polygon fill="#ffffff" stroke="transparent" points="461.5,-193.7 461.5,-215.7 630.5,-215.7 630.5,-193.7 461.5,-193.7"/>
<polygon fill="none" stroke="#000000" points="461.5,-193.7 461.5,-215.7 630.5,-215.7 630.5,-193.7 461.5,-193.7"/>
<image xlink:href="../../images/foreignKeys.png" width="11px" height="12px" preserveAspectRatio="xMinYMin meet" x="466.5" y="-210.7"/>
<text text-anchor="start" x="481.5" y="-200.8" font-family="Helvetica,sans-Serif" font-size="11.00" fill="#000000">destination_airport_id</text>
<polygon fill="none" stroke="#000000" points="461.5,-174.7 461.5,-193.7 630.5,-193.7 630.5,-174.7 461.5,-174.7"/>
<text text-anchor="start" x="464.5" y="-180.8" font-family="Helvetica,sans-Serif" font-size="11.00" fill="#000000">...</text>
<polygon fill="#ffffff" stroke="transparent" points="461.5,-155.7 461.5,-174.7 544.5,-174.7 544.5,-155.7 461.5,-155.7"/>
<polygon fill="none" stroke="#000000" points="461.5,-155.7 461.5,-174.7 544.5,-174.7 544.5,-155.7 461.5,-155.7"/>
<text text-anchor="start" x="464.5" y="-161.8" font-family="Helvetica,sans-Serif" font-size="11.00" fill="#000000">&lt; 3</text>
<polygon fill="#ffffff" stroke="transparent" points="544.5,-155.7 544.5,-174.7 587.5,-174.7 587.5,-155.7 544.5,-155.7"/>
<polygon fill="none" stroke="#000000" points="544.5,-155.7 544.5,-174.7 587.5,-174.7 587.5,-155.7 544.5,-155.7"/>
<text text-anchor="start" x="578.3862" y="-161.8" font-family="Helvetica,sans-Serif" font-size="11.00" fill="#000000"> &#160;</text>
<polygon fill="#ffffff" stroke="transparent" points="587.5,-155.7 587.5,-174.7 630.5,-174.7 630.5,-155.7 587.5,-155.7"/>
<polygon fill="none" stroke="#000000" points="587.5,-155.7 587.5,-174.7 630.5,-174.7 630.5,-155.7 587.5,-155.7"/>
<text text-anchor="start" x="621.3862" y="-161.8" font-family="Helvetica,sans-Serif" font-size="11.00" fill="#000000"> &#160;</text>
</a>
</g>
</g>
<!-- fleet_route&#45;&gt;fleet_airplane -->
<g id="edge3" class="edge">
<title>fleet_route:w&#45;&gt;fleet_airplane:e</title>
<path fill="none" stroke="#000000" d="M447.0156,-270.7C434.6771,-270.7 427.1667,-270.7 410,-270.7"/>
<polygon fill="#000000" stroke="#000000" points="453.5,-270.7001 461.5,-274.3 457.5,-270.7 461.5,-270.7 461.5,-270.7 461.5,-270.7 457.5,-270.7 461.5,-267.1 453.5,-270.7001 453.5,-270.7001"/>
<ellipse fill="none" stroke="#000000" cx="450.3" cy="-270.7001" rx="3.2" ry="3.2"/>
</g>
</g>
</svg>
