<?xml version="1.0" encoding="UTF-8" standalone="no"?>
<!DOCTYPE svg PUBLIC "-//W3C//DTD SVG 1.1//EN"
 "http://www.w3.org/Graphics/SVG/1.1/DTD/svg11.dtd">
<!-- Generated by graphviz version 2.40.1 (20161225.0304)
 -->
<!-- Title: oneDegreeRelationshipsDiagram Pages: 1 -->
<svg width="657pt" height="353pt"
 viewBox="0.00 0.00 657.00 353.20" xmlns="http://www.w3.org/2000/svg" xmlns:xlink="http://www.w3.org/1999/xlink">
<g id="graph0" class="graph" transform="scale(1 1) rotate(0) translate(4 349.2)">
<title>oneDegreeRelationshipsDiagram</title>
<polygon fill="#ffffff" stroke="transparent" points="-4,4 -4,-349.2 653,-349.2 653,4 -4,4"/>
<text text-anchor="middle" x="72.4936" y="-7.3" font-family="Helvetica,sans-Serif" font-size="11.00" fill="#000000">Generated by SchemaSpy</text>
<!-- fleet -->
<g id="node1" class="node">
<title>fleet</title>
<g id="a_node1"><a xlink:href="../../tables/fleet.html" xlink:title="fleet" target="_top">
<polygon fill="#ffffff" stroke="transparent" points="220,-98.7 220,-320.7 461,-320.7 461,-98.7 220,-98.7"/>
<polygon fill="#f5f5f5" stroke="transparent" points="222.5,-295.7 222.5,-318.7 459.5,-318.7 459.5,-295.7 222.5,-295.7"/>
<polygon fill="none" stroke="#000000" points="222.5,-295.7 222.5,-318.7 459.5,-318.7 459.5,-295.7 222.5,-295.7"/>
<text text-anchor="start" x="227.5" y="-304.3" font-family="Helvetica,sans-Serif" font-weight="bold" font-size="11.00" fill="#000000">fleet</text>
<text text-anchor="start" x="424.5437" y="-303.8" font-family="Helvetica,sans-Serif" font-size="11.00" fill="#000000">[table]</text>
<polygon fill="none" stroke="#000000" points="222.5,-273.7 222.5,-295.7 350.5,-295.7 350.5,-273.7 222.5,-273.7"/>
<image xlink:href="../../images/primaryKeys.png" width="11px" height="12px" preserveAspectRatio="xMinYMin meet" x="227.5" y="-290.7"/>
<text text-anchor="start" x="242.5" y="-280.8" font-family="Helvetica,sans-Serif" font-size="11.00" fill="#000000">id</text>
<polygon fill="none" stroke="#000000" points="350.5,-273.7 350.5,-295.7 459.5,-295.7 459.5,-273.7 350.5,-273.7"/>
<text text-anchor="start" x="353.5" y="-281.4" font-family="Helvetica,sans-Serif" font-size="11.00" fill="#000000">serial[10]</text>
<polygon fill="#ffffff" stroke="transparent" points="222.5,-251.7 222.5,-273.7 350.5,-273.7 350.5,-251.7 222.5,-251.7"/>
<polygon fill="none" stroke="#000000" points="222.5,-251.7 222.5,-273.7 350.5,-273.7 350.5,-251.7 222.5,-251.7"/>
<text text-anchor="start" x="242.5" y="-258.8" font-family="Helvetica,sans-Serif" font-size="11.00" fill="#000000">name</text>
<polygon fill="none" stroke="#000000" points="350.5,-251.7 350.5,-273.7 459.5,-273.7 459.5,-251.7 350.5,-251.7"/>
<text text-anchor="start" x="353.0344" y="-259.4" font-family="Helvetica,sans-Serif" font-size="11.00" fill="#000000">varchar[2147483647]</text>
<polygon fill="#ffffff" stroke="transparent" points="222.5,-229.7 222.5,-251.7 350.5,-251.7 350.5,-229.7 222.5,-229.7"/>
<polygon fill="none" stroke="#000000" points="222.5,-229.7 222.5,-251.7 350.5,-251.7 350.5,-229.7 222.5,-229.7"/>
<text text-anchor="start" x="242.5" y="-236.8" font-family="Helvetica,sans-Serif" font-size="11.00" fill="#000000">iso2</text>
<polygon fill="none" stroke="#000000" points="350.5,-229.7 350.5,-251.7 459.5,-251.7 459.5,-229.7 350.5,-229.7"/>
<text text-anchor="start" x="353.5" y="-237.4" font-family="Helvetica,sans-Serif" font-size="11.00" fill="#000000">varchar[2]</text>
<polygon fill="#ffffff" stroke="transparent" points="222.5,-207.7 222.5,-229.7 350.5,-229.7 350.5,-207.7 222.5,-207.7"/>
<polygon fill="none" stroke="#000000" points="222.5,-207.7 222.5,-229.7 350.5,-229.7 350.5,-207.7 222.5,-207.7"/>
<text text-anchor="start" x="242.5" y="-214.8" font-family="Helvetica,sans-Serif" font-size="11.00" fill="#000000">iso3</text>
<polygon fill="none" stroke="#000000" points="350.5,-207.7 350.5,-229.7 459.5,-229.7 459.5,-207.7 350.5,-207.7"/>
<text text-anchor="start" x="353.5" y="-215.4" font-family="Helvetica,sans-Serif" font-size="11.00" fill="#000000">varchar[3]</text>
<polygon fill="#ffffff" stroke="transparent" points="222.5,-185.7 222.5,-207.7 350.5,-207.7 350.5,-185.7 222.5,-185.7"/>
<polygon fill="none" stroke="#000000" points="222.5,-185.7 222.5,-207.7 350.5,-207.7 350.5,-185.7 222.5,-185.7"/>
<text text-anchor="start" x="242.5" y="-192.8" font-family="Helvetica,sans-Serif" font-size="11.00" fill="#000000">call_sign</text>
<polygon fill="none" stroke="#000000" points="350.5,-185.7 350.5,-207.7 459.5,-207.7 459.5,-185.7 350.5,-185.7"/>
<text text-anchor="start" x="353.0344" y="-193.4" font-family="Helvetica,sans-Serif" font-size="11.00" fill="#000000">varchar[2147483647]</text>
<polygon fill="#ffffff" stroke="transparent" points="222.5,-163.7 222.5,-185.7 350.5,-185.7 350.5,-163.7 222.5,-163.7"/>
<polygon fill="none" stroke="#000000" points="222.5,-163.7 222.5,-185.7 350.5,-185.7 350.5,-163.7 222.5,-163.7"/>
<image xlink:href="../../images/foreignKeys.png" width="11px" height="12px" preserveAspectRatio="xMinYMin meet" x="227.5" y="-180.7"/>
<text text-anchor="start" x="242.5" y="-170.8" font-family="Helvetica,sans-Serif" font-size="11.00" fill="#000000">hub_airport_id</text>
<polygon fill="none" stroke="#000000" points="350.5,-163.7 350.5,-185.7 459.5,-185.7 459.5,-163.7 350.5,-163.7"/>
<text text-anchor="start" x="353.5" y="-171.4" font-family="Helvetica,sans-Serif" font-size="11.00" fill="#000000">int4[10]</text>
<polygon fill="none" stroke="#000000" points="222.5,-141.7 222.5,-163.7 350.5,-163.7 350.5,-141.7 222.5,-141.7"/>
<text text-anchor="start" x="242.5" y="-148.8" font-family="Helvetica,sans-Serif" font-size="11.00" fill="#000000">created_at</text>
<polygon fill="none" stroke="#000000" points="350.5,-141.7 350.5,-163.7 459.5,-163.7 459.5,-141.7 350.5,-141.7"/>
<text text-anchor="start" x="353.5" y="-149.4" font-family="Helvetica,sans-Serif" font-size="11.00" fill="#000000">timestamp[29,6]</text>
<polygon fill="none" stroke="#000000" points="222.5,-119.7 222.5,-141.7 350.5,-141.7 350.5,-119.7 222.5,-119.7"/>
<text text-anchor="start" x="242.5" y="-126.8" font-family="Helvetica,sans-Serif" font-size="11.00" fill="#000000">last_updated_at</text>
<polygon fill="none" stroke="#000000" points="350.5,-119.7 350.5,-141.7 459.5,-141.7 459.5,-119.7 350.5,-119.7"/>
<text text-anchor="start" x="353.5" y="-127.4" font-family="Helvetica,sans-Serif" font-size="11.00" fill="#000000">timestamp[29,6]</text>
<polygon fill="#ffffff" stroke="transparent" points="222.5,-100.7 222.5,-119.7 290.5,-119.7 290.5,-100.7 222.5,-100.7"/>
<polygon fill="none" stroke="#000000" points="222.5,-100.7 222.5,-119.7 290.5,-119.7 290.5,-100.7 222.5,-100.7"/>
<text text-anchor="start" x="225.5" y="-106.8" font-family="Helvetica,sans-Serif" font-size="11.00" fill="#000000">&lt; 1</text>
<polygon fill="#ffffff" stroke="transparent" points="290.5,-100.7 290.5,-119.7 350.5,-119.7 350.5,-100.7 290.5,-100.7"/>
<polygon fill="none" stroke="#000000" points="290.5,-100.7 290.5,-119.7 350.5,-119.7 350.5,-100.7 290.5,-100.7"/>
<text text-anchor="start" x="341.3862" y="-106.8" font-family="Helvetica,sans-Serif" font-size="11.00" fill="#000000"> &#160;</text>
<polygon fill="#ffffff" stroke="transparent" points="350.5,-100.7 350.5,-119.7 459.5,-119.7 459.5,-100.7 350.5,-100.7"/>
<polygon fill="none" stroke="#000000" points="350.5,-100.7 350.5,-119.7 459.5,-119.7 459.5,-100.7 350.5,-100.7"/>
<text text-anchor="start" x="440.9053" y="-106.8" font-family="Helvetica,sans-Serif" font-size="11.00" fill="#000000">1 &gt;</text>
<polygon fill="none" stroke="#000000" stroke-width="2" points="221,-99.7 221,-319.7 460,-319.7 460,-99.7 221,-99.7"/>
</a>
</g>
</g>
<!-- airport -->
<g id="node2" class="node">
<title>airport</title>
<g id="a_node2"><a xlink:href="../../tables/airport.html" xlink:title="airport" target="_top">
<polygon fill="#ffffff" stroke="transparent" points="8,-38.2 8,-209.2 171,-209.2 171,-38.2 8,-38.2"/>
<polygon fill="#f5f5f5" stroke="transparent" points="8.5,-185.7 8.5,-208.7 171.5,-208.7 171.5,-185.7 8.5,-185.7"/>
<polygon fill="none" stroke="#000000" points="8.5,-185.7 8.5,-208.7 171.5,-208.7 171.5,-185.7 8.5,-185.7"/>
<text text-anchor="start" x="13.5" y="-194.3" font-family="Helvetica,sans-Serif" font-weight="bold" font-size="11.00" fill="#000000">airport</text>
<text text-anchor="start" x="136.5437" y="-193.8" font-family="Helvetica,sans-Serif" font-size="11.00" fill="#000000">[table]</text>
<polygon fill="none" stroke="#000000" points="8.5,-163.7 8.5,-185.7 171.5,-185.7 171.5,-163.7 8.5,-163.7"/>
<image xlink:href="../../images/primaryKeys.png" width="11px" height="12px" preserveAspectRatio="xMinYMin meet" x="13.5" y="-180.7"/>
<text text-anchor="start" x="28.5" y="-170.8" font-family="Helvetica,sans-Serif" font-size="11.00" fill="#000000">id</text>
<polygon fill="#ffffff" stroke="transparent" points="8.5,-141.7 8.5,-163.7 171.5,-163.7 171.5,-141.7 8.5,-141.7"/>
<polygon fill="none" stroke="#000000" points="8.5,-141.7 8.5,-163.7 171.5,-163.7 171.5,-141.7 8.5,-141.7"/>
<text text-anchor="start" x="28.5" y="-148.8" font-family="Helvetica,sans-Serif" font-size="11.00" fill="#000000">name</text>
<polygon fill="#ffffff" stroke="transparent" points="8.5,-119.7 8.5,-141.7 171.5,-141.7 171.5,-119.7 8.5,-119.7"/>
<polygon fill="none" stroke="#000000" points="8.5,-119.7 8.5,-141.7 171.5,-141.7 171.5,-119.7 8.5,-119.7"/>
<text text-anchor="start" x="28.5" y="-126.8" font-family="Helvetica,sans-Serif" font-size="11.00" fill="#000000">icao</text>
<polygon fill="#ffffff" stroke="transparent" points="8.5,-97.7 8.5,-119.7 171.5,-119.7 171.5,-97.7 8.5,-97.7"/>
<polygon fill="none" stroke="#000000" points="8.5,-97.7 8.5,-119.7 171.5,-119.7 171.5,-97.7 8.5,-97.7"/>
<text text-anchor="start" x="28.5" y="-104.8" font-family="Helvetica,sans-Serif" font-size="11.00" fill="#000000">iata</text>
<polygon fill="#ffffff" stroke="transparent" points="8.5,-75.7 8.5,-97.7 171.5,-97.7 171.5,-75.7 8.5,-75.7"/>
<polygon fill="none" stroke="#000000" points="8.5,-75.7 8.5,-97.7 171.5,-97.7 171.5,-75.7 8.5,-75.7"/>
<image xlink:href="../../images/foreignKeys.png" width="11px" height="12px" preserveAspectRatio="xMinYMin meet" x="13.5" y="-92.7"/>
<text text-anchor="start" x="28.5" y="-82.8" font-family="Helvetica,sans-Serif" font-size="11.00" fill="#000000">city_id</text>
<polygon fill="none" stroke="#000000" points="8.5,-56.7 8.5,-75.7 171.5,-75.7 171.5,-56.7 8.5,-56.7"/>
<text text-anchor="start" x="11.5" y="-62.8" font-family="Helvetica,sans-Serif" font-size="11.00" fill="#000000">...</text>
<polygon fill="#ffffff" stroke="transparent" points="8.5,-37.7 8.5,-56.7 83.5,-56.7 83.5,-37.7 8.5,-37.7"/>
<polygon fill="none" stroke="#000000" points="8.5,-37.7 8.5,-56.7 83.5,-56.7 83.5,-37.7 8.5,-37.7"/>
<text text-anchor="start" x="11.5" y="-43.8" font-family="Helvetica,sans-Serif" font-size="11.00" fill="#000000">&lt; 1</text>
<polygon fill="#ffffff" stroke="transparent" points="83.5,-37.7 83.5,-56.7 122.5,-56.7 122.5,-37.7 83.5,-37.7"/>
<polygon fill="none" stroke="#000000" points="83.5,-37.7 83.5,-56.7 122.5,-56.7 122.5,-37.7 83.5,-37.7"/>
<text text-anchor="start" x="113.3862" y="-43.8" font-family="Helvetica,sans-Serif" font-size="11.00" fill="#000000"> &#160;</text>
<polygon fill="#ffffff" stroke="transparent" points="122.5,-37.7 122.5,-56.7 171.5,-56.7 171.5,-37.7 122.5,-37.7"/>
<polygon fill="none" stroke="#000000" points="122.5,-37.7 122.5,-56.7 171.5,-56.7 171.5,-37.7 122.5,-37.7"/>
<text text-anchor="start" x="152.9053" y="-43.8" font-family="Helvetica,sans-Serif" font-size="11.00" fill="#000000">3 &gt;</text>
</a>
</g>
</g>
<!-- fleet&#45;&gt;airport -->
<g id="edge1" class="edge">
<title>fleet:w&#45;&gt;airport:e</title>
<path fill="none" stroke="#000000" d="M207.776,-174.7C195.7815,-174.7 188.3229,-174.7 171.5,-174.7"/>
<polygon fill="#000000" stroke="#000000" points="214.5,-174.7001 222.5,-178.3 218.5,-174.7 222.5,-174.7 222.5,-174.7 222.5,-174.7 218.5,-174.7 222.5,-171.1 214.5,-174.7001 214.5,-174.7001"/>
<ellipse fill="none" stroke="#000000" cx="211.3" cy="-174.7001" rx="3.2" ry="3.2"/>
</g>
<!-- fleet_airplane -->
<g id="node3" class="node">
<title>fleet_airplane</title>
<g id="a_node3"><a xlink:href="../../tables/fleet_airplane.html" xlink:title="fleet_airplane" target="_top">
<polygon fill="#ffffff" stroke="transparent" points="510,-214.2 510,-341.2 641,-341.2 641,-214.2 510,-214.2"/>
<polygon fill="#f5f5f5" stroke="transparent" points="510.5,-317.7 510.5,-340.7 641.5,-340.7 641.5,-317.7 510.5,-317.7"/>
<polygon fill="none" stroke="#000000" points="510.5,-317.7 510.5,-340.7 641.5,-340.7 641.5,-317.7 510.5,-317.7"/>
<text text-anchor="start" x="515.5" y="-326.3" font-family="Helvetica,sans-Serif" font-weight="bold" font-size="11.00" fill="#000000">fleet_airplane</text>
<text text-anchor="start" x="607.0219" y="-325.8" font-family="Helvetica,sans-Serif" font-size="11.00" fill="#000000">[table]</text>
<polygon fill="none" stroke="#000000" points="510.5,-295.7 510.5,-317.7 641.5,-317.7 641.5,-295.7 510.5,-295.7"/>
<image xlink:href="../../images/primaryKeys.png" width="11px" height="12px" preserveAspectRatio="xMinYMin meet" x="515.5" y="-312.7"/>
<text text-anchor="start" x="532.5" y="-302.8" font-family="Helvetica,sans-Serif" font-size="11.00" fill="#000000">id</text>
<polygon fill="#ffffff" stroke="transparent" points="510.5,-273.7 510.5,-295.7 641.5,-295.7 641.5,-273.7 510.5,-273.7"/>
<polygon fill="none" stroke="#000000" points="510.5,-273.7 510.5,-295.7 641.5,-295.7 641.5,-273.7 510.5,-273.7"/>
<image xlink:href="../../images/foreignKeys.png" width="11px" height="12px" preserveAspectRatio="xMinYMin meet" x="515.5" y="-290.7"/>
<text text-anchor="start" x="532.5" y="-280.8" font-family="Helvetica,sans-Serif" font-size="11.00" fill="#000000">fleet_id</text>
<polygon fill="#ffffff" stroke="transparent" points="510.5,-251.7 510.5,-273.7 641.5,-273.7 641.5,-251.7 510.5,-251.7"/>
<polygon fill="none" stroke="#000000" points="510.5,-251.7 510.5,-273.7 641.5,-273.7 641.5,-251.7 510.5,-251.7"/>
<image xlink:href="../../images/foreignKeys.png" width="11px" height="12px" preserveAspectRatio="xMinYMin meet" x="515.5" y="-268.7"/>
<text text-anchor="start" x="532.5" y="-258.8" font-family="Helvetica,sans-Serif" font-size="11.00" fill="#000000">airplane_id</text>
<polygon fill="none" stroke="#000000" points="510.5,-232.7 510.5,-251.7 641.5,-251.7 641.5,-232.7 510.5,-232.7"/>
<text text-anchor="start" x="513.5" y="-238.8" font-family="Helvetica,sans-Serif" font-size="11.00" fill="#000000">...</text>
<polygon fill="#ffffff" stroke="transparent" points="510.5,-213.7 510.5,-232.7 569.5,-232.7 569.5,-213.7 510.5,-213.7"/>
<polygon fill="none" stroke="#000000" points="510.5,-213.7 510.5,-232.7 569.5,-232.7 569.5,-213.7 510.5,-213.7"/>
<text text-anchor="start" x="513.5" y="-219.8" font-family="Helvetica,sans-Serif" font-size="11.00" fill="#000000">&lt; 2</text>
<polygon fill="#ffffff" stroke="transparent" points="569.5,-213.7 569.5,-232.7 600.5,-232.7 600.5,-213.7 569.5,-213.7"/>
<polygon fill="none" stroke="#000000" points="569.5,-213.7 569.5,-232.7 600.5,-232.7 600.5,-213.7 569.5,-213.7"/>
<text text-anchor="start" x="591.3862" y="-219.8" font-family="Helvetica,sans-Serif" font-size="11.00" fill="#000000"> &#160;</text>
<polygon fill="#ffffff" stroke="transparent" points="600.5,-213.7 600.5,-232.7 641.5,-232.7 641.5,-213.7 600.5,-213.7"/>
<polygon fill="none" stroke="#000000" points="600.5,-213.7 600.5,-232.7 641.5,-232.7 641.5,-213.7 600.5,-213.7"/>
<text text-anchor="start" x="622.9053" y="-219.8" font-family="Helvetica,sans-Serif" font-size="11.00" fill="#000000">1 &gt;</text>
</a>
</g>
</g>
<!-- fleet_airplane&#45;&gt;fleet -->
<g id="edge2" class="edge">
<title>fleet_airplane:w&#45;&gt;fleet:e</title>
<path fill="none" stroke="#000000" d="M495.776,-284.7C483.7815,-284.7 476.3229,-284.7 459.5,-284.7"/>
<polygon fill="#000000" stroke="#000000" points="502.5,-284.7001 510.5,-288.3 506.5,-284.7 510.5,-284.7 510.5,-284.7 510.5,-284.7 506.5,-284.7 510.5,-281.1 502.5,-284.7001 502.5,-284.7001"/>
<ellipse fill="none" stroke="#000000" cx="499.3" cy="-284.7001" rx="3.2" ry="3.2"/>
</g>
</g>
</svg>
