<?xml version="1.0" encoding="UTF-8" standalone="no"?>
<!DOCTYPE svg PUBLIC "-//W3C//DTD SVG 1.1//EN"
 "http://www.w3.org/Graphics/SVG/1.1/DTD/svg11.dtd">
<!-- Generated by graphviz version 2.40.1 (20161225.0304)
 -->
<!-- Title: twoDegreesRelationshipsDiagram Pages: 1 -->
<svg width="928pt" height="354pt"
 viewBox="0.00 0.00 928.00 354.20" xmlns="http://www.w3.org/2000/svg" xmlns:xlink="http://www.w3.org/1999/xlink">
<g id="graph0" class="graph" transform="scale(1 1) rotate(0) translate(4 350.2)">
<title>twoDegreesRelationshipsDiagram</title>
<polygon fill="#ffffff" stroke="transparent" points="-4,4 -4,-350.2 924,-350.2 924,4 -4,4"/>
<text text-anchor="middle" x="72.4936" y="-7.3" font-family="Helvetica,sans-Serif" font-size="11.00" fill="#000000">Generated by SchemaSpy</text>
<!-- airport -->
<g id="node1" class="node">
<title>airport</title>
<g id="a_node1"><a xlink:href="../../tables/airport.html" xlink:title="airport" target="_top">
<polygon fill="#ffffff" stroke="transparent" points="120,-38.2 120,-209.2 283,-209.2 283,-38.2 120,-38.2"/>
<polygon fill="#f5f5f5" stroke="transparent" points="120.5,-185.7 120.5,-208.7 283.5,-208.7 283.5,-185.7 120.5,-185.7"/>
<polygon fill="none" stroke="#000000" points="120.5,-185.7 120.5,-208.7 283.5,-208.7 283.5,-185.7 120.5,-185.7"/>
<text text-anchor="start" x="125.5" y="-194.3" font-family="Helvetica,sans-Serif" font-weight="bold" font-size="11.00" fill="#000000">airport</text>
<text text-anchor="start" x="248.5437" y="-193.8" font-family="Helvetica,sans-Serif" font-size="11.00" fill="#000000">[table]</text>
<polygon fill="none" stroke="#000000" points="120.5,-163.7 120.5,-185.7 283.5,-185.7 283.5,-163.7 120.5,-163.7"/>
<image xlink:href="../../images/primaryKeys.png" width="11px" height="12px" preserveAspectRatio="xMinYMin meet" x="125.5" y="-180.7"/>
<text text-anchor="start" x="140.5" y="-170.8" font-family="Helvetica,sans-Serif" font-size="11.00" fill="#000000">id</text>
<polygon fill="#ffffff" stroke="transparent" points="120.5,-141.7 120.5,-163.7 283.5,-163.7 283.5,-141.7 120.5,-141.7"/>
<polygon fill="none" stroke="#000000" points="120.5,-141.7 120.5,-163.7 283.5,-163.7 283.5,-141.7 120.5,-141.7"/>
<text text-anchor="start" x="140.5" y="-148.8" font-family="Helvetica,sans-Serif" font-size="11.00" fill="#000000">name</text>
<polygon fill="#ffffff" stroke="transparent" points="120.5,-119.7 120.5,-141.7 283.5,-141.7 283.5,-119.7 120.5,-119.7"/>
<polygon fill="none" stroke="#000000" points="120.5,-119.7 120.5,-141.7 283.5,-141.7 283.5,-119.7 120.5,-119.7"/>
<text text-anchor="start" x="140.5" y="-126.8" font-family="Helvetica,sans-Serif" font-size="11.00" fill="#000000">icao</text>
<polygon fill="#ffffff" stroke="transparent" points="120.5,-97.7 120.5,-119.7 283.5,-119.7 283.5,-97.7 120.5,-97.7"/>
<polygon fill="none" stroke="#000000" points="120.5,-97.7 120.5,-119.7 283.5,-119.7 283.5,-97.7 120.5,-97.7"/>
<text text-anchor="start" x="140.5" y="-104.8" font-family="Helvetica,sans-Serif" font-size="11.00" fill="#000000">iata</text>
<polygon fill="#ffffff" stroke="transparent" points="120.5,-75.7 120.5,-97.7 283.5,-97.7 283.5,-75.7 120.5,-75.7"/>
<polygon fill="none" stroke="#000000" points="120.5,-75.7 120.5,-97.7 283.5,-97.7 283.5,-75.7 120.5,-75.7"/>
<image xlink:href="../../images/foreignKeys.png" width="11px" height="12px" preserveAspectRatio="xMinYMin meet" x="125.5" y="-92.7"/>
<text text-anchor="start" x="140.5" y="-82.8" font-family="Helvetica,sans-Serif" font-size="11.00" fill="#000000">city_id</text>
<polygon fill="none" stroke="#000000" points="120.5,-56.7 120.5,-75.7 283.5,-75.7 283.5,-56.7 120.5,-56.7"/>
<text text-anchor="start" x="123.5" y="-62.8" font-family="Helvetica,sans-Serif" font-size="11.00" fill="#000000">...</text>
<polygon fill="#ffffff" stroke="transparent" points="120.5,-37.7 120.5,-56.7 195.5,-56.7 195.5,-37.7 120.5,-37.7"/>
<polygon fill="none" stroke="#000000" points="120.5,-37.7 120.5,-56.7 195.5,-56.7 195.5,-37.7 120.5,-37.7"/>
<text text-anchor="start" x="123.5" y="-43.8" font-family="Helvetica,sans-Serif" font-size="11.00" fill="#000000">&lt; 1</text>
<polygon fill="#ffffff" stroke="transparent" points="195.5,-37.7 195.5,-56.7 234.5,-56.7 234.5,-37.7 195.5,-37.7"/>
<polygon fill="none" stroke="#000000" points="195.5,-37.7 195.5,-56.7 234.5,-56.7 234.5,-37.7 195.5,-37.7"/>
<text text-anchor="start" x="225.3862" y="-43.8" font-family="Helvetica,sans-Serif" font-size="11.00" fill="#000000"> &#160;</text>
<polygon fill="#ffffff" stroke="transparent" points="234.5,-37.7 234.5,-56.7 283.5,-56.7 283.5,-37.7 234.5,-37.7"/>
<polygon fill="none" stroke="#000000" points="234.5,-37.7 234.5,-56.7 283.5,-56.7 283.5,-37.7 234.5,-37.7"/>
<text text-anchor="start" x="264.9053" y="-43.8" font-family="Helvetica,sans-Serif" font-size="11.00" fill="#000000">3 &gt;</text>
</a>
</g>
</g>
<!-- city -->
<g id="node2" class="node">
<title>city</title>
<g id="a_node2"><a xlink:href="../../tables/city.html" xlink:title="city" target="_top">
<polygon fill="#ffffff" stroke="transparent" points="8,-59.2 8,-120.2 71,-120.2 71,-59.2 8,-59.2"/>
<polygon fill="#f5f5f5" stroke="transparent" points="8.5,-96.7 8.5,-119.7 71.5,-119.7 71.5,-96.7 8.5,-96.7"/>
<polygon fill="none" stroke="#000000" points="8.5,-96.7 8.5,-119.7 71.5,-119.7 71.5,-96.7 8.5,-96.7"/>
<text text-anchor="start" x="13.5" y="-105.3" font-family="Helvetica,sans-Serif" font-weight="bold" font-size="11.00" fill="#000000">city</text>
<text text-anchor="start" x="37.0219" y="-104.8" font-family="Helvetica,sans-Serif" font-size="11.00" fill="#000000">[table]</text>
<polygon fill="none" stroke="#000000" points="8.5,-77.7 8.5,-96.7 71.5,-96.7 71.5,-77.7 8.5,-77.7"/>
<text text-anchor="start" x="11.5" y="-83.8" font-family="Helvetica,sans-Serif" font-size="11.00" fill="#000000">...</text>
<polygon fill="#ffffff" stroke="transparent" points="8.5,-58.7 8.5,-77.7 33.5,-77.7 33.5,-58.7 8.5,-58.7"/>
<polygon fill="none" stroke="#000000" points="8.5,-58.7 8.5,-77.7 33.5,-77.7 33.5,-58.7 8.5,-58.7"/>
<text text-anchor="start" x="11.5" y="-64.8" font-family="Helvetica,sans-Serif" font-size="11.00" fill="#000000">&lt; 1</text>
<polygon fill="#ffffff" stroke="transparent" points="33.5,-58.7 33.5,-77.7 47.5,-77.7 47.5,-58.7 33.5,-58.7"/>
<polygon fill="none" stroke="#000000" points="33.5,-58.7 33.5,-77.7 47.5,-77.7 47.5,-58.7 33.5,-58.7"/>
<text text-anchor="start" x="38.3862" y="-64.8" font-family="Helvetica,sans-Serif" font-size="11.00" fill="#000000"> &#160;</text>
<polygon fill="#ffffff" stroke="transparent" points="47.5,-58.7 47.5,-77.7 71.5,-77.7 71.5,-58.7 47.5,-58.7"/>
<polygon fill="none" stroke="#000000" points="47.5,-58.7 47.5,-77.7 71.5,-77.7 71.5,-58.7 47.5,-58.7"/>
<text text-anchor="start" x="52.9053" y="-64.8" font-family="Helvetica,sans-Serif" font-size="11.00" fill="#000000">2 &gt;</text>
</a>
</g>
</g>
<!-- airport&#45;&gt;city -->
<g id="edge1" class="edge">
<title>airport:w&#45;&gt;city:e</title>
<path fill="none" stroke="#000000" d="M105.9909,-86.7C94.6774,-86.7 87.4931,-86.7 71.5,-86.7"/>
<polygon fill="#000000" stroke="#000000" points="112.5,-86.7001 120.5,-90.3 116.5,-86.7 120.5,-86.7 120.5,-86.7 120.5,-86.7 116.5,-86.7 120.5,-83.1 112.5,-86.7001 112.5,-86.7001"/>
<ellipse fill="none" stroke="#000000" cx="109.3" cy="-86.7001" rx="3.2" ry="3.2"/>
</g>
<!-- fleet -->
<g id="node3" class="node">
<title>fleet</title>
<g id="a_node3"><a xlink:href="../../tables/fleet.html" xlink:title="fleet" target="_top">
<polygon fill="#ffffff" stroke="transparent" points="344,-281.2 344,-342.2 414,-342.2 414,-281.2 344,-281.2"/>
<polygon fill="#f5f5f5" stroke="transparent" points="344,-318.7 344,-341.7 414,-341.7 414,-318.7 344,-318.7"/>
<polygon fill="none" stroke="#000000" points="344,-318.7 344,-341.7 414,-341.7 414,-318.7 344,-318.7"/>
<text text-anchor="start" x="349" y="-327.3" font-family="Helvetica,sans-Serif" font-weight="bold" font-size="11.00" fill="#000000">fleet</text>
<text text-anchor="start" x="379.5219" y="-326.8" font-family="Helvetica,sans-Serif" font-size="11.00" fill="#000000">[table]</text>
<polygon fill="none" stroke="#000000" points="344,-299.7 344,-318.7 414,-318.7 414,-299.7 344,-299.7"/>
<text text-anchor="start" x="347" y="-305.8" font-family="Helvetica,sans-Serif" font-size="11.00" fill="#000000">...</text>
<polygon fill="#ffffff" stroke="transparent" points="344,-280.7 344,-299.7 373,-299.7 373,-280.7 344,-280.7"/>
<polygon fill="none" stroke="#000000" points="344,-280.7 344,-299.7 373,-299.7 373,-280.7 344,-280.7"/>
<text text-anchor="start" x="347" y="-286.8" font-family="Helvetica,sans-Serif" font-size="11.00" fill="#000000">&lt; 1</text>
<polygon fill="#ffffff" stroke="transparent" points="373,-280.7 373,-299.7 389,-299.7 389,-280.7 373,-280.7"/>
<polygon fill="none" stroke="#000000" points="373,-280.7 373,-299.7 389,-299.7 389,-280.7 373,-280.7"/>
<text text-anchor="start" x="379.8862" y="-286.8" font-family="Helvetica,sans-Serif" font-size="11.00" fill="#000000"> &#160;</text>
<polygon fill="#ffffff" stroke="transparent" points="389,-280.7 389,-299.7 414,-299.7 414,-280.7 389,-280.7"/>
<polygon fill="none" stroke="#000000" points="389,-280.7 389,-299.7 414,-299.7 414,-280.7 389,-280.7"/>
<text text-anchor="start" x="395.4053" y="-286.8" font-family="Helvetica,sans-Serif" font-size="11.00" fill="#000000">1 &gt;</text>
</a>
</g>
</g>
<!-- fleet&#45;&gt;airport -->
<g id="edge2" class="edge">
<title>fleet:w&#45;&gt;airport:e</title>
<path fill="none" stroke="#000000" d="M329.7274,-305.7766C289.9466,-286.1804 343.1011,-174.7 283.5,-174.7"/>
<polygon fill="#000000" stroke="#000000" points="336.1627,-307.0947 343.2776,-312.2268 340.0814,-307.8973 344,-308.7 344,-308.7 344,-308.7 340.0814,-307.8973 344.7224,-305.1732 336.1627,-307.0947 336.1627,-307.0947"/>
<ellipse fill="none" stroke="#000000" cx="333.0278" cy="-306.4525" rx="3.2" ry="3.2"/>
</g>
<!-- fleet_airplane -->
<g id="node4" class="node">
<title>fleet_airplane</title>
<g id="a_node4"><a xlink:href="../../tables/fleet_airplane.html" xlink:title="fleet_airplane" target="_top">
<polygon fill="#ffffff" stroke="transparent" points="475,-199.2 475,-326.2 606,-326.2 606,-199.2 475,-199.2"/>
<polygon fill="#f5f5f5" stroke="transparent" points="475.5,-302.7 475.5,-325.7 606.5,-325.7 606.5,-302.7 475.5,-302.7"/>
<polygon fill="none" stroke="#000000" points="475.5,-302.7 475.5,-325.7 606.5,-325.7 606.5,-302.7 475.5,-302.7"/>
<text text-anchor="start" x="480.5" y="-311.3" font-family="Helvetica,sans-Serif" font-weight="bold" font-size="11.00" fill="#000000">fleet_airplane</text>
<text text-anchor="start" x="572.0219" y="-310.8" font-family="Helvetica,sans-Serif" font-size="11.00" fill="#000000">[table]</text>
<polygon fill="none" stroke="#000000" points="475.5,-280.7 475.5,-302.7 606.5,-302.7 606.5,-280.7 475.5,-280.7"/>
<image xlink:href="../../images/primaryKeys.png" width="11px" height="12px" preserveAspectRatio="xMinYMin meet" x="480.5" y="-297.7"/>
<text text-anchor="start" x="497.5" y="-287.8" font-family="Helvetica,sans-Serif" font-size="11.00" fill="#000000">id</text>
<polygon fill="#ffffff" stroke="transparent" points="475.5,-258.7 475.5,-280.7 606.5,-280.7 606.5,-258.7 475.5,-258.7"/>
<polygon fill="none" stroke="#000000" points="475.5,-258.7 475.5,-280.7 606.5,-280.7 606.5,-258.7 475.5,-258.7"/>
<image xlink:href="../../images/foreignKeys.png" width="11px" height="12px" preserveAspectRatio="xMinYMin meet" x="480.5" y="-275.7"/>
<text text-anchor="start" x="497.5" y="-265.8" font-family="Helvetica,sans-Serif" font-size="11.00" fill="#000000">fleet_id</text>
<polygon fill="#ffffff" stroke="transparent" points="475.5,-236.7 475.5,-258.7 606.5,-258.7 606.5,-236.7 475.5,-236.7"/>
<polygon fill="none" stroke="#000000" points="475.5,-236.7 475.5,-258.7 606.5,-258.7 606.5,-236.7 475.5,-236.7"/>
<image xlink:href="../../images/foreignKeys.png" width="11px" height="12px" preserveAspectRatio="xMinYMin meet" x="480.5" y="-253.7"/>
<text text-anchor="start" x="497.5" y="-243.8" font-family="Helvetica,sans-Serif" font-size="11.00" fill="#000000">airplane_id</text>
<polygon fill="none" stroke="#000000" points="475.5,-217.7 475.5,-236.7 606.5,-236.7 606.5,-217.7 475.5,-217.7"/>
<text text-anchor="start" x="478.5" y="-223.8" font-family="Helvetica,sans-Serif" font-size="11.00" fill="#000000">...</text>
<polygon fill="#ffffff" stroke="transparent" points="475.5,-198.7 475.5,-217.7 534.5,-217.7 534.5,-198.7 475.5,-198.7"/>
<polygon fill="none" stroke="#000000" points="475.5,-198.7 475.5,-217.7 534.5,-217.7 534.5,-198.7 475.5,-198.7"/>
<text text-anchor="start" x="478.5" y="-204.8" font-family="Helvetica,sans-Serif" font-size="11.00" fill="#000000">&lt; 2</text>
<polygon fill="#ffffff" stroke="transparent" points="534.5,-198.7 534.5,-217.7 565.5,-217.7 565.5,-198.7 534.5,-198.7"/>
<polygon fill="none" stroke="#000000" points="534.5,-198.7 534.5,-217.7 565.5,-217.7 565.5,-198.7 534.5,-198.7"/>
<text text-anchor="start" x="556.3862" y="-204.8" font-family="Helvetica,sans-Serif" font-size="11.00" fill="#000000"> &#160;</text>
<polygon fill="#ffffff" stroke="transparent" points="565.5,-198.7 565.5,-217.7 606.5,-217.7 606.5,-198.7 565.5,-198.7"/>
<polygon fill="none" stroke="#000000" points="565.5,-198.7 565.5,-217.7 606.5,-217.7 606.5,-198.7 565.5,-198.7"/>
<text text-anchor="start" x="587.9053" y="-204.8" font-family="Helvetica,sans-Serif" font-size="11.00" fill="#000000">1 &gt;</text>
</a>
</g>
</g>
<!-- fleet_airplane&#45;&gt;fleet -->
<g id="edge4" class="edge">
<title>fleet_airplane:w&#45;&gt;fleet:e</title>
<path fill="none" stroke="#000000" d="M461.3451,-272.8915C443.1703,-282.2059 440.6766,-308.7 414,-308.7"/>
<polygon fill="#000000" stroke="#000000" points="467.6959,-271.4597 476.2918,-273.2118 471.598,-270.5798 475.5,-269.7 475.5,-269.7 475.5,-269.7 471.598,-270.5798 474.7082,-266.1882 467.6959,-271.4597 467.6959,-271.4597"/>
<ellipse fill="none" stroke="#000000" cx="464.5743" cy="-272.1635" rx="3.2" ry="3.2"/>
</g>
<!-- airplane -->
<g id="node5" class="node">
<title>airplane</title>
<g id="a_node5"><a xlink:href="../../tables/airplane.html" xlink:title="airplane" target="_top">
<polygon fill="#ffffff" stroke="transparent" points="332,-199.2 332,-260.2 426,-260.2 426,-199.2 332,-199.2"/>
<polygon fill="#f5f5f5" stroke="transparent" points="332,-236.7 332,-259.7 426,-259.7 426,-236.7 332,-236.7"/>
<polygon fill="none" stroke="#000000" points="332,-236.7 332,-259.7 426,-259.7 426,-236.7 332,-236.7"/>
<text text-anchor="start" x="337" y="-245.3" font-family="Helvetica,sans-Serif" font-weight="bold" font-size="11.00" fill="#000000">airplane</text>
<text text-anchor="start" x="391.5219" y="-244.8" font-family="Helvetica,sans-Serif" font-size="11.00" fill="#000000">[table]</text>
<polygon fill="none" stroke="#000000" points="332,-217.7 332,-236.7 426,-236.7 426,-217.7 332,-217.7"/>
<text text-anchor="start" x="335" y="-223.8" font-family="Helvetica,sans-Serif" font-size="11.00" fill="#000000">...</text>
<polygon fill="#ffffff" stroke="transparent" points="332,-198.7 332,-217.7 373,-217.7 373,-198.7 332,-198.7"/>
<polygon fill="none" stroke="#000000" points="332,-198.7 332,-217.7 373,-217.7 373,-198.7 332,-198.7"/>
<text text-anchor="start" x="335" y="-204.8" font-family="Helvetica,sans-Serif" font-size="11.00" fill="#000000">&lt; 1</text>
<polygon fill="#ffffff" stroke="transparent" points="373,-198.7 373,-217.7 395,-217.7 395,-198.7 373,-198.7"/>
<polygon fill="none" stroke="#000000" points="373,-198.7 373,-217.7 395,-217.7 395,-198.7 373,-198.7"/>
<text text-anchor="start" x="385.8862" y="-204.8" font-family="Helvetica,sans-Serif" font-size="11.00" fill="#000000"> &#160;</text>
<polygon fill="#ffffff" stroke="transparent" points="395,-198.7 395,-217.7 426,-217.7 426,-198.7 395,-198.7"/>
<polygon fill="none" stroke="#000000" points="395,-198.7 395,-217.7 426,-217.7 426,-198.7 395,-198.7"/>
<text text-anchor="start" x="407.4053" y="-204.8" font-family="Helvetica,sans-Serif" font-size="11.00" fill="#000000">1 &gt;</text>
</a>
</g>
</g>
<!-- fleet_airplane&#45;&gt;airplane -->
<g id="edge3" class="edge">
<title>fleet_airplane:w&#45;&gt;airplane:e</title>
<path fill="none" stroke="#000000" d="M461.4114,-244.6014C449.4749,-238.7599 444.1102,-226.7 426,-226.7"/>
<polygon fill="#000000" stroke="#000000" points="467.6867,-245.9815 474.7267,-251.216 471.5934,-246.8408 475.5,-247.7 475.5,-247.7 475.5,-247.7 471.5934,-246.8408 476.2733,-244.184 467.6867,-245.9815 467.6867,-245.9815"/>
<ellipse fill="none" stroke="#000000" cx="464.5614" cy="-245.2941" rx="3.2" ry="3.2"/>
</g>
<!-- fleet_route -->
<g id="node6" class="node">
<title>fleet_route</title>
<g id="a_node6"><a xlink:href="../../tables/fleet_route.html" xlink:title="fleet_route" target="_top">
<polygon fill="#ffffff" stroke="transparent" points="655,-76.7 655,-276.7 912,-276.7 912,-76.7 655,-76.7"/>
<polygon fill="#f5f5f5" stroke="transparent" points="657.5,-251.7 657.5,-274.7 910.5,-274.7 910.5,-251.7 657.5,-251.7"/>
<polygon fill="none" stroke="#000000" points="657.5,-251.7 657.5,-274.7 910.5,-274.7 910.5,-251.7 657.5,-251.7"/>
<text text-anchor="start" x="662.5" y="-260.3" font-family="Helvetica,sans-Serif" font-weight="bold" font-size="11.00" fill="#000000">fleet_route</text>
<text text-anchor="start" x="875.5437" y="-259.8" font-family="Helvetica,sans-Serif" font-size="11.00" fill="#000000">[table]</text>
<polygon fill="none" stroke="#000000" points="657.5,-229.7 657.5,-251.7 826.5,-251.7 826.5,-229.7 657.5,-229.7"/>
<image xlink:href="../../images/primaryKeys.png" width="11px" height="12px" preserveAspectRatio="xMinYMin meet" x="662.5" y="-246.7"/>
<text text-anchor="start" x="677.5" y="-236.8" font-family="Helvetica,sans-Serif" font-size="11.00" fill="#000000">id</text>
<polygon fill="none" stroke="#000000" points="826.5,-229.7 826.5,-251.7 910.5,-251.7 910.5,-229.7 826.5,-229.7"/>
<text text-anchor="start" x="829.5" y="-237.4" font-family="Helvetica,sans-Serif" font-size="11.00" fill="#000000">serial[10]</text>
<polygon fill="none" stroke="#000000" points="657.5,-207.7 657.5,-229.7 826.5,-229.7 826.5,-207.7 657.5,-207.7"/>
<image xlink:href="../../images/foreignKeys.png" width="11px" height="12px" preserveAspectRatio="xMinYMin meet" x="662.5" y="-224.7"/>
<text text-anchor="start" x="677.5" y="-214.8" font-family="Helvetica,sans-Serif" font-size="11.00" fill="#000000">fleet_airplane_id</text>
<polygon fill="none" stroke="#000000" points="826.5,-207.7 826.5,-229.7 910.5,-229.7 910.5,-207.7 826.5,-207.7"/>
<text text-anchor="start" x="829.5" y="-215.4" font-family="Helvetica,sans-Serif" font-size="11.00" fill="#000000">int4[10]</text>
<polygon fill="#ffffff" stroke="transparent" points="657.5,-185.7 657.5,-207.7 826.5,-207.7 826.5,-185.7 657.5,-185.7"/>
<polygon fill="none" stroke="#000000" points="657.5,-185.7 657.5,-207.7 826.5,-207.7 826.5,-185.7 657.5,-185.7"/>
<text text-anchor="start" x="677.5" y="-192.8" font-family="Helvetica,sans-Serif" font-size="11.00" fill="#000000">route_number</text>
<polygon fill="none" stroke="#000000" points="826.5,-185.7 826.5,-207.7 910.5,-207.7 910.5,-185.7 826.5,-185.7"/>
<text text-anchor="start" x="829.5" y="-193.4" font-family="Helvetica,sans-Serif" font-size="11.00" fill="#000000">varchar[10]</text>
<polygon fill="#ffffff" stroke="transparent" points="657.5,-163.7 657.5,-185.7 826.5,-185.7 826.5,-163.7 657.5,-163.7"/>
<polygon fill="none" stroke="#000000" points="657.5,-163.7 657.5,-185.7 826.5,-185.7 826.5,-163.7 657.5,-163.7"/>
<image xlink:href="../../images/foreignKeys.png" width="11px" height="12px" preserveAspectRatio="xMinYMin meet" x="662.5" y="-180.7"/>
<text text-anchor="start" x="677.5" y="-170.8" font-family="Helvetica,sans-Serif" font-size="11.00" fill="#000000">start_airport_id</text>
<polygon fill="none" stroke="#000000" points="826.5,-163.7 826.5,-185.7 910.5,-185.7 910.5,-163.7 826.5,-163.7"/>
<text text-anchor="start" x="829.5" y="-171.4" font-family="Helvetica,sans-Serif" font-size="11.00" fill="#000000">int4[10]</text>
<polygon fill="#ffffff" stroke="transparent" points="657.5,-141.7 657.5,-163.7 826.5,-163.7 826.5,-141.7 657.5,-141.7"/>
<polygon fill="none" stroke="#000000" points="657.5,-141.7 657.5,-163.7 826.5,-163.7 826.5,-141.7 657.5,-141.7"/>
<image xlink:href="../../images/foreignKeys.png" width="11px" height="12px" preserveAspectRatio="xMinYMin meet" x="662.5" y="-158.7"/>
<text text-anchor="start" x="677.5" y="-148.8" font-family="Helvetica,sans-Serif" font-size="11.00" fill="#000000">destination_airport_id</text>
<polygon fill="none" stroke="#000000" points="826.5,-141.7 826.5,-163.7 910.5,-163.7 910.5,-141.7 826.5,-141.7"/>
<text text-anchor="start" x="829.5" y="-149.4" font-family="Helvetica,sans-Serif" font-size="11.00" fill="#000000">int4[10]</text>
<polygon fill="none" stroke="#000000" points="657.5,-119.7 657.5,-141.7 826.5,-141.7 826.5,-119.7 657.5,-119.7"/>
<text text-anchor="start" x="677.5" y="-126.8" font-family="Helvetica,sans-Serif" font-size="11.00" fill="#000000">created_at</text>
<polygon fill="none" stroke="#000000" points="826.5,-119.7 826.5,-141.7 910.5,-141.7 910.5,-119.7 826.5,-119.7"/>
<text text-anchor="start" x="829.3807" y="-127.4" font-family="Helvetica,sans-Serif" font-size="11.00" fill="#000000">timestamp[29,6]</text>
<polygon fill="none" stroke="#000000" points="657.5,-97.7 657.5,-119.7 826.5,-119.7 826.5,-97.7 657.5,-97.7"/>
<text text-anchor="start" x="677.5" y="-104.8" font-family="Helvetica,sans-Serif" font-size="11.00" fill="#000000">last_updated_at</text>
<polygon fill="none" stroke="#000000" points="826.5,-97.7 826.5,-119.7 910.5,-119.7 910.5,-97.7 826.5,-97.7"/>
<text text-anchor="start" x="829.3807" y="-105.4" font-family="Helvetica,sans-Serif" font-size="11.00" fill="#000000">timestamp[29,6]</text>
<polygon fill="#ffffff" stroke="transparent" points="657.5,-78.7 657.5,-97.7 746.5,-97.7 746.5,-78.7 657.5,-78.7"/>
<polygon fill="none" stroke="#000000" points="657.5,-78.7 657.5,-97.7 746.5,-97.7 746.5,-78.7 657.5,-78.7"/>
<text text-anchor="start" x="660.5" y="-84.8" font-family="Helvetica,sans-Serif" font-size="11.00" fill="#000000">&lt; 3</text>
<polygon fill="#ffffff" stroke="transparent" points="746.5,-78.7 746.5,-97.7 826.5,-97.7 826.5,-78.7 746.5,-78.7"/>
<polygon fill="none" stroke="#000000" points="746.5,-78.7 746.5,-97.7 826.5,-97.7 826.5,-78.7 746.5,-78.7"/>
<text text-anchor="start" x="817.3862" y="-84.8" font-family="Helvetica,sans-Serif" font-size="11.00" fill="#000000"> &#160;</text>
<polygon fill="#ffffff" stroke="transparent" points="826.5,-78.7 826.5,-97.7 910.5,-97.7 910.5,-78.7 826.5,-78.7"/>
<polygon fill="none" stroke="#000000" points="826.5,-78.7 826.5,-97.7 910.5,-97.7 910.5,-78.7 826.5,-78.7"/>
<text text-anchor="start" x="891.9053" y="-84.8" font-family="Helvetica,sans-Serif" font-size="11.00" fill="#000000">0 &gt;</text>
<polygon fill="none" stroke="#000000" stroke-width="2" points="656,-77.7 656,-275.7 911,-275.7 911,-77.7 656,-77.7"/>
</a>
</g>
</g>
<!-- fleet_route&#45;&gt;airport -->
<g id="edge5" class="edge">
<title>fleet_route:w&#45;&gt;airport:e</title>
<path fill="none" stroke="#000000" d="M643.082,-152.6731C506.5191,-152.1641 466.0101,-144.8297 324,-164.7 305.6383,-167.2692 302.0406,-174.7 283.5,-174.7"/>
<polygon fill="#000000" stroke="#000000" points="649.5,-152.685 657.4933,-156.3 653.5,-152.6925 657.5,-152.7 657.5,-152.7 657.5,-152.7 653.5,-152.6925 657.5067,-149.1 649.5,-152.685 649.5,-152.685"/>
<ellipse fill="none" stroke="#000000" cx="646.3" cy="-152.679" rx="3.2" ry="3.2"/>
</g>
<!-- fleet_route&#45;&gt;airport -->
<g id="edge7" class="edge">
<title>fleet_route:w&#45;&gt;airport:e</title>
<path fill="none" stroke="#000000" d="M642.7395,-174.7C488.6475,-174.7 444.6901,-174.7 283.5,-174.7"/>
<polygon fill="#000000" stroke="#000000" points="649.5,-174.7001 657.5,-178.3 653.5,-174.7 657.5,-174.7 657.5,-174.7 657.5,-174.7 653.5,-174.7 657.5,-171.1 649.5,-174.7001 649.5,-174.7001"/>
<ellipse fill="none" stroke="#000000" cx="646.3" cy="-174.7001" rx="3.2" ry="3.2"/>
</g>
<!-- fleet_route&#45;&gt;fleet_airplane -->
<g id="edge6" class="edge">
<title>fleet_route:w&#45;&gt;fleet_airplane:e</title>
<path fill="none" stroke="#000000" d="M643.6487,-223.2665C624.9288,-239.248 640.0486,-291.7 606.5,-291.7"/>
<polygon fill="#000000" stroke="#000000" points="649.9022,-221.2049 658.6272,-222.119 653.7011,-219.9524 657.5,-218.7 657.5,-218.7 657.5,-218.7 653.7011,-219.9524 656.3728,-215.281 649.9022,-221.2049 649.9022,-221.2049"/>
<ellipse fill="none" stroke="#000000" cx="646.8631" cy="-222.2068" rx="3.2" ry="3.2"/>
</g>
</g>
</svg>
