<?xml version="1.0" encoding="UTF-8" standalone="no"?>
<!DOCTYPE svg PUBLIC "-//W3C//DTD SVG 1.1//EN"
 "http://www.w3.org/Graphics/SVG/1.1/DTD/svg11.dtd">
<!-- Generated by graphviz version 2.40.1 (20161225.0304)
 -->
<!-- Title: twoDegreesRelationshipsDiagram Pages: 1 -->
<svg width="604pt" height="452pt"
 viewBox="0.00 0.00 604.00 452.20" xmlns="http://www.w3.org/2000/svg" xmlns:xlink="http://www.w3.org/1999/xlink">
<g id="graph0" class="graph" transform="scale(1 1) rotate(0) translate(4 448.2)">
<title>twoDegreesRelationshipsDiagram</title>
<polygon fill="#ffffff" stroke="transparent" points="-4,4 -4,-448.2 600,-448.2 600,4 -4,4"/>
<text text-anchor="middle" x="72.4936" y="-7.3" font-family="Helvetica,sans-Serif" font-size="11.00" fill="#000000">Generated by SchemaSpy</text>
<!-- city -->
<g id="node1" class="node">
<title>city</title>
<g id="a_node1"><a xlink:href="../../tables/city.html" xlink:title="city" target="_top">
<polygon fill="#ffffff" stroke="transparent" points="525,-378.2 525,-439.2 588,-439.2 588,-378.2 525,-378.2"/>
<polygon fill="#f5f5f5" stroke="transparent" points="525.5,-415.7 525.5,-438.7 588.5,-438.7 588.5,-415.7 525.5,-415.7"/>
<polygon fill="none" stroke="#000000" points="525.5,-415.7 525.5,-438.7 588.5,-438.7 588.5,-415.7 525.5,-415.7"/>
<text text-anchor="start" x="530.5" y="-424.3" font-family="Helvetica,sans-Serif" font-weight="bold" font-size="11.00" fill="#000000">city</text>
<text text-anchor="start" x="554.0219" y="-423.8" font-family="Helvetica,sans-Serif" font-size="11.00" fill="#000000">[table]</text>
<polygon fill="none" stroke="#000000" points="525.5,-396.7 525.5,-415.7 588.5,-415.7 588.5,-396.7 525.5,-396.7"/>
<text text-anchor="start" x="528.5" y="-402.8" font-family="Helvetica,sans-Serif" font-size="11.00" fill="#000000">...</text>
<polygon fill="#ffffff" stroke="transparent" points="525.5,-377.7 525.5,-396.7 550.5,-396.7 550.5,-377.7 525.5,-377.7"/>
<polygon fill="none" stroke="#000000" points="525.5,-377.7 525.5,-396.7 550.5,-396.7 550.5,-377.7 525.5,-377.7"/>
<text text-anchor="start" x="528.5" y="-383.8" font-family="Helvetica,sans-Serif" font-size="11.00" fill="#000000">&lt; 1</text>
<polygon fill="#ffffff" stroke="transparent" points="550.5,-377.7 550.5,-396.7 564.5,-396.7 564.5,-377.7 550.5,-377.7"/>
<polygon fill="none" stroke="#000000" points="550.5,-377.7 550.5,-396.7 564.5,-396.7 564.5,-377.7 550.5,-377.7"/>
<text text-anchor="start" x="555.3862" y="-383.8" font-family="Helvetica,sans-Serif" font-size="11.00" fill="#000000"> &#160;</text>
<polygon fill="#ffffff" stroke="transparent" points="564.5,-377.7 564.5,-396.7 588.5,-396.7 588.5,-377.7 564.5,-377.7"/>
<polygon fill="none" stroke="#000000" points="564.5,-377.7 564.5,-396.7 588.5,-396.7 588.5,-377.7 564.5,-377.7"/>
<text text-anchor="start" x="569.9053" y="-383.8" font-family="Helvetica,sans-Serif" font-size="11.00" fill="#000000">2 &gt;</text>
</a>
</g>
</g>
<!-- country -->
<g id="node2" class="node">
<title>country</title>
<g id="a_node2"><a xlink:href="../../tables/country.html" xlink:title="country" target="_top">
<polygon fill="#ffffff" stroke="transparent" points="298,-159.2 298,-440.2 476,-440.2 476,-159.2 298,-159.2"/>
<polygon fill="#f5f5f5" stroke="transparent" points="298,-416.7 298,-439.7 476,-439.7 476,-416.7 298,-416.7"/>
<polygon fill="none" stroke="#000000" points="298,-416.7 298,-439.7 476,-439.7 476,-416.7 298,-416.7"/>
<text text-anchor="start" x="303" y="-425.3" font-family="Helvetica,sans-Serif" font-weight="bold" font-size="11.00" fill="#000000">country</text>
<text text-anchor="start" x="441.0437" y="-424.8" font-family="Helvetica,sans-Serif" font-size="11.00" fill="#000000">[table]</text>
<polygon fill="none" stroke="#000000" points="298,-394.7 298,-416.7 476,-416.7 476,-394.7 298,-394.7"/>
<image xlink:href="../../images/primaryKeys.png" width="11px" height="12px" preserveAspectRatio="xMinYMin meet" x="303" y="-411.7"/>
<text text-anchor="start" x="318" y="-401.8" font-family="Helvetica,sans-Serif" font-size="11.00" fill="#000000">id</text>
<polygon fill="#ffffff" stroke="transparent" points="298,-372.7 298,-394.7 476,-394.7 476,-372.7 298,-372.7"/>
<polygon fill="none" stroke="#000000" points="298,-372.7 298,-394.7 476,-394.7 476,-372.7 298,-372.7"/>
<text text-anchor="start" x="318" y="-379.8" font-family="Helvetica,sans-Serif" font-size="11.00" fill="#000000">iso2</text>
<polygon fill="#ffffff" stroke="transparent" points="298,-350.7 298,-372.7 476,-372.7 476,-350.7 298,-350.7"/>
<polygon fill="none" stroke="#000000" points="298,-350.7 298,-372.7 476,-372.7 476,-350.7 298,-350.7"/>
<text text-anchor="start" x="318" y="-357.8" font-family="Helvetica,sans-Serif" font-size="11.00" fill="#000000">iso3</text>
<polygon fill="#ffffff" stroke="transparent" points="298,-328.7 298,-350.7 476,-350.7 476,-328.7 298,-328.7"/>
<polygon fill="none" stroke="#000000" points="298,-328.7 298,-350.7 476,-350.7 476,-328.7 298,-328.7"/>
<text text-anchor="start" x="318" y="-335.8" font-family="Helvetica,sans-Serif" font-size="11.00" fill="#000000">country_code</text>
<polygon fill="#ffffff" stroke="transparent" points="298,-306.7 298,-328.7 476,-328.7 476,-306.7 298,-306.7"/>
<polygon fill="none" stroke="#000000" points="298,-306.7 298,-328.7 476,-328.7 476,-306.7 298,-306.7"/>
<text text-anchor="start" x="318" y="-313.8" font-family="Helvetica,sans-Serif" font-size="11.00" fill="#000000">domain_name</text>
<polygon fill="none" stroke="#000000" points="298,-284.7 298,-306.7 476,-306.7 476,-284.7 298,-284.7"/>
<image xlink:href="../../images/foreignKeys.png" width="11px" height="12px" preserveAspectRatio="xMinYMin meet" x="303" y="-301.7"/>
<text text-anchor="start" x="318" y="-291.8" font-family="Helvetica,sans-Serif" font-size="11.00" fill="#000000">main_language_id</text>
<polygon fill="none" stroke="#000000" points="298,-262.7 298,-284.7 476,-284.7 476,-262.7 298,-262.7"/>
<image xlink:href="../../images/foreignKeys.png" width="11px" height="12px" preserveAspectRatio="xMinYMin meet" x="303" y="-279.7"/>
<text text-anchor="start" x="318" y="-269.8" font-family="Helvetica,sans-Serif" font-size="11.00" fill="#000000">secondary_language_id</text>
<polygon fill="none" stroke="#000000" points="298,-240.7 298,-262.7 476,-262.7 476,-240.7 298,-240.7"/>
<image xlink:href="../../images/foreignKeys.png" width="11px" height="12px" preserveAspectRatio="xMinYMin meet" x="303" y="-257.7"/>
<text text-anchor="start" x="318" y="-247.8" font-family="Helvetica,sans-Serif" font-size="11.00" fill="#000000">tertiary_language_id</text>
<polygon fill="none" stroke="#000000" points="298,-218.7 298,-240.7 476,-240.7 476,-218.7 298,-218.7"/>
<image xlink:href="../../images/foreignKeys.png" width="11px" height="12px" preserveAspectRatio="xMinYMin meet" x="303" y="-235.7"/>
<text text-anchor="start" x="318" y="-225.8" font-family="Helvetica,sans-Serif" font-size="11.00" fill="#000000">currency_id</text>
<polygon fill="#ffffff" stroke="transparent" points="298,-196.7 298,-218.7 476,-218.7 476,-196.7 298,-196.7"/>
<polygon fill="none" stroke="#000000" points="298,-196.7 298,-218.7 476,-218.7 476,-196.7 298,-196.7"/>
<text text-anchor="start" x="318" y="-203.8" font-family="Helvetica,sans-Serif" font-size="11.00" fill="#000000">nationality</text>
<polygon fill="none" stroke="#000000" points="298,-177.7 298,-196.7 476,-196.7 476,-177.7 298,-177.7"/>
<text text-anchor="start" x="301" y="-183.8" font-family="Helvetica,sans-Serif" font-size="11.00" fill="#000000">...</text>
<polygon fill="#ffffff" stroke="transparent" points="298,-158.7 298,-177.7 381,-177.7 381,-158.7 298,-158.7"/>
<polygon fill="none" stroke="#000000" points="298,-158.7 298,-177.7 381,-177.7 381,-158.7 298,-158.7"/>
<text text-anchor="start" x="301" y="-164.8" font-family="Helvetica,sans-Serif" font-size="11.00" fill="#000000">&lt; 4</text>
<polygon fill="#ffffff" stroke="transparent" points="381,-158.7 381,-177.7 424,-177.7 424,-158.7 381,-158.7"/>
<polygon fill="none" stroke="#000000" points="381,-158.7 381,-177.7 424,-177.7 424,-158.7 381,-158.7"/>
<text text-anchor="start" x="414.8862" y="-164.8" font-family="Helvetica,sans-Serif" font-size="11.00" fill="#000000"> &#160;</text>
<polygon fill="#ffffff" stroke="transparent" points="424,-158.7 424,-177.7 476,-177.7 476,-158.7 424,-158.7"/>
<polygon fill="none" stroke="#000000" points="424,-158.7 424,-177.7 476,-177.7 476,-158.7 424,-158.7"/>
<text text-anchor="start" x="457.4053" y="-164.8" font-family="Helvetica,sans-Serif" font-size="11.00" fill="#000000">1 &gt;</text>
</a>
</g>
</g>
<!-- city&#45;&gt;country -->
<g id="edge1" class="edge">
<title>city:w&#45;&gt;country:e</title>
<path fill="none" stroke="#000000" d="M510.8428,-405.7C499.4139,-405.7 492.1563,-405.7 476,-405.7"/>
<polygon fill="#000000" stroke="#000000" points="517.5,-405.7001 525.5,-409.3 521.5,-405.7 525.5,-405.7 525.5,-405.7 525.5,-405.7 521.5,-405.7 525.5,-402.1 517.5,-405.7001 517.5,-405.7001"/>
<ellipse fill="none" stroke="#000000" cx="514.3" cy="-405.7001" rx="3.2" ry="3.2"/>
</g>
<!-- currency -->
<g id="node3" class="node">
<title>currency</title>
<g id="a_node3"><a xlink:href="../../tables/currency.html" xlink:title="currency" target="_top">
<polygon fill="#ffffff" stroke="transparent" points="79.5,-38.2 79.5,-99.2 177.5,-99.2 177.5,-38.2 79.5,-38.2"/>
<polygon fill="#f5f5f5" stroke="transparent" points="79.5,-75.7 79.5,-98.7 177.5,-98.7 177.5,-75.7 79.5,-75.7"/>
<polygon fill="none" stroke="#000000" points="79.5,-75.7 79.5,-98.7 177.5,-98.7 177.5,-75.7 79.5,-75.7"/>
<text text-anchor="start" x="84.5" y="-84.3" font-family="Helvetica,sans-Serif" font-weight="bold" font-size="11.00" fill="#000000">currency</text>
<text text-anchor="start" x="143.0219" y="-83.8" font-family="Helvetica,sans-Serif" font-size="11.00" fill="#000000">[table]</text>
<polygon fill="none" stroke="#000000" points="79.5,-56.7 79.5,-75.7 177.5,-75.7 177.5,-56.7 79.5,-56.7"/>
<text text-anchor="start" x="82.5" y="-62.8" font-family="Helvetica,sans-Serif" font-size="11.00" fill="#000000">...</text>
<polygon fill="#ffffff" stroke="transparent" points="79.5,-37.7 79.5,-56.7 117.5,-56.7 117.5,-37.7 79.5,-37.7"/>
<polygon fill="none" stroke="#000000" points="79.5,-37.7 79.5,-56.7 117.5,-56.7 117.5,-37.7 79.5,-37.7"/>
<text text-anchor="start" x="82.5" y="-43.8" font-family="Helvetica,sans-Serif" font-size="11.00" fill="#000000"> &#160;</text>
<polygon fill="#ffffff" stroke="transparent" points="117.5,-37.7 117.5,-56.7 142.5,-56.7 142.5,-37.7 117.5,-37.7"/>
<polygon fill="none" stroke="#000000" points="117.5,-37.7 117.5,-56.7 142.5,-56.7 142.5,-37.7 117.5,-37.7"/>
<text text-anchor="start" x="133.3862" y="-43.8" font-family="Helvetica,sans-Serif" font-size="11.00" fill="#000000"> &#160;</text>
<polygon fill="#ffffff" stroke="transparent" points="142.5,-37.7 142.5,-56.7 177.5,-56.7 177.5,-37.7 142.5,-37.7"/>
<polygon fill="none" stroke="#000000" points="142.5,-37.7 142.5,-56.7 177.5,-56.7 177.5,-37.7 142.5,-37.7"/>
<text text-anchor="start" x="158.9053" y="-43.8" font-family="Helvetica,sans-Serif" font-size="11.00" fill="#000000">1 &gt;</text>
</a>
</g>
</g>
<!-- country&#45;&gt;currency -->
<g id="edge2" class="edge">
<title>country:w&#45;&gt;currency:e</title>
<path fill="none" stroke="#000000" d="M283.5388,-227.2668C251.5376,-213.8749 289.3734,-148.349 257,-109.7 231.0685,-78.7416 217.884,-65.7 177.5,-65.7"/>
<polygon fill="#000000" stroke="#000000" points="290.1109,-228.3726 297.4027,-233.2501 294.0554,-229.0363 298,-229.7 298,-229.7 298,-229.7 294.0554,-229.0363 298.5973,-226.1499 290.1109,-228.3726 290.1109,-228.3726"/>
<ellipse fill="none" stroke="#000000" cx="286.9552" cy="-227.8416" rx="3.2" ry="3.2"/>
</g>
<!-- language -->
<g id="node4" class="node">
<title>language</title>
<g id="a_node4"><a xlink:href="../../tables/language.html" xlink:title="language" target="_top">
<polygon fill="#ffffff" stroke="transparent" points="8,-120.7 8,-320.7 249,-320.7 249,-120.7 8,-120.7"/>
<polygon fill="#f5f5f5" stroke="transparent" points="10.5,-295.7 10.5,-318.7 247.5,-318.7 247.5,-295.7 10.5,-295.7"/>
<polygon fill="none" stroke="#000000" points="10.5,-295.7 10.5,-318.7 247.5,-318.7 247.5,-295.7 10.5,-295.7"/>
<text text-anchor="start" x="15.5" y="-304.3" font-family="Helvetica,sans-Serif" font-weight="bold" font-size="11.00" fill="#000000">language</text>
<text text-anchor="start" x="212.5437" y="-303.8" font-family="Helvetica,sans-Serif" font-size="11.00" fill="#000000">[table]</text>
<polygon fill="none" stroke="#000000" points="10.5,-273.7 10.5,-295.7 138.5,-295.7 138.5,-273.7 10.5,-273.7"/>
<image xlink:href="../../images/primaryKeys.png" width="11px" height="12px" preserveAspectRatio="xMinYMin meet" x="15.5" y="-290.7"/>
<text text-anchor="start" x="30.5" y="-280.8" font-family="Helvetica,sans-Serif" font-size="11.00" fill="#000000">id</text>
<polygon fill="none" stroke="#000000" points="138.5,-273.7 138.5,-295.7 247.5,-295.7 247.5,-273.7 138.5,-273.7"/>
<text text-anchor="start" x="141.5" y="-281.4" font-family="Helvetica,sans-Serif" font-size="11.00" fill="#000000">serial[10]</text>
<polygon fill="none" stroke="#000000" points="10.5,-251.7 10.5,-273.7 138.5,-273.7 138.5,-251.7 10.5,-251.7"/>
<text text-anchor="start" x="30.5" y="-258.8" font-family="Helvetica,sans-Serif" font-size="11.00" fill="#000000">name</text>
<polygon fill="none" stroke="#000000" points="138.5,-251.7 138.5,-273.7 247.5,-273.7 247.5,-251.7 138.5,-251.7"/>
<text text-anchor="start" x="141.0344" y="-259.4" font-family="Helvetica,sans-Serif" font-size="11.00" fill="#000000">varchar[2147483647]</text>
<polygon fill="#ffffff" stroke="transparent" points="10.5,-229.7 10.5,-251.7 138.5,-251.7 138.5,-229.7 10.5,-229.7"/>
<polygon fill="none" stroke="#000000" points="10.5,-229.7 10.5,-251.7 138.5,-251.7 138.5,-229.7 10.5,-229.7"/>
<text text-anchor="start" x="30.5" y="-236.8" font-family="Helvetica,sans-Serif" font-size="11.00" fill="#000000">iso2</text>
<polygon fill="none" stroke="#000000" points="138.5,-229.7 138.5,-251.7 247.5,-251.7 247.5,-229.7 138.5,-229.7"/>
<text text-anchor="start" x="141.5" y="-237.4" font-family="Helvetica,sans-Serif" font-size="11.00" fill="#000000">varchar[2]</text>
<polygon fill="#ffffff" stroke="transparent" points="10.5,-207.7 10.5,-229.7 138.5,-229.7 138.5,-207.7 10.5,-207.7"/>
<polygon fill="none" stroke="#000000" points="10.5,-207.7 10.5,-229.7 138.5,-229.7 138.5,-207.7 10.5,-207.7"/>
<text text-anchor="start" x="30.5" y="-214.8" font-family="Helvetica,sans-Serif" font-size="11.00" fill="#000000">iso3</text>
<polygon fill="none" stroke="#000000" points="138.5,-207.7 138.5,-229.7 247.5,-229.7 247.5,-207.7 138.5,-207.7"/>
<text text-anchor="start" x="141.5" y="-215.4" font-family="Helvetica,sans-Serif" font-size="11.00" fill="#000000">varchar[3]</text>
<polygon fill="none" stroke="#000000" points="10.5,-185.7 10.5,-207.7 138.5,-207.7 138.5,-185.7 10.5,-185.7"/>
<text text-anchor="start" x="30.5" y="-192.8" font-family="Helvetica,sans-Serif" font-size="11.00" fill="#000000">original_name</text>
<polygon fill="none" stroke="#000000" points="138.5,-185.7 138.5,-207.7 247.5,-207.7 247.5,-185.7 138.5,-185.7"/>
<text text-anchor="start" x="141.0344" y="-193.4" font-family="Helvetica,sans-Serif" font-size="11.00" fill="#000000">varchar[2147483647]</text>
<polygon fill="none" stroke="#000000" points="10.5,-163.7 10.5,-185.7 138.5,-185.7 138.5,-163.7 10.5,-163.7"/>
<text text-anchor="start" x="30.5" y="-170.8" font-family="Helvetica,sans-Serif" font-size="11.00" fill="#000000">created_at</text>
<polygon fill="none" stroke="#000000" points="138.5,-163.7 138.5,-185.7 247.5,-185.7 247.5,-163.7 138.5,-163.7"/>
<text text-anchor="start" x="141.5" y="-171.4" font-family="Helvetica,sans-Serif" font-size="11.00" fill="#000000">timestamp[29,6]</text>
<polygon fill="none" stroke="#000000" points="10.5,-141.7 10.5,-163.7 138.5,-163.7 138.5,-141.7 10.5,-141.7"/>
<text text-anchor="start" x="30.5" y="-148.8" font-family="Helvetica,sans-Serif" font-size="11.00" fill="#000000">last_updated_at</text>
<polygon fill="none" stroke="#000000" points="138.5,-141.7 138.5,-163.7 247.5,-163.7 247.5,-141.7 138.5,-141.7"/>
<text text-anchor="start" x="141.5" y="-149.4" font-family="Helvetica,sans-Serif" font-size="11.00" fill="#000000">timestamp[29,6]</text>
<polygon fill="#ffffff" stroke="transparent" points="10.5,-122.7 10.5,-141.7 78.5,-141.7 78.5,-122.7 10.5,-122.7"/>
<polygon fill="none" stroke="#000000" points="10.5,-122.7 10.5,-141.7 78.5,-141.7 78.5,-122.7 10.5,-122.7"/>
<text text-anchor="start" x="13.5" y="-128.8" font-family="Helvetica,sans-Serif" font-size="11.00" fill="#000000">&lt; 0</text>
<polygon fill="#ffffff" stroke="transparent" points="78.5,-122.7 78.5,-141.7 138.5,-141.7 138.5,-122.7 78.5,-122.7"/>
<polygon fill="none" stroke="#000000" points="78.5,-122.7 78.5,-141.7 138.5,-141.7 138.5,-122.7 78.5,-122.7"/>
<text text-anchor="start" x="129.3862" y="-128.8" font-family="Helvetica,sans-Serif" font-size="11.00" fill="#000000"> &#160;</text>
<polygon fill="#ffffff" stroke="transparent" points="138.5,-122.7 138.5,-141.7 247.5,-141.7 247.5,-122.7 138.5,-122.7"/>
<polygon fill="none" stroke="#000000" points="138.5,-122.7 138.5,-141.7 247.5,-141.7 247.5,-122.7 138.5,-122.7"/>
<text text-anchor="start" x="228.9053" y="-128.8" font-family="Helvetica,sans-Serif" font-size="11.00" fill="#000000">3 &gt;</text>
<polygon fill="none" stroke="#000000" stroke-width="2" points="9,-121.7 9,-319.7 248,-319.7 248,-121.7 9,-121.7"/>
</a>
</g>
</g>
<!-- country&#45;&gt;language -->
<g id="edge3" class="edge">
<title>country:w&#45;&gt;language:e</title>
<path fill="none" stroke="#000000" d="M283.6489,-293.9813C271.5992,-290.8875 264.728,-284.7 247.5,-284.7"/>
<polygon fill="#000000" stroke="#000000" points="290.0568,-294.7486 297.5719,-299.2745 294.0284,-295.2243 298,-295.7 298,-295.7 298,-295.7 294.0284,-295.2243 298.4281,-292.1255 290.0568,-294.7486 290.0568,-294.7486"/>
<ellipse fill="none" stroke="#000000" cx="286.8795" cy="-294.3681" rx="3.2" ry="3.2"/>
</g>
<!-- country&#45;&gt;language -->
<g id="edge4" class="edge">
<title>country:w&#45;&gt;language:e</title>
<path fill="none" stroke="#000000" d="M283.6489,-275.4188C271.5992,-278.5125 264.728,-284.7 247.5,-284.7"/>
<polygon fill="#000000" stroke="#000000" points="290.0568,-274.6514 298.4281,-277.2745 294.0284,-274.1757 298,-273.7 298,-273.7 298,-273.7 294.0284,-274.1757 297.5719,-270.1255 290.0568,-274.6514 290.0568,-274.6514"/>
<ellipse fill="none" stroke="#000000" cx="286.8795" cy="-275.0319" rx="3.2" ry="3.2"/>
</g>
<!-- country&#45;&gt;language -->
<g id="edge5" class="edge">
<title>country:w&#45;&gt;language:e</title>
<path fill="none" stroke="#000000" d="M284.0755,-255.7464C271.1224,-264.5584 268.4466,-284.7 247.5,-284.7"/>
<polygon fill="#000000" stroke="#000000" points="290.3178,-253.9325 299.0046,-255.157 294.1589,-252.8162 298,-251.7 298,-251.7 298,-251.7 294.1589,-252.8162 296.9954,-248.243 290.3178,-253.9325 290.3178,-253.9325"/>
<ellipse fill="none" stroke="#000000" cx="287.2449" cy="-254.8255" rx="3.2" ry="3.2"/>
</g>
</g>
</svg>
