<?xml version="1.0" encoding="UTF-8" standalone="no"?>
<!DOCTYPE svg PUBLIC "-//W3C//DTD SVG 1.1//EN"
 "http://www.w3.org/Graphics/SVG/1.1/DTD/svg11.dtd">
<!-- Generated by graphviz version 2.40.1 (20161225.0304)
 -->
<!-- Title: twoDegreesRelationshipsDiagram Pages: 1 -->
<svg width="949pt" height="289pt"
 viewBox="0.00 0.00 949.00 288.70" xmlns="http://www.w3.org/2000/svg" xmlns:xlink="http://www.w3.org/1999/xlink">
<g id="graph0" class="graph" transform="scale(1 1) rotate(0) translate(4 284.7)">
<title>twoDegreesRelationshipsDiagram</title>
<polygon fill="#ffffff" stroke="transparent" points="-4,4 -4,-284.7 945,-284.7 945,4 -4,4"/>
<text text-anchor="middle" x="72.4936" y="-7.3" font-family="Helvetica,sans-Serif" font-size="11.00" fill="#000000">Generated by SchemaSpy</text>
<!-- airplane -->
<g id="node1" class="node">
<title>airplane</title>
<g id="a_node1"><a xlink:href="../../tables/airplane.html" xlink:title="airplane" target="_top">
<polygon fill="#ffffff" stroke="transparent" points="614,-109.7 614,-236.7 753,-236.7 753,-109.7 614,-109.7"/>
<polygon fill="#f5f5f5" stroke="transparent" points="614.5,-213.2 614.5,-236.2 753.5,-236.2 753.5,-213.2 614.5,-213.2"/>
<polygon fill="none" stroke="#000000" points="614.5,-213.2 614.5,-236.2 753.5,-236.2 753.5,-213.2 614.5,-213.2"/>
<text text-anchor="start" x="619.5" y="-221.8" font-family="Helvetica,sans-Serif" font-weight="bold" font-size="11.00" fill="#000000">airplane</text>
<text text-anchor="start" x="718.5437" y="-221.3" font-family="Helvetica,sans-Serif" font-size="11.00" fill="#000000">[table]</text>
<polygon fill="none" stroke="#000000" points="614.5,-191.2 614.5,-213.2 753.5,-213.2 753.5,-191.2 614.5,-191.2"/>
<image xlink:href="../../images/primaryKeys.png" width="11px" height="12px" preserveAspectRatio="xMinYMin meet" x="619.5" y="-208.2"/>
<text text-anchor="start" x="634.5" y="-198.3" font-family="Helvetica,sans-Serif" font-size="11.00" fill="#000000">id</text>
<polygon fill="#ffffff" stroke="transparent" points="614.5,-169.2 614.5,-191.2 753.5,-191.2 753.5,-169.2 614.5,-169.2"/>
<polygon fill="none" stroke="#000000" points="614.5,-169.2 614.5,-191.2 753.5,-191.2 753.5,-169.2 614.5,-169.2"/>
<text text-anchor="start" x="634.5" y="-176.3" font-family="Helvetica,sans-Serif" font-size="11.00" fill="#000000">name</text>
<polygon fill="none" stroke="#000000" points="614.5,-147.2 614.5,-169.2 753.5,-169.2 753.5,-147.2 614.5,-147.2"/>
<image xlink:href="../../images/foreignKeys.png" width="11px" height="12px" preserveAspectRatio="xMinYMin meet" x="619.5" y="-164.2"/>
<text text-anchor="start" x="634.5" y="-154.3" font-family="Helvetica,sans-Serif" font-size="11.00" fill="#000000">manufacturer_id</text>
<polygon fill="none" stroke="#000000" points="614.5,-128.2 614.5,-147.2 753.5,-147.2 753.5,-128.2 614.5,-128.2"/>
<text text-anchor="start" x="617.5" y="-134.3" font-family="Helvetica,sans-Serif" font-size="11.00" fill="#000000">...</text>
<polygon fill="#ffffff" stroke="transparent" points="614.5,-109.2 614.5,-128.2 677.5,-128.2 677.5,-109.2 614.5,-109.2"/>
<polygon fill="none" stroke="#000000" points="614.5,-109.2 614.5,-128.2 677.5,-128.2 677.5,-109.2 614.5,-109.2"/>
<text text-anchor="start" x="617.5" y="-115.3" font-family="Helvetica,sans-Serif" font-size="11.00" fill="#000000">&lt; 1</text>
<polygon fill="#ffffff" stroke="transparent" points="677.5,-109.2 677.5,-128.2 710.5,-128.2 710.5,-109.2 677.5,-109.2"/>
<polygon fill="none" stroke="#000000" points="677.5,-109.2 677.5,-128.2 710.5,-128.2 710.5,-109.2 677.5,-109.2"/>
<text text-anchor="start" x="701.3862" y="-115.3" font-family="Helvetica,sans-Serif" font-size="11.00" fill="#000000"> &#160;</text>
<polygon fill="#ffffff" stroke="transparent" points="710.5,-109.2 710.5,-128.2 753.5,-128.2 753.5,-109.2 710.5,-109.2"/>
<polygon fill="none" stroke="#000000" points="710.5,-109.2 710.5,-128.2 753.5,-128.2 753.5,-109.2 710.5,-109.2"/>
<text text-anchor="start" x="734.9053" y="-115.3" font-family="Helvetica,sans-Serif" font-size="11.00" fill="#000000">1 &gt;</text>
</a>
</g>
</g>
<!-- manufacturer -->
<g id="node2" class="node">
<title>manufacturer</title>
<g id="a_node2"><a xlink:href="../../tables/manufacturer.html" xlink:title="manufacturer" target="_top">
<polygon fill="#ffffff" stroke="transparent" points="324,-38.2 324,-194.2 565,-194.2 565,-38.2 324,-38.2"/>
<polygon fill="#f5f5f5" stroke="transparent" points="326.5,-169.2 326.5,-192.2 563.5,-192.2 563.5,-169.2 326.5,-169.2"/>
<polygon fill="none" stroke="#000000" points="326.5,-169.2 326.5,-192.2 563.5,-192.2 563.5,-169.2 326.5,-169.2"/>
<text text-anchor="start" x="331.5" y="-177.8" font-family="Helvetica,sans-Serif" font-weight="bold" font-size="11.00" fill="#000000">manufacturer</text>
<text text-anchor="start" x="528.5437" y="-177.3" font-family="Helvetica,sans-Serif" font-size="11.00" fill="#000000">[table]</text>
<polygon fill="none" stroke="#000000" points="326.5,-147.2 326.5,-169.2 454.5,-169.2 454.5,-147.2 326.5,-147.2"/>
<image xlink:href="../../images/primaryKeys.png" width="11px" height="12px" preserveAspectRatio="xMinYMin meet" x="331.5" y="-164.2"/>
<text text-anchor="start" x="346.5" y="-154.3" font-family="Helvetica,sans-Serif" font-size="11.00" fill="#000000">id</text>
<polygon fill="none" stroke="#000000" points="454.5,-147.2 454.5,-169.2 563.5,-169.2 563.5,-147.2 454.5,-147.2"/>
<text text-anchor="start" x="457.5" y="-154.9" font-family="Helvetica,sans-Serif" font-size="11.00" fill="#000000">serial[10]</text>
<polygon fill="#ffffff" stroke="transparent" points="326.5,-125.2 326.5,-147.2 454.5,-147.2 454.5,-125.2 326.5,-125.2"/>
<polygon fill="none" stroke="#000000" points="326.5,-125.2 326.5,-147.2 454.5,-147.2 454.5,-125.2 326.5,-125.2"/>
<text text-anchor="start" x="346.5" y="-132.3" font-family="Helvetica,sans-Serif" font-size="11.00" fill="#000000">name</text>
<polygon fill="none" stroke="#000000" points="454.5,-125.2 454.5,-147.2 563.5,-147.2 563.5,-125.2 454.5,-125.2"/>
<text text-anchor="start" x="457.0344" y="-132.9" font-family="Helvetica,sans-Serif" font-size="11.00" fill="#000000">varchar[2147483647]</text>
<polygon fill="none" stroke="#000000" points="326.5,-103.2 326.5,-125.2 454.5,-125.2 454.5,-103.2 326.5,-103.2"/>
<image xlink:href="../../images/foreignKeys.png" width="11px" height="12px" preserveAspectRatio="xMinYMin meet" x="331.5" y="-120.2"/>
<text text-anchor="start" x="346.5" y="-110.3" font-family="Helvetica,sans-Serif" font-size="11.00" fill="#000000">city_based_in</text>
<polygon fill="none" stroke="#000000" points="454.5,-103.2 454.5,-125.2 563.5,-125.2 563.5,-103.2 454.5,-103.2"/>
<text text-anchor="start" x="457.5" y="-110.9" font-family="Helvetica,sans-Serif" font-size="11.00" fill="#000000">int4[10]</text>
<polygon fill="none" stroke="#000000" points="326.5,-81.2 326.5,-103.2 454.5,-103.2 454.5,-81.2 326.5,-81.2"/>
<text text-anchor="start" x="346.5" y="-88.3" font-family="Helvetica,sans-Serif" font-size="11.00" fill="#000000">created_at</text>
<polygon fill="none" stroke="#000000" points="454.5,-81.2 454.5,-103.2 563.5,-103.2 563.5,-81.2 454.5,-81.2"/>
<text text-anchor="start" x="457.5" y="-88.9" font-family="Helvetica,sans-Serif" font-size="11.00" fill="#000000">timestamp[29,6]</text>
<polygon fill="none" stroke="#000000" points="326.5,-59.2 326.5,-81.2 454.5,-81.2 454.5,-59.2 326.5,-59.2"/>
<text text-anchor="start" x="346.5" y="-66.3" font-family="Helvetica,sans-Serif" font-size="11.00" fill="#000000">last_updated_at</text>
<polygon fill="none" stroke="#000000" points="454.5,-59.2 454.5,-81.2 563.5,-81.2 563.5,-59.2 454.5,-59.2"/>
<text text-anchor="start" x="457.5" y="-66.9" font-family="Helvetica,sans-Serif" font-size="11.00" fill="#000000">timestamp[29,6]</text>
<polygon fill="#ffffff" stroke="transparent" points="326.5,-40.2 326.5,-59.2 394.5,-59.2 394.5,-40.2 326.5,-40.2"/>
<polygon fill="none" stroke="#000000" points="326.5,-40.2 326.5,-59.2 394.5,-59.2 394.5,-40.2 326.5,-40.2"/>
<text text-anchor="start" x="329.5" y="-46.3" font-family="Helvetica,sans-Serif" font-size="11.00" fill="#000000">&lt; 1</text>
<polygon fill="#ffffff" stroke="transparent" points="394.5,-40.2 394.5,-59.2 454.5,-59.2 454.5,-40.2 394.5,-40.2"/>
<polygon fill="none" stroke="#000000" points="394.5,-40.2 394.5,-59.2 454.5,-59.2 454.5,-40.2 394.5,-40.2"/>
<text text-anchor="start" x="445.3862" y="-46.3" font-family="Helvetica,sans-Serif" font-size="11.00" fill="#000000"> &#160;</text>
<polygon fill="#ffffff" stroke="transparent" points="454.5,-40.2 454.5,-59.2 563.5,-59.2 563.5,-40.2 454.5,-40.2"/>
<polygon fill="none" stroke="#000000" points="454.5,-40.2 454.5,-59.2 563.5,-59.2 563.5,-40.2 454.5,-40.2"/>
<text text-anchor="start" x="544.9053" y="-46.3" font-family="Helvetica,sans-Serif" font-size="11.00" fill="#000000">1 &gt;</text>
<polygon fill="none" stroke="#000000" stroke-width="2" points="325,-39.2 325,-193.2 564,-193.2 564,-39.2 325,-39.2"/>
</a>
</g>
</g>
<!-- airplane&#45;&gt;manufacturer -->
<g id="edge1" class="edge">
<title>airplane:w&#45;&gt;manufacturer:e</title>
<path fill="none" stroke="#000000" d="M599.776,-158.2C587.7815,-158.2 580.3229,-158.2 563.5,-158.2"/>
<polygon fill="#000000" stroke="#000000" points="606.5,-158.2001 614.5,-161.8 610.5,-158.2 614.5,-158.2 614.5,-158.2 614.5,-158.2 610.5,-158.2 614.5,-154.6 606.5,-158.2001 606.5,-158.2001"/>
<ellipse fill="none" stroke="#000000" cx="603.3" cy="-158.2001" rx="3.2" ry="3.2"/>
</g>
<!-- city -->
<g id="node4" class="node">
<title>city</title>
<g id="a_node4"><a xlink:href="../../tables/city.html" xlink:title="city" target="_top">
<polygon fill="#ffffff" stroke="transparent" points="147,-85.7 147,-212.7 275,-212.7 275,-85.7 147,-85.7"/>
<polygon fill="#f5f5f5" stroke="transparent" points="147,-189.2 147,-212.2 275,-212.2 275,-189.2 147,-189.2"/>
<polygon fill="none" stroke="#000000" points="147,-189.2 147,-212.2 275,-212.2 275,-189.2 147,-189.2"/>
<text text-anchor="start" x="152" y="-197.8" font-family="Helvetica,sans-Serif" font-weight="bold" font-size="11.00" fill="#000000">city</text>
<text text-anchor="start" x="240.0437" y="-197.3" font-family="Helvetica,sans-Serif" font-size="11.00" fill="#000000">[table]</text>
<polygon fill="none" stroke="#000000" points="147,-167.2 147,-189.2 275,-189.2 275,-167.2 147,-167.2"/>
<image xlink:href="../../images/primaryKeys.png" width="11px" height="12px" preserveAspectRatio="xMinYMin meet" x="152" y="-184.2"/>
<text text-anchor="start" x="167" y="-174.3" font-family="Helvetica,sans-Serif" font-size="11.00" fill="#000000">id</text>
<polygon fill="#ffffff" stroke="transparent" points="147,-145.2 147,-167.2 275,-167.2 275,-145.2 147,-145.2"/>
<polygon fill="none" stroke="#000000" points="147,-145.2 147,-167.2 275,-167.2 275,-145.2 147,-145.2"/>
<text text-anchor="start" x="167" y="-152.3" font-family="Helvetica,sans-Serif" font-size="11.00" fill="#000000">name</text>
<polygon fill="#ffffff" stroke="transparent" points="147,-123.2 147,-145.2 275,-145.2 275,-123.2 147,-123.2"/>
<polygon fill="none" stroke="#000000" points="147,-123.2 147,-145.2 275,-145.2 275,-123.2 147,-123.2"/>
<image xlink:href="../../images/foreignKeys.png" width="11px" height="12px" preserveAspectRatio="xMinYMin meet" x="152" y="-140.2"/>
<text text-anchor="start" x="167" y="-130.3" font-family="Helvetica,sans-Serif" font-size="11.00" fill="#000000">country_id</text>
<polygon fill="none" stroke="#000000" points="147,-104.2 147,-123.2 275,-123.2 275,-104.2 147,-104.2"/>
<text text-anchor="start" x="150" y="-110.3" font-family="Helvetica,sans-Serif" font-size="11.00" fill="#000000">...</text>
<polygon fill="#ffffff" stroke="transparent" points="147,-85.2 147,-104.2 205,-104.2 205,-85.2 147,-85.2"/>
<polygon fill="none" stroke="#000000" points="147,-85.2 147,-104.2 205,-104.2 205,-85.2 147,-85.2"/>
<text text-anchor="start" x="150" y="-91.3" font-family="Helvetica,sans-Serif" font-size="11.00" fill="#000000">&lt; 1</text>
<polygon fill="#ffffff" stroke="transparent" points="205,-85.2 205,-104.2 235,-104.2 235,-85.2 205,-85.2"/>
<polygon fill="none" stroke="#000000" points="205,-85.2 205,-104.2 235,-104.2 235,-85.2 205,-85.2"/>
<text text-anchor="start" x="225.8862" y="-91.3" font-family="Helvetica,sans-Serif" font-size="11.00" fill="#000000"> &#160;</text>
<polygon fill="#ffffff" stroke="transparent" points="235,-85.2 235,-104.2 275,-104.2 275,-85.2 235,-85.2"/>
<polygon fill="none" stroke="#000000" points="235,-85.2 235,-104.2 275,-104.2 275,-85.2 235,-85.2"/>
<text text-anchor="start" x="256.4053" y="-91.3" font-family="Helvetica,sans-Serif" font-size="11.00" fill="#000000">2 &gt;</text>
</a>
</g>
</g>
<!-- manufacturer&#45;&gt;city -->
<g id="edge5" class="edge">
<title>manufacturer:w&#45;&gt;city:e</title>
<path fill="none" stroke="#000000" d="M312.7036,-118.8027C295.4892,-133.4773 305.5202,-178.2 275,-178.2"/>
<polygon fill="#000000" stroke="#000000" points="318.9112,-116.7318 327.6393,-117.615 322.7056,-115.4659 326.5,-114.2 326.5,-114.2 326.5,-114.2 322.7056,-115.4659 325.3607,-110.785 318.9112,-116.7318 318.9112,-116.7318"/>
<ellipse fill="none" stroke="#000000" cx="315.8756" cy="-117.7445" rx="3.2" ry="3.2"/>
</g>
<!-- airport -->
<g id="node3" class="node">
<title>airport</title>
<g id="a_node3"><a xlink:href="../../tables/airport.html" xlink:title="airport" target="_top">
<polygon fill="#ffffff" stroke="transparent" points="402,-215.7 402,-276.7 487,-276.7 487,-215.7 402,-215.7"/>
<polygon fill="#f5f5f5" stroke="transparent" points="402.5,-253.2 402.5,-276.2 487.5,-276.2 487.5,-253.2 402.5,-253.2"/>
<polygon fill="none" stroke="#000000" points="402.5,-253.2 402.5,-276.2 487.5,-276.2 487.5,-253.2 402.5,-253.2"/>
<text text-anchor="start" x="407.5" y="-261.8" font-family="Helvetica,sans-Serif" font-weight="bold" font-size="11.00" fill="#000000">airport</text>
<text text-anchor="start" x="453.0219" y="-261.3" font-family="Helvetica,sans-Serif" font-size="11.00" fill="#000000">[table]</text>
<polygon fill="none" stroke="#000000" points="402.5,-234.2 402.5,-253.2 487.5,-253.2 487.5,-234.2 402.5,-234.2"/>
<text text-anchor="start" x="405.5" y="-240.3" font-family="Helvetica,sans-Serif" font-size="11.00" fill="#000000">...</text>
<polygon fill="#ffffff" stroke="transparent" points="402.5,-215.2 402.5,-234.2 438.5,-234.2 438.5,-215.2 402.5,-215.2"/>
<polygon fill="none" stroke="#000000" points="402.5,-215.2 402.5,-234.2 438.5,-234.2 438.5,-215.2 402.5,-215.2"/>
<text text-anchor="start" x="405.5" y="-221.3" font-family="Helvetica,sans-Serif" font-size="11.00" fill="#000000">&lt; 1</text>
<polygon fill="#ffffff" stroke="transparent" points="438.5,-215.2 438.5,-234.2 458.5,-234.2 458.5,-215.2 438.5,-215.2"/>
<polygon fill="none" stroke="#000000" points="438.5,-215.2 438.5,-234.2 458.5,-234.2 458.5,-215.2 438.5,-215.2"/>
<text text-anchor="start" x="449.3862" y="-221.3" font-family="Helvetica,sans-Serif" font-size="11.00" fill="#000000"> &#160;</text>
<polygon fill="#ffffff" stroke="transparent" points="458.5,-215.2 458.5,-234.2 487.5,-234.2 487.5,-215.2 458.5,-215.2"/>
<polygon fill="none" stroke="#000000" points="458.5,-215.2 458.5,-234.2 487.5,-234.2 487.5,-215.2 458.5,-215.2"/>
<text text-anchor="start" x="468.9053" y="-221.3" font-family="Helvetica,sans-Serif" font-size="11.00" fill="#000000">3 &gt;</text>
</a>
</g>
</g>
<!-- airport&#45;&gt;city -->
<g id="edge2" class="edge">
<title>airport:w&#45;&gt;city:e</title>
<path fill="none" stroke="#000000" d="M387.8384,-242.3397C358.0581,-238.5402 348.1326,-222.6765 316,-205.2 296.833,-194.7753 296.8186,-178.2 275,-178.2"/>
<polygon fill="#000000" stroke="#000000" points="394.5137,-242.7313 402.2891,-246.7938 398.5069,-242.9657 402.5,-243.2 402.5,-243.2 402.5,-243.2 398.5069,-242.9657 402.7109,-239.6062 394.5137,-242.7313 394.5137,-242.7313"/>
<ellipse fill="none" stroke="#000000" cx="391.3192" cy="-242.5439" rx="3.2" ry="3.2"/>
</g>
<!-- country -->
<g id="node5" class="node">
<title>country</title>
<g id="a_node5"><a xlink:href="../../tables/country.html" xlink:title="country" target="_top">
<polygon fill="#ffffff" stroke="transparent" points="8,-106.7 8,-167.7 98,-167.7 98,-106.7 8,-106.7"/>
<polygon fill="#f5f5f5" stroke="transparent" points="8,-144.2 8,-167.2 98,-167.2 98,-144.2 8,-144.2"/>
<polygon fill="none" stroke="#000000" points="8,-144.2 8,-167.2 98,-167.2 98,-144.2 8,-144.2"/>
<text text-anchor="start" x="13" y="-152.8" font-family="Helvetica,sans-Serif" font-weight="bold" font-size="11.00" fill="#000000">country</text>
<text text-anchor="start" x="63.5219" y="-152.3" font-family="Helvetica,sans-Serif" font-size="11.00" fill="#000000">[table]</text>
<polygon fill="none" stroke="#000000" points="8,-125.2 8,-144.2 98,-144.2 98,-125.2 8,-125.2"/>
<text text-anchor="start" x="11" y="-131.3" font-family="Helvetica,sans-Serif" font-size="11.00" fill="#000000">...</text>
<polygon fill="#ffffff" stroke="transparent" points="8,-106.2 8,-125.2 47,-125.2 47,-106.2 8,-106.2"/>
<polygon fill="none" stroke="#000000" points="8,-106.2 8,-125.2 47,-125.2 47,-106.2 8,-106.2"/>
<text text-anchor="start" x="11" y="-112.3" font-family="Helvetica,sans-Serif" font-size="11.00" fill="#000000">&lt; 4</text>
<polygon fill="#ffffff" stroke="transparent" points="47,-106.2 47,-125.2 68,-125.2 68,-106.2 47,-106.2"/>
<polygon fill="none" stroke="#000000" points="47,-106.2 47,-125.2 68,-125.2 68,-106.2 47,-106.2"/>
<text text-anchor="start" x="58.8862" y="-112.3" font-family="Helvetica,sans-Serif" font-size="11.00" fill="#000000"> &#160;</text>
<polygon fill="#ffffff" stroke="transparent" points="68,-106.2 68,-125.2 98,-125.2 98,-106.2 68,-106.2"/>
<polygon fill="none" stroke="#000000" points="68,-106.2 68,-125.2 98,-125.2 98,-106.2 68,-106.2"/>
<text text-anchor="start" x="79.4053" y="-112.3" font-family="Helvetica,sans-Serif" font-size="11.00" fill="#000000">1 &gt;</text>
</a>
</g>
</g>
<!-- city&#45;&gt;country -->
<g id="edge3" class="edge">
<title>city:w&#45;&gt;country:e</title>
<path fill="none" stroke="#000000" d="M132.4909,-134.2C121.1774,-134.2 113.9931,-134.2 98,-134.2"/>
<polygon fill="#000000" stroke="#000000" points="139,-134.2001 147,-137.8 143,-134.2 147,-134.2 147,-134.2 147,-134.2 143,-134.2 147,-130.6 139,-134.2001 139,-134.2001"/>
<ellipse fill="none" stroke="#000000" cx="135.8" cy="-134.2001" rx="3.2" ry="3.2"/>
</g>
<!-- fleet_airplane -->
<g id="node6" class="node">
<title>fleet_airplane</title>
<g id="a_node6"><a xlink:href="../../tables/fleet_airplane.html" xlink:title="fleet_airplane" target="_top">
<polygon fill="#ffffff" stroke="transparent" points="802,-174.7 802,-235.7 933,-235.7 933,-174.7 802,-174.7"/>
<polygon fill="#f5f5f5" stroke="transparent" points="802.5,-212.2 802.5,-235.2 933.5,-235.2 933.5,-212.2 802.5,-212.2"/>
<polygon fill="none" stroke="#000000" points="802.5,-212.2 802.5,-235.2 933.5,-235.2 933.5,-212.2 802.5,-212.2"/>
<text text-anchor="start" x="807.5" y="-220.8" font-family="Helvetica,sans-Serif" font-weight="bold" font-size="11.00" fill="#000000">fleet_airplane</text>
<text text-anchor="start" x="899.0219" y="-220.3" font-family="Helvetica,sans-Serif" font-size="11.00" fill="#000000">[table]</text>
<polygon fill="none" stroke="#000000" points="802.5,-193.2 802.5,-212.2 933.5,-212.2 933.5,-193.2 802.5,-193.2"/>
<text text-anchor="start" x="805.5" y="-199.3" font-family="Helvetica,sans-Serif" font-size="11.00" fill="#000000">...</text>
<polygon fill="#ffffff" stroke="transparent" points="802.5,-174.2 802.5,-193.2 861.5,-193.2 861.5,-174.2 802.5,-174.2"/>
<polygon fill="none" stroke="#000000" points="802.5,-174.2 802.5,-193.2 861.5,-193.2 861.5,-174.2 802.5,-174.2"/>
<text text-anchor="start" x="805.5" y="-180.3" font-family="Helvetica,sans-Serif" font-size="11.00" fill="#000000">&lt; 2</text>
<polygon fill="#ffffff" stroke="transparent" points="861.5,-174.2 861.5,-193.2 892.5,-193.2 892.5,-174.2 861.5,-174.2"/>
<polygon fill="none" stroke="#000000" points="861.5,-174.2 861.5,-193.2 892.5,-193.2 892.5,-174.2 861.5,-174.2"/>
<text text-anchor="start" x="883.3862" y="-180.3" font-family="Helvetica,sans-Serif" font-size="11.00" fill="#000000"> &#160;</text>
<polygon fill="#ffffff" stroke="transparent" points="892.5,-174.2 892.5,-193.2 933.5,-193.2 933.5,-174.2 892.5,-174.2"/>
<polygon fill="none" stroke="#000000" points="892.5,-174.2 892.5,-193.2 933.5,-193.2 933.5,-174.2 892.5,-174.2"/>
<text text-anchor="start" x="914.9053" y="-180.3" font-family="Helvetica,sans-Serif" font-size="11.00" fill="#000000">1 &gt;</text>
</a>
</g>
</g>
<!-- fleet_airplane&#45;&gt;airplane -->
<g id="edge4" class="edge">
<title>fleet_airplane:w&#45;&gt;airplane:e</title>
<path fill="none" stroke="#000000" d="M787.9909,-202.2C776.6774,-202.2 769.4931,-202.2 753.5,-202.2"/>
<polygon fill="#000000" stroke="#000000" points="794.5,-202.2001 802.5,-205.8 798.5,-202.2 802.5,-202.2 802.5,-202.2 802.5,-202.2 798.5,-202.2 802.5,-198.6 794.5,-202.2001 794.5,-202.2001"/>
<ellipse fill="none" stroke="#000000" cx="791.3" cy="-202.2001" rx="3.2" ry="3.2"/>
</g>
</g>
</svg>
