<?xml version="1.0" encoding="UTF-8" standalone="no"?>
<!DOCTYPE svg PUBLIC "-//W3C//DTD SVG 1.1//EN"
 "http://www.w3.org/Graphics/SVG/1.1/DTD/svg11.dtd">
<!-- Generated by graphviz version 2.40.1 (20161225.0304)
 -->
<!-- Title: oneDegreeRelationshipsDiagram Pages: 1 -->
<svg width="630pt" height="265pt"
 viewBox="0.00 0.00 630.00 265.20" xmlns="http://www.w3.org/2000/svg" xmlns:xlink="http://www.w3.org/1999/xlink">
<g id="graph0" class="graph" transform="scale(1 1) rotate(0) translate(4 261.2)">
<title>oneDegreeRelationshipsDiagram</title>
<polygon fill="#ffffff" stroke="transparent" points="-4,4 -4,-261.2 626,-261.2 626,4 -4,4"/>
<text text-anchor="middle" x="72.4936" y="-7.3" font-family="Helvetica,sans-Serif" font-size="11.00" fill="#000000">Generated by SchemaSpy</text>
<!-- airplane -->
<g id="node1" class="node">
<title>airplane</title>
<g id="a_node1"><a xlink:href="../../tables/airplane.html" xlink:title="airplane" target="_top">
<polygon fill="#ffffff" stroke="transparent" points="475,-126.2 475,-253.2 614,-253.2 614,-126.2 475,-126.2"/>
<polygon fill="#f5f5f5" stroke="transparent" points="475.5,-229.7 475.5,-252.7 614.5,-252.7 614.5,-229.7 475.5,-229.7"/>
<polygon fill="none" stroke="#000000" points="475.5,-229.7 475.5,-252.7 614.5,-252.7 614.5,-229.7 475.5,-229.7"/>
<text text-anchor="start" x="480.5" y="-238.3" font-family="Helvetica,sans-Serif" font-weight="bold" font-size="11.00" fill="#000000">airplane</text>
<text text-anchor="start" x="579.5437" y="-237.8" font-family="Helvetica,sans-Serif" font-size="11.00" fill="#000000">[table]</text>
<polygon fill="none" stroke="#000000" points="475.5,-207.7 475.5,-229.7 614.5,-229.7 614.5,-207.7 475.5,-207.7"/>
<image xlink:href="../../images/primaryKeys.png" width="11px" height="12px" preserveAspectRatio="xMinYMin meet" x="480.5" y="-224.7"/>
<text text-anchor="start" x="495.5" y="-214.8" font-family="Helvetica,sans-Serif" font-size="11.00" fill="#000000">id</text>
<polygon fill="#ffffff" stroke="transparent" points="475.5,-185.7 475.5,-207.7 614.5,-207.7 614.5,-185.7 475.5,-185.7"/>
<polygon fill="none" stroke="#000000" points="475.5,-185.7 475.5,-207.7 614.5,-207.7 614.5,-185.7 475.5,-185.7"/>
<text text-anchor="start" x="495.5" y="-192.8" font-family="Helvetica,sans-Serif" font-size="11.00" fill="#000000">name</text>
<polygon fill="none" stroke="#000000" points="475.5,-163.7 475.5,-185.7 614.5,-185.7 614.5,-163.7 475.5,-163.7"/>
<image xlink:href="../../images/foreignKeys.png" width="11px" height="12px" preserveAspectRatio="xMinYMin meet" x="480.5" y="-180.7"/>
<text text-anchor="start" x="495.5" y="-170.8" font-family="Helvetica,sans-Serif" font-size="11.00" fill="#000000">manufacturer_id</text>
<polygon fill="none" stroke="#000000" points="475.5,-144.7 475.5,-163.7 614.5,-163.7 614.5,-144.7 475.5,-144.7"/>
<text text-anchor="start" x="478.5" y="-150.8" font-family="Helvetica,sans-Serif" font-size="11.00" fill="#000000">...</text>
<polygon fill="#ffffff" stroke="transparent" points="475.5,-125.7 475.5,-144.7 538.5,-144.7 538.5,-125.7 475.5,-125.7"/>
<polygon fill="none" stroke="#000000" points="475.5,-125.7 475.5,-144.7 538.5,-144.7 538.5,-125.7 475.5,-125.7"/>
<text text-anchor="start" x="478.5" y="-131.8" font-family="Helvetica,sans-Serif" font-size="11.00" fill="#000000">&lt; 1</text>
<polygon fill="#ffffff" stroke="transparent" points="538.5,-125.7 538.5,-144.7 571.5,-144.7 571.5,-125.7 538.5,-125.7"/>
<polygon fill="none" stroke="#000000" points="538.5,-125.7 538.5,-144.7 571.5,-144.7 571.5,-125.7 538.5,-125.7"/>
<text text-anchor="start" x="562.3862" y="-131.8" font-family="Helvetica,sans-Serif" font-size="11.00" fill="#000000"> &#160;</text>
<polygon fill="#ffffff" stroke="transparent" points="571.5,-125.7 571.5,-144.7 614.5,-144.7 614.5,-125.7 571.5,-125.7"/>
<polygon fill="none" stroke="#000000" points="571.5,-125.7 571.5,-144.7 614.5,-144.7 614.5,-125.7 571.5,-125.7"/>
<text text-anchor="start" x="595.9053" y="-131.8" font-family="Helvetica,sans-Serif" font-size="11.00" fill="#000000">1 &gt;</text>
</a>
</g>
</g>
<!-- manufacturer -->
<g id="node2" class="node">
<title>manufacturer</title>
<g id="a_node2"><a xlink:href="../../tables/manufacturer.html" xlink:title="manufacturer" target="_top">
<polygon fill="#ffffff" stroke="transparent" points="185,-54.7 185,-210.7 426,-210.7 426,-54.7 185,-54.7"/>
<polygon fill="#f5f5f5" stroke="transparent" points="187.5,-185.7 187.5,-208.7 424.5,-208.7 424.5,-185.7 187.5,-185.7"/>
<polygon fill="none" stroke="#000000" points="187.5,-185.7 187.5,-208.7 424.5,-208.7 424.5,-185.7 187.5,-185.7"/>
<text text-anchor="start" x="192.5" y="-194.3" font-family="Helvetica,sans-Serif" font-weight="bold" font-size="11.00" fill="#000000">manufacturer</text>
<text text-anchor="start" x="389.5437" y="-193.8" font-family="Helvetica,sans-Serif" font-size="11.00" fill="#000000">[table]</text>
<polygon fill="none" stroke="#000000" points="187.5,-163.7 187.5,-185.7 315.5,-185.7 315.5,-163.7 187.5,-163.7"/>
<image xlink:href="../../images/primaryKeys.png" width="11px" height="12px" preserveAspectRatio="xMinYMin meet" x="192.5" y="-180.7"/>
<text text-anchor="start" x="207.5" y="-170.8" font-family="Helvetica,sans-Serif" font-size="11.00" fill="#000000">id</text>
<polygon fill="none" stroke="#000000" points="315.5,-163.7 315.5,-185.7 424.5,-185.7 424.5,-163.7 315.5,-163.7"/>
<text text-anchor="start" x="318.5" y="-171.4" font-family="Helvetica,sans-Serif" font-size="11.00" fill="#000000">serial[10]</text>
<polygon fill="#ffffff" stroke="transparent" points="187.5,-141.7 187.5,-163.7 315.5,-163.7 315.5,-141.7 187.5,-141.7"/>
<polygon fill="none" stroke="#000000" points="187.5,-141.7 187.5,-163.7 315.5,-163.7 315.5,-141.7 187.5,-141.7"/>
<text text-anchor="start" x="207.5" y="-148.8" font-family="Helvetica,sans-Serif" font-size="11.00" fill="#000000">name</text>
<polygon fill="none" stroke="#000000" points="315.5,-141.7 315.5,-163.7 424.5,-163.7 424.5,-141.7 315.5,-141.7"/>
<text text-anchor="start" x="318.0344" y="-149.4" font-family="Helvetica,sans-Serif" font-size="11.00" fill="#000000">varchar[2147483647]</text>
<polygon fill="none" stroke="#000000" points="187.5,-119.7 187.5,-141.7 315.5,-141.7 315.5,-119.7 187.5,-119.7"/>
<image xlink:href="../../images/foreignKeys.png" width="11px" height="12px" preserveAspectRatio="xMinYMin meet" x="192.5" y="-136.7"/>
<text text-anchor="start" x="207.5" y="-126.8" font-family="Helvetica,sans-Serif" font-size="11.00" fill="#000000">city_based_in</text>
<polygon fill="none" stroke="#000000" points="315.5,-119.7 315.5,-141.7 424.5,-141.7 424.5,-119.7 315.5,-119.7"/>
<text text-anchor="start" x="318.5" y="-127.4" font-family="Helvetica,sans-Serif" font-size="11.00" fill="#000000">int4[10]</text>
<polygon fill="none" stroke="#000000" points="187.5,-97.7 187.5,-119.7 315.5,-119.7 315.5,-97.7 187.5,-97.7"/>
<text text-anchor="start" x="207.5" y="-104.8" font-family="Helvetica,sans-Serif" font-size="11.00" fill="#000000">created_at</text>
<polygon fill="none" stroke="#000000" points="315.5,-97.7 315.5,-119.7 424.5,-119.7 424.5,-97.7 315.5,-97.7"/>
<text text-anchor="start" x="318.5" y="-105.4" font-family="Helvetica,sans-Serif" font-size="11.00" fill="#000000">timestamp[29,6]</text>
<polygon fill="none" stroke="#000000" points="187.5,-75.7 187.5,-97.7 315.5,-97.7 315.5,-75.7 187.5,-75.7"/>
<text text-anchor="start" x="207.5" y="-82.8" font-family="Helvetica,sans-Serif" font-size="11.00" fill="#000000">last_updated_at</text>
<polygon fill="none" stroke="#000000" points="315.5,-75.7 315.5,-97.7 424.5,-97.7 424.5,-75.7 315.5,-75.7"/>
<text text-anchor="start" x="318.5" y="-83.4" font-family="Helvetica,sans-Serif" font-size="11.00" fill="#000000">timestamp[29,6]</text>
<polygon fill="#ffffff" stroke="transparent" points="187.5,-56.7 187.5,-75.7 255.5,-75.7 255.5,-56.7 187.5,-56.7"/>
<polygon fill="none" stroke="#000000" points="187.5,-56.7 187.5,-75.7 255.5,-75.7 255.5,-56.7 187.5,-56.7"/>
<text text-anchor="start" x="190.5" y="-62.8" font-family="Helvetica,sans-Serif" font-size="11.00" fill="#000000">&lt; 1</text>
<polygon fill="#ffffff" stroke="transparent" points="255.5,-56.7 255.5,-75.7 315.5,-75.7 315.5,-56.7 255.5,-56.7"/>
<polygon fill="none" stroke="#000000" points="255.5,-56.7 255.5,-75.7 315.5,-75.7 315.5,-56.7 255.5,-56.7"/>
<text text-anchor="start" x="306.3862" y="-62.8" font-family="Helvetica,sans-Serif" font-size="11.00" fill="#000000"> &#160;</text>
<polygon fill="#ffffff" stroke="transparent" points="315.5,-56.7 315.5,-75.7 424.5,-75.7 424.5,-56.7 315.5,-56.7"/>
<polygon fill="none" stroke="#000000" points="315.5,-56.7 315.5,-75.7 424.5,-75.7 424.5,-56.7 315.5,-56.7"/>
<text text-anchor="start" x="405.9053" y="-62.8" font-family="Helvetica,sans-Serif" font-size="11.00" fill="#000000">1 &gt;</text>
<polygon fill="none" stroke="#000000" stroke-width="2" points="186,-55.7 186,-209.7 425,-209.7 425,-55.7 186,-55.7"/>
</a>
</g>
</g>
<!-- airplane&#45;&gt;manufacturer -->
<g id="edge1" class="edge">
<title>airplane:w&#45;&gt;manufacturer:e</title>
<path fill="none" stroke="#000000" d="M460.776,-174.7C448.7815,-174.7 441.3229,-174.7 424.5,-174.7"/>
<polygon fill="#000000" stroke="#000000" points="467.5,-174.7001 475.5,-178.3 471.5,-174.7 475.5,-174.7 475.5,-174.7 475.5,-174.7 471.5,-174.7 475.5,-171.1 467.5,-174.7001 467.5,-174.7001"/>
<ellipse fill="none" stroke="#000000" cx="464.3" cy="-174.7001" rx="3.2" ry="3.2"/>
</g>
<!-- city -->
<g id="node3" class="node">
<title>city</title>
<g id="a_node3"><a xlink:href="../../tables/city.html" xlink:title="city" target="_top">
<polygon fill="#ffffff" stroke="transparent" points="8,-38.2 8,-165.2 136,-165.2 136,-38.2 8,-38.2"/>
<polygon fill="#f5f5f5" stroke="transparent" points="8,-141.7 8,-164.7 136,-164.7 136,-141.7 8,-141.7"/>
<polygon fill="none" stroke="#000000" points="8,-141.7 8,-164.7 136,-164.7 136,-141.7 8,-141.7"/>
<text text-anchor="start" x="13" y="-150.3" font-family="Helvetica,sans-Serif" font-weight="bold" font-size="11.00" fill="#000000">city</text>
<text text-anchor="start" x="101.0437" y="-149.8" font-family="Helvetica,sans-Serif" font-size="11.00" fill="#000000">[table]</text>
<polygon fill="none" stroke="#000000" points="8,-119.7 8,-141.7 136,-141.7 136,-119.7 8,-119.7"/>
<image xlink:href="../../images/primaryKeys.png" width="11px" height="12px" preserveAspectRatio="xMinYMin meet" x="13" y="-136.7"/>
<text text-anchor="start" x="28" y="-126.8" font-family="Helvetica,sans-Serif" font-size="11.00" fill="#000000">id</text>
<polygon fill="#ffffff" stroke="transparent" points="8,-97.7 8,-119.7 136,-119.7 136,-97.7 8,-97.7"/>
<polygon fill="none" stroke="#000000" points="8,-97.7 8,-119.7 136,-119.7 136,-97.7 8,-97.7"/>
<text text-anchor="start" x="28" y="-104.8" font-family="Helvetica,sans-Serif" font-size="11.00" fill="#000000">name</text>
<polygon fill="#ffffff" stroke="transparent" points="8,-75.7 8,-97.7 136,-97.7 136,-75.7 8,-75.7"/>
<polygon fill="none" stroke="#000000" points="8,-75.7 8,-97.7 136,-97.7 136,-75.7 8,-75.7"/>
<image xlink:href="../../images/foreignKeys.png" width="11px" height="12px" preserveAspectRatio="xMinYMin meet" x="13" y="-92.7"/>
<text text-anchor="start" x="28" y="-82.8" font-family="Helvetica,sans-Serif" font-size="11.00" fill="#000000">country_id</text>
<polygon fill="none" stroke="#000000" points="8,-56.7 8,-75.7 136,-75.7 136,-56.7 8,-56.7"/>
<text text-anchor="start" x="11" y="-62.8" font-family="Helvetica,sans-Serif" font-size="11.00" fill="#000000">...</text>
<polygon fill="#ffffff" stroke="transparent" points="8,-37.7 8,-56.7 66,-56.7 66,-37.7 8,-37.7"/>
<polygon fill="none" stroke="#000000" points="8,-37.7 8,-56.7 66,-56.7 66,-37.7 8,-37.7"/>
<text text-anchor="start" x="11" y="-43.8" font-family="Helvetica,sans-Serif" font-size="11.00" fill="#000000">&lt; 1</text>
<polygon fill="#ffffff" stroke="transparent" points="66,-37.7 66,-56.7 96,-56.7 96,-37.7 66,-37.7"/>
<polygon fill="none" stroke="#000000" points="66,-37.7 66,-56.7 96,-56.7 96,-37.7 66,-37.7"/>
<text text-anchor="start" x="86.8862" y="-43.8" font-family="Helvetica,sans-Serif" font-size="11.00" fill="#000000"> &#160;</text>
<polygon fill="#ffffff" stroke="transparent" points="96,-37.7 96,-56.7 136,-56.7 136,-37.7 96,-37.7"/>
<polygon fill="none" stroke="#000000" points="96,-37.7 96,-56.7 136,-56.7 136,-37.7 96,-37.7"/>
<text text-anchor="start" x="117.4053" y="-43.8" font-family="Helvetica,sans-Serif" font-size="11.00" fill="#000000">2 &gt;</text>
</a>
</g>
</g>
<!-- manufacturer&#45;&gt;city -->
<g id="edge2" class="edge">
<title>manufacturer:w&#45;&gt;city:e</title>
<path fill="none" stroke="#000000" d="M173.0156,-130.7C160.6771,-130.7 153.1667,-130.7 136,-130.7"/>
<polygon fill="#000000" stroke="#000000" points="179.5,-130.7001 187.5,-134.3 183.5,-130.7 187.5,-130.7 187.5,-130.7 187.5,-130.7 183.5,-130.7 187.5,-127.1 179.5,-130.7001 179.5,-130.7001"/>
<ellipse fill="none" stroke="#000000" cx="176.3" cy="-130.7001" rx="3.2" ry="3.2"/>
</g>
</g>
</svg>
